<svg width="185" height="58" viewBox="0 0 185 58" fill="none" xmlns="http://www.w3.org/2000/svg">
<path fill-rule="evenodd" clip-rule="evenodd" d="M95.7864 20.7513C95.7864 21.199 95.6537 21.6367 95.4049 22.0091C95.1561 22.3814 94.8025 22.6716 94.3888 22.8429C93.9751 23.0143 93.5199 23.0591 93.0808 22.9717C92.6416 22.8844 92.2382 22.6688 91.9216 22.3521C91.6049 22.0355 91.3893 21.6321 91.3019 21.1929C91.2146 20.7538 91.2594 20.2985 91.4308 19.8849C91.6021 19.4712 91.8923 19.1176 92.2646 18.8688C92.6369 18.62 93.0747 18.4873 93.5224 18.4873C93.82 18.4863 94.1148 18.5443 94.3899 18.6577C94.665 18.7712 94.915 18.9379 95.1254 19.1483C95.3358 19.3587 95.5025 19.6087 95.616 19.8838C95.7294 20.1589 95.7874 20.4537 95.7864 20.7513ZM86.4464 25.3013V25.8613C86.0192 25.3989 85.4967 25.0348 84.9151 24.794C84.3334 24.5532 83.7065 24.4413 83.0774 24.4663C82.1761 24.4565 81.2821 24.6296 80.4495 24.975C79.6169 25.3203 78.8629 25.8309 78.233 26.4758C77.6032 27.1206 77.1106 27.8865 76.785 28.727C76.4593 29.5676 76.3074 30.4654 76.3384 31.3663C76.3065 32.2671 76.4575 33.1651 76.7822 34.006C77.107 34.8469 77.5988 35.6132 78.228 36.2588C78.8572 36.9043 79.6107 37.4156 80.443 37.7619C81.2752 38.1081 82.1691 38.2821 83.0704 38.2733C83.7031 38.3023 84.3343 38.1891 84.9174 37.9417C85.5005 37.6944 86.0206 37.3194 86.4394 36.8443V37.4373C86.4385 37.5012 86.4504 37.5647 86.4744 37.624C86.4985 37.6832 86.5342 37.7371 86.5794 37.7823C86.6246 37.8275 86.6785 37.8632 86.7377 37.8873C86.797 37.9113 86.8605 37.9232 86.9244 37.9223H89.7484V24.7933H86.9484C86.8209 24.7968 86.6996 24.849 86.6094 24.9392C86.5192 25.0294 86.467 25.1507 86.4634 25.2783L86.4464 25.3013ZM86.4464 33.6973C86.1231 34.1427 85.6983 34.5046 85.2072 34.7531C84.7161 35.0016 84.1728 35.1295 83.6224 35.1263C81.3924 35.1263 79.6874 33.7313 79.6874 31.3663C79.6874 29.0013 81.3924 27.6063 83.6224 27.6063C84.1715 27.6104 84.7122 27.7415 85.2021 27.9895C85.692 28.2374 86.1179 28.5953 86.4464 29.0353V33.7053V33.6973ZM91.8464 24.8153H95.2164V37.9153H91.8464V24.7933V24.8153ZM141.813 24.4653C141.184 24.4403 140.557 24.5522 139.976 24.793C139.394 25.0338 138.872 25.3979 138.444 25.8603V18.5083H135.074V37.9133H137.897C138.025 37.9097 138.146 37.8575 138.236 37.7673C138.327 37.6771 138.379 37.5558 138.382 37.4283V36.8353C138.804 37.3049 139.324 37.6764 139.905 37.9233C140.486 38.1702 141.114 38.2866 141.744 38.2642C142.645 38.2712 143.538 38.0962 144.369 37.7498C145.2 37.4034 145.953 36.8928 146.582 36.2485C147.212 35.6042 147.704 34.8395 148.031 34.0003C148.358 33.161 148.512 32.2644 148.483 31.3643C148.512 30.4639 148.359 29.5669 148.033 28.7273C147.706 27.8876 147.214 27.1226 146.584 26.4781C145.955 25.8337 145.202 25.3231 144.37 24.977C143.538 24.6309 142.645 24.4565 141.744 24.4643L141.813 24.4653ZM141.244 35.0933C140.693 35.101 140.148 34.9751 139.657 34.7262C139.165 34.4774 138.741 34.113 138.42 33.6643V28.9933C138.76 28.5651 139.188 28.2157 139.676 27.969C140.163 27.7223 140.698 27.5842 141.244 27.5643C143.474 27.5643 145.179 28.9593 145.179 31.3243C145.179 33.6893 143.474 35.0843 141.244 35.0843V35.0933ZM133.366 30.1473V37.9503H129.996V30.5373C129.996 28.3743 129.322 27.5053 127.416 27.5053C126.903 27.5231 126.399 27.6466 125.935 27.8681C125.471 28.0895 125.058 28.4041 124.721 28.7923V37.9163H121.351V24.7933H123.999C124.127 24.7968 124.248 24.849 124.338 24.9392C124.429 25.0294 124.481 25.1507 124.484 25.2783V25.8383C124.949 25.3753 125.505 25.0126 126.115 24.7726C126.726 24.5327 127.38 24.4206 128.035 24.4433C129.368 24.394 130.672 24.8404 131.694 25.6963C132.88 26.6733 133.331 27.9263 133.331 30.1233L133.366 30.1473ZM113.266 24.4673C112.637 24.4423 112.01 24.5542 111.429 24.795C110.847 25.0358 110.325 25.3999 109.897 25.8623V18.5103H106.527V37.9133H109.351C109.479 37.9097 109.6 37.8575 109.69 37.7673C109.781 37.6771 109.833 37.5558 109.836 37.4283V36.8353C110.259 37.3059 110.78 37.6778 111.362 37.9248C111.944 38.1717 112.573 38.2876 113.205 38.2642C114.106 38.2712 114.999 38.0962 115.83 37.7498C116.661 37.4034 117.414 36.8928 118.043 36.2485C118.673 35.6042 119.165 34.8395 119.492 34.0003C119.819 33.161 119.973 32.2644 119.944 31.3643C119.979 30.4624 119.83 29.5629 119.506 28.7206C119.182 27.8783 118.689 27.1109 118.059 26.4653C117.428 25.8196 116.672 25.3092 115.838 24.9651C115.004 24.6211 114.108 24.4507 113.205 24.4643L113.266 24.4673ZM112.704 35.0933C112.153 35.101 111.608 34.9751 111.117 34.7262C110.625 34.4774 110.201 34.113 109.88 33.6643V28.9933C110.22 28.5651 110.648 28.2157 111.136 27.969C111.623 27.7223 112.158 27.5842 112.704 27.5643C114.934 27.5643 116.639 28.9593 116.639 31.3243C116.639 33.6893 114.934 35.0843 112.704 35.0843V35.0933ZM103.624 24.4633C104.142 24.4468 104.66 24.5058 105.16 24.6383V27.7383C105.16 27.7383 102.36 26.8153 100.632 28.7823V37.9473H97.2624V24.7933H100.086C100.214 24.7968 100.335 24.849 100.425 24.9392C100.516 25.0294 100.568 25.1507 100.571 25.2783V25.8383C101.37 25.0081 102.453 24.51 103.603 24.4433L103.624 24.4633ZM68.8844 36.7283L68.3584 35.4753L67.5564 33.6952L67.5224 33.6613C65.0853 28.3502 62.5192 23.0993 59.8264 17.9133L59.7184 17.7133L58.8884 16.0433C58.5452 15.3595 58.1248 14.7173 57.6354 14.1293C57.103 13.4582 56.4243 12.9176 55.6512 12.5487C54.8781 12.1797 54.031 11.9922 53.1744 12.0003C52.3237 12.0031 51.4838 12.1914 50.7133 12.5522C49.9428 12.913 49.2603 13.4376 48.7134 14.0893C48.2359 14.6859 47.8163 15.3269 47.4604 16.0033L46.5174 17.8493C43.8224 23.0793 41.2204 28.3692 38.8154 33.5972L38.7814 33.6643C38.5814 34.2373 38.2964 34.8243 38.0134 35.4503C37.8381 35.8323 37.6628 36.2499 37.4874 36.7033C37.0429 37.9036 36.8993 39.1946 37.0694 40.4633C37.257 41.7373 37.7731 42.9405 38.5671 43.9544C39.3611 44.9683 40.4055 45.7578 41.5974 46.2453C42.4912 46.621 43.452 46.8111 44.4214 46.8042C44.7235 46.7992 45.025 46.7768 45.3244 46.7373C46.5538 46.5805 47.7388 46.1771 48.8084 45.5513C50.4331 44.5823 51.8914 43.3583 53.1274 41.9263C54.3712 43.3504 55.8282 44.5733 57.4464 45.5513C58.516 46.1773 59.7011 46.5807 60.9304 46.7373C61.2299 46.7768 61.5314 46.7991 61.8334 46.8042C62.8032 46.8144 63.7646 46.6241 64.6574 46.2453C65.8494 45.7578 66.8938 44.9683 67.6878 43.9544C68.4818 42.9405 68.9979 41.7373 69.1854 40.4633C69.4421 39.2167 69.332 37.9225 68.8684 36.7373L68.8844 36.7283ZM53.1764 38.5413C51.2964 36.1693 50.0764 33.9453 49.6584 32.0583C49.4877 31.3639 49.4511 30.6433 49.5504 29.9353C49.6194 29.4108 49.8109 28.9099 50.1094 28.4733C50.4586 27.9888 50.9198 27.5961 51.4538 27.3286C51.9877 27.0611 52.5784 26.9269 53.1754 26.9373C53.7739 26.9142 54.3685 27.0423 54.9043 27.3097C55.4402 27.5771 55.9 27.9752 56.2414 28.4673C56.54 28.9039 56.7315 29.4048 56.8004 29.9293C56.9003 30.6373 56.8637 31.358 56.6924 32.0523C56.2744 33.8983 55.0554 36.0952 53.1744 38.5352L53.1764 38.5413ZM67.0784 40.1783C66.9474 41.0702 66.5856 41.9125 66.0289 42.6217C65.4722 43.3308 64.7398 43.8822 63.9044 44.2212C63.0713 44.5736 62.1615 44.7059 61.2624 44.6053C60.3271 44.4895 59.4256 44.1821 58.6144 43.7022C57.1192 42.7995 55.7791 41.662 54.6454 40.3333C56.9434 37.5093 58.3384 34.9333 58.8634 32.6313C59.0901 31.6601 59.1493 30.6573 59.0384 29.6663C58.909 28.814 58.5865 28.0027 58.0954 27.2943C57.5433 26.5062 56.8058 25.8661 55.9481 25.4301C55.0903 24.9942 54.1385 24.7758 53.1764 24.7943C52.2193 24.782 51.2733 25.0004 50.4184 25.4308C49.5634 25.8612 48.8247 26.4911 48.2644 27.2673C47.7734 27.9757 47.4509 28.787 47.3214 29.6393C47.1742 30.6291 47.2337 31.6386 47.4964 32.6042C48.0224 34.9023 49.4504 37.5163 51.7144 40.3403C50.5888 41.6769 49.2472 42.8157 47.7454 43.7093C46.9343 44.1995 46.0302 44.5162 45.0904 44.6392C44.1925 44.739 43.2837 44.6188 42.4424 44.2892C41.607 43.9502 40.8747 43.3988 40.318 42.6897C39.7613 41.9805 39.3995 41.1382 39.2684 40.2463C39.1583 39.3355 39.267 38.4116 39.5854 37.5513C39.6934 37.2013 39.8614 36.8773 40.0354 36.4393C40.2784 35.8793 40.5614 35.2873 40.8374 34.6943L40.8714 34.6273C43.2774 29.4273 45.8514 24.1423 48.5414 18.9803L48.6414 18.7303L49.4774 17.1263C49.7487 16.5733 50.0858 16.0552 50.4814 15.5833C50.8249 15.1796 51.252 14.8555 51.7331 14.6331C52.2143 14.4108 52.7379 14.2957 53.2679 14.2957C53.7979 14.2957 54.3216 14.4108 54.8027 14.6331C55.2839 14.8555 55.7109 15.1796 56.0544 15.5833C56.4302 16.0541 56.7491 16.5676 57.0044 17.1133L57.8404 18.7173L57.9404 18.9173C60.5884 24.1133 63.1764 29.4023 65.5754 34.5972V34.6313C65.8514 35.1912 66.1014 35.8173 66.3774 36.3763C66.5524 36.7943 66.7274 37.1443 66.8274 37.4883C67.1167 38.3555 67.1999 39.2782 67.0704 40.1833L67.0784 40.1783Z" fill="white"/>
</svg>
