<svg width="185" height="58" viewBox="0 0 185 58" fill="none" xmlns="http://www.w3.org/2000/svg">
<path d="M134.634 26.3893C135.884 26.3893 137.001 27.4383 137.001 28.9989C137.001 29.6641 136.681 30.0222 135.963 30.0222H131.788C132.054 27.7964 133.171 26.3893 134.634 26.3893ZM140.91 34.3459C140.537 34.3459 140.245 34.4739 139.74 34.8832C138.649 35.7786 137.559 36.0857 136.256 36.0857C133.676 36.0857 132.161 34.7809 131.815 32.3248H139.819C141.309 32.3248 142 31.5573 142 30.099C142 26.3382 139.075 23.7798 134.767 23.7798C129.794 23.7798 126.549 27.1568 126.549 32.0945C126.549 37.0323 129.794 40 134.82 40C139.846 40 141.867 36.8276 141.867 35.3949C141.867 34.7809 141.495 34.3715 140.91 34.3715M119.05 28.3849C119.05 27.6429 118.891 27.2592 118.465 26.9778C117.694 26.4661 117.508 26.287 117.508 25.8521C117.508 24.6752 121.125 23.8821 122.587 23.8821C123.837 23.8821 124.582 24.4449 124.582 25.5962V34.8065C124.582 35.7531 124.794 36.2647 125.3 36.5973C126.071 37.0834 126.23 37.3393 126.23 37.7742C126.23 38.9766 122.321 39.8465 120.992 39.8465C119.954 39.8465 119.502 39.2836 119.556 38.1324L119.635 37.1346H119.476C118.359 39.079 116.684 39.9744 114.662 39.9744C111.152 39.9744 109.424 38.0556 109.424 34.0901V27.8476C109.424 27.3103 109.317 27.0545 109.051 26.901C108.227 26.3637 108.014 26.1335 108.014 25.7241C108.014 24.6496 111.79 23.8821 113.173 23.8821C114.609 23.8821 114.928 24.4961 114.928 25.9032V33.5017C114.928 35.139 115.646 36.0857 116.896 36.0857C118.465 36.0857 119.077 34.7809 119.077 33.2458V28.3849H119.05ZM104.531 23.8821C102.935 23.8821 101.446 24.8287 100.781 26.6707H100.595L100.701 25.5195C100.808 24.4705 100.568 23.8821 99.3183 23.8821C97.8557 23.8821 93.8668 24.7519 93.8668 25.9544C93.8668 26.3893 94.0263 26.6452 94.7975 27.1313C95.356 27.4894 95.5953 28.0011 95.5953 28.9221V36.3671C95.5953 36.9043 95.4358 37.1602 94.7709 37.6974C94.3986 37.9789 94.2125 38.3115 94.2125 38.6185C94.2125 39.2581 94.7709 39.6418 95.7815 39.6418H101.632C102.616 39.6418 103.201 39.2581 103.201 38.6185C103.201 38.3115 103.041 38.0045 102.563 37.723C101.472 37.0578 101.127 36.8532 101.127 36.1368V29.6897C101.127 28.3849 101.499 27.8988 102.164 27.8988C103.015 27.8988 103.281 28.8966 104.85 28.8966C106.286 28.8966 107.296 27.9499 107.296 26.4405C107.296 24.931 106.179 23.8821 104.584 23.8821M91.3138 33.0156C90.064 33.0156 89.1598 33.8343 89.1598 34.9088C89.1598 35.5228 89.4257 35.7786 89.4257 36.3415C89.4257 36.9555 88.9737 37.3649 88.3088 37.3649C87.3781 37.3649 86.9526 36.7508 86.9526 35.5484V26.9522H91.7127C92.4839 26.9522 92.8296 26.5684 92.8296 25.673C92.8296 24.7775 92.4573 24.3938 91.7127 24.3938H86.9526V20.9143C86.9526 20.1212 86.5803 19.7119 85.8623 19.7119C85.1975 19.7119 84.772 20.0701 84.3731 20.8376L83.2828 23.0122C82.8839 23.8053 81.9797 24.3426 81.1022 24.4705L80.6501 24.5217C79.8523 24.624 79.5332 24.9566 79.5332 25.7241C79.5332 26.5428 79.9055 26.9266 80.6501 26.9266H81.4745V34.8576C81.4745 38.0812 83.6285 39.9744 87.6174 39.9744C91.6064 39.9744 93.4945 38.1835 93.4945 35.2414C93.4945 33.9366 92.5903 33.0156 91.367 33.0156M72.486 39.6674C71.6617 39.6674 71.1564 39.2581 71.1564 38.644C71.1564 38.337 71.3691 38.0045 71.7149 37.723C72.3797 37.1858 72.5392 36.9299 72.5392 36.3927V21.9889C72.5392 21.0679 72.2733 20.5818 71.6085 20.1724C70.8373 19.6607 70.6511 19.4816 70.6511 19.0467C70.6511 17.8699 74.6135 17 76.0761 17C77.326 17 78.0706 17.5628 78.0706 18.7141V36.3671C78.0706 36.9043 78.2301 37.1602 78.8949 37.6974C79.2672 37.9789 79.4534 38.3115 79.4534 38.6185C79.4534 39.2325 78.9481 39.6418 78.1237 39.6418H72.486V39.6674ZM63.3913 39.6674C62.5669 39.6674 62.0616 39.2581 62.0616 38.644C62.0616 38.337 62.2744 38.0045 62.6201 37.723C63.2849 37.1858 63.4444 36.9299 63.4444 36.3927V21.9889C63.4444 21.0679 63.1785 20.5818 62.5137 20.1724C61.7425 19.6607 61.5563 19.4816 61.5563 19.0467C61.5563 17.8699 65.5187 17 66.9813 17C68.2312 17 68.9758 17.5628 68.9758 18.7141V36.3671C68.9758 36.9043 69.1353 37.1602 69.8002 37.6974C70.1725 37.9789 70.3586 38.3115 70.3586 38.6185C70.3586 39.2325 69.8533 39.6418 69.029 39.6418H63.3913V39.6674ZM49.3502 24.8543C49.4831 24.4705 49.6161 24.2914 49.882 24.2914C50.148 24.2914 50.2809 24.4705 50.4139 24.8543L52.4616 31.2759H47.2759L49.3236 24.8543H49.3502ZM60.7054 37.6463C60.3065 37.2625 60.1469 36.9555 59.8544 36.0601L54.456 19.6607C54.0837 18.5095 53.3657 17.9722 52.2222 17.9722C50.5735 17.9722 46.3452 18.842 46.3452 20.198C46.3452 20.5562 46.4781 20.7353 47.0366 21.1446C47.595 21.5539 47.6748 21.8354 47.4887 22.3471L43.287 34.6529C42.8881 35.8042 42.569 36.5973 41.6914 37.3649C41.2659 37.7486 41 38.1324 41 38.6185C41 39.2581 41.5053 39.6674 42.3296 39.6674H45.8931C46.7175 39.6674 47.2227 39.2581 47.2227 38.6185C47.2227 38.2347 47.0632 37.9277 46.4516 37.3393C45.7601 36.6741 45.6804 36.1624 45.9995 35.267L46.3984 33.9878H53.3391L54.0039 36.0601C54.1901 36.7252 53.9774 37.1858 53.3657 37.6463C52.9934 37.9277 52.8073 38.2603 52.8073 38.5929C52.8073 39.2325 53.3125 39.6418 54.1369 39.6418H59.9608C60.7852 39.6418 61.2904 39.2325 61.2904 38.5929C61.2904 38.2347 61.0511 37.9533 60.732 37.6463" fill="white"/>
</svg>
