<svg width="185" height="58" viewBox="0 0 185 58" fill="none" xmlns="http://www.w3.org/2000/svg">
<path fill-rule="evenodd" clip-rule="evenodd" d="M103.319 37.1637C97.8669 41.19 89.9385 43.3399 83.1212 43.3399C73.5627 43.3399 64.9565 39.8053 58.4466 33.9243C57.9352 33.4618 58.393 32.8319 59.0069 33.191C66.0329 37.2803 74.7199 39.7385 83.6928 39.7385C89.7448 39.7385 96.4023 38.4864 102.524 35.888C103.449 35.4951 104.222 36.4934 103.317 37.1646M105.59 34.5663C104.895 33.6733 100.984 34.1452 99.215 34.3539C98.6791 34.4197 98.5974 33.9525 99.0796 33.6169C102.201 31.419 107.324 32.0536 107.923 32.7896C108.522 33.5257 107.768 38.665 104.834 41.1166C104.382 41.4927 103.954 41.2924 104.154 40.7933C104.812 39.1482 106.29 35.4622 105.59 34.5663Z" fill="white"/>
<path fill-rule="evenodd" clip-rule="evenodd" d="M99.3381 18.1031V15.9673C99.3361 15.8958 99.3488 15.8246 99.3753 15.7582C99.4017 15.6917 99.4415 15.6314 99.4921 15.5808C99.5427 15.5302 99.603 15.4904 99.6695 15.464C99.7359 15.4375 99.8071 15.4248 99.8786 15.4268H109.441C109.747 15.4268 109.994 15.6477 109.994 15.9673V17.7957C109.99 18.1022 109.73 18.5036 109.274 19.1381L104.319 26.213C106.162 26.1679 108.104 26.4424 109.774 27.3833C110.15 27.5958 110.244 27.907 110.281 28.2144V30.494C110.281 30.8042 109.937 31.169 109.576 30.9809C106.634 29.4393 102.726 29.27 99.4734 30.9969C99.1416 31.1774 98.7938 30.8164 98.7938 30.5062V28.3413C98.7938 27.9934 98.7975 27.4012 99.1454 26.872L104.886 18.6389H99.8993C99.5928 18.6389 99.3465 18.4227 99.3465 18.1031M64.4535 31.4312H61.545C61.2667 31.4105 61.0468 31.2019 61.0251 30.9358V16.004C61.0251 15.705 61.2752 15.4681 61.5854 15.4681H64.2984C64.5804 15.4804 64.806 15.6975 64.8267 15.9664V17.9179H64.8803C65.5882 16.0312 66.9184 15.1513 68.7101 15.1513C70.531 15.1513 71.6685 16.0312 72.4872 17.9179C73.1923 16.0312 74.7904 15.1513 76.506 15.1513C77.7252 15.1513 79.0592 15.6543 79.8733 16.7842C80.7945 18.0401 80.6065 19.8657 80.6065 21.4657L80.5999 30.8907C80.5999 31.1896 80.3499 31.4312 80.0397 31.4312H77.1255C76.8435 31.4105 76.6019 31.1774 76.6019 30.8907V22.966C76.6019 22.3362 76.6583 20.7644 76.5201 20.1675C76.3039 19.1654 75.6524 18.8824 74.8092 18.8824C74.1041 18.8824 73.369 19.3524 73.0701 20.1064C72.7711 20.8603 72.8003 22.12 72.8003 22.967V30.8822C72.8003 31.1812 72.5502 31.4228 72.24 31.4228H69.3258C69.0316 31.4021 68.8022 31.169 68.8022 30.8822L68.7985 22.967C68.7985 21.3012 69.073 18.8495 67.0058 18.8495C64.9151 18.8495 64.9969 21.2391 64.9969 22.967V30.8822C64.9969 31.1812 64.7468 31.4228 64.4366 31.4228M118.227 15.1636C122.543 15.1636 124.88 18.8711 124.88 23.5846C124.88 28.1392 122.298 31.7518 118.227 31.7518C113.996 31.7518 111.679 28.0442 111.679 23.4248C111.679 18.7762 114.016 15.1523 118.227 15.1523M118.251 18.2009C116.108 18.2009 115.971 21.1226 115.971 22.9435C115.971 24.7644 115.943 28.6637 118.226 28.6637C120.48 28.6637 120.587 25.5211 120.587 23.6062C120.587 22.3465 120.534 20.8396 120.155 19.6448C119.828 18.6051 119.177 18.1999 118.252 18.1999M130.479 31.4312H127.582C127.3 31.4105 127.058 31.1774 127.058 30.8907L127.055 15.9551C127.079 15.6806 127.321 15.4681 127.615 15.4681H130.313C130.567 15.4804 130.775 15.6524 130.833 15.8855V18.1699H130.886C131.7 16.1281 132.842 15.1542 134.852 15.1542C136.168 15.1542 137.429 15.6242 138.248 16.9139C139 18.1078 139 20.1177 139 21.5625V30.9631C138.967 31.2263 138.726 31.4331 138.44 31.4331H135.527C135.261 31.4124 135.04 31.2169 135.012 30.9631V22.8532C135.012 21.2203 135.2 18.8298 133.191 18.8298C132.484 18.8298 131.833 19.3045 131.499 20.0236C131.09 20.9355 131.037 21.8445 131.037 22.8513V30.8926C131.033 31.1915 130.779 31.4331 130.468 31.4331M91.7142 24.2887C91.7142 25.4224 91.7424 26.3568 91.169 27.3739C90.7065 28.1918 89.9704 28.6957 89.1554 28.6957C88.0386 28.6957 87.3834 27.8449 87.3834 26.5881C87.3834 24.1082 89.6057 23.6579 91.7123 23.6579V24.2877M94.6453 31.3795C94.4526 31.5516 94.1753 31.5638 93.9591 31.4491C92.9936 30.6472 92.8178 30.274 92.2895 29.5098C90.6933 31.1379 89.5606 31.6249 87.4934 31.6249C85.0426 31.6249 83.139 30.1152 83.139 27.091C83.139 24.7296 84.4156 23.1221 86.2412 22.3362C87.8205 21.6405 90.0259 21.5183 91.7123 21.3256V20.9496C91.7123 20.2577 91.7659 19.4399 91.3551 18.842C91.0035 18.3062 90.3239 18.0853 89.7222 18.0853C88.613 18.0853 87.6259 18.654 87.3853 19.8338C87.3364 20.097 87.1437 20.3536 86.8776 20.3658L84.0575 20.0631C83.8206 20.0095 83.5545 19.8187 83.625 19.4521C84.2718 16.0303 87.3665 15 90.1302 15C91.546 15 93.396 15.376 94.5128 16.4477C95.9285 17.7694 95.7931 19.5329 95.7931 21.4525V25.9864C95.7931 27.3495 96.3572 27.9464 96.8902 28.6844C97.0744 28.9476 97.1158 29.2616 96.8779 29.4581L94.6538 31.3983L94.65 31.3889M53.5733 24.2981C53.5733 25.4318 53.6015 26.3662 53.0281 27.3833C52.5656 28.2012 51.8342 28.7051 51.0145 28.7051C49.8977 28.7051 49.2472 27.8543 49.2472 26.5975C49.2472 24.1176 51.4695 23.6673 53.5714 23.6673V24.2971M56.5044 31.3889C56.3117 31.561 56.0344 31.5732 55.8182 31.4585C54.8527 30.6566 54.6901 30.2834 54.1486 29.5192C52.5524 31.1473 51.4225 31.6343 49.3525 31.6343C46.9064 31.6352 45 30.1255 45 27.1023C45 24.7408 46.2804 23.1334 48.1022 22.3475C49.6815 21.6518 51.8869 21.5296 53.5733 21.3369V20.9609C53.5733 20.269 53.6269 19.4512 53.2217 18.8533C52.8645 18.3174 52.1877 18.0965 51.5889 18.0965C50.4796 18.0965 49.4897 18.6653 49.2387 19.845C49.1898 20.1083 48.9971 20.3649 48.7358 20.3771L45.9119 20.0744C45.675 20.0208 45.4136 19.83 45.4794 19.4634C46.1299 16.0416 49.2209 15.0113 51.9846 15.0113C53.4003 15.0113 55.2504 15.3873 56.3672 16.459C57.7829 17.7807 57.6475 19.5442 57.6475 21.4638V25.9977C57.6475 27.3608 58.2116 27.9577 58.7446 28.6957C58.9326 28.9589 58.9739 29.2729 58.7352 29.4693L56.5166 31.3983L56.5072 31.3889" fill="white"/>
</svg>
