<svg width="185" height="58" viewBox="0 0 185 58" fill="none" xmlns="http://www.w3.org/2000/svg">
<path d="M150.908 27.0018C150.735 25.8542 150.316 24.9408 149.654 24.2598C149.243 23.8381 148.735 23.512 148.129 23.2837C147.409 23.0115 146.552 22.8759 145.558 22.8759C144.328 22.8759 143.285 23.1142 142.427 23.5898C141.569 24.0654 140.916 24.7245 140.47 25.569C140.023 26.4115 139.771 27.3947 139.714 28.5154H143.366C143.401 27.644 143.591 26.9869 143.939 26.5452C144.288 26.1034 144.798 25.8821 145.471 25.8821C146.073 25.8821 146.535 26.0636 146.853 26.4265C146.928 26.5103 146.991 26.603 147.047 26.7047C147.238 27.0457 147.331 27.4904 147.331 28.0398V29.6052C147.249 29.6401 147.154 29.673 147.047 29.7029C146.909 29.7438 146.748 29.7817 146.566 29.8156C146.056 29.9113 145.36 29.9991 144.478 30.0789C143.191 30.1686 142.175 30.4069 141.426 30.7918C140.679 31.1767 140.127 31.737 139.773 32.4739C139.419 33.2087 139.242 34.1889 139.242 35.4113C139.242 36.6337 139.425 37.6109 139.791 38.4435C140.155 39.275 140.685 39.9042 141.382 40.329C142.078 40.7537 142.907 40.9661 143.869 40.9661C145.468 40.9501 146.605 40.4695 147.44 38.9161C147.524 38.7595 147.648 38.6219 147.837 38.6219C148.063 38.6219 148.246 38.8014 148.246 39.0228V39.3448L148.251 40.5932H151V28.312C151 27.8464 150.969 27.4096 150.907 27.0028L150.908 27.0018ZM147.331 33.6096C147.331 34.5269 147.297 35.2348 147.228 35.7334C147.158 36.2319 147.06 36.6278 146.931 36.9219C146.723 37.3417 146.461 37.6408 146.149 37.8223C145.835 38.0037 145.453 38.0945 145.001 38.0945C144.572 38.0945 144.219 38.0007 143.94 37.8133C143.738 37.6787 143.567 37.4803 143.427 37.218C143.373 37.1203 143.323 37.0136 143.28 36.897C143.117 36.4722 143.037 35.9098 143.037 35.2069C143.037 34.5618 143.103 34.0543 143.236 33.6873C143.37 33.3194 143.576 33.0442 143.853 32.8637C144.132 32.6823 144.526 32.5467 145.037 32.4559C145.778 32.3552 146.346 32.2545 146.741 32.1588C146.851 32.1309 146.953 32.1029 147.048 32.073C147.154 32.0391 147.248 32.0042 147.332 31.9673V33.6115L147.331 33.6096Z" fill="white"/>
<path d="M47.3231 22.0114C46.7431 20.2894 45.8681 19.0241 44.6969 18.2145C43.5267 17.4058 42.0237 17 40.1919 17H34V40.644H40.1919C42.0237 40.644 43.5267 40.2392 44.6969 39.4296C45.8681 38.6209 46.7421 37.3546 47.3231 35.6327C47.9021 33.9127 48.1921 31.6413 48.1921 28.8225C48.1921 26.0037 47.9021 23.7324 47.3231 22.0124V22.0114ZM43.5747 33.8499C43.2909 35.0494 42.861 35.9158 42.2881 36.4483C41.7143 36.9817 40.9454 37.2469 39.9825 37.2469H38.1211V20.3971H39.9825C40.9454 20.3971 41.7133 20.6633 42.2881 21.1958C42.861 21.7272 43.2909 22.5967 43.5747 23.8022C43.8586 25.0086 44.0015 26.6808 44.0015 28.8215C44.0015 30.9623 43.8586 32.6494 43.5747 33.8489V33.8499Z" fill="white"/>
<path d="M61.3569 26.3248C60.9046 25.1074 60.2521 24.216 59.3995 23.6496C58.5469 23.0843 57.4778 22.8011 56.1902 22.8011C54.9026 22.8011 53.709 23.1162 52.7808 23.7433C51.8537 24.3725 51.1471 25.3576 50.66 26.6987C50.173 28.0408 49.9289 29.7598 49.9289 31.8537C49.9289 33.9476 50.1576 35.6277 50.6171 36.9588C51.0746 38.2879 51.7648 39.288 52.6869 39.956C53.6089 40.6241 54.776 40.9581 56.1912 40.9581C57.4196 40.9581 58.4468 40.6909 59.2698 40.1594C60.0928 39.628 60.7198 38.8971 61.1476 37.9688C61.5775 37.0415 61.8154 35.9368 61.8613 34.6565H58.2957C58.2845 35.3246 58.2058 35.8939 58.0608 36.3635C57.9169 36.8341 57.6922 37.2071 57.392 37.4843C57.0898 37.7624 56.6906 37.901 56.1912 37.901C55.6347 37.901 55.1804 37.7365 54.826 37.4075C54.4717 37.0794 54.2083 36.5719 54.0347 35.8879C53.8611 35.2029 53.7743 34.2766 53.7743 33.11V32.8039H61.9716L62.0012 32.1757C62.0124 31.9943 62.0216 31.8078 62.0267 31.6154C62.0329 31.4229 62.0359 31.2305 62.0359 31.0371C62.0359 29.1127 61.8092 27.5413 61.3579 26.3238L61.3569 26.3248ZM53.7754 30.4099C53.7866 29.3251 53.8805 28.4486 54.0592 27.7855C54.2512 27.0776 54.5238 26.5681 54.8771 26.257C55.2304 25.9449 55.6797 25.7904 56.2249 25.7904C56.7232 25.7904 57.1347 25.9489 57.4604 26.266C57.7852 26.583 58.0251 27.0926 58.1824 27.7945C58.3325 28.4646 58.4039 29.338 58.3998 30.4099H53.7754Z" fill="white"/>
<path d="M130.371 26.5621C130.73 26.2002 131.189 26.0187 131.745 26.0187C132.232 26.0187 132.633 26.1603 132.945 26.4435C133.259 26.7266 133.496 27.1624 133.658 27.7516C133.82 28.3409 133.913 29.1107 133.937 30.0619H137.485C137.485 28.5673 137.279 27.288 136.867 26.2231C136.456 25.1592 135.821 24.3296 134.963 23.7344C134.104 23.1401 133.021 22.843 131.711 22.843C130.33 22.843 129.174 23.166 128.241 23.8111C127.308 24.4563 126.594 25.4504 126.102 26.7924C125.609 28.1345 125.363 29.8415 125.363 31.9135C125.363 33.9855 125.609 35.6905 126.102 37.0256C126.595 38.3617 127.308 39.3588 128.241 40.0149C129.174 40.672 130.331 41 131.711 41C133.09 41 134.105 40.7029 134.963 40.1086C135.821 39.5143 136.456 38.6848 136.867 37.6199C137.279 36.556 137.485 35.2707 137.485 33.7641H133.937C133.913 34.7044 133.82 35.4711 133.658 36.0654C133.496 36.6597 133.258 37.0984 132.945 37.3816C132.632 37.6647 132.232 37.8063 131.745 37.8063C131.189 37.8063 130.73 37.6248 130.371 37.2629C130.012 36.901 129.739 36.2887 129.553 35.4283C129.367 34.5678 129.274 33.3962 129.274 31.9125C129.274 30.4288 129.367 29.2712 129.553 28.4047C129.739 27.5383 130.011 26.9241 130.371 26.5621Z" fill="white"/>
<path d="M71.6382 23.2159V26.7157C71.4646 26.6927 71.2819 26.6708 71.0899 26.6479C70.8979 26.6249 70.71 26.613 70.5252 26.613C70.0729 26.613 69.69 26.6708 69.3775 26.7825C69.0641 26.8961 68.7976 27.0607 68.577 27.276C68.3799 27.5133 68.2288 27.8055 68.1257 28.1515C68.0205 28.4965 67.9684 28.9292 67.9684 29.4497V40.643H64.1077V23.3365H66.7636L66.7676 24.5849V24.9069C66.7687 25.1283 66.9514 25.3078 67.1781 25.3078C67.367 25.3078 67.4865 25.1672 67.5743 25.0136C68.4412 23.4971 69.0212 23.1231 70.5957 23.1152C70.9908 23.1152 71.338 23.1491 71.6403 23.2159H71.6382Z" fill="white"/>
<path d="M106.938 27.0018C106.765 25.8542 106.346 24.9408 105.684 24.2598C105.273 23.8381 104.765 23.512 104.159 23.2837C103.439 23.0115 102.582 22.8759 101.588 22.8759C100.358 22.8759 99.3147 23.1142 98.457 23.5898C97.5993 24.0654 96.9458 24.7245 96.4996 25.569C96.0534 26.4115 95.8012 27.3947 95.744 28.5154H99.3964C99.4311 27.644 99.621 26.9869 99.9692 26.5452C100.318 26.1034 100.828 25.8821 101.501 25.8821C102.103 25.8821 102.565 26.0636 102.883 26.4265C102.958 26.5103 103.021 26.603 103.077 26.7047C103.268 27.0457 103.361 27.4904 103.361 28.0398V29.6052C103.279 29.6401 103.184 29.673 103.077 29.7029C102.939 29.7438 102.778 29.7817 102.596 29.8156C102.086 29.9113 101.39 29.9991 100.508 30.0789C99.2208 30.1686 98.2048 30.4069 97.4564 30.7918C96.7089 31.1767 96.1575 31.737 95.8032 32.4739C95.4489 33.2087 95.2722 34.1889 95.2722 35.4113C95.2722 36.6337 95.455 37.6109 95.8206 38.4435C96.1851 39.275 96.715 39.9042 97.4124 40.329C98.1078 40.7537 98.9369 40.9661 99.8988 40.9661C101.498 40.9501 102.635 40.4695 103.471 38.9161C103.554 38.7595 103.678 38.6219 103.867 38.6219C104.093 38.6219 104.276 38.8014 104.276 39.0228V39.3448L104.281 40.5932H107.03V28.312C107.03 27.8464 106.999 27.4096 106.937 27.0028L106.938 27.0018ZM103.361 33.6096C103.361 34.5269 103.327 35.2348 103.258 35.7334C103.188 36.2319 103.09 36.6278 102.961 36.9219C102.753 37.3417 102.491 37.6408 102.179 37.8223C101.865 38.0037 101.484 38.0945 101.031 38.0945C100.602 38.0945 100.249 38.0007 99.9703 37.8133C99.7681 37.6787 99.5965 37.4803 99.4566 37.218C99.4025 37.1203 99.3535 37.0136 99.3096 36.897C99.1473 36.4722 99.0666 35.9098 99.0666 35.2069C99.0666 34.5618 99.133 34.0543 99.2657 33.6873C99.4005 33.3194 99.6057 33.0442 99.8835 32.8637C100.162 32.6823 100.556 32.5467 101.067 32.4559C101.808 32.3552 102.376 32.2545 102.771 32.1588C102.881 32.1309 102.983 32.1029 103.078 32.073C103.184 32.0391 103.278 32.0042 103.362 31.9673V33.6115L103.361 33.6096Z" fill="white"/>
<path d="M116.741 37.7156C116.904 37.7046 117.079 37.6807 117.263 37.6468V40.6241C117.031 40.6929 116.737 40.7467 116.384 40.7866C116.03 40.8255 115.673 40.8454 115.313 40.8454C114.222 40.8454 113.335 40.6809 112.656 40.3519C111.976 40.0238 111.476 39.5093 111.156 38.8124C110.837 38.1144 110.678 37.227 110.678 36.1491V26.4504H108.605V23.3056C111.402 23.3056 111.49 20.6354 111.49 18.709H114.477V23.3196H117.16V26.4504H114.477V35.7413C114.477 36.2169 114.534 36.6028 114.65 36.897C114.767 37.1931 114.95 37.4055 115.199 37.5351C115.449 37.6657 115.788 37.7315 116.219 37.7315C116.405 37.7315 116.578 37.7265 116.741 37.7156Z" fill="white"/>
<path d="M92.7297 25.2729C92.4163 24.5141 91.9537 23.9368 91.339 23.5399C90.7243 23.1441 89.9595 22.9566 89.0426 22.9457C87.5151 22.9277 86.5614 23.3764 85.2248 25.1363C85.0297 25.3925 84.6438 25.3078 84.4998 25.0256C83.7636 23.5778 82.62 22.9287 81.1108 22.9457C79.618 22.9776 78.5407 23.3614 77.6208 25.0206C77.4962 25.2459 77.3257 25.3636 77.0877 25.2848C76.9203 25.23 76.8182 25.0645 76.8182 24.892V23.3405C76.8182 23.3405 76.8161 23.3355 76.8131 23.3355H73.8458C73.8458 23.3355 73.8407 23.3375 73.8407 23.3405V40.6391C73.8407 40.6391 73.8427 40.644 73.8458 40.644H77.6289C77.6289 40.644 77.634 40.642 77.634 40.6391V29.7219C77.634 29.6371 77.635 29.5544 77.6381 29.4736V28.4426C77.6381 27.3349 78.5826 26.4425 79.7313 26.4933C80.8065 26.5412 81.6346 27.4455 81.6346 28.4975V40.6391C81.6346 40.642 81.6367 40.644 81.6397 40.644H85.4208C85.4208 40.644 85.4259 40.642 85.4259 40.6391V29.7219C85.4259 29.6381 85.4269 29.5544 85.43 29.4736V28.4426C85.43 27.3339 86.3776 26.4405 87.5253 26.4933C88.6005 26.5432 89.4265 27.4475 89.4265 28.4975V40.6391C89.4265 40.6391 89.4286 40.644 89.4316 40.644H93.1974C93.1974 40.644 93.2025 40.642 93.2025 40.6391V28.0069C93.2025 26.943 93.0453 26.0307 92.7318 25.2729H92.7297Z" fill="white"/>
<path d="M123.307 23.3315H119.445V40.6391H123.307V23.3315Z" fill="white"/>
<path d="M123.916 18.709C123.916 20.6354 122.778 21.4879 121.376 21.4879C119.974 21.4879 118.837 20.6354 118.837 18.709" fill="white"/>
</svg>
