<?xml version="1.0" encoding="UTF-8" ?>

<svg width="108" height="46" viewBox="0 0 108 46" fill="none" xmlns="http://www.w3.org/2000/svg">
<g opacity="0.3">
<path d="M44.771 22.1871C44.771 22.0656 44.762 21.9441 44.7569 21.8236C44.7569 21.7574 44.7499 21.6921 44.7459 21.6228C44.7399 21.5097 44.7328 21.3962 44.7248 21.2825C44.7248 21.2162 44.7158 21.1509 44.7097 21.0816C44.7007 20.9622 44.6897 20.8427 44.6786 20.7242C44.6726 20.668 44.6686 20.6108 44.6626 20.5545C44.6445 20.3858 44.6254 20.2182 44.6043 20.0525C44.6048 20.0465 44.6048 20.0404 44.6043 20.0344C44.5822 19.8617 44.5581 19.69 44.533 19.5194L44.5059 19.3497C44.4868 19.2342 44.4688 19.1187 44.4487 19.0043C44.4366 18.939 44.4246 18.8748 44.4136 18.8095C44.3935 18.7021 44.3724 18.5946 44.3513 18.4882L44.3121 18.2924C44.2894 18.182 44.2653 18.0715 44.2399 17.9611L44.2007 17.7864C44.1656 17.6378 44.1294 17.4852 44.0923 17.3416C44.0852 17.3165 44.0792 17.2914 44.0732 17.2663C44.033 17.1107 43.9909 16.955 43.9467 16.8014C43.9305 16.7412 43.9125 16.6819 43.8955 16.6227C43.8653 16.5223 43.8342 16.4149 43.8021 16.3114C43.782 16.2442 43.7609 16.1769 43.7398 16.1106L43.6465 15.8225C43.6234 15.7552 43.6013 15.6869 43.5782 15.6217C43.5451 15.5213 43.5099 15.4279 43.4778 15.3315L43.4095 15.1417C43.3653 15.0213 43.3192 14.9008 43.272 14.7813C43.2489 14.72 43.2248 14.6588 43.2007 14.5976C43.1495 14.471 43.1003 14.3455 43.046 14.221C43.0189 14.1548 42.9898 14.0895 42.9617 14.0202C42.9236 13.9329 42.8854 13.8445 42.8462 13.7572C42.8151 13.6859 42.783 13.6156 42.7458 13.5453C42.7087 13.475 42.6705 13.3817 42.6324 13.3003C42.5942 13.219 42.5641 13.1578 42.532 13.0865C42.4999 13.0152 42.4527 12.9268 42.4135 12.8465L42.3071 12.6367C42.2619 12.5493 42.2157 12.463 42.1695 12.3766C42.1113 12.2662 42.051 12.1567 41.9908 12.0473C41.9436 11.9619 41.8964 11.8766 41.8482 11.7923C41.8 11.7079 41.7629 11.6457 41.7197 11.5724C41.6765 11.4991 41.6394 11.4348 41.5982 11.3716C41.5571 11.3083 41.5069 11.22 41.4597 11.1457C41.4125 11.0714 41.3803 11.0161 41.3392 10.9519C41.298 10.8876 41.2388 10.7993 41.1936 10.724C41.1484 10.6487 41.1143 10.6025 41.0731 10.5412C41.0219 10.4639 40.9727 10.3866 40.9195 10.3103L40.8111 10.1547C40.6979 9.99 40.5818 9.82668 40.4627 9.66469L40.3793 9.55023L40.1946 9.30726C40.1574 9.25906 40.1203 9.20685 40.0831 9.16267C40.0209 9.08235 39.9585 9.00303 39.8954 8.92371L39.7819 8.78315C39.7166 8.70383 39.6514 8.6235 39.5811 8.54418L39.4757 8.41968C39.4054 8.33635 39.3351 8.25301 39.2628 8.17068L39.2096 8.11144C38.9486 7.81425 38.6808 7.52408 38.4064 7.24094L38.323 7.15559C38.2417 7.07326 38.1594 6.99194 38.0771 6.91061L37.9837 6.81924L37.7307 6.57727L37.6513 6.50397C37.5409 6.40357 37.4284 6.30316 37.316 6.20276L37.3039 6.19272C37.1935 6.09432 37.082 5.99693 36.9696 5.90054C36.7768 5.73488 36.582 5.57222 36.3832 5.41258L36.337 5.37543L36.0358 5.13647L35.9676 5.08526C35.8672 5.00594 35.7607 4.92863 35.6563 4.85132L35.6101 4.81718C35.4696 4.71678 35.327 4.61637 35.1844 4.51597L35.1473 4.49087C35.0087 4.39047 34.8681 4.2991 34.7276 4.20673C34.5388 4.08122 34.349 3.95873 34.1563 3.84025L34.1482 3.83523C34.0288 3.76093 33.9083 3.68864 33.7868 3.61635L33.7456 3.59225C33.6241 3.52097 33.5026 3.45068 33.3801 3.3814L33.3621 3.37136C33.1763 3.27096 32.9876 3.16553 32.7988 3.07015L32.7657 3.05308C32.5816 2.95669 32.3958 2.86298 32.2084 2.77195C32.0746 2.70501 31.9373 2.63808 31.7968 2.57114C31.6562 2.50421 31.5113 2.43727 31.362 2.37033L31.3389 2.36029C31.1582 2.28198 30.9755 2.20567 30.7927 2.13238L30.5919 2.05306C30.4755 2.00687 30.359 1.96269 30.2425 1.91952C30.1612 1.8894 30.0809 1.85827 29.9995 1.82916C29.8379 1.77092 29.6752 1.71369 29.5126 1.65947L29.3118 1.59521C29.1361 1.53798 28.9593 1.48176 28.7806 1.42854L28.7626 1.42252C28.628 1.38336 28.4925 1.3442 28.3609 1.30705L28.3318 1.29902C23.3071 -0.078537 17.9597 0.334276 13.2059 2.46672L13.0885 2.52094C12.983 2.56913 12.8786 2.62134 12.7752 2.66753L12.6196 2.74183C12.4857 2.80542 12.3562 2.86968 12.231 2.9346L12.1075 2.99886C12.0071 3.05107 11.9067 3.09927 11.8063 3.1565L11.6547 3.23783C11.5292 3.3071 11.4037 3.37638 11.2792 3.44767L11.1507 3.52297C11.0563 3.57719 10.9629 3.63241 10.8695 3.68864L10.7209 3.779C10.6005 3.8533 10.479 3.9276 10.3595 4.00491C10.3153 4.03303 10.2711 4.06114 10.228 4.09026C10.1386 4.14749 10.0502 4.20572 9.96185 4.26496L9.81726 4.36536C9.70076 4.44468 9.58436 4.52501 9.46986 4.60633L9.33436 4.70674C9.25096 4.76698 9.16765 4.82722 9.08535 4.88847L8.94273 4.98887C8.83128 5.07321 8.72085 5.15856 8.61141 5.2439L8.47486 5.34932L8.2409 5.53808L8.10236 5.65154C7.99592 5.7399 7.89049 5.82993 7.78607 5.92163C7.73989 5.96079 7.6937 6.00195 7.64852 6.04211C7.57422 6.10637 7.50193 6.17063 7.42964 6.23589C7.38446 6.27605 7.33827 6.31722 7.29409 6.35839C7.19369 6.44975 7.09329 6.54313 6.99288 6.63751L6.85432 6.77004C6.78605 6.83531 6.71878 6.90157 6.65352 6.97085C6.60934 7.01402 6.56416 7.0572 6.52098 7.10138C6.42058 7.20178 6.33122 7.29415 6.23684 7.39154L6.09928 7.52809C6.03603 7.59537 5.97278 7.66264 5.91053 7.7289C5.86735 7.77609 5.82418 7.82228 5.78201 7.86947C5.69265 7.96987 5.60329 8.07028 5.51594 8.17068C5.46975 8.22289 5.42457 8.27109 5.38039 8.32932C5.33621 8.38755 5.26493 8.46788 5.20669 8.53214L5.06412 8.70383C4.9858 8.80423 4.90849 8.8956 4.83219 8.99199C4.787 9.04821 4.74283 9.10544 4.69865 9.16167L4.54101 9.3685C4.48579 9.44079 4.43057 9.51409 4.37635 9.58839L4.18859 9.84442L4.05907 10.0282C4.01088 10.0951 3.96369 10.162 3.9175 10.229C3.85726 10.3163 3.79702 10.4047 3.73778 10.493C3.67854 10.5814 3.63738 10.6466 3.58617 10.725L3.45966 10.9258C3.41749 10.993 3.37532 11.0603 3.33416 11.1266C3.2719 11.227 3.21166 11.3274 3.15142 11.4278L3.02591 11.6447L2.90543 11.8545L2.79398 12.0553L2.61325 12.3887C2.57811 12.4549 2.54297 12.5212 2.51285 12.5895C2.48273 12.6577 2.43554 12.7381 2.39839 12.8134L2.29798 13.0061C2.23875 13.1266 2.18051 13.2481 2.12328 13.3696C2.09316 13.4319 2.06404 13.4941 2.03593 13.5574C2.00782 13.6206 1.96364 13.715 1.9285 13.7943C1.90038 13.8556 1.87428 13.9178 1.84717 13.9801C1.79094 14.1099 1.73572 14.2404 1.6815 14.3716C1.6564 14.4309 1.63231 14.4901 1.60821 14.5504C1.57507 14.6327 1.54194 14.716 1.5078 14.7994C1.48471 14.8576 1.46262 14.9168 1.44053 14.9761C1.38832 15.1156 1.34013 15.2552 1.28591 15.3968C1.26583 15.453 1.24575 15.5102 1.22667 15.5675C1.19655 15.6538 1.16643 15.7412 1.13731 15.8285C1.11924 15.8827 1.10217 15.9369 1.0851 15.9912C1.03624 16.1411 0.989055 16.2917 0.943535 16.443L0.895345 16.6066C0.868235 16.698 0.842125 16.7884 0.817025 16.8797C0.802975 16.9289 0.790925 16.9801 0.777875 17.0253C0.733695 17.186 0.692525 17.3466 0.652365 17.5083L0.615215 17.6689C0.593125 17.7633 0.570035 17.8587 0.548945 17.9531C0.539915 17.9922 0.531885 18.0324 0.522845 18.0725C0.484695 18.2452 0.448545 18.4199 0.415415 18.5946L0.385295 18.7513C0.367215 18.8517 0.349145 18.9461 0.332075 19.0444C0.332075 19.0695 0.323045 19.0957 0.319025 19.1208C0.286895 19.3129 0.256775 19.505 0.228665 19.6971L0.207575 19.8507C0.193515 19.9511 0.180465 20.0515 0.168415 20.1519C-0.3748 24.556 0.402884 29.0222 2.40274 32.9835C4.4026 36.9448 7.53442 40.2225 11.4007 42.4005L11.5222 42.4677C11.6557 42.543 11.7912 42.6163 11.9238 42.6876L12.0874 42.774L12.3324 42.8995L12.4901 42.9778C12.6577 43.0601 12.8264 43.1414 12.9921 43.2198L13.0694 43.2559L13.3485 43.3804L13.472 43.4346C13.7819 43.5685 14.0959 43.6967 14.4138 43.8192L14.4851 43.8453C14.8285 43.9751 15.1759 44.0966 15.5273 44.2097C16.0092 44.3644 16.4982 44.5029 16.9942 44.6254C20.7046 45.5407 24.5873 45.4926 28.2738 44.4855C31.9603 43.4784 35.3283 41.5458 38.058 38.8713C39.223 37.7281 40.2603 36.4615 41.1514 35.094V35.088C41.2492 34.9394 41.3445 34.7892 41.4376 34.6372L41.4456 34.6252C41.537 34.4756 41.6273 34.324 41.7157 34.1743L41.7277 34.1543C41.8151 34.0047 41.9004 33.8531 41.9838 33.7035L41.9988 33.6763C42.0812 33.5277 42.1605 33.3751 42.2398 33.2265C42.2458 33.2145 42.2519 33.2024 42.2589 33.1904C42.3352 33.0428 42.4105 32.8892 42.4838 32.7436L42.5069 32.6984C42.5782 32.5518 42.6474 32.4032 42.7167 32.2546C42.7248 32.2365 42.7338 32.2175 42.7428 32.1994C42.8098 32.0535 42.8747 31.9069 42.9376 31.7596C42.9467 31.7375 42.9567 31.7154 42.9667 31.6934C43.028 31.5498 43.0872 31.4052 43.1465 31.2596C43.1565 31.2335 43.1674 31.2074 43.1776 31.1823C43.2348 31.0397 43.289 30.8972 43.3432 30.7536C43.3543 30.7235 43.3663 30.6943 43.3774 30.6642C43.4296 30.5237 43.4778 30.3831 43.528 30.2415C43.54 30.2074 43.5521 30.1742 43.5631 30.1411C43.6113 30.0036 43.6565 29.864 43.7007 29.7254C43.7127 29.6873 43.7257 29.6501 43.7368 29.612C43.78 29.4764 43.8212 29.3399 43.8613 29.2023L43.8985 29.0778C43.9366 28.9443 43.9728 28.8098 44.0079 28.6762C44.021 28.63 44.034 28.5849 44.0461 28.5387C44.0792 28.4071 44.1113 28.2756 44.1465 28.1431C44.1585 28.0939 44.1716 28.0427 44.1826 27.9935C44.2127 27.865 44.2409 27.7364 44.268 27.6069L44.3041 27.4433C44.3302 27.3177 44.3533 27.1912 44.3774 27.0637C44.3885 27.0055 44.4005 26.9483 44.4105 26.889C44.4336 26.7655 44.4537 26.64 44.4738 26.5155C44.4838 26.4533 44.4949 26.392 44.5039 26.3308C44.523 26.2083 44.5401 26.0848 44.5571 25.9613C44.5652 25.896 44.5752 25.8328 44.5842 25.7675C44.5993 25.646 44.6124 25.5245 44.6264 25.403C44.6334 25.3358 44.6425 25.2685 44.6495 25.2022C44.6616 25.0817 44.6716 24.9603 44.6816 24.8388C44.6877 24.7695 44.6947 24.7012 44.7007 24.6309C44.7097 24.5074 44.7168 24.3829 44.7238 24.2584C44.7238 24.1912 44.7338 24.1239 44.7369 24.0576C44.7439 23.9231 44.7479 23.7885 44.7529 23.656C44.7529 23.5988 44.7579 23.5405 44.7589 23.4823C44.764 23.2895 44.767 23.0948 44.767 22.901C44.767 22.7072 44.767 22.5435 44.7599 22.3658C44.775 22.2985 44.772 22.2413 44.771 22.1871ZM26.9081 40.3161H18.1729V13.2632L14.9168 13.2331L14.9239 11.974L14.9429 8.85142L17.5384 6.54213L19.1609 5.09631H26.9121L26.9081 40.3161ZM29.0969 19.4009C29.0967 18.9025 29.2444 18.4152 29.5212 18.0007C29.798 17.5863 30.1915 17.2632 30.652 17.0725C31.1125 16.8818 31.6192 16.8319 32.108 16.9292C32.5968 17.0266 33.0458 17.2667 33.3981 17.6193C33.7503 17.9719 33.9901 18.421 34.0871 18.9099C34.184 19.3988 34.1338 19.9055 33.9427 20.3658C33.7516 20.8261 33.4282 21.2194 33.0135 21.4959C32.5988 21.7724 32.1114 21.9196 31.613 21.919C30.9459 21.9174 30.3065 21.6515 29.8349 21.1796C29.3633 20.7076 29.098 20.0681 29.0969 19.4009ZM31.9424 27.5627H30.118L37.9495 16.8346H39.7729L39.3542 17.4079L33.9263 24.8438L31.9424 27.5627ZM38.1815 27.5627C38.1072 27.5627 38.0349 27.5627 37.9626 27.5527C37.309 27.494 36.7043 27.1818 36.2782 26.6827C35.852 26.1837 35.6382 25.5376 35.6826 24.8829C35.727 24.2282 36.026 23.6169 36.5156 23.1799C37.0052 22.7429 37.6464 22.5151 38.302 22.5452C38.9575 22.5752 39.5752 22.8608 40.0227 23.3408C40.4703 23.8207 40.7121 24.4569 40.6963 25.1129C40.6806 25.7689 40.4085 26.3927 39.9385 26.8506C39.4684 27.3085 38.8377 27.5642 38.1815 27.5627Z" fill="white"/>
<path d="M38.1821 23.928C37.9622 23.928 37.7473 23.9932 37.5646 24.1153C37.3818 24.2374 37.2393 24.411 37.1552 24.6141C37.0711 24.8172 37.0491 25.0407 37.0919 25.2563C37.1348 25.4719 37.2407 25.6699 37.3961 25.8254C37.5516 25.9808 37.7496 26.0867 37.9652 26.1296C38.1808 26.1725 38.4043 26.1504 38.6074 26.0663C38.8105 25.9822 38.9841 25.8397 39.1062 25.657C39.2283 25.4742 39.2935 25.2593 39.2935 25.0395C39.2935 24.7447 39.1764 24.462 38.968 24.2535C38.7595 24.0451 38.4768 23.928 38.1821 23.928Z" fill="white"/>
<path d="M51.5768 18.4399H55.9393V16.3174H51.5768V14.749H56.4012V12.509H49.0195V21.7352H51.5768V18.4399Z" fill="white"/>
<path d="M62.267 21.9189C65.1135 21.9189 67.2491 19.7702 67.2491 17.1216V17.0944C67.2491 14.4448 65.1406 12.3232 62.2931 12.3232C59.4457 12.3232 57.3101 14.4719 57.3101 17.1216V17.1477C57.3101 19.7963 59.4196 21.9189 62.267 21.9189ZM59.9336 17.0944C59.9336 15.7631 60.8694 14.6295 62.267 14.6295C63.6647 14.6295 64.6386 15.7892 64.6386 17.1216V17.1477C64.6386 18.479 63.7028 19.6126 62.2931 19.6126C60.8835 19.6126 59.9336 18.4519 59.9336 17.1216V17.0944Z" fill="white"/>
<path d="M71.2028 18.9399H72.3223L74.1848 21.7342H77.1377L74.9368 18.5212C76.0835 18.0333 76.8355 17.0975 76.8355 15.6878V15.6607C76.8355 14.7521 76.5584 14.0402 76.0182 13.5131C75.3977 12.8795 74.4228 12.509 73.0121 12.509H68.6455V21.7352H71.2028V18.9399ZM71.2028 14.7229H72.8796C73.736 14.7229 74.2641 15.0924 74.2641 15.8173V15.8435C74.2641 16.5162 73.7621 16.9379 72.8936 16.9379H71.2028V14.7229Z" fill="white"/>
<path d="M80.1387 14.749H82.9069V21.7352H85.4642V14.749H88.2323V12.509H80.1387V14.749Z" fill="white"/>
<path d="M95.2577 15.9609H91.9755V12.509H89.4182V21.7352H91.9755V18.2281H95.2577V21.7352H97.815V12.509H95.2577V15.9609Z" fill="white"/>
<path d="M102.046 19.5594V18.0965H106.475V16.0804H102.046V14.6828H106.936V12.509H99.5149V21.7352H107.002V19.5594H102.046Z" fill="white"/>
<path d="M32.7281 19.4008C32.7281 19.1811 32.663 18.9663 32.541 18.7836C32.419 18.6009 32.2456 18.4584 32.0427 18.3742C31.8397 18.29 31.6164 18.2678 31.4009 18.3104C31.1854 18.3531 30.9873 18.4586 30.8318 18.6138C30.6762 18.7689 30.5701 18.9667 30.5269 19.1821C30.4837 19.3975 30.5052 19.6209 30.5889 19.824C30.6726 20.0272 30.8145 20.201 30.9969 20.3235C31.1793 20.446 31.3939 20.5117 31.6136 20.5123C31.7598 20.5125 31.9046 20.484 32.0397 20.4282C32.1749 20.3725 32.2977 20.2907 32.4012 20.1875C32.5047 20.0843 32.5868 19.9616 32.6429 19.8267C32.699 19.6917 32.728 19.547 32.7281 19.4008Z" fill="white"/>
<path d="M53.1913 23.5725H48.9553V33.4563H51.6943V30.6319H53.0497C55.5076 30.6319 57.3009 29.404 57.3009 27.0736V27.0455C57.3009 24.8567 55.6904 23.5725 53.1913 23.5725ZM54.5608 27.2011C54.5608 27.9782 53.9674 28.4863 52.9935 28.4863H51.6943V25.8758H52.9795C53.9674 25.8758 54.5608 26.3276 54.5608 27.175V27.2011Z" fill="white"/>
<path d="M61.1975 23.5725H58.4575V33.4563H65.9838V31.0556H61.1975V23.5725Z" fill="white"/>
<path d="M70.5702 23.5022L66.3633 33.4563H69.2439L69.9467 31.6912H73.7621L74.486 33.4563H77.4228L73.2159 23.5022H70.5702ZM70.754 29.5586L71.8695 26.7473L72.9739 29.5586H70.754Z" fill="white"/>
<path d="M85.0035 28.7975L80.9372 23.5725H78.3809V33.4563H81.0918V28.0345L85.3138 33.4563H87.7144V23.5725H85.0035V28.7975Z" fill="white"/>
<path d="M92.1763 29.5596H96.9193V27.3989H92.1763V25.9029H97.4144V23.5725H89.4644V33.4563H97.4857V31.1269H92.1763V29.5596Z" fill="white"/>
<path d="M98.332 25.9732H101.297V33.4563H104.037V25.9732H107.002V23.5725H98.332V25.9732Z" fill="white"/>
<path d="M105.52 31.7153C105.29 31.7164 105.071 31.8084 104.909 31.9712C104.747 32.134 104.656 32.3543 104.657 32.5838V32.5889C104.653 32.7047 104.673 32.82 104.715 32.928C104.756 33.036 104.82 33.1345 104.9 33.2176C104.981 33.3007 105.078 33.3666 105.185 33.4116C105.291 33.4565 105.406 33.4795 105.522 33.4791C105.638 33.4788 105.753 33.4552 105.859 33.4096C105.966 33.364 106.062 33.2975 106.142 33.214C106.222 33.1304 106.285 33.0316 106.326 32.9233C106.368 32.8151 106.387 32.6996 106.382 32.5838V32.5788C106.383 32.4654 106.361 32.353 106.318 32.2481C106.274 32.1433 106.211 32.048 106.131 31.9677C106.051 31.8875 105.955 31.8239 105.851 31.7805C105.746 31.7372 105.633 31.7151 105.52 31.7153ZM106.238 32.5838C106.242 32.6804 106.226 32.7768 106.191 32.8671C106.157 32.9574 106.104 33.0398 106.037 33.1094C105.97 33.1791 105.89 33.2344 105.801 33.2723C105.712 33.3101 105.616 33.3296 105.52 33.3296C105.423 33.3296 105.327 33.3101 105.238 33.2723C105.149 33.2344 105.069 33.1791 105.002 33.1094C104.935 33.0398 104.882 32.9574 104.848 32.8671C104.813 32.7768 104.798 32.6804 104.801 32.5838C104.797 32.4873 104.813 32.3909 104.847 32.3005C104.881 32.21 104.933 32.1274 105 32.0576C105.067 31.9878 105.147 31.9321 105.236 31.894C105.325 31.8559 105.42 31.836 105.517 31.8357C105.614 31.8354 105.709 31.8545 105.798 31.892C105.887 31.9295 105.968 31.9846 106.035 32.054C106.103 32.1234 106.155 32.2056 106.19 32.2958C106.225 32.3859 106.241 32.4822 106.238 32.5788V32.5838Z" fill="white"/>
<path d="M105.935 32.4281C105.935 32.2273 105.785 32.1389 105.575 32.1389H105.165V32.9974H105.411V32.7414H105.511L105.684 32.9974H105.964L105.763 32.6962C105.816 32.6749 105.861 32.6377 105.892 32.5896C105.923 32.5416 105.938 32.4851 105.935 32.4281ZM105.561 32.5496H105.411V32.3488H105.564C105.649 32.3488 105.695 32.3859 105.695 32.4492C105.695 32.5124 105.646 32.5506 105.561 32.5506V32.5496Z" fill="white"/>
</g>
</svg>
