<svg width="185" height="58" viewBox="0 0 185 58" fill="none" xmlns="http://www.w3.org/2000/svg">
<path d="M104.903 15.399C105.576 17.8503 106.492 19.305 107.508 19.305C108.524 19.305 109.44 17.852 110.112 15.399H104.903Z" fill="white"/>
<path d="M123.349 15.399C124.021 17.8503 124.937 19.305 125.953 19.305C126.969 19.305 127.885 17.852 128.558 15.399H123.349Z" fill="white"/>
<path d="M104 32.2228V24.8011C104 21.8886 102.913 20.7323 100.773 20.7323C98.6331 20.7323 98.1767 22.1353 97.8267 24.0996H97.2655V21.1532H93.4773V43.4649H97.8445V27.017C97.8445 25.2382 98.288 24.0932 98.7427 24.0932C99.1975 24.0932 99.6426 25.2382 99.6426 27.017L99.6523 32.2211H104.003L104 32.2228Z" fill="white"/>
<path d="M109.684 21.1532H105.333V43.4665H109.684V21.1532Z" fill="white"/>
<path d="M128.127 21.1532H123.778V43.4665H128.127V21.1532Z" fill="white"/>
<path d="M117.574 36.8737C117.574 38.946 117.021 40.5184 116.453 40.5184C115.885 40.5184 115.332 38.9476 115.332 36.8737V27.7442C115.332 25.5623 115.885 24.0995 116.453 24.0995C117.021 24.0995 117.574 25.5623 117.574 27.7442V36.8737ZM122.41 43.4648V15.399H118.137V24.0995H117.575C117.155 22.1353 116.382 20.7322 114.277 20.7322C112.068 20.7322 110.979 21.9595 110.979 25.0817V39.5363C110.979 42.6585 112.207 43.8857 114.277 43.8857C116.348 43.8857 117.155 42.4827 117.575 40.5184H118.137V43.4648H122.41Z" fill="white"/>
<path d="M136.057 36.8738C136.057 39.1074 135.503 40.5185 134.936 40.5185C134.368 40.5185 133.815 39.109 133.815 36.8738V27.7443C133.815 25.5623 134.368 24.0996 134.936 24.0996C135.503 24.0996 136.057 25.5623 136.057 27.7443V36.8738ZM140.408 43.4649V21.1532H136.618V24.0996H136.057C135.636 22.1353 134.863 20.7323 132.759 20.7323C130.548 20.7323 129.461 21.9596 129.461 25.0817V39.5363C129.461 42.6585 130.688 43.8858 132.759 43.8858C134.829 43.8858 135.636 42.4827 136.057 40.5185H136.618V43.4649H140.408Z" fill="white"/>
<path d="M152.687 43.4649V24.8012C152.687 21.8886 151.564 20.7307 149.249 20.7307C147.144 20.7307 146.442 22.1338 146.091 24.098H145.53V21.1516H141.741V43.4649H146.094V27.7443C146.104 25.5624 146.647 24.0996 147.215 24.0996C147.783 24.0996 148.362 25.5624 148.336 27.7443V43.4649H152.688H152.687Z" fill="white"/>
<path d="M80.2851 43.4648V15.399H73.9069L72.4942 32.2146H71.8104L70.3977 15.399H63.8098V43.4648H68.0835V25.7832H68.785L70.4686 43.4648H73.5553L75.2406 25.7832H75.9421V43.4648H80.2851Z" fill="white"/>
<path d="M85.8958 29.4328V26.1139C85.8958 24.206 86.3813 22.9159 86.8796 22.9159C87.3779 22.9159 87.8633 24.206 87.8633 26.1139V29.4328H85.8958ZM87.8553 34.0645V38.53C87.8553 40.2991 87.3747 41.7022 86.8796 41.7022C86.3845 41.7022 85.9039 40.2991 85.9039 38.53V32.2341L85.8974 32.2276H85.9039V32.2228H87.8553V32.2276H92.2128V26.2058C92.2128 22.7675 90.284 20.7323 86.8796 20.7323C83.4752 20.7323 81.5464 22.7675 81.5464 26.2058V38.4139C81.5464 41.8522 83.4752 43.8874 86.8796 43.8874C90.284 43.8874 92.2128 41.8522 92.2128 38.4139V34.0709H87.8617L87.8553 34.0645Z" fill="white"/>
<path d="M56.4387 29.4437H51.9543C51.9543 21.1096 50.2872 15 48.2045 15C46.1218 15 44.4547 21.1096 44.4547 29.4437H42.984C42.984 21.1096 41.3185 15 39.2342 15C37.1499 15 35.486 21.1096 35.486 29.4437H31C31 37.7761 32.6671 43.8873 34.7498 43.8873C36.8326 43.8873 38.4997 37.7761 38.4997 29.4437H39.9703C39.9703 37.7761 41.6374 43.8873 43.7202 43.8873C45.8029 43.8873 47.47 37.7761 47.47 29.4437H48.9406C48.9406 37.7761 50.6078 43.8873 52.6905 43.8873C54.7732 43.8873 56.4403 37.7761 56.4403 29.4437" fill="white"/>
</svg>
