<svg width="185" height="58" viewBox="0 0 185 58" fill="none" xmlns="http://www.w3.org/2000/svg">
<path d="M77.1858 42.6971H72.3524V41.1022C68.8339 43.4001 65.1572 43.948 61.2704 42.4049C58.8203 41.4309 56.9241 39.7721 55.6031 37.4924C52.8882 32.8021 53.8682 27.6309 56.6988 24.2281C58.6133 21.9301 61.0787 20.5848 64.0554 20.2165C67.0473 19.8452 69.8018 20.4905 72.3342 22.2314V20.8253H77.1827V42.6971H77.1858ZM72.3555 31.6272C72.3494 29.7615 71.6767 28.1848 70.3497 26.8669C69.0257 25.5551 67.4034 24.9251 65.5863 24.919C63.8028 24.9129 62.1957 25.5399 60.9052 26.8152C59.6208 28.0844 58.8872 29.6397 58.8477 31.4416C58.7624 35.4927 61.9096 38.4542 65.5955 38.4359C69.3666 38.4177 72.3889 35.4988 72.3555 31.6272Z" fill="white"/>
<path d="M104.85 13C102.728 15.7363 100.662 18.4056 98.5524 21.1266C98.735 21.1449 98.8689 21.1753 99.0029 21.1692C100.312 21.1022 101.581 21.3183 102.801 21.7627C104.162 22.2619 105.382 22.9954 106.469 23.9724C107.927 25.2812 108.907 26.8883 109.549 28.7084C109.981 29.938 110.194 31.2255 110.109 32.5312C109.854 36.5732 107.991 39.6534 104.503 41.7444C103.456 42.3714 102.32 42.7823 101.14 43.044C100.068 43.2814 98.9663 43.3667 97.8706 43.2723C95.5818 43.0714 93.4999 42.2953 91.6859 40.8739C90.1123 39.6412 88.9557 38.0676 88.2191 36.2171C87.8417 35.2644 87.6256 34.257 87.5252 33.2191C87.373 31.6577 87.5769 30.1663 88.0791 28.6901C88.5692 27.2413 89.3544 25.9752 90.2614 24.7638C91.4363 23.1963 92.5929 21.6136 93.7647 20.043C94.6595 18.8408 95.5696 17.6507 96.4705 16.4515C97.2923 15.3588 98.108 14.2631 98.9359 13.1735C98.9968 13.0944 99.1155 13.0091 99.2068 13.0091C101.057 13 102.905 13 104.85 13ZM105.203 32.236C105.142 31.6851 105.121 31.1281 105.011 30.5863C104.81 29.6062 104.384 28.7236 103.763 27.9292C103.185 27.1896 102.473 26.6082 101.639 26.2186C100.528 25.7012 99.362 25.4699 98.105 25.6038C96.6288 25.7621 95.3687 26.3282 94.34 27.3539C93.1986 28.4892 92.599 29.9258 92.459 31.5085C92.3494 32.7321 92.532 33.9343 93.0494 35.0818C94.3247 37.9124 97.3532 39.5103 100.589 38.582C102.963 37.9002 105.258 35.5597 105.206 32.236H105.203Z" fill="white"/>
<path d="M122.53 25.3573C120.448 25.3542 118.37 25.3482 116.288 25.3451C114.961 25.3451 113.634 25.3451 112.307 25.3451C112.176 25.3451 112.048 25.3451 111.899 25.3451V20.9835H128.517C128.523 21.0718 128.536 21.1753 128.536 21.2788C128.536 22.5297 128.545 23.7837 128.529 25.0347C128.529 25.2081 128.45 25.4121 128.341 25.546C126.804 27.4148 125.251 29.2714 123.708 31.1311C121.879 33.3378 120.053 35.5475 118.224 37.7572C118.096 37.9094 117.971 38.0615 117.785 38.2807H128.539V42.6697H111.881V42.3227C111.881 41.1813 111.893 40.0369 111.874 38.8955C111.868 38.5211 111.92 38.2016 112.176 37.9063C112.815 37.1637 113.439 36.4058 114.066 35.651C114.653 34.9418 115.232 34.2265 115.816 33.5204C116.37 32.8508 116.936 32.1903 117.487 31.5177C118.001 30.8937 118.501 30.2606 119.015 29.6367C119.548 28.9945 120.098 28.3644 120.634 27.7222C121.136 27.1196 121.626 26.5047 122.123 25.896C122.259 25.7286 122.393 25.5643 122.527 25.3969C122.546 25.3877 122.564 25.3786 122.582 25.3664C122.564 25.3634 122.543 25.3573 122.524 25.3542L122.53 25.3573Z" fill="white"/>
<path d="M80.4488 17.392H77.2986V13.0182H85.2821V42.6788H80.4488V17.392Z" fill="white"/>
</svg>
