<svg width="185" height="58" viewBox="0 0 185 58" fill="none" xmlns="http://www.w3.org/2000/svg">
<path d="M47.3806 19.9309H45.3955V17.0632H50.307V36.0705H47.3806V19.9309Z" fill="#EBEBEB"/>
<path d="M66.5803 32.2184L73.2852 25.6148L73.2789 24.8723H66.5803V22.016H76.9167V25.9543L70.2093 32.5166V33.2502H76.9656V36.0669H66.5805V32.2184H66.5803Z" fill="#EBEBEB"/>
<path d="M59.0992 22.2857C58.802 22.2857 58.7167 22.2889 58.5745 22.3072L62.4741 17.0805H58.916L53.3097 24.7802C52.2862 26.2563 51.7812 27.5812 51.7812 29.4092C51.7812 33.287 54.7026 36.3796 58.77 36.3796C62.7023 36.3796 65.7325 33.4564 65.7325 29.4092C65.7325 25.3619 62.7041 22.2859 59.0993 22.2859H59.0992V22.2857ZM58.7538 33.6234C56.4878 33.6234 54.7656 31.6847 54.7656 29.3514C54.7656 27.0182 56.5009 25.0812 58.7665 25.0812C61.0061 25.0812 62.7728 27.0185 62.7728 29.3514C62.7728 31.6843 60.9934 33.6234 58.7538 33.6234Z" fill="#EBEBEB"/>
<path d="M138.701 33.2014V36.0592H132.701V24.8526H130.726V21.9926H132.701V17.0403H135.65V21.9926H138.648V24.8526H135.65V33.2014H138.701H138.701Z" fill="#EBEBEB"/>
<path d="M146.942 21.7001C146.885 21.696 146.827 21.6935 146.768 21.6935C146.728 21.6923 146.688 21.6923 146.648 21.691C146.62 21.6898 146.593 21.6898 146.565 21.6898H146.523C144.476 21.7017 142.638 22.5567 141.36 23.9974C141.295 24.0711 141.23 24.1474 141.168 24.2237C141.132 24.2684 141.097 24.3133 141.062 24.3594C140.131 25.5646 139.565 27.1183 139.535 28.897C139.533 28.9471 139.533 28.9969 139.533 29.0482V29.0772C139.547 33.3738 142.655 36.3749 146.503 36.4065C146.523 36.4078 146.545 36.4078 146.565 36.4078C146.616 36.4078 146.669 36.4078 146.72 36.4051C146.736 36.4064 146.751 36.4051 146.768 36.4039C150.558 36.3039 153.598 33.3688 153.598 29.0484C153.598 24.866 150.65 21.8889 146.942 21.7008V21.7001H146.942ZM146.627 33.3826C144.341 33.3826 142.482 31.5055 142.424 29.165C142.423 29.128 142.423 29.0901 142.423 29.0531C142.423 28.9412 142.427 28.8293 142.436 28.7202C142.441 28.6468 142.447 28.5742 142.456 28.502C142.457 28.4979 142.457 28.4939 142.457 28.49C142.726 26.3654 144.49 24.7248 146.626 24.7248C148.949 24.7248 150.831 26.6628 150.831 29.0532C150.831 31.4437 148.949 33.3828 146.626 33.3828H146.627L146.627 33.3826Z" fill="#EBEBEB"/>
<path d="M93.5618 22.0171H100.517V24.8833H96.5094V36.0669H93.5621V22.0171H93.5619H93.5618Z" fill="#EBEBEB"/>
<path d="M115.632 21.9935L109.357 41.0126H103.455V38.1294H107.206L107.892 36.0433H105.998L105.65 35.0137L105.277 33.9108L101.26 21.9935H104.468L108.174 32.7007H108.866L112.626 21.9935H115.632Z" fill="#EBEBEB"/>
<path d="M42.4083 22.0181V23.0835C42.4066 23.0817 42.4048 23.0799 42.4031 23.0799H41.6911C40.9078 22.1951 39.5606 21.7214 38.4814 21.6338C38.4709 21.6338 38.4587 21.632 38.4483 21.632C38.2533 21.6231 38.0636 21.6213 37.8826 21.6213C34.2811 21.6213 31 24.5439 31 29.0377C31 33.5029 34.3908 36.3397 37.853 36.3397C38.1315 36.3397 38.3909 36.3361 38.6345 36.3236H38.6415C39.9104 36.186 40.8539 35.8606 41.6911 34.9168H42.4066V34.9204C42.4066 34.9186 42.4083 34.9186 42.4083 34.9186V36.0573H45.3274V22.0181H42.4083ZM38.0932 33.3152C35.8077 33.3152 33.9487 31.4365 33.8912 29.0967C33.8895 29.0592 33.8895 29.0216 33.8895 28.9841C33.8895 28.8733 33.8947 28.7606 33.9034 28.6516C33.9086 28.5783 33.9139 28.5068 33.9226 28.4335C33.9243 28.4299 33.9243 28.4264 33.9243 28.421C34.1924 26.2974 35.9574 24.6565 38.0932 24.6565C40.417 24.6565 42.2986 26.5942 42.2986 28.9841C42.2986 31.374 40.417 33.3152 38.0932 33.3152Z" fill="#EBEBEB"/>
<path d="M123.895 21.6914H123.878C122.468 21.695 120.849 22.2437 120.017 23.184H119.302V21.9899H116.4V41.0126H119.317V34.9655H120.033C120.863 35.9039 122.503 36.4187 123.909 36.4259C127.483 36.3901 130.726 33.4765 130.726 29.0095C130.726 24.5711 127.338 21.7236 123.895 21.6914ZM127.824 29.3956C127.819 29.4689 127.812 29.5421 127.803 29.6136C127.801 29.619 127.801 29.6226 127.801 29.6262C127.533 31.7515 125.768 33.3907 123.632 33.3907C121.31 33.3907 119.427 31.453 119.427 29.0631C119.427 26.6732 121.31 24.7337 123.632 24.7337C125.918 24.7337 127.777 26.6106 127.834 28.9505C127.836 28.988 127.836 29.0255 127.836 29.0631C127.836 29.1757 127.832 29.2865 127.824 29.3956Z" fill="#EBEBEB"/>
<path d="M92.204 30.4059C91.7497 33.1551 89.8907 35.2357 87.4015 36.0276C86.7436 36.2546 86.0403 36.3851 85.3092 36.4048C85.2918 36.4048 85.2762 36.4066 85.2605 36.4048C85.21 36.4083 85.1578 36.4083 85.1091 36.4083C85.0882 36.4083 85.0673 36.4084 85.0464 36.4066C84.1569 36.3994 83.3075 36.226 82.5277 35.9132C79.8227 34.8979 77.9619 32.3024 77.9619 29.0331C77.9619 25.3061 80.5259 22.3531 83.9306 21.7883L83.9672 21.7829C84.049 21.7686 84.1326 21.7579 84.2144 21.7489C84.2614 21.7418 84.3066 21.7364 84.3519 21.7311C84.4128 21.7239 84.472 21.7203 84.5329 21.715C84.5973 21.7096 84.66 21.7043 84.7261 21.7007C84.7853 21.6971 84.8462 21.6971 84.9072 21.6953C84.9611 21.6935 85.0133 21.69 85.0673 21.69H85.1213C88.8498 21.69 91.6035 24.0727 92.1953 27.5548H89.0534C88.472 25.9031 86.9524 24.7252 85.1683 24.7252C83.0655 24.7252 81.3266 26.3661 81.062 28.4897C81.062 28.495 81.062 28.4986 81.0603 28.5022C81.0516 28.5755 81.0464 28.647 81.0411 28.7203C81.0324 28.8293 81.0272 28.9419 81.0272 29.0527C81.0272 29.0903 81.0272 29.1278 81.029 29.1653C81.062 30.4917 81.6643 31.6696 82.5903 32.4401C83.3249 33.0121 84.2405 33.3374 85.2031 33.3374C85.6522 33.3374 86.0786 33.2766 86.4772 33.1604C87.7183 32.7296 88.6966 31.7036 89.1039 30.4059H92.204Z" fill="#EBEBEB"/>
</svg>
