<svg width="185" height="58" viewBox="0 0 185 58" fill="none" xmlns="http://www.w3.org/2000/svg">
<path d="M76.6804 23.1283H80.7009V38.4633H76.6803L76.6804 23.1283ZM135.503 31.9252V38.4049L131.458 38.3902V22.6549L138.743 28.9248V23.1285H142.753V39.0293L135.503 31.9252ZM56.4615 30.7543C56.4615 26.402 59.9942 22.8697 64.3462 22.8697C66.3075 22.8697 68.1031 23.5917 69.484 24.7773L66.8785 27.734C66.1955 27.1582 65.3122 26.8118 64.3462 26.8118C62.1701 26.8118 60.4039 28.578 60.4039 30.7541C60.4039 32.93 62.1701 34.6963 64.3462 34.6963C65.3268 34.6963 66.2247 34.3353 66.9175 33.74L69.5181 36.7015C68.1371 37.9065 66.3273 38.6338 64.3462 38.6338C59.9939 38.634 56.4615 35.1063 56.4615 30.7543Z" fill="white"/>
<path d="M88.3561 41.9712L80.7495 21.7619H74.392V38.5217H70.23V21.7619H61.0183L63.1553 17.7365H83.7208L88.3558 29.8464L92.9961 17.7365H112.908L115.103 21.7619H95.9674L88.3561 41.9712Z" fill="white"/>
<path d="M101.208 38.4049V35.0186H103.969C104.418 35.0186 105.272 34.9845 105.487 34.2723C105.931 32.7891 101.383 30.3836 101.383 26.6951C101.383 23.9043 103.403 23.07 104.775 23.07H108.961V26.3975H106.375C106.375 26.3975 105.633 26.3975 105.428 26.6951C104.306 28.3004 109.585 30.6472 109.585 34.9602C109.585 37.2144 107.653 38.4049 105.726 38.4049H101.208ZM96.0261 23.0698H100.052V38.4049H96.0261V23.0698ZM110.239 23.0698H114.264V38.4049H110.239V23.0698ZM53.4072 38.4633L52.3385 35.6092H47.3473L46.279 38.4633H42L49.8456 16L57.6913 38.4633H53.4072ZM48.567 31.5103H50.9432L49.7527 27.5876L48.5669 31.5104M114.996 30.7494C114.996 26.3924 118.534 22.8551 122.895 22.8551C127.252 22.8551 130.79 26.3924 130.79 30.7494C130.79 35.1115 127.252 38.6487 122.895 38.6487C118.534 38.6487 114.996 35.1112 114.996 30.7494ZM118.972 30.7494C118.972 32.9156 120.729 34.6723 122.895 34.6723C125.057 34.6723 126.813 32.9157 126.813 30.7494C126.813 28.5881 125.057 26.8316 122.895 26.8316C120.729 26.8316 118.972 28.5878 118.972 30.7494Z" fill="white"/>
</svg>
