<svg width="185" height="58" viewBox="0 0 185 58" fill="none" xmlns="http://www.w3.org/2000/svg">
<path d="M128.105 20.7438C124.31 20.7438 122.297 22.7966 122.297 27.7141V34.2197C122.297 39.1373 124.31 41.19 128.105 41.19C131.9 41.19 133.914 39.1373 133.914 34.2197V33.9103H129.422V35.4203C129.422 36.8913 129.035 37.3569 128.183 37.3569C127.215 37.3569 126.945 36.6991 126.945 35.8469V32.168H133.953V27.7151C133.953 22.7976 131.939 20.7449 128.106 20.7449L128.105 20.7438ZM129.267 28.8366H126.944V26.0869C126.944 25.2348 127.215 24.5769 128.105 24.5769C128.996 24.5769 129.267 25.2348 129.267 26.0869V28.8366Z" fill="white"/>
<path d="M46.0157 20.6657C46.6735 20.6657 47.4095 20.5886 48.1455 20.4334L44.8932 22.37L38 40.8785H43.1118L44.5447 36.9293L43.3441 34.0635C44.738 35.8058 46.6745 36.6579 49.1138 36.6579C49.3851 36.6579 49.7716 36.6189 50.043 36.5808V40.8785H54.6892V16.3289H39.5871C40.5934 19.0395 42.5691 20.6657 46.0146 20.6657H46.0157ZM50.043 32.3212C49.8107 32.3983 49.4232 32.4764 49.0367 32.4764C47.9913 32.5154 46.9839 32.0508 46.5193 31.47L50.081 21.5569L50.042 32.3212H50.043Z" fill="white"/>
<path d="M71.2432 20.7438C69.2686 20.7438 68.1842 22.1767 67.8748 24.8873V21.0532H63.4219V40.8786H68.068V26.165C68.068 25.1197 68.2232 24.5779 68.7259 24.5779C69.3067 24.5779 69.3838 25.1587 69.3838 26.165V28.0626H74.1851V25.5072C74.1851 22.0996 73.333 20.7449 71.2422 20.7449L71.2432 20.7438Z" fill="white"/>
<path d="M80.6331 17.0649V16.4841H75.6765V36.4647C75.6765 39.5237 76.8381 40.8785 79.9742 40.8785H82.6848V37.0064H81.8327C80.6711 37.0064 80.3227 36.5027 80.3227 35.3021V24.9253H82.6848V21.0532H77.6511C79.9362 20.5886 80.6331 19.7364 80.6331 17.0649Z" fill="white"/>
<path d="M105.86 30.037L102.994 27.9843C102.065 27.3264 101.871 26.7837 101.871 26.0097C101.871 25.1576 102.143 24.5768 102.994 24.5768C103.845 24.5768 104.116 25.1576 104.116 26.1639V27.4025H108.53V26.0477C108.53 22.485 106.594 20.7427 102.993 20.7427C99.0046 20.7427 97.3003 23.0277 97.3003 26.241C97.3003 28.4479 97.9582 29.8417 100.05 31.3137L102.219 32.8628C103.768 33.9853 104.155 34.4889 104.155 35.7286C104.155 36.8511 103.884 37.3547 102.994 37.3547C102.104 37.3547 101.755 36.774 101.755 35.7677V33.9092H97.3414V35.6135C97.3414 39.6408 99.6645 41.1899 102.995 41.1899C107.138 41.1899 108.804 38.9439 108.804 35.3041C108.804 32.6706 107.758 31.3929 105.861 30.0381L105.86 30.037Z" fill="white"/>
<path d="M117.206 21.0532L115.192 28.8746H114.651V16.4841H110.003V40.8785H114.651V32.7858H115.153L117.206 40.8785H122.046L118.987 30.9664L122.046 21.0532H117.206Z" fill="white"/>
<path d="M90.1198 20.7438C85.9763 20.7438 84.3892 22.9898 84.3892 27.0943V27.7521H88.8812V26.165C88.8812 25.1587 89.1526 24.5779 90.0427 24.5779C90.9329 24.5779 91.2043 25.1587 91.2043 26.0109V26.3203C91.2043 27.3656 90.8949 27.8303 88.765 29.1861L86.9446 30.3476C84.6596 31.8185 83.9626 33.0191 83.9626 35.924C83.9626 39.0992 84.9309 41.19 87.5634 41.19C89.8485 41.19 90.9319 40.416 91.3585 36.8142V40.8796H95.8114V26.9781C95.8114 22.7966 94.1462 20.7438 90.1188 20.7438H90.1198ZM91.1652 34.7995C91.1652 36.3866 90.7777 36.8903 89.9266 36.8903C88.9974 36.8903 88.688 36.2704 88.688 35.0698C88.688 33.7531 88.9203 33.2494 89.6562 32.6686L91.1662 31.468V34.7985L91.1652 34.7995Z" fill="white"/>
<path d="M143.4 20.7438C141.426 20.7438 140.341 22.1767 140.032 24.8873V21.0532H135.579V40.8786H140.225V26.165C140.225 25.1197 140.38 24.5779 140.883 24.5779C141.464 24.5779 141.541 25.1587 141.541 26.165V28.0626H146.342V25.5072C146.342 22.0996 145.49 20.7449 143.399 20.7449L143.4 20.7438Z" fill="white"/>
<path d="M59.0451 16C57.1476 16 56.354 16.7555 56.354 17.9171C56.354 19.0786 57.1476 19.7755 59.0451 19.7755C60.9426 19.7755 61.7361 19.02 61.7361 17.9171C61.7361 16.775 60.9426 16 59.0451 16Z" fill="white"/>
<path d="M61.3683 21.0532H56.7222V40.8785H61.3683V21.0532Z" fill="white"/>
</svg>
