<svg width="185" height="58" viewBox="0 0 185 58" fill="none" xmlns="http://www.w3.org/2000/svg">
<path d="M152.999 15.4104C153.547 16.026 153.547 16.9836 152.999 17.6676C152.315 18.2148 151.358 18.2148 150.674 17.6676C150.127 17.052 150.127 16.026 150.674 15.4104C151.289 14.8632 152.315 14.8632 152.999 15.4104ZM152.521 20.4036C152.794 20.3352 152.999 20.5404 153.068 20.814V32.9893C153.136 33.2629 152.931 33.4681 152.657 33.5365H151.016C150.742 33.5365 150.537 33.3997 150.469 33.1261V20.9508C150.4 20.6772 150.605 20.472 150.879 20.4036H152.521ZM159.361 23.3448C158.745 24.0972 158.403 25.26 158.403 26.8332V27.1752C158.403 28.7485 158.745 29.9113 159.361 30.5953C160.181 31.4161 161.276 31.8265 162.439 31.6897C163.259 31.6897 164.012 31.5529 164.764 31.3477C164.901 31.2793 165.038 31.2793 165.175 31.2793C165.38 31.2793 165.517 31.4161 165.517 31.8265V32.5105C165.517 32.6473 165.517 32.8525 165.448 32.9893C165.311 33.1261 165.175 33.1945 165.038 33.2629C164.08 33.6733 163.123 33.8101 162.097 33.8101C160.045 33.8101 158.54 33.2629 157.445 32.1001C156.351 30.9373 155.804 29.2273 155.804 27.0384C155.804 24.8496 156.351 23.1396 157.445 21.9768C158.677 20.7456 160.387 20.0616 162.165 20.1984C163.123 20.1984 164.012 20.3352 164.901 20.6772C165.038 20.7456 165.175 20.814 165.311 20.9508C165.38 21.0876 165.448 21.2928 165.448 21.498V22.182C165.448 22.524 165.311 22.7292 165.106 22.7292C164.969 22.7292 164.833 22.7292 164.696 22.6608C164.012 22.4556 163.259 22.3872 162.575 22.3188C161.071 22.2504 160.045 22.5924 159.361 23.3448ZM119.894 33.5365C119.62 33.6049 119.415 33.3997 119.346 33.1261V24.6444C119.415 23.9604 119.21 23.2764 118.868 22.7292C118.457 22.3188 117.91 22.0452 117.294 22.1136C115.926 22.1136 114.627 22.524 113.464 23.2764V33.0577C113.532 33.3313 113.327 33.5365 113.054 33.6049H111.412C111.138 33.6733 110.933 33.4681 110.865 33.1945V24.6444C110.933 23.9604 110.728 23.2764 110.386 22.7292C109.976 22.3188 109.428 22.0452 108.813 22.1136C107.445 22.1136 106.145 22.524 105.051 23.2764V33.0577C105.119 33.3313 104.914 33.5365 104.64 33.6049H102.999C102.725 33.6049 102.52 33.4681 102.452 33.1945V20.9508C102.383 20.6772 102.588 20.472 102.862 20.4036H104.162C104.298 20.4036 104.435 20.4036 104.572 20.472C104.709 20.5404 104.777 20.6772 104.777 20.8824L104.914 21.7032C106.35 20.6772 107.992 20.0616 109.77 19.9932C111.412 19.9932 112.438 20.6088 113.054 21.84C114.49 20.6772 116.337 20.0616 118.184 19.9932C119.21 19.9248 120.167 20.2668 120.92 21.0192C121.604 21.84 121.946 22.866 121.877 23.892V32.9893C121.946 33.2629 121.74 33.4681 121.467 33.5365H119.894ZM133.779 20.9508C133.779 20.6772 133.916 20.472 134.189 20.4036H135.831C136.104 20.3352 136.31 20.5404 136.378 20.814V32.9893C136.446 33.2629 136.241 33.4681 135.968 33.5365H134.736C134.6 33.5365 134.463 33.5365 134.326 33.3997C134.189 33.3313 134.121 33.1945 134.121 32.9893L133.916 32.1001C132.479 33.1945 130.769 33.8785 128.991 33.8785C127.965 33.9469 126.939 33.6049 126.118 32.8525C125.434 32.0317 125.092 31.0057 125.16 29.9113V20.9508C125.16 20.6772 125.297 20.472 125.571 20.4036H127.212C127.486 20.3352 127.691 20.5404 127.76 20.814V29.1589C127.691 29.9113 127.896 30.5953 128.307 31.2109C128.717 31.6897 129.401 31.9633 130.017 31.8949C131.385 31.8265 132.684 31.4161 133.779 30.6637V20.9508ZM145.202 31.4161C145.681 31.0741 145.886 30.5269 145.886 29.9797C145.886 29.5693 145.749 29.2273 145.475 28.9537C145.065 28.6117 144.518 28.3381 144.039 28.2013L141.85 27.3804C139.935 26.6964 138.977 25.4652 138.977 23.7552C138.909 22.6608 139.456 21.6348 140.277 21.0192C141.235 20.2668 142.466 19.9248 143.697 19.9932C144.791 19.9932 145.954 20.1984 146.98 20.6088C147.117 20.6772 147.322 20.7456 147.391 20.8824C147.459 21.0192 147.527 21.2244 147.527 21.3612V22.0452C147.527 22.3872 147.391 22.524 147.185 22.524C146.98 22.524 146.775 22.4556 146.57 22.3872C145.681 22.1136 144.723 21.9768 143.765 21.9768C142.124 21.9768 141.303 22.524 141.303 23.6184C141.303 24.0288 141.44 24.3708 141.713 24.6444C142.192 24.9864 142.739 25.3284 143.355 25.4652L145.407 26.2176C146.228 26.4912 146.98 27.0384 147.527 27.654C148.006 28.2697 148.211 29.0221 148.211 29.7745C148.28 30.9373 147.733 31.9633 146.843 32.7157C145.749 33.4681 144.518 33.8785 143.15 33.8101C141.782 33.8101 140.482 33.6049 139.251 33.0577C139.114 32.9893 138.977 32.9209 138.84 32.7841C138.772 32.6473 138.704 32.4421 138.704 32.3053V31.5529C138.704 31.2109 138.772 31.0741 138.977 31.0741C139.182 31.0741 139.388 31.1425 139.593 31.2109C140.756 31.5529 141.919 31.7581 143.15 31.7581C143.971 31.9633 144.655 31.7581 145.202 31.4161ZM68.867 36.1357C68.3198 35.3833 65.0366 35.7937 63.6002 35.9989C63.1898 35.9989 63.1214 35.5885 63.5318 35.3149C66.131 33.5365 70.3034 34.0153 70.8506 34.6309C71.3978 35.2465 70.7138 39.4873 68.3198 41.4709C67.9094 41.8129 67.5674 41.6077 67.7726 41.1973C68.2514 39.8977 69.4826 36.8197 68.867 36.1357ZM67.0202 38.2561C62.5058 41.5393 56.0078 43.3177 50.3989 43.3177C42.8749 43.3861 35.6245 40.5817 30.0841 35.5885C29.6737 35.2465 30.0157 34.6993 30.5629 34.9729C36.7873 38.5297 43.7641 40.3765 50.9461 40.3765C56.2814 40.3765 61.5482 39.2821 66.473 37.2301C67.0886 36.8881 67.7726 37.7089 67.0202 38.2561ZM26.0485 27.654V27.1068C24.3384 27.1068 22.4916 27.4488 22.4916 29.5009C22.4916 30.5269 23.0388 31.2109 23.928 31.2109C24.612 31.2109 25.296 30.7321 25.5696 30.1165C25.9801 29.4325 26.1169 28.5433 26.0485 27.654ZM28.4425 33.4681C28.3057 33.6049 28.0321 33.6049 27.8953 33.5365C27.3481 33.0577 26.8693 32.5789 26.5273 31.9633C25.5696 33.1261 24.0648 33.8101 22.56 33.6733C20.508 33.6733 19.0032 32.4421 19.0032 29.9113C18.9348 28.2013 19.9608 26.628 21.534 26.0124C22.8336 25.4652 24.6804 25.3284 26.0485 25.1916V24.8496C26.1169 24.234 26.0485 23.6868 25.7748 23.1396C25.4328 22.7292 24.954 22.4556 24.4068 22.524C23.5176 22.4556 22.6968 23.0712 22.4916 23.9604C22.4916 24.1656 22.2864 24.3708 22.0812 24.3708L19.7556 24.0972C19.5504 24.0288 19.4136 23.8236 19.4136 23.6184C19.9608 20.814 22.4916 19.9248 24.7488 19.9248C26.0485 19.8564 27.3481 20.2668 28.3741 21.0876C29.5369 22.182 29.4001 23.6184 29.4001 25.1916V28.9537C29.4001 29.7745 29.7421 30.5953 30.2893 31.1425C30.4945 31.2793 30.4945 31.6213 30.2893 31.7581C29.8789 32.3053 28.9897 33.0577 28.4425 33.4681ZM57.4442 27.654V27.1068C55.7342 27.1068 53.8874 27.4488 53.8874 29.5009C53.8874 30.5269 54.4346 31.2109 55.3238 31.2109C56.0078 31.2109 56.6918 30.8005 56.9654 30.1165C57.4442 29.4325 57.581 28.5433 57.4442 27.654ZM59.9066 33.4681C59.7698 33.6049 59.4962 33.6049 59.3594 33.5365C58.8122 33.1261 58.3334 32.5789 57.9914 31.9633C57.0338 33.1261 55.529 33.8101 54.0242 33.6733C51.9722 33.6733 50.4673 32.4421 50.4673 29.9113C50.3989 28.2013 51.4249 26.628 52.9982 26.0124C54.2978 25.4652 56.1446 25.3284 57.5126 25.1916V24.8496C57.581 24.234 57.5126 23.6868 57.239 23.1396C56.897 22.7292 56.4182 22.4556 55.871 22.524C54.9818 22.4556 54.161 23.0712 53.9558 23.9604C53.9558 24.1656 53.7506 24.3708 53.5454 24.3708L51.2197 24.0972C51.0145 24.0288 50.8093 23.8236 50.8777 23.6184C51.4249 20.814 53.9558 19.9248 56.213 19.9248C57.5126 19.8564 58.8122 20.3352 59.8382 21.0876C61.001 22.182 60.8642 23.6184 60.8642 25.1916V28.9537C60.8642 29.7745 61.2062 30.5953 61.7534 31.1425C61.8902 31.3477 61.8902 31.6213 61.7534 31.7581C61.2062 32.3053 60.3854 33.0577 59.9066 33.4681ZM89.3871 33.4681H86.9931C86.7879 33.4681 86.5827 33.2629 86.5827 33.0577V20.7456C86.5827 20.5404 86.7879 20.3352 87.0615 20.3352H89.2503C89.4555 20.3352 89.6607 20.472 89.6607 20.6772V22.524H89.7291C90.4131 20.814 91.3707 20.0616 93.0123 20.0616C94.1067 19.9932 95.2011 20.5404 95.8167 21.498C96.4323 22.4556 96.4323 24.0972 96.4323 25.3284V33.1261C96.4323 33.3313 96.2271 33.5365 95.9535 33.5365H93.5595C93.3543 33.5365 93.1491 33.3997 93.1491 33.1261V26.4912C93.1491 25.1232 93.2859 23.208 91.6443 23.208C91.0287 23.208 90.4815 23.6184 90.2763 24.1656C90.0027 24.918 89.8659 25.6704 89.8659 26.4912V33.1261C89.8659 33.3313 89.6607 33.5365 89.3871 33.4681C89.3871 33.5137 89.3871 33.5137 89.3871 33.4681ZM79.3323 22.6608C77.5539 22.6608 77.4171 25.0548 77.4171 26.5596C77.4171 28.0645 77.4171 31.2793 79.2639 31.2793C81.1107 31.2793 81.1791 28.6801 81.1791 27.1068C81.2475 26.0124 81.1107 24.918 80.8371 23.8236C80.7687 23.1396 80.0847 22.5924 79.3323 22.6608ZM79.3323 20.13C82.8891 20.13 84.8043 23.1396 84.8043 27.0384C84.8043 30.9373 82.6839 33.7417 79.3323 33.7417C75.9806 33.7417 73.9286 30.6637 73.9286 26.9016C73.9286 23.1396 75.8438 20.13 79.3323 20.13ZM35.0089 33.5365H32.6149C32.4097 33.5365 32.2045 33.3313 32.2045 33.1261V20.8824C32.2045 20.6088 32.4097 20.4036 32.6833 20.4036H34.9405C35.1457 20.4036 35.3509 20.6088 35.3509 20.814V22.3872H35.4193C35.8297 21.0192 37.1293 20.0616 38.5657 20.13C40.0705 20.13 41.0281 20.814 41.6437 22.3872C42.3277 20.5404 44.3797 19.6512 46.2265 20.3352C46.8421 20.5404 47.3209 20.9508 47.7313 21.4296C48.4837 22.4556 48.3469 23.9604 48.3469 25.26V32.9893C48.3469 33.2629 48.1417 33.4681 47.8681 33.3997H45.4741C45.2689 33.3997 45.0637 33.1945 45.0637 32.9893V26.4912C45.1321 25.7388 45.0637 24.9864 44.9953 24.1656C44.9269 23.4816 44.2429 23.0028 43.5589 23.0712C42.9433 23.0712 42.3961 23.4816 42.1225 24.0972C41.9173 24.8496 41.8489 25.6704 41.9173 26.4228V32.9209C41.9173 33.1945 41.7121 33.3313 41.4385 33.3313H39.0445C38.8393 33.3313 38.6341 33.1261 38.6341 32.9209V26.4228C38.6341 25.0548 38.8393 23.0028 37.1293 23.0028C35.4193 23.0028 35.4877 24.9864 35.4877 26.4228V32.9209C35.4877 33.3313 35.2825 33.5365 35.0089 33.5365ZM63.737 22.5924V20.814C63.737 20.5404 63.9422 20.4036 64.1474 20.4036H72.0818C72.287 20.4036 72.4922 20.6088 72.5606 20.814V22.3188C72.4922 22.7292 72.287 23.1396 71.945 23.4132L67.841 29.2273C69.4142 29.1589 70.919 29.5009 72.3554 30.1849C72.629 30.3217 72.7658 30.5953 72.7658 30.8689V32.7157C72.7658 32.9209 72.5606 33.1261 72.3554 33.1261H72.1502C69.551 31.7581 66.4046 31.7581 63.8054 33.1261C63.5318 33.2629 63.2582 32.9893 63.2582 32.7157V30.9373C63.2582 30.5269 63.3266 30.1165 63.5318 29.7061L68.2514 22.9344H64.1474C63.9422 23.0028 63.737 22.7976 63.737 22.5924Z" fill="white"/>
</svg>
