<svg width="185" height="58" viewBox="0 0 185 58" fill="none" xmlns="http://www.w3.org/2000/svg">
<g clip-path="url(#clip0_1512_1496)">
<path d="M53.3898 15.0037C50.3577 15.0037 48 17.4421 48 20.343C48 23.2438 50.3577 25.724 53.3898 25.724C60.3374 25.724 61.3377 16.9379 68.0332 16.9379C71.0652 16.9379 73.423 19.4181 73.423 22.319C73.423 25.2198 71.0652 27.6582 68.0332 27.6582H55.8188C51.1273 27.6582 48 30.6542 48 35.0002C48 39.3461 51.1701 42.3848 55.8188 42.3848H62.3273C62.9178 42.3848 63.3391 42.0433 63.3391 41.403C63.3391 40.7627 62.9178 40.4212 62.3273 40.4212H55.8749C52.4162 40.4212 50.0549 38.2016 50.0549 34.9139C50.0549 31.6262 52.206 29.4492 55.3271 29.4492C63.4246 29.4492 61.7376 42.3839 72.282 42.3839H73.2101C74.7288 42.3839 75.4458 41.7436 75.4458 40.0362V22.246C75.444 18.246 72.1964 15.0037 68.19 15.0037H53.3898Z" fill="white"/>
<path d="M106.257 20.4051C106.257 16.9422 103.93 15 101.012 15C98.0943 15 95.7677 16.9422 95.7677 20.4051V26.3046C95.7677 28.1854 94.6793 29.6065 92.5442 29.6065C90.4091 29.6065 89.3207 28.1854 89.3207 26.3046V20.4051C89.3207 16.9422 86.9941 15 84.0761 15C81.1581 15 78.8315 16.9422 78.8315 20.4051V41.3602C78.8315 41.9578 79.1736 42.3846 79.8149 42.3846C80.4562 42.3846 80.7983 41.9578 80.7983 41.3602V32.9395C80.7983 31.0516 82.0168 29.6252 84.0761 29.6252C86.1355 29.6252 87.354 31.0516 87.354 32.9395V36.9867C87.354 40.357 89.6743 42.3793 92.5442 42.3793C95.4141 42.3793 97.7344 40.357 97.7344 36.9867V32.9395C97.7344 31.0516 98.9529 29.6252 101.012 29.6252C103.072 29.6252 104.29 31.0516 104.29 32.9395V41.3602C104.29 41.9578 104.632 42.3846 105.273 42.3846C105.915 42.3846 106.257 41.9578 106.257 41.3602V20.4051Z" fill="white"/>
<path d="M129.197 15.0036H111.82C110.302 15.0347 109.585 15.6661 109.535 17.3504V41.3744C109.585 41.964 109.922 42.3846 110.555 42.3846C111.189 42.3846 111.525 41.964 111.501 41.3744V34.9938C111.525 32.0885 113.845 29.6456 116.924 29.6216H129.197C133.879 29.6465 137 26.6985 137 22.3197C137 17.9409 133.879 15.0347 129.197 15.0036ZM123.293 27.7088C120.214 27.7088 117.894 25.2668 117.894 22.3188C117.894 19.3708 120.214 16.9707 123.293 16.9707C126.372 16.9707 128.65 19.4126 128.65 22.3188C128.65 25.225 126.372 27.7088 123.293 27.7088Z" fill="white"/>
</g>
<defs>
<clipPath id="clip0_1512_1496">
<rect width="89" height="27.3846" fill="white" transform="translate(48 15)"/>
</clipPath>
</defs>
</svg>
