<svg width="185" height="58" viewBox="0 0 185 58" fill="none" xmlns="http://www.w3.org/2000/svg">
<path d="M75.1809 19.9328C75.1364 19.8796 75.0765 19.8414 75.0094 19.8236C74.9423 19.8058 74.8714 19.8091 74.8063 19.8332C74.7412 19.8573 74.6851 19.901 74.6458 19.9582C74.6065 20.0153 74.5858 20.0833 74.5866 20.1527V27.1324C74.2327 24.4146 73.1182 21.8521 71.3714 19.7401C69.6247 17.6281 67.3169 16.0525 64.7138 15.1949C64.6601 15.1772 64.603 15.1725 64.5472 15.1812C64.4913 15.1899 64.4383 15.2118 64.3926 15.245C64.3469 15.2782 64.3097 15.3218 64.2841 15.3722C64.2585 15.4226 64.2453 15.4783 64.2455 15.5349V18.4767C61.4604 15.7004 57.6883 14.1414 53.7558 14.1414C49.8232 14.1414 46.0511 15.7004 43.266 18.4767V15.5349C43.2662 15.4783 43.253 15.4226 43.2274 15.3722C43.2019 15.3218 43.1647 15.2782 43.1189 15.245C43.0732 15.2118 43.0202 15.1899 42.9643 15.1812C42.9085 15.1725 42.8514 15.1772 42.7977 15.1949C40.1945 16.0523 37.8865 17.6278 36.1397 19.7398C34.393 21.8519 33.2785 24.4145 32.9249 27.1324V20.1527C32.9257 20.0833 32.905 20.0153 32.8657 19.9582C32.8264 19.901 32.7703 19.8573 32.7053 19.8332C32.6402 19.8091 32.5692 19.8058 32.5021 19.8236C32.435 19.8414 32.3751 19.8796 32.3306 19.9328C30.1804 22.4646 29 25.6781 29 28.9997C29 32.3214 30.1804 35.5349 32.3306 38.0667C32.3751 38.1199 32.435 38.158 32.5021 38.1759C32.5692 38.1937 32.6402 38.1903 32.7053 38.1663C32.7703 38.1422 32.8264 38.0985 32.8657 38.0413C32.905 37.9841 32.9257 37.9162 32.9249 37.8468V30.8671C33.2785 33.585 34.393 36.1476 36.1397 38.2596C37.8865 40.3717 40.1945 41.9472 42.7977 42.8046C42.8514 42.8223 42.9085 42.827 42.9643 42.8183C43.0202 42.8096 43.0732 42.7877 43.1189 42.7545C43.1647 42.7213 43.2019 42.6777 43.2274 42.6273C43.253 42.5769 43.2662 42.5212 43.266 42.4646V39.5228C46.0511 42.2991 49.8232 43.8581 53.7558 43.8581C57.6883 43.8581 61.4604 42.2991 64.2455 39.5228V42.4646C64.2453 42.5212 64.2585 42.5769 64.2841 42.6273C64.3097 42.6777 64.3469 42.7213 64.3926 42.7545C64.4383 42.7877 64.4913 42.8096 64.5472 42.8183C64.603 42.827 64.6601 42.8223 64.7138 42.8046C67.3169 41.9469 69.6247 40.3714 71.3714 38.2594C73.1182 36.1474 74.2327 33.5849 74.5866 30.8671V37.8468C74.5858 37.9162 74.6065 37.9841 74.6458 38.0413C74.6851 38.0985 74.7412 38.1422 74.8063 38.1663C74.8714 38.1903 74.9423 38.1937 75.0094 38.1759C75.0765 38.158 75.1364 38.1199 75.1809 38.0667C77.3311 35.5349 78.5115 32.3214 78.5115 28.9997C78.5115 25.6781 77.3311 22.4646 75.1809 19.9328ZM53.7522 34.9429C52.5767 34.9429 51.4277 34.5944 50.4503 33.9413C49.473 33.2883 48.7112 32.3601 48.2614 31.2741C47.8116 30.1881 47.6939 28.9932 47.9232 27.8403C48.1525 26.6874 48.7185 25.6284 49.5497 24.7973C50.3809 23.9661 51.4399 23.4001 52.5927 23.1708C53.7456 22.9414 54.9406 23.0591 56.0265 23.509C57.1125 23.9588 58.0407 24.7205 58.6938 25.6979C59.3468 26.6752 59.6954 27.8243 59.6954 28.9997C59.6954 30.576 59.0692 32.0876 57.9547 33.2022C56.8401 34.3168 55.3284 34.9429 53.7522 34.9429Z" fill="#F3F3FD"/>
<path d="M148.015 32.2386C147.405 32.2383 146.808 32.0675 146.29 31.7455C145.772 31.4234 145.355 30.963 145.085 30.4162C144.815 29.8695 144.704 29.2581 144.763 28.6513C144.823 28.0445 145.05 27.4664 145.421 26.9824C145.792 26.4983 146.291 26.1276 146.861 25.9121C147.431 25.6966 148.051 25.6449 148.649 25.7629C149.247 25.8809 149.8 26.1638 150.246 26.5797C150.692 26.9956 151.013 27.5279 151.172 28.1164C151.186 28.1656 151.216 28.2089 151.257 28.2397C151.298 28.2705 151.348 28.2873 151.399 28.2876H155.596C155.63 28.2879 155.663 28.2809 155.694 28.2671C155.725 28.2534 155.753 28.2331 155.775 28.2078C155.798 28.1825 155.815 28.1526 155.825 28.1203C155.835 28.0879 155.838 28.0538 155.834 28.0202C155.646 26.1396 154.771 24.3943 153.377 23.1182C151.887 21.722 150.106 21.0238 148.034 21.0238C147.001 21.0081 145.976 21.2027 145.021 21.5959C144.066 21.989 143.201 22.5725 142.479 23.3108C140.944 24.837 140.176 26.7059 140.174 28.9176C140.174 31.1522 140.896 33.0437 142.34 34.5921C143.784 36.1405 145.576 36.9151 147.718 36.9159C149.745 36.9159 151.497 36.3105 152.976 35.0997C154.332 34.0194 155.276 32.507 155.652 30.8146C155.66 30.7793 155.66 30.7425 155.652 30.7072C155.643 30.6718 155.627 30.6389 155.604 30.6107C155.581 30.5826 155.552 30.5601 155.519 30.545C155.486 30.5299 155.45 30.5225 155.414 30.5234H151.016C150.974 30.5233 150.933 30.5342 150.897 30.555C150.86 30.5759 150.83 30.606 150.809 30.6423C150.521 31.1268 150.112 31.5285 149.622 31.8082C149.132 32.0879 148.579 32.2362 148.015 32.2386Z" fill="#F3F3FD"/>
<path d="M137.672 22.8948C137.708 22.8793 137.748 22.873 137.787 22.8764C137.826 22.8798 137.864 22.8929 137.897 22.9145C137.929 22.936 137.956 22.9654 137.975 22.9999C137.994 23.0344 138.004 23.0731 138.004 23.1124V36.0566C138.004 36.1512 137.966 36.2419 137.9 36.3088C137.833 36.3756 137.742 36.4132 137.647 36.4132H133.815C133.721 36.4132 133.63 36.3756 133.563 36.3088C133.496 36.2419 133.459 36.1512 133.459 36.0566V23.1124C133.459 23.0729 133.469 23.0341 133.487 22.9994C133.506 22.9648 133.533 22.9353 133.566 22.9137C133.599 22.8921 133.637 22.8791 133.676 22.8758C133.716 22.8725 133.755 22.8791 133.791 22.8948C134.407 23.1499 135.066 23.2811 135.732 23.2811C136.398 23.2811 137.057 23.1499 137.672 22.8948ZM135.731 15.3767C135.167 15.3767 134.616 15.544 134.146 15.8575C133.677 16.1709 133.312 16.6165 133.096 17.1377C132.88 17.659 132.823 18.2326 132.933 18.786C133.043 19.3394 133.315 19.8477 133.714 20.2466C134.113 20.6456 134.621 20.9173 135.175 21.0274C135.728 21.1374 136.302 21.0809 136.823 20.865C137.344 20.6491 137.79 20.2835 138.103 19.8143C138.417 19.3452 138.584 18.7937 138.584 18.2294C138.584 17.4728 138.283 16.7472 137.748 16.2123C137.213 15.6773 136.488 15.3767 135.731 15.3767Z" fill="#F3F3FD"/>
<path d="M130.709 26.123H126.822V31.4172C126.822 31.5433 126.873 31.6642 126.962 31.7534C127.051 31.8425 127.172 31.8926 127.298 31.8926H130.711C130.774 31.8926 130.834 31.9177 130.879 31.9623C130.923 32.0068 130.948 32.0673 130.948 32.1304V36.1717C130.948 36.2348 130.923 36.2952 130.879 36.3398C130.834 36.3844 130.774 36.4095 130.711 36.4095H126.793C125.595 36.4095 124.446 35.9336 123.599 35.0865C122.752 34.2394 122.276 33.0906 122.276 31.8926V17.2724C122.276 17.2093 122.301 17.1489 122.346 17.1043C122.39 17.0597 122.451 17.0347 122.514 17.0347H126.584C126.647 17.0347 126.707 17.0597 126.752 17.1043C126.796 17.1489 126.821 17.2093 126.821 17.2724V21.5717H130.709C130.772 21.5717 130.833 21.5967 130.877 21.6413C130.922 21.6859 130.947 21.7464 130.947 21.8094V25.8853C130.947 25.9165 130.941 25.9474 130.929 25.9762C130.917 26.0051 130.899 26.0313 130.877 26.0534C130.855 26.0754 130.829 26.0929 130.8 26.1049C130.771 26.1168 130.741 26.123 130.709 26.123Z" fill="#F3F3FD"/>
<path d="M109.758 36.413H105.687C105.624 36.413 105.564 36.388 105.519 36.3434C105.475 36.2988 105.45 36.2383 105.45 36.1753V21.7928C105.45 21.7297 105.475 21.6693 105.519 21.6247C105.564 21.5801 105.624 21.5551 105.687 21.5551H109.758C109.821 21.5551 109.882 21.5801 109.926 21.6247C109.971 21.6693 109.996 21.7297 109.996 21.7928V23.0563C110.346 22.5666 110.864 22.1062 111.552 21.6751C112.261 21.2374 113.08 21.0125 113.913 21.0273C115.708 21.0273 117.13 21.5927 118.179 22.7235C119.228 23.8543 119.753 25.4451 119.755 27.4959V36.1729C119.755 36.236 119.73 36.2964 119.685 36.341C119.641 36.3856 119.58 36.4106 119.517 36.4106H115.444C115.381 36.4106 115.32 36.3856 115.276 36.341C115.231 36.2964 115.206 36.236 115.206 36.1729V28.0902C115.206 27.251 114.978 26.5806 114.524 26.079C114.069 25.5774 113.435 25.327 112.622 25.3278C111.829 25.3278 111.195 25.5726 110.72 26.0624C110.245 26.5521 110.007 27.2046 110.007 28.0201V36.1753C110.007 36.2074 110 36.2392 109.988 36.2688C109.975 36.2984 109.957 36.3251 109.933 36.3473C109.91 36.3695 109.883 36.3868 109.853 36.3981C109.823 36.4094 109.791 36.4145 109.758 36.413Z" fill="#F3F3FD"/>
<path d="M102.568 21.5516H98.4984C98.4354 21.5516 98.3749 21.5767 98.3303 21.6212C98.2858 21.6658 98.2607 21.7263 98.2607 21.7893V22.8805C97.958 22.344 97.4334 21.8951 96.687 21.5338C95.9405 21.1724 95.0431 21.0033 93.9947 21.0262C91.9431 21.05 90.2295 21.8369 88.8538 23.3869C87.4782 24.9368 86.8034 26.866 86.8296 29.1743C86.8518 31.5049 87.5745 33.3813 88.9977 34.8037C89.663 35.4918 90.4624 36.0362 91.3464 36.4031C92.2304 36.7701 93.1803 36.9519 94.1373 36.9373C95.2333 36.9373 96.16 36.7218 96.9176 36.2907C97.6751 35.8596 98.124 35.3992 98.2643 34.9095V36.1754C98.2643 36.2385 98.2893 36.2989 98.3339 36.3435C98.3785 36.3881 98.439 36.4131 98.502 36.4131H102.572C102.635 36.4131 102.695 36.3881 102.74 36.3435C102.785 36.2989 102.81 36.2385 102.81 36.1754V21.7929C102.81 21.7611 102.804 21.7295 102.792 21.7C102.78 21.6705 102.763 21.6437 102.74 21.6212C102.718 21.5987 102.691 21.581 102.661 21.569C102.632 21.557 102.6 21.5511 102.568 21.5516ZM94.816 32.2684C94.1695 32.2684 93.5376 32.0767 93 31.7175C92.4625 31.3583 92.0435 30.8478 91.7961 30.2505C91.5487 29.6532 91.484 28.996 91.6101 28.3619C91.7362 27.7278 92.0475 27.1454 92.5047 26.6883C92.9618 26.2311 93.5443 25.9198 94.1783 25.7937C94.8124 25.6675 95.4697 25.7323 96.0669 25.9797C96.6642 26.2271 97.1747 26.646 97.5339 27.1836C97.8931 27.7211 98.0848 28.3531 98.0848 28.9996C98.0848 29.8665 97.7404 30.698 97.1274 31.311C96.5144 31.924 95.683 32.2684 94.816 32.2684Z" fill="#F3F3FD"/>
</svg>
