<svg width="185" height="58" viewBox="0 0 185 58" fill="none" xmlns="http://www.w3.org/2000/svg">
<path d="M45.6793 29.7801L45.9831 29.3078L42.5304 20.3134L42.0303 19.9119H41.0011V17.1292H41H44.267L52.7746 39.0827H49.777L47.4373 33.0223L46.8546 32.5661L41.0011 32.565V29.7823L45.6793 29.7801Z" fill="white"/>
<path d="M139.321 29.7801L139.017 29.3078L142.469 20.3134L142.97 19.9119H143.999V17.1292H144H140.733L132.225 39.0827H135.223L137.563 33.0223L138.145 32.5661L143.999 32.565V29.7823L139.321 29.7801Z" fill="white"/>
<path d="M78.6348 39.0827V17.1292H93.2785V19.9034H82.1971L81.6677 20.3865L81.6698 26.0317L82.1939 26.5191H92.5428V29.2933L82.2047 29.3009L81.6666 29.7883L81.6602 35.7383L82.1971 36.3106L93.7381 36.317V39.0827H78.6348Z" fill="white"/>
<path d="M126.283 39.0827V17.1292H129.309V39.0827H126.283Z" fill="white"/>
<path d="M72.2388 41.3374L69.5667 38.175L69.2319 38.131C69.2319 38.131 67.4601 39.5701 64.1913 39.5176C58.0026 39.4189 53.0222 34.7949 53.0222 28.1034C53.0222 21.4119 57.9736 16.6614 64.2193 16.6614C70.4649 16.6614 75.3884 21.5814 75.3884 28.1034C75.3884 31.5897 73.7626 34.4325 71.5745 36.189L71.5659 36.4785L74.2444 39.6205L72.2388 41.3385V41.3374ZM67.444 36.0228L67.4955 35.7129L64.7601 32.5076L66.769 30.7854L69.6525 34.1655L69.9744 34.188C71.7955 32.4315 72.4147 30.6621 72.4147 28.1034C72.4147 23.1835 68.8326 19.4656 64.2193 19.4656C59.6059 19.4656 56.145 23.0998 56.145 28.1034C56.145 33.107 59.6617 36.9311 64.2472 36.9311C65.6261 36.9311 66.8753 36.5901 67.4429 36.0228H67.444Z" fill="white"/>
<path d="M109.37 35.1872H109.904L117.737 17.1289H122.128V39.069H119.114V21.9957H118.632L111.226 39.069H108.348" fill="white"/>
<path d="M110.925 39.069H108.048L100.641 21.9957H100.161V39.069H97.1467V17.1289H101.536L109.369 35.1872H109.904" fill="white"/>
</svg>
