<svg width="185" height="58" viewBox="0 0 185 58" fill="none" xmlns="http://www.w3.org/2000/svg">
<path d="M23 20H29.7815C33.1608 20 35.2615 21.9377 35.2615 24.4825C35.3072 26.0233 34.4852 27.4708 33.1608 28.2179C35.0103 28.8016 36.2662 30.5525 36.2662 32.5136C36.2662 35.6187 33.9143 37.6965 30.0783 37.6965H23V20ZM29.85 27.2607C31.4483 27.2607 32.3845 26.5603 32.3845 25.0195C32.3845 23.4786 31.4712 22.8016 29.85 22.8016H25.877V27.284H29.85V27.2607ZM30.5807 34.9183C32.1562 34.9183 33.2522 34.1012 33.2522 32.4903C33.2522 30.8794 32.1562 30.0389 30.5807 30.0389H25.8998V34.9183H30.5807ZM37.4763 31.393C37.4763 27.144 40.1935 24.8093 43.3673 24.8093C44.92 24.8093 46.2443 25.5564 47.1805 26.4436L48.1395 25.0662H49.989V37.7198H47.1577V36.1556C46.3585 37.0195 45.1255 37.9767 43.276 37.9767C40.3762 37.9533 37.4763 35.642 37.4763 31.393ZM47.1805 32.3268V30.4825C47.1805 28.6615 45.6735 27.3074 43.8468 27.3074C41.9288 27.3074 40.3305 28.6148 40.3305 31.393C40.3305 34.1712 41.906 35.4786 43.8697 35.4786C45.6507 35.4786 47.1577 34.1479 47.1805 32.3268ZM76.3615 25.0662H72.9137L67.8447 30.9261V20H65.0362V37.6965H67.8447V31.8366L72.9137 37.6965H76.3843L70.8815 31.3697L76.3615 25.0662ZM83.4627 25.0662H79.992L74.512 31.393L79.992 37.7198H83.4627L77.9598 31.393L83.4627 25.0662ZM99.6743 20L94.5368 31.2996L89.3765 20H86.2712V37.6965H89.0797V25.7198L93.2125 34.8482H95.8383L99.9712 25.7198V37.6965H102.757V20H99.6743ZM104.492 31.393C104.492 27.144 107.209 24.8093 110.383 24.8093C111.936 24.8093 113.26 25.5564 114.196 26.4436L115.178 25.0662H117.028V37.7198H114.196V36.1556C113.397 37.0195 112.164 37.9767 110.315 37.9767C107.415 37.9533 104.492 35.642 104.492 31.393ZM114.196 32.3268V30.4825C114.196 28.6615 112.689 27.3074 110.863 27.3074C108.922 27.3074 107.346 28.6148 107.346 31.393C107.346 34.1712 108.922 35.4786 110.885 35.4786C112.689 35.4786 114.196 34.1479 114.196 32.3268ZM119.014 25.0662H120.864L121.846 26.4436C122.69 25.463 123.512 24.856 124.768 24.856H126.846V27.5875H123.695C122.531 27.5875 121.846 28.1479 121.846 29.5019V37.6965H119.014V25.0662ZM154.383 34.4514V27.5409H152.1V25.0662H154.383V22.6148L157.237 20.9339V25.0662H160V27.5409H157.237V33.9844C157.237 34.8249 157.717 35.1984 158.653 35.1984H159.886V37.6965H157.808C155.776 37.6965 154.383 36.8093 154.383 34.4514ZM148.629 33.4008C148.172 34.6615 147.145 35.5253 145.432 35.5253C143.446 35.5253 142.076 34.2646 141.939 32.1868H151.415V31.2996C151.415 27.2374 148.903 24.8327 145.387 24.8327C142.099 24.8327 139.199 27.4708 139.199 31.4163C139.199 35.3619 141.665 38 145.387 38C148.264 38 150.25 36.5759 151.095 33.9844C150.364 33.7743 149.519 33.5875 148.629 33.4008ZM145.387 27.1673C147.168 27.1673 148.583 28.1946 148.743 30.0856H141.984C142.327 28.2179 143.697 27.1673 145.387 27.1673ZM139.633 25.0662H136.162L131.093 30.9027V20H128.262V37.6965H131.093V31.8599L136.162 37.6965H139.633L134.13 31.3697L139.633 25.0662ZM57.8437 35.4086C55.7887 35.4086 54.2588 33.9611 54.2588 31.393C54.2588 28.8249 55.7887 27.3541 57.8437 27.3541C59.6247 27.3541 60.7663 28.2646 61.1545 29.6654C61.7938 29.5253 63.1182 29.2685 63.6662 29.1284C63.0497 26.4202 60.8805 24.8093 57.8208 24.8093C54.2588 24.8093 51.496 27.4708 51.496 31.393C51.496 35.3152 54.2588 37.9767 57.8208 37.9767C60.8348 37.9767 62.9355 36.4124 63.6433 33.6342C63.0725 33.4942 61.771 33.2374 61.1317 33.0973C60.675 34.5447 59.6247 35.4086 57.8437 35.4086Z" fill="white"/>
</svg>
