<svg width="185" height="58" viewBox="0 0 185 58" fill="none" xmlns="http://www.w3.org/2000/svg">
<path d="M56.4332 43.7282C59.1297 43.7282 62.6063 42.5242 62.6063 40.1155C62.6063 38.944 61.7943 38.0982 60.657 38.0982C59.4196 38.0982 59.1297 39.0425 57.31 39.0425C55.2635 39.0425 54.4509 37.7081 54.4509 36.667C54.4509 36.2763 54.5812 35.8855 54.9707 35.8855C55.6188 35.8855 56.3354 36.1806 58.2198 36.1806C61.7943 36.1806 63.9386 34.3906 63.9386 30.8098C63.9386 27.1322 61.7943 24.7897 58.3177 24.7897C52.7615 24.7879 49.7103 30.6457 49.7103 36.0803C49.7103 41.0923 52.2442 43.7282 56.4332 43.7282ZM93.2131 28.3675C93.2131 29.6695 92.5956 33.412 92.2385 34.4856C91.9786 35.2345 91.3287 35.7551 90.6787 35.7551C89.6062 35.7551 89.1843 35.1059 89.1843 33.4769C89.1843 29.9947 90.5161 26.9682 92.0128 26.9682C92.7264 26.9682 93.2131 27.4563 93.2131 28.3675ZM97.1117 21.566C95.0327 21.566 94.6102 23.5515 93.9603 23.5515C93.4082 23.5515 92.8878 22.1196 90.6139 22.1196C86.7471 22.1196 83.366 27.9119 83.366 34.616C83.366 38.1956 84.4054 41.1897 87.7854 41.1897C90.4819 41.1897 90.7093 38.7817 91.684 38.7817C92.3322 38.7817 92.724 40.7016 94.6085 40.7016C96.1028 40.7016 96.9478 39.4321 97.3703 37.8686C98.2148 34.907 99.2218 27.5849 99.352 24.7537C99.4186 23.1283 98.6714 21.566 97.1117 21.566ZM128.531 23.7793C129.798 23.7793 130.675 25.0482 132.268 25.0482C133.697 25.0482 134.542 24.0396 134.542 22.7051C134.542 20.2322 131.78 19.2229 129.408 19.2229C125.119 19.2229 122.39 22.1846 122.39 25.8922C122.39 29.2764 124.6 30.0573 126.419 30.9361C127.523 31.4567 128.173 31.8474 128.173 32.5957C128.173 33.2143 127.686 33.5719 126.877 33.5719C125.155 33.5719 124.472 32.3679 123.075 32.3679C121.613 32.3679 120.836 33.6074 120.836 34.8739C120.836 37.3799 123.63 38.2257 125.904 38.2257C130.517 38.2257 133.539 35.2646 133.539 31.4242C133.539 27.8771 130.972 26.9333 129.218 26.185C128.243 25.7618 127.528 25.4366 127.528 24.6882C127.523 24.1045 127.946 23.7793 128.531 23.7793ZM106.633 31.0364C106.698 29.797 107.281 29.4092 108.485 29.4092H109.687C112.644 29.4092 113.716 27.7496 113.716 26.4151C113.716 25.1787 113.099 23.6164 110.987 23.8117L109.492 23.9416C108.225 24.0396 107.998 23.2257 108.29 21.8588C108.517 20.7852 109.005 20.1991 110.077 20.1342L112.807 19.9388C114.464 19.809 115.635 18.5719 115.635 16.9453C115.635 15.3518 114.92 14.2764 112.386 14.2764C106.407 14.2764 104.295 15.2526 102.801 19.2229C101.533 22.6077 100.072 33.3795 100.072 36.2757C100.072 38.6188 101.079 40.0181 103.061 40.0181C104.946 40.0181 106.243 38.6512 106.342 36.5684L106.633 31.0364ZM59.1308 31.2967C59.1308 32.0126 58.7083 32.3378 57.6041 32.3378C56.1415 32.3378 55.4922 32.11 55.4922 31.557C55.4922 30.9078 56.2717 29.5066 57.5717 29.5066C58.4473 29.5066 59.1297 30.2875 59.1297 31.2967H59.1308ZM44.5761 26.3502C44.5761 27.8145 43.5036 29.1832 42.1395 29.1832C41.2621 29.1832 40.8396 28.6296 40.8396 27.6858C40.8396 26.7096 41.3269 24.6923 42.9839 24.6923C43.9562 24.6906 44.5737 25.3085 44.5737 26.3502H44.5761ZM42.4624 36.3081C42.4624 38.0002 41.2279 39.4651 39.8632 39.4651C39.0506 39.4651 38.5957 38.944 38.5957 38.0658C38.5957 36.7638 39.3435 34.5511 41.0329 34.5511C41.9421 34.5511 42.4624 35.2345 42.4624 36.3081ZM147.635 18.0189C146.011 18.0189 145.004 18.6681 144.029 20.0043C143.672 20.4924 143.477 20.7527 143.152 20.7527C142.857 20.7527 142.664 20.5249 142.664 20.1035C142.632 18.1511 143.997 16.5239 143.997 14.604C143.997 12.9113 142.989 12 141.593 12C138.411 12 136.879 17.2398 135.809 23.6182C135.029 28.2719 134.704 32.8602 134.704 34.2595C134.704 36.5377 135.972 37.3841 137.466 37.3841C138.831 37.3841 140.162 36.3424 140.358 34.6827C140.683 31.9164 140.943 28.4673 141.235 26.7096C141.462 25.3427 142.015 23.8767 143.347 23.8767C144.386 23.8767 144.971 24.6575 144.776 25.9595C144.224 29.6046 143.639 30.7106 143.055 32.9888C142.502 35.169 143.412 36.7313 145.491 36.7313C146.726 36.7313 147.798 35.9174 148.35 34.5836C149.033 32.9239 150.852 25.5363 150.852 22.1846C150.852 19.4832 149.683 18.0189 147.635 18.0189ZM50.6172 24.8204C50.6172 21.5336 48.3102 19.2878 43.8266 19.2878C39.8626 19.2878 37.3606 20.8814 36.1909 24.1369C34.8945 27.7165 33.3318 34.4207 33.0395 38.4559C32.6807 42.9467 34.7614 45.16 39.4077 45.16C44.3139 45.16 48.4405 42.3937 48.4405 37.2513C48.4405 34.485 47.1406 33.3459 45.9709 32.4022C45.6132 32.1071 45.5484 31.6213 46.1335 31.3935C48.7976 30.3854 50.6172 27.782 50.6172 24.8204ZM74.2707 36.7638C74.2707 35.0067 74.6932 33.314 75.0827 31.9471C75.408 30.7761 75.7309 30.1252 75.7309 29.4742C75.7309 28.7582 75.1464 28.3351 74.3014 28.3351C71.1194 28.3351 70.4022 31.4921 70.4022 35.82C70.4022 38.1307 72.774 37.7087 72.774 39.9857C72.774 41.45 71.4423 42.654 69.0381 42.654C65.9509 42.654 64.489 40.7016 64.6516 37.3823C64.7813 34.616 65.529 32.0114 65.9185 30.8411C66.5037 29.0834 64.8791 29.0185 64.8791 27.2615C64.8791 26.1549 65.6587 25.341 66.5037 24.7555C67.2509 24.2349 67.4135 23.9416 67.6079 22.9329L67.9026 21.4686C68.1972 20.0368 69.3969 19.0276 70.6969 19.0276C72.2236 19.0276 73.1983 20.1017 73.1983 21.5985C73.1983 22.2819 73.101 22.4448 72.9708 23.1283C72.7434 24.2019 73.3285 24.7555 74.5954 24.7555C75.6355 24.7555 76.9024 23.8767 77.1946 22.3799L77.5199 20.7527C77.8145 19.3209 78.9495 18.3116 80.2164 18.3116C81.7437 18.3116 82.7184 19.3858 82.7184 20.915C82.7184 22.0866 81.9064 23.0303 82.9134 23.6164C83.7578 24.1045 84.2098 24.7555 84.2098 25.5363C84.2098 26.8708 82.8456 27.9774 81.676 28.4655C81.0278 28.7606 80.6683 29.2788 80.5063 30.3205C80.1162 32.5981 79.986 34.2253 79.986 34.747C79.986 37.2206 82.1633 36.8623 82.1633 39.0107C82.1633 40.6042 80.7337 41.9393 78.4916 41.9393C75.7327 41.9363 74.2707 40.0181 74.2707 36.7638ZM120.993 13.528C119.174 13.528 117.874 14.7675 117.874 16.5221C117.874 17.3679 118.101 18.0189 117.225 18.605C116.089 19.3209 115.34 20.1666 115.34 21.5011C115.34 22.8025 116.185 23.6164 116.185 24.723C116.185 26.0215 114.885 26.3827 114.885 27.9444C114.885 29.3437 115.957 30.3205 117.485 30.3205C119.499 30.3205 121.123 28.5953 121.123 26.1891C121.123 24.6593 120.539 23.6831 120.539 22.1863C120.539 19.3876 124.437 19.8108 124.437 16.6213C124.437 14.797 123.007 13.528 120.993 13.528ZM116.509 31.8834C114.3 31.8834 112.738 33.6085 112.738 36.0148C112.738 37.7718 113.94 39.0089 115.63 39.0089C117.807 39.0089 119.366 37.3162 119.366 34.9406C119.369 33.1517 118.199 31.8822 116.509 31.8822V31.8834Z" fill="white"/>
</svg>
