<svg width="185" height="58" viewBox="0 0 185 58" fill="none" xmlns="http://www.w3.org/2000/svg">
<path d="M56.941 26.3401C56.3708 22.9572 53.159 20.6767 49.7762 21.2468L50.7834 15.5834L47.1725 14.9373C46.8685 15.6214 45.5001 18.7192 44.835 22.2351C46.1843 23.1473 47.1725 24.5917 47.4576 26.3401C47.7807 28.2026 47.2296 29.989 46.1273 31.3383C46.3933 31.6614 46.7164 31.9845 47.0585 32.2506C48.4839 33.3528 50.1943 33.7899 51.8667 33.5049C55.2495 32.9537 57.5301 29.7419 56.941 26.3401Z" fill="white"/>
<path d="M44.7591 22.6342C44.7781 22.5012 44.7971 22.3681 44.8351 22.2541C43.5618 21.3799 41.9464 20.9808 40.293 21.2659L41.3002 15.6025L37.6893 14.9563C37.3663 15.6595 35.9219 18.9853 35.2947 22.6342C34.7816 25.5799 34.8196 28.7347 36.378 30.9583C36.7201 31.4334 37.1192 31.8705 37.6133 32.2506C39.0387 33.3529 40.7491 33.79 42.4215 33.5049C43.9609 33.2388 45.2532 32.4406 46.1845 31.3384C46.0894 31.2243 45.9944 31.0913 45.8994 30.9583C44.265 28.7347 44.246 25.5799 44.7591 22.6342Z" fill="white"/>
<path d="M129.919 32.2696H127.753C127.677 32.2696 127.62 32.3076 127.601 32.3837C127.297 33.1819 126.86 33.847 126.27 34.3221C125.662 34.7973 124.883 35.0633 123.876 35.0633C122.488 35.0633 121.367 34.4552 120.607 33.4289C119.847 32.4217 119.429 30.9963 119.429 29.3619C119.429 27.7275 119.847 26.3021 120.607 25.2949C121.367 24.2876 122.488 23.6795 123.876 23.6795C124.883 23.6795 125.681 23.9456 126.27 24.4017C126.879 24.8768 127.297 25.523 127.601 26.3212C127.62 26.3782 127.696 26.4352 127.753 26.4352H129.919C129.957 26.4352 130.014 26.4162 130.033 26.3782C130.071 26.3402 130.09 26.3021 130.09 26.2641V26.2261C129.767 24.7628 129.064 23.5465 128 22.7103C126.955 21.874 125.567 21.3989 123.876 21.3989C121.899 21.3989 120.151 22.1971 118.897 23.6035C117.642 24.9908 116.882 26.9863 116.882 29.3619C116.882 31.7375 117.642 33.733 118.897 35.1203C120.151 36.5077 121.899 37.3249 123.876 37.3249C125.567 37.3249 126.955 36.8498 128 36.0136C129.045 35.1774 129.767 33.9611 130.09 32.4787V32.4407C130.09 32.4027 130.071 32.3456 130.052 32.3266C130.014 32.2886 129.957 32.2696 129.919 32.2696Z" fill="white"/>
<path d="M148.867 25.8649C148.734 25.8459 148.506 25.8079 148.202 25.8079C147.936 25.8079 147.632 25.8269 147.271 25.9029C146.947 25.9599 146.643 26.0929 146.32 26.245C146.016 26.416 145.731 26.6441 145.446 26.9101C145.294 27.0622 145.142 27.2522 145.009 27.4613L144.914 27.6133V26.1499C144.914 26.0549 144.838 25.9789 144.743 25.9789H142.709C142.614 25.9789 142.538 26.0549 142.538 26.1499V36.9446C142.538 37.0397 142.614 37.1157 142.709 37.1157H144.781C144.876 37.1157 144.952 37.0397 144.952 36.9446V31.7183C144.952 31.1102 145.028 30.5971 145.161 30.1599C145.294 29.7228 145.503 29.3998 145.769 29.1337C146.035 28.8676 146.358 28.6776 146.719 28.5445C147.156 28.3925 147.613 28.3355 148.012 28.3355C148.335 28.3355 148.62 28.3735 148.81 28.3925H148.829C148.924 28.3925 149 28.3165 149 28.2215V26.0169C149 25.9599 148.943 25.8839 148.867 25.8649Z" fill="white"/>
<path d="M104.054 21.3989H104.016L101.925 21.76C101.849 21.779 101.792 21.836 101.792 21.9311V36.9638C101.792 37.0588 101.868 37.1348 101.963 37.1348H104.054C104.149 37.1348 104.225 37.0588 104.225 36.9638V21.57C104.225 21.4559 104.149 21.3989 104.054 21.3989Z" fill="white"/>
<path d="M99.7587 30.3121C99.4547 29.6849 99.0175 29.1528 98.5044 28.7157L98.3524 28.6017C98.1243 28.4306 97.8773 28.2596 97.6112 28.1456L97.5542 28.1076L97.5922 28.0505C97.8392 27.7655 98.0293 27.4614 98.2003 27.1003C98.4284 26.6062 98.5424 26.074 98.5424 25.5229C98.5424 24.9338 98.4284 24.3826 98.1813 23.8505C97.9533 23.3374 97.6302 22.8813 97.2121 22.5012C96.832 22.1591 96.3759 21.874 95.8628 21.684C95.3496 21.4939 94.7035 21.3799 93.9433 21.3799H89.3441C89.2491 21.3799 89.1731 21.4559 89.1731 21.5509V36.9448C89.1731 37.0398 89.2491 37.1158 89.3441 37.1158H95.0075C95.8057 37.1158 96.4899 37.0208 97.0411 36.8497C97.5922 36.6597 98.0673 36.3936 98.4854 36.0515C99.0175 35.6144 99.4356 35.0823 99.7397 34.4551C99.8157 34.3221 99.8728 34.1891 99.9108 34.037L99.9298 33.98C99.9488 33.942 99.9488 33.904 99.9678 33.866C100.139 33.3909 100.215 32.8967 100.215 32.3836C100.234 31.6424 100.082 30.9583 99.7587 30.3121ZM91.6057 23.6985H93.5442H93.5632C94.1713 23.6985 94.6275 23.7555 94.9125 23.8505C95.2166 23.9645 95.4447 24.0976 95.5967 24.2876C95.9388 24.6487 96.0908 25.0668 96.1098 25.5609C96.1098 26.055 95.9388 26.4731 95.5967 26.8342C95.4256 27.0243 95.2166 27.1763 94.9125 27.2713C94.7035 27.3474 94.3804 27.4044 94.0003 27.4234H91.6247V23.6985H91.6057ZM97.5542 33.2388C97.4211 33.5429 97.2501 33.809 97.0411 34.018C96.794 34.2651 96.5089 34.4361 96.1478 34.5882C95.8057 34.7212 95.2736 34.7972 94.5704 34.7972H91.6057V29.799H94.5704C95.2736 29.799 95.7867 29.875 96.1478 30.008C96.5089 30.1411 96.794 30.3311 97.0411 30.5782C97.2501 30.8062 97.4211 31.0723 97.5542 31.3574C97.6872 31.6424 97.7442 31.9655 97.7442 32.3076C97.7442 32.6307 97.6872 32.9538 97.5542 33.2388Z" fill="white"/>
<path d="M114.126 26.8913C113.309 26.1692 112.207 25.7891 110.82 25.7891C109.584 25.7891 108.558 26.0931 107.779 26.7013C107.095 27.2144 106.62 27.8606 106.354 28.6588C106.315 28.7538 106.373 28.8298 106.468 28.8488L108.425 29.1909C108.501 29.2099 108.558 29.1719 108.577 29.0959C108.976 28.2217 109.717 27.7846 110.839 27.7846C111.58 27.7846 112.169 27.9936 112.587 28.4117C113.005 28.8298 113.214 29.381 113.214 30.0841V30.4832C112.169 30.1792 111.2 30.0271 110.268 30.0271C108.976 30.0271 107.893 30.3502 107.038 31.0154C106.182 31.6615 105.745 32.5928 105.745 33.771C105.745 34.8923 106.144 35.7855 106.924 36.4127C107.703 37.0589 108.653 37.3629 109.755 37.3629C111.181 37.3629 112.321 36.9448 113.195 36.1086V36.9638C113.195 37.0589 113.271 37.1539 113.385 37.1539H115.191C115.286 37.1539 115.381 37.0779 115.381 36.9638V34.8733V29.9321C115.362 28.6208 114.944 27.6135 114.126 26.8913ZM112.283 34.4932C111.675 34.9874 110.934 35.2344 110.04 35.2344C109.394 35.2344 108.9 35.0824 108.558 34.7973C108.216 34.5122 108.045 34.1131 108.045 33.619C108.045 33.0679 108.254 32.6688 108.691 32.3837C109.128 32.0986 109.679 31.9656 110.364 31.9656C111.238 31.9656 112.169 32.1176 113.195 32.4217C113.195 33.3149 112.891 33.9991 112.283 34.4932Z" fill="white"/>
<path d="M75.8507 21.3989H75.8127L73.7221 21.76C73.6461 21.779 73.5891 21.836 73.5891 21.9311V36.9638C73.5891 37.0588 73.6651 37.1348 73.7602 37.1348H75.8507C75.9457 37.1348 76.0217 37.0588 76.0217 36.9638V21.57C76.0027 21.4559 75.9267 21.3989 75.8507 21.3989Z" fill="white"/>
<path d="M71.5366 30.3121C71.2135 29.6849 70.7954 29.1528 70.2823 28.7157L70.1302 28.6017C69.9022 28.4306 69.6551 28.2596 69.3891 28.1456L69.332 28.1076L69.3701 28.0505C69.6171 27.7655 69.8072 27.4614 69.9782 27.1003C70.2063 26.6062 70.3203 26.074 70.3203 25.5229C70.3203 24.9338 70.2063 24.3826 69.9592 23.8505C69.7311 23.3374 69.4081 22.8813 68.99 22.5012C68.6099 22.1591 68.1538 21.874 67.6406 21.684C67.1275 21.4939 66.4813 21.3799 65.7212 21.3799H61.141C61.046 21.3799 60.97 21.4559 60.97 21.5509V36.9448C60.97 37.0398 61.046 37.1158 61.141 37.1158H66.8044C67.6026 37.1158 68.2868 37.0208 68.8379 36.8497C69.3891 36.6597 69.8642 36.3936 70.2823 36.0515C70.8144 35.6144 71.2325 35.0823 71.5366 34.4551C71.6126 34.3221 71.6696 34.1891 71.7076 34.037L71.7266 33.98C71.7456 33.942 71.7456 33.904 71.7647 33.866C71.9357 33.3909 72.0117 32.8967 72.0117 32.3836C72.0117 31.6424 71.8597 30.9583 71.5366 30.3121ZM63.4026 23.6985H65.3411C65.9492 23.6985 66.4053 23.7555 66.6904 23.8505C66.9945 23.9645 67.2225 24.0976 67.3746 24.2876C67.7166 24.6487 67.8687 25.0668 67.8877 25.5609C67.8877 26.055 67.7166 26.4731 67.3746 26.8342C67.2035 27.0243 66.9755 27.1763 66.6904 27.2713C66.4813 27.3474 66.1583 27.4044 65.7782 27.4234H63.4026V23.6985ZM69.3511 33.2388C69.218 33.5429 69.047 33.809 68.8379 34.018C68.5909 34.2651 68.3058 34.4361 67.9447 34.5882C67.6026 34.7212 67.0705 34.7972 66.3673 34.7972H63.4026V29.799H66.3673C67.0705 29.799 67.5836 29.875 67.9447 30.008C68.3058 30.1411 68.5909 30.3311 68.8379 30.5782C69.047 30.8062 69.218 31.0723 69.3511 31.3574C69.4841 31.6424 69.5411 31.9655 69.5411 32.3076C69.5411 32.6307 69.4651 32.9538 69.3511 33.2388Z" fill="white"/>
<path d="M85.9233 26.8913C85.1061 26.1692 84.0038 25.7891 82.6165 25.7891C81.3812 25.7891 80.3549 26.0931 79.5757 26.7013C78.8916 27.2144 78.4165 27.8606 78.1504 28.6588C78.1124 28.7538 78.1694 28.8298 78.2644 28.8488L80.2219 29.1909C80.2979 29.2099 80.3549 29.1719 80.3739 29.0959C80.773 28.2217 81.5142 27.7846 82.6355 27.7846C83.3767 27.7846 83.9658 27.9936 84.3839 28.4117C84.802 28.8298 85.0111 29.381 85.0111 30.0841V30.4832C83.9658 30.1792 82.9966 30.0271 82.0654 30.0271C80.773 30.0271 79.6898 30.3502 78.8346 31.0154C77.9793 31.6615 77.5422 32.5928 77.5422 33.771C77.5422 34.8923 77.9413 35.7855 78.7205 36.4127C79.4997 37.0589 80.45 37.3629 81.5522 37.3629C82.9776 37.3629 84.1179 36.9448 84.9921 36.1086V36.9638C84.9921 37.0589 85.0681 37.1539 85.1821 37.1539H86.9876C87.0826 37.1539 87.1776 37.0779 87.1776 36.9638V34.8733V29.9321C87.1396 28.6208 86.7405 27.6135 85.9233 26.8913ZM84.0609 34.4932C83.4527 34.9874 82.7115 35.2344 81.8183 35.2344C81.1721 35.2344 80.678 35.0824 80.3359 34.7973C79.9938 34.5122 79.8228 34.1131 79.8228 33.619C79.8228 33.0679 80.0319 32.6688 80.469 32.3837C80.9061 32.0986 81.4572 31.9656 82.1414 31.9656C83.0156 31.9656 83.9468 32.1176 84.9731 32.4217C84.9731 33.3149 84.669 33.9991 84.0609 34.4932Z" fill="white"/>
<path d="M139.612 26.8913C138.794 26.1692 137.692 25.7891 136.305 25.7891C135.069 25.7891 134.043 26.0931 133.264 26.7013C132.58 27.2144 132.105 27.8606 131.839 28.6588C131.801 28.7538 131.858 28.8298 131.953 28.8488L133.91 29.1909C133.986 29.2099 134.043 29.1719 134.062 29.0959C134.461 28.2217 135.202 27.7846 136.324 27.7846C137.065 27.7846 137.654 27.9936 138.072 28.4117C138.49 28.8298 138.699 29.381 138.699 30.0841V30.4832C137.654 30.1792 136.685 30.0271 135.754 30.0271C134.461 30.0271 133.378 30.3502 132.523 31.0154C131.668 31.6615 131.23 32.5928 131.23 33.771C131.23 34.8923 131.611 35.7855 132.409 36.4127C133.188 37.0589 134.138 37.3629 135.24 37.3629C136.666 37.3629 137.806 36.9448 138.68 36.1086V36.9638C138.68 37.0589 138.756 37.1539 138.87 37.1539H140.676C140.771 37.1539 140.866 37.0779 140.866 36.9638V34.8733V29.9321C140.828 28.6208 140.429 27.6135 139.612 26.8913ZM137.749 34.4932C137.141 34.9874 136.4 35.2344 135.507 35.2344C134.86 35.2344 134.366 35.0824 134.024 34.7973C133.682 34.5122 133.511 34.1131 133.511 33.619C133.511 33.0679 133.72 32.6688 134.157 32.3837C134.594 32.0986 135.145 31.9656 135.83 31.9656C136.704 31.9656 137.635 32.1176 138.661 32.4217C138.661 33.3149 138.357 33.9991 137.749 34.4932Z" fill="white"/>
</svg>
