<svg width="185" height="58" viewBox="0 0 185 58" fill="none" xmlns="http://www.w3.org/2000/svg">
<path d="M64.5259 33.9312V22.226H68.6886C70.9179 22.226 72.1573 23.5447 72.1573 25.2593C72.1573 26.2985 71.7111 27.1515 70.8684 27.7002C72.2389 28.2111 72.9665 29.3013 72.9665 30.684C72.9665 32.531 71.6542 33.9312 69.333 33.9312H64.5259ZM66.6575 24.1619V27.0962H68.4407C69.2995 27.0962 69.9935 26.6595 69.9935 25.597C69.9935 24.6072 69.2995 24.1619 68.4407 24.1619H66.6575ZM66.6575 29.0262V32.0099H69.0356C70.0256 32.0099 70.7853 31.5485 70.7853 30.5093C70.7853 29.4701 70.0242 29.0262 69.0356 29.0262H66.6575Z" fill="white"/>
<path d="M77.8757 33.9312V22.226H80.0059V32.0027H85.0274V33.9312H77.8757Z" fill="white"/>
<path d="M88.531 28.0784C88.531 24.4178 91.2896 21.9288 94.7904 21.9288C98.2911 21.9288 101.034 24.4178 101.034 28.0784C101.034 31.739 98.2751 34.2279 94.7904 34.2279C91.3057 34.2279 88.531 31.739 88.531 28.0784ZM98.9035 28.0784C98.9035 25.5894 97.1189 23.8574 94.7904 23.8574C92.4283 23.8574 90.6612 25.5894 90.6612 28.0784C90.6612 30.5673 92.4283 32.2993 94.7904 32.2993C97.1189 32.2993 98.9035 30.5658 98.9035 28.0784Z" fill="white"/>
<path d="M109.13 34.129C107.925 34.129 106.851 33.7506 105.678 33.3547V31.1292L109.065 32.2835C110.17 32.2835 110.864 31.7726 110.864 30.7828C110.864 28.3259 105.711 29.1498 105.711 25.1442C105.711 23.2972 107.147 22.028 109.23 22.028C110.271 22.0422 111.302 22.2489 112.268 22.6378V24.8473L109.279 23.8575C108.353 23.8575 107.792 24.3859 107.792 25.1107C107.792 27.294 112.978 26.7598 112.978 30.7668C112.978 32.8438 111.376 34.129 109.13 34.129Z" fill="white"/>
<path d="M121.69 34.129C120.484 34.129 119.41 33.7506 118.237 33.3547V31.1292L121.623 32.2835C122.73 32.2835 123.424 31.7726 123.424 30.7828C123.424 28.3259 118.271 29.1498 118.271 25.1442C118.271 23.2972 119.707 22.028 121.789 22.028C122.831 22.0422 123.861 22.2489 124.828 22.6378V24.8473L121.839 23.8575C120.913 23.8575 120.351 24.3859 120.351 25.1107C120.351 27.294 125.538 26.7598 125.538 30.7668C125.538 32.8438 123.935 34.129 121.69 34.129Z" fill="white"/>
<path d="M130.17 28.0784C130.17 24.4178 132.929 21.9288 136.431 21.9288C139.933 21.9288 142.673 24.4178 142.673 28.0784C142.673 31.739 139.915 34.2279 136.432 34.2279C132.949 34.2279 130.17 31.739 130.17 28.0784ZM140.542 28.0784C140.542 25.5894 138.759 23.8574 136.431 23.8574C134.069 23.8574 132.302 25.5894 132.302 28.0784C132.302 30.5673 134.069 32.2993 136.431 32.2993C138.765 32.2993 140.542 30.5658 140.542 28.0784V28.0784Z" fill="white"/>
<path d="M147.462 33.9312V22.226H149.846L153.381 28.1136L156.911 22.226H159.289V33.9312H157.247V25.9259L153.394 31.8673L149.518 25.827V33.9356L147.462 33.9312Z" fill="white"/>
<path d="M52.6268 27.8412C52.5393 24.364 51.717 22.4006 50.1831 22.0076C49.1392 21.7398 47.9596 22.2783 46.732 23.5489C46.9147 22.3009 46.999 21.0404 46.9842 19.7792C46.958 16.9657 45.9096 14.5627 44.2489 13.5103C43.3464 12.9383 42.3666 12.8437 41.4918 13.244C41.136 13.4027 40.8186 13.6358 40.561 13.9276C40.3034 14.2194 40.1117 14.563 39.9987 14.9353C39.4359 16.7183 40.302 19.5929 42.5765 23.4703C43.2173 24.6025 43.7823 25.7758 44.2679 26.9825C43.7678 27.7772 43.1364 28.5835 42.4716 29.4394C41.5238 30.6504 40.4507 32.0243 39.4797 33.7055C39.1487 34.2789 38.0683 36.3254 38.0654 38.5217C38.0654 39.5682 38.3045 40.4852 38.7463 41.1911C35.7952 39.9365 36.7779 34.3794 37.4442 30.1729C37.9575 26.9286 38.4882 23.5737 38.2505 20.4356C38.1149 18.6439 37.5463 15.5568 35.2674 15.011C33.6285 14.618 31.736 15.8086 30.329 18.117C29.9132 18.8058 29.5543 19.5272 29.2559 20.2741C26.9332 20.2319 25.1923 23.3437 25.013 27.831C24.8438 32.0695 26.3369 36.1536 29.1115 39.0384C30.3588 40.3456 31.86 41.3854 33.5233 42.0941C35.1866 42.8028 36.9772 43.1656 38.7856 43.1604C40.6694 43.1604 44.9692 42.7572 48.521 39.0384C51.249 36.1784 52.7405 32.2354 52.6268 27.8412ZM41.3751 15.3676C41.4294 15.1881 41.522 15.0226 41.6466 14.8823C41.7712 14.7421 41.9248 14.6306 42.0968 14.5554C42.3884 14.4098 42.8827 14.3414 43.4791 14.7286C44.4107 15.3312 45.5203 17.0065 45.5466 19.7952C45.5784 21.5434 45.3898 23.2887 44.9852 24.9899C44.5741 24.1049 44.1731 23.3394 43.8188 22.747C41.12 18.1345 41.1287 16.1448 41.3751 15.3676ZM30.1278 22.1546C31.0813 23.0803 32.0378 25.5386 32.0232 30.2545C32.013 34.1712 32.3148 36.9731 32.9943 38.9598C30.7241 36.4243 29.7866 32.6764 29.495 30.2952C29.164 27.5312 29.374 24.6682 30.1278 22.1546ZM34.62 16.3748C35.9002 16.3748 36.635 18.1956 36.8071 20.5448C37.0316 23.514 36.5402 26.7904 36.0139 29.9488C35.1391 35.1726 34.6914 39.0355 36.6117 41.3308C34.0339 40.1577 33.4463 35.8712 33.4609 30.2574C33.4827 24.5896 32.1822 21.7296 30.6337 20.7151C30.8936 20.0751 31.2037 19.4565 31.561 18.8651C32.5088 17.3107 33.6737 16.3748 34.62 16.3748ZM26.455 27.8878C26.5322 25.9607 27.0294 22.8736 28.7149 21.8475C28.1543 23.8019 27.8812 25.8273 27.9043 27.8602C27.929 31.448 28.903 35.8465 31.1819 38.9875C27.6943 36.123 26.3004 31.7376 26.4535 27.8878H26.455ZM40.5003 40.9873C38.4182 39.4824 40.1416 35.4564 40.7307 34.4303C41.6521 32.8365 42.6917 31.5047 43.6088 30.3301C44.0608 29.7479 44.4968 29.1934 44.8948 28.6345C45.984 31.7449 46.6999 35.4462 45.7419 38.1244C44.8278 40.6715 41.7557 41.8912 40.493 40.9815L40.5003 40.9873ZM47.2 38.3281C47.929 36.1303 47.7934 33.2557 46.7888 29.7741C46.522 28.8499 46.2056 27.9504 45.8848 27.1033C47.4624 24.4979 48.8607 23.3801 49.6524 23.3801C50.4441 23.3801 51.1105 24.8152 51.1921 27.8776C51.2825 31.8759 50.0155 35.4928 47.2 38.3281Z" fill="white"/>
</svg>
