<svg width="185" height="58" viewBox="0 0 185 58" fill="none" xmlns="http://www.w3.org/2000/svg">
<path d="M113.621 25.7213H123.348C120.015 30.0492 117.192 35.5246 115.729 40.4754H129.742V25.7213H136V17.5246H113.621V25.7213ZM97.9077 40.4754H114.029V32.2787H104.302C107.635 27.9508 110.458 22.4754 111.92 17.5246H97.9077L97.9077 40.4754ZM80.3581 29C80.3581 25.6229 81.5145 23.8852 83.7932 23.8852C86.0719 23.8852 87.2283 25.6229 87.2283 29C87.2283 32.377 86.0719 34.1147 83.7932 34.1147C81.5145 34.1147 80.3581 32.377 80.3581 29ZM57.5707 26.9016V22.9016H59.5774C60.9038 22.9016 61.584 23.5902 61.584 24.9016C61.584 26.2131 60.9038 26.9016 59.5774 26.9016H57.5707ZM57.5707 35.0983V30.836H59.7135C61.1419 30.836 61.8562 31.5573 61.8562 32.9672C61.8562 34.377 61.1419 35.0983 59.7135 35.0983H57.5707ZM49 40.4754H62.7404C67.3999 40.4754 70.5629 37.7869 70.5629 33.8525C70.5629 31.3935 69.2025 29.6886 66.5496 28.6066C68.8624 27.5574 69.9508 25.8525 69.9508 23.6885C69.9508 20.0164 66.9918 17.5246 62.6384 17.5246H49V40.4754ZM83.7932 41C91.1735 41 96.0711 36.2131 96.0711 29C96.0711 21.7868 91.1736 17 83.7932 17C76.4128 17 71.5152 21.7869 71.5152 29C71.5152 36.2132 76.4128 41 83.7932 41Z" fill="white"/>
</svg>
