<svg width="185" height="58" viewBox="0 0 185 58" fill="none" xmlns="http://www.w3.org/2000/svg">
<path d="M130.353 43.8952L133.994 46.02L137.963 39.098C142.735 36.4228 146.122 34.1164 150.856 30.0127L147.067 27.8137C144.371 30.1944 141.675 32.1375 138.4 34.1494C138.509 30.3045 138.837 26.9687 139.564 23.4541L135.704 21.2192C134.502 27.4091 134.21 31.5127 134.319 36.9705L130.35 43.8925L130.353 43.8952ZM121.262 25.5871L124.778 26.9164C126.807 27.6788 127.985 26.7761 128.476 25.466C128.968 24.1531 128.659 22.722 126.665 21.9623L123.114 20.5944L121.262 25.5871ZM112.871 36.1283L120.445 15.1394L128.129 17.9605C132.098 19.4247 133.885 22.9421 132.535 26.7513C131.478 29.754 129.222 31.0008 126.818 31.1467C127.474 34.6999 127.837 38.9852 127.438 42.098L123.36 40.3393C123.579 37.8127 123.324 32.4265 122.704 30.376L119.828 29.3137L116.842 37.5567L112.874 36.1283H112.871ZM98.0111 33.3815L101.835 11.3661L114.911 13.711L114.182 17.8146L105.296 16.2403L104.496 20.8201L111.89 22.1385L111.199 26.0935L103.805 24.7752L102.895 30.0127L111.781 31.587L111.052 35.6907L98.0138 33.3843L98.0111 33.3815ZM74.0444 11C74.7355 17.9963 77.3578 27.4834 79.3983 33.1971H84.0965C84.8614 31.3669 85.6617 29.388 86.3911 26.9687C87.0111 29.3137 87.5929 31.1439 88.284 33.1971H93.2363C95.7139 26.2008 98.1532 17.4101 98.8442 11H94.4737C93.8537 15.9458 91.9607 23.2339 90.7588 27.2274C89.6662 23.344 88.3195 15.6899 88.0273 11H83.6213C83.8753 14.5532 84.3861 17.9605 84.8587 20.8532C84.1293 22.9421 83.2197 24.9568 82.1626 27.2274C80.9607 24.1146 78.8847 15.7614 78.4122 11H74.0417L74.0444 11ZM57.3628 24.8109C57.3628 29.2806 60.1681 32.6494 63.8093 32.6494C67.4504 32.6494 69.9635 30.0127 69.9635 26.1651C69.9635 21.6954 67.1582 18.3266 63.517 18.3266C59.8758 18.3266 57.3628 20.9633 57.3628 24.8109ZM52.9568 24.9953C52.9568 18.7312 57.3273 14.044 63.5907 14.044C70.3295 14.044 74.4077 20.0137 74.4077 25.9862C74.4077 32.2503 70.0372 36.9375 63.7738 36.9375C57.035 36.9375 52.9568 30.9678 52.9568 24.9953ZM38.6079 27.8164L40.6484 32.0302L43.2352 30.7834C44.4015 30.2329 44.8741 29.465 44.8741 28.6944C44.8741 27.7779 44.183 26.1678 42.6888 26.1678C42.2518 26.1678 41.741 26.3137 41.1947 26.5696L38.6079 27.8164ZM33 25.9449L39.1187 22.9421C40.5391 22.2458 41.8858 21.9155 43.1259 21.9155C46.9856 21.9155 48.9523 25.177 48.9523 27.8852C48.9523 28.6917 48.7338 29.388 48.3322 30.01C50.4437 29.8641 52.4105 30.8522 53.6123 33.343C54.1231 34.3696 54.3417 35.3577 54.3417 36.3457C54.3772 38.8723 52.6672 41.1072 49.7171 42.5741L42.7244 46.0173L33 25.9449ZM45.7482 33.9292L42.3611 35.6136L44.6911 40.4136L48.0782 38.765C49.3894 38.1044 49.9002 37.2265 49.9002 36.3485C49.9002 35.3962 49.0998 33.4558 47.3516 33.4916C46.9146 33.4916 46.3327 33.6375 45.7482 33.932V33.9292Z" fill="white"/>
</svg>
