<svg width="185" height="58" viewBox="0 0 185 58" fill="none" xmlns="http://www.w3.org/2000/svg">
<path d="M48.4391 35.423L41.0358 18.3714C40.7639 17.7472 40.1533 17.3447 39.4807 17.3447H39.4687H39.4568C38.7818 17.3447 38.1712 17.7472 37.9017 18.3714L30.4983 35.423C30.4602 35.5121 30.4745 35.6158 30.5365 35.6905L30.775 35.9773C30.8156 36.0255 30.8752 36.0544 30.9372 36.0544H31.3069C31.4023 36.0544 31.4906 35.999 31.5335 35.9122L39.3376 19.9621C39.3924 19.8488 39.5498 19.8488 39.6047 19.9621L41.7322 24.3075C41.8014 24.4473 41.8038 24.6112 41.7417 24.7534L37.1075 35.4254C37.0693 35.5145 37.0836 35.6182 37.1456 35.6929L37.3842 35.9797C37.4247 36.0279 37.4843 36.0568 37.5463 36.0568H37.9184C38.0138 36.0568 38.1021 36.0014 38.145 35.9146L42.6457 26.7176C42.7006 26.6068 42.858 26.6068 42.9128 26.7176L47.4135 35.9146C47.4565 36.0014 47.5447 36.0568 47.6401 36.0568H48.0098C48.0718 36.0568 48.1315 36.0279 48.172 35.9797L48.4105 35.6929C48.4725 35.6182 48.4868 35.5145 48.4487 35.4254L48.4391 35.423Z" fill="white"/>
<path d="M53.7304 22.4773C52.952 20.6351 51.836 18.9797 50.4158 17.5591C48.9956 16.1385 47.3408 15.0221 45.4991 14.2435C43.5927 13.4362 41.5666 13.0265 39.4783 13.0265C39.4783 13.0265 39.4759 13.0265 39.4735 13.0265C39.4735 13.0265 39.4711 13.0265 39.4687 13.0265C37.3803 13.0265 35.3566 13.4362 33.4479 14.2435C31.6062 15.0221 29.9513 16.1385 28.5312 17.5591C27.111 18.9797 25.995 20.6351 25.2166 22.4773C24.4095 24.3843 24 26.411 24 28.5C24 30.589 24.4095 32.6133 25.2166 34.5227C25.995 36.3649 27.111 38.0203 28.5312 39.4409C29.9513 40.8615 31.6062 41.9779 33.4479 42.7565C35.3542 43.5638 37.3803 43.9735 39.4687 43.9735C39.4687 43.9735 39.4711 43.9735 39.4735 43.9735C39.4735 43.9735 39.4759 43.9735 39.4783 43.9735C41.5666 43.9735 43.5903 43.5638 45.4991 42.7565C47.3408 41.9779 48.9956 40.8615 50.4158 39.4409C51.836 38.0203 52.952 36.3649 53.7304 34.5227C54.5374 32.6157 54.947 30.589 54.947 28.5C54.947 26.411 54.5374 24.3867 53.7304 22.4773ZM29.8651 38.1161C27.2978 35.548 25.8824 32.1318 25.8824 28.5C25.8824 24.8682 27.2978 21.452 29.8651 18.8839C32.4325 16.3157 35.8452 14.9023 39.4759 14.8999C43.1066 14.8999 46.5193 16.3157 49.0842 18.8839C51.6516 21.452 53.067 24.8682 53.067 28.5C53.067 32.1318 51.6516 35.548 49.0842 38.1161C46.5169 40.6843 43.1042 42.0977 39.4759 42.1001C35.8452 42.1001 32.4325 40.6843 29.8651 38.1161Z" fill="white"/>
<path d="M115.341 24.5868C115.341 26.8447 113.812 28.1402 111.274 28.1402H105.265V15.1856H111.255C113.773 15.1856 114.986 16.5005 114.986 18.406C114.986 20.0344 114.109 20.8122 113.158 21.257V21.3493C114.165 21.7188 115.341 22.6254 115.341 24.5868ZM107.188 20.681H110.995C112.32 20.681 113.028 19.8862 113.028 18.6831C113.028 17.48 112.244 16.7776 111.051 16.7776H107.188V20.6834V20.681ZM113.347 24.4555C113.347 23.1965 112.489 22.2729 111.108 22.2729H107.188V26.5482H111.108C112.526 26.5482 113.347 25.6975 113.347 24.458V24.4555Z" fill="white"/>
<path d="M124.695 27.957H123.048L122.869 26.8559H122.745C122.244 27.5522 121.51 28.1402 120.129 28.1402C118.142 28.1402 116.78 26.8366 116.78 24.4705V18.7841H118.608V24.0681C118.608 25.7548 119.504 26.5089 120.649 26.5089C121.795 26.5089 122.869 25.7379 122.869 23.9211V18.7841H124.697V27.957H124.695Z" fill="white"/>
<path d="M126.136 16.3492C126.136 15.6945 126.636 15.1856 127.233 15.1856C127.831 15.1856 128.296 15.6945 128.296 16.3492C128.296 17.0038 127.814 17.5319 127.233 17.5319C126.653 17.5319 126.136 16.9871 126.136 16.3492ZM126.385 19.0443H128.08V28.1402H126.385V19.0443Z" fill="white"/>
<path d="M129.735 15.1856H131.174V28.1402H129.735V15.1856Z" fill="white"/>
<path d="M141.248 15.1856V27.9606H139.781L139.624 26.7554H139.501C139.06 27.3674 138.195 28.1402 136.71 28.1402C134.344 28.1402 132.614 26.2875 132.614 23.4447C132.614 20.6018 134.397 18.7846 136.71 18.7846C138.07 18.7846 138.988 19.4132 139.447 20.0087V15.1856H141.25H141.248ZM139.445 23.4447C139.445 21.6274 138.473 20.3868 136.972 20.3868C135.471 20.3868 134.411 21.6274 134.411 23.4447C134.411 25.2619 135.453 26.5403 136.972 26.5403C138.492 26.5403 139.445 25.2997 139.445 23.4447Z" fill="white"/>
<path d="M151.29 23.9299H144.521C144.612 25.5318 145.599 26.647 147.209 26.647C148.363 26.647 149.204 26.1792 149.497 25.2625H151.29C150.905 27.0604 149.37 28.1402 147.209 28.1402C144.576 28.1402 142.689 26.3233 142.689 23.5519C142.689 20.6199 144.648 18.7841 147.135 18.7841C149.367 18.7841 151.326 20.2419 151.326 23.3346C151.326 23.5141 151.307 23.6937 151.29 23.9276V23.9299ZM144.537 22.6352H149.514C149.495 21.2507 148.543 20.2797 147.135 20.2797C145.727 20.2797 144.72 21.3239 144.537 22.6352Z" fill="white"/>
<path d="M152.765 18.9672H154.387L154.562 20.2511H154.685C155.161 19.3887 155.777 18.7841 157.239 18.7841H157.803V20.6558C157.521 20.6197 157.239 20.6004 156.94 20.6004C155.268 20.6004 154.562 21.9397 154.562 23.5175V28.1402H152.765V18.9696V18.9672Z" fill="white"/>
<path d="M157.805 25.1727H159.618C159.73 26.3233 160.561 26.7368 161.579 26.7368C162.429 26.7368 163.187 26.4131 163.187 25.6027C163.187 24.7025 162.337 24.3623 161.375 24.1095L160.653 23.9299C159.506 23.6252 158.082 23.1385 158.082 21.4114C158.082 19.6843 159.599 18.7841 161.338 18.7841C163.668 18.7841 164.723 20.0788 164.815 21.4114H163.003C162.91 20.6908 162.317 20.1875 161.355 20.1875C160.541 20.1875 159.895 20.5821 159.895 21.3216C159.895 22.1131 160.653 22.347 161.559 22.5998L162.262 22.7793C163.685 23.1574 165 23.8402 165 25.5507C165 27.3487 163.445 28.1402 161.596 28.1402C159.134 28.1402 157.895 26.9352 157.803 25.1727H157.805Z" fill="white"/>
<path d="M116.783 33.3612H118.429L118.608 34.4623H118.732C119.233 33.766 119.967 33.178 121.348 33.178C123.335 33.178 124.697 34.4816 124.697 36.8477V42.5341H122.869V37.2501C122.869 35.561 121.973 34.8093 120.828 34.8093C119.683 34.8093 118.608 35.5803 118.608 37.3971V42.5341H116.78V33.3612H116.783Z" fill="white"/>
<path d="M126.136 30.7431C126.136 30.0885 126.634 29.5796 127.233 29.5796C127.833 29.5796 128.296 30.0885 128.296 30.7431C128.296 31.3978 127.814 31.9258 127.233 31.9258C126.653 31.9258 126.136 31.3811 126.136 30.7431ZM126.385 33.4382H128.08V42.5341H126.385V33.4382Z" fill="white"/>
<path d="M129.015 37.8561C129.015 35.1225 130.988 33.178 133.675 33.178C136.363 33.178 138.371 35.139 138.371 37.8561C138.371 40.5731 136.36 42.5341 133.675 42.5341C130.99 42.5341 129.015 40.5542 129.015 37.8561ZM136.523 37.8561C136.523 36.1644 135.372 34.7799 133.673 34.7799C131.974 34.7799 130.858 36.1644 130.858 37.8561C130.858 39.5477 131.971 40.9322 133.673 40.9322C135.374 40.9322 136.523 39.5288 136.523 37.8561Z" fill="white"/>
<path d="M139.813 33.3612H141.459L141.638 34.4623H141.763C142.264 33.766 142.997 33.178 144.378 33.178C146.365 33.178 147.727 34.4816 147.727 36.8477V42.5341H145.9V37.2501C145.9 35.561 145.004 34.8093 143.858 34.8093C142.713 34.8093 141.638 35.5803 141.638 37.3971V42.5341H139.811V33.3612H139.813Z" fill="white"/>
<path d="M113.352 29.5796V37.6273C113.352 39.5934 112.222 40.7658 110.329 40.7658C108.437 40.7658 107.251 39.5934 107.251 37.6273V29.5796H105.265V37.7141C105.265 40.6862 107.206 42.5341 110.329 42.5341C113.453 42.5341 115.341 40.732 115.341 37.7141V29.5796H113.355H113.352Z" fill="white"/>
</svg>
