<svg width="185" height="58" viewBox="0 0 185 58" fill="none" xmlns="http://www.w3.org/2000/svg">
<path d="M155.951 35.8578C154.668 35.8578 153.63 36.8955 153.63 38.1778C153.63 39.4602 154.668 40.4978 155.951 40.4978C157.234 40.4978 158.272 39.4602 158.272 38.1778C158.272 36.8955 157.231 35.8578 155.951 35.8578ZM155.951 40.1379C154.868 40.1379 153.987 39.2605 153.987 38.175C153.987 37.0895 154.865 36.2121 155.951 36.2121C157.037 36.2121 157.915 37.0895 157.915 38.175C157.915 39.2605 157.037 40.1379 155.951 40.1379ZM156.632 38.3634C156.601 38.3297 156.564 38.31 156.517 38.3015V38.2312H156.657C156.775 38.2312 156.863 38.2003 156.93 38.1356C156.995 38.0709 157.026 37.9838 157.026 37.8769V37.4495C157.026 37.3201 156.989 37.2217 156.916 37.1514C156.846 37.0811 156.742 37.0473 156.607 37.0473H154.946V39.238H155.349V38.3578H156.176L156.578 39.238H157.071L156.73 38.5293C156.697 38.4534 156.663 38.4 156.632 38.3662V38.3634ZM155.349 38.0372V37.3707H156.562C156.581 37.3707 156.595 37.3763 156.604 37.3848C156.615 37.3932 156.618 37.4101 156.618 37.4298V37.9781C156.618 38.0006 156.612 38.0147 156.604 38.026C156.595 38.0344 156.578 38.0372 156.562 38.0372H155.349Z" fill="white"/>
<path fill-rule="evenodd" clip-rule="evenodd" d="M69.2514 36.2537H64.9098V18H58.7054V40.4972H69.2514V36.2537ZM80.8582 36.2537H76.5165V18H70.3122V40.4972H80.8582V36.2537ZM29.4705 40.2413C29.6337 40.4156 29.87 40.4972 30.1092 40.4972H38.4745C38.7165 40.4972 38.95 40.4156 39.1132 40.2413C39.6901 39.6254 40.6242 38.5681 41.4036 37.5613C41.5246 37.4066 41.5837 37.1957 41.5837 37.0017V30.7728H35.9168V36.7486H32.6641V21.7486H35.9168V27.7244H41.5809V21.4955C41.5809 21.2987 41.5218 21.0877 41.4008 20.9359C40.6214 19.9319 39.6872 18.8718 39.1104 18.2587C38.9472 18.0844 38.7109 18.0028 38.4717 18.0028H30.1092C29.8672 18.0028 29.6337 18.0844 29.4705 18.2587C28.8908 18.869 27.9595 19.9291 27.1801 20.9331C27.0591 21.0877 27 21.2987 27 21.4927V37.0017C27 37.1985 27.0591 37.4094 27.1801 37.5613C27.9595 38.5652 28.8937 39.6254 29.4705 40.2413ZM48.5365 33.869H51.7892V40.4972H57.4533V21.4955C57.4533 21.2987 57.3942 21.0877 57.2732 20.9359C56.4938 19.9319 55.5597 18.8718 54.9828 18.2587C54.8196 18.0844 54.5833 18.0028 54.3441 18.0028H45.9788C45.7368 18.0028 45.5033 18.0844 45.3401 18.2587C44.7633 18.8746 43.8291 19.9319 43.0497 20.9359C42.9287 21.0906 42.8696 21.3015 42.8696 21.4955V40.4972H48.5337V33.869H48.5365ZM48.5365 21.7486H51.7892V30.1288H48.5365V21.7486ZM113.633 40.2441C113.796 40.4184 114.032 40.5 114.272 40.5H122.637C122.879 40.5 123.112 40.4184 123.276 40.2441C123.852 39.6282 124.787 38.5709 125.566 37.5641C125.687 37.4094 125.746 37.1985 125.746 37.0045V18H120.082V36.7486H116.829V18H111.165V37.0045C111.165 37.2013 111.224 37.4123 111.345 37.5641C112.125 38.5681 113.059 39.6282 113.636 40.2441H113.633ZM107.392 40.2441C107.969 39.6282 108.903 38.5709 109.682 37.5641C109.803 37.4094 109.862 37.1985 109.862 37.0045V21.4955C109.862 21.2987 109.803 21.0877 109.682 20.9359C108.903 19.9319 107.969 18.8718 107.392 18.2587C107.229 18.0816 106.992 18.0028 106.753 18.0028H95.2815V40.4972H106.753C106.995 40.4972 107.229 40.4156 107.392 40.2413V40.2441ZM104.196 36.7514H100.946V21.7486H104.196V36.7486V36.7514ZM144.202 32.8228V40.5H150.302V32.8228L154.019 28.3375C154.143 28.1884 154.207 28.0028 154.207 27.8116V18H148.912V26.3633L147.544 27.9972H146.973L145.594 26.3633V18H140.31V27.8088C140.31 28 140.378 28.1856 140.499 28.3346L144.204 32.82L144.202 32.8228ZM80.3123 32.1057C80.3855 32.1845 80.4896 32.221 80.5965 32.221H84.8312C84.9381 32.221 85.045 32.1845 85.1154 32.1057C85.3743 31.8301 85.5825 31.563 85.9314 31.1159C85.9848 31.0456 86.013 30.9528 86.013 30.8656V23.8436C86.013 23.7565 85.9848 23.6637 85.9314 23.5934C85.5853 23.1462 85.3714 22.8763 85.1154 22.6035C85.0422 22.5247 84.9381 22.4882 84.8312 22.4882H80.5965C80.4896 22.4882 80.3826 22.5247 80.3123 22.6035C80.0534 22.8791 79.8452 23.1462 79.4963 23.5934C79.4429 23.6637 79.4147 23.7565 79.4147 23.8436V30.8628C79.4147 30.9499 79.4429 31.0427 79.4963 31.113C79.8452 31.5602 80.0563 31.8301 80.3123 32.1029V32.1057ZM81.9443 24.5889H83.4862V30.1204H81.9443V24.5861V24.5889ZM89.6259 29.0096H92.3355V26.7514H89.6259V24.752H92.6844V22.4882H87.0935V32.2154H89.623V29.0039L89.6259 29.0096ZM130.251 40.5H135.915V22.6063H139.204V18H126.962V22.6063H130.251V40.4972V40.5Z" fill="white"/>
</svg>
