<svg width="185" height="58" viewBox="0 0 185 58" fill="none" xmlns="http://www.w3.org/2000/svg">
<path fill-rule="evenodd" clip-rule="evenodd" d="M59 10H80.6196V15.1608H64.4225V23.2608H80.6196V28.4216H59V10ZM97.8318 16.3093H87.3052V10H81.7587V28.4237H87.3052V22.1876H97.8318V28.4237H103.378V10H97.8318V16.3093ZM59 29.5763H80.6196V41.1175H73.4338L80.6196 45.3474V48H74.8436L64.4204 41.5527V48H59V29.5763ZM65.0054 35.7183H75.8153V34.4903H65.0054V35.7183ZM81.7587 29.5763H103.378V41.1175H96.1924L103.378 45.3474V48H97.6023L87.1791 41.5527V48H81.7566V29.5763H81.7587ZM87.7641 35.7183H98.574V34.4903H87.7641V35.7183ZM125 15.1608V10H104.517V28.4237H125V23.2629H109.721V21.8299H125V16.667H109.721V15.1608H125ZM119.797 36.3145H109.723V29.5763H104.519V41.1175H112.191V48H117.394V41.1175H125V29.5763H119.797V36.3145Z" fill="white"/>
</svg>
