<svg width="185" height="58" viewBox="0 0 185 58" fill="none" xmlns="http://www.w3.org/2000/svg">
<path d="M58.3634 23.6303C58.5415 23.5795 58.6616 23.8118 58.494 23.8918V23.8905C57.8727 24.1888 57.2084 24.4983 56.5064 24.8253L56.371 24.8883C48.7065 28.4605 36.6033 34.1018 25.0663 47.5894C24.8776 47.8103 25.127 48.1124 25.375 47.9575C36.2405 41.2562 49.2131 34.249 49.2131 34.249C49.3319 34.183 49.4519 34.3315 49.3543 34.4242L38.0085 45.0252C37.7592 45.2651 38.0639 45.6523 38.3714 45.486L56.4858 35.4677C56.5848 35.4144 56.6837 35.535 56.6098 35.6149L51.6897 40.3994C51.5221 40.572 51.7002 40.8475 51.9351 40.7777C53.7058 40.2521 64.0264 36.4794 64.7006 29.344C65.2165 23.8829 61.1817 19.4095 55.7192 19.0883C51.059 18.8154 44.4948 21.7947 41.4694 23.5402C40.9363 23.8474 41.1936 24.6357 41.8151 24.5938L44.9065 24.3869C45.0543 24.378 45.1282 24.557 45.0121 24.6471C43.7349 25.6271 39.5351 29.005 35.9806 33.5826C35.809 33.8009 36.0743 34.084 36.3104 33.9317C46.0544 27.6023 51.7636 25.5243 58.3634 23.6303Z" fill="white"/>
<path d="M37.9426 26.5407L39.6088 26.0173C40.8247 25.5615 39.9763 23.8978 38.8576 24.5425L37.4076 25.4888C37.186 25.6326 37.0815 25.9047 37.168 26.1612C37.2725 26.4731 37.6201 26.6412 37.9426 26.5407Z" fill="white"/>
<path fill-rule="evenodd" clip-rule="evenodd" d="M87.3457 28.3868C87.3461 23.2017 91.5107 19 97.1316 19C102.753 19 106.917 23.1182 106.917 28.3586C106.917 33.5989 102.605 37.7171 97.1316 37.7171C91.658 37.7171 87.3461 33.6832 87.3457 28.3868ZM103.103 28.3889C103.103 25.1094 100.54 22.4198 97.1316 22.4198C93.7228 22.4198 91.1602 25.1672 91.1602 28.4164C91.1602 31.6656 93.7529 34.3017 97.1316 34.3017C100.51 34.3017 103.103 31.6685 103.103 28.3889Z" fill="white"/>
<path fill-rule="evenodd" clip-rule="evenodd" d="M132.214 19C126.593 19 122.429 23.2017 122.428 28.3868C122.429 33.6832 126.74 37.7171 132.214 37.7171C137.688 37.7171 142 33.5989 142 28.3586C142 23.1182 137.835 19 132.214 19ZM132.214 22.4198C135.623 22.4198 138.185 25.1094 138.185 28.3889C138.185 31.6685 135.593 34.3017 132.214 34.3017C128.835 34.3017 126.243 31.6656 126.243 28.4164C126.243 25.1672 128.805 22.4198 132.214 22.4198Z" fill="white"/>
<path d="M120.109 19.3651C120.066 21.1718 120.044 23.065 120.044 24.8822C120.044 26.7624 120.113 29.556 120.113 30.1156C120.113 34.5503 116.855 37.6425 112.245 37.6425C110.27 37.6425 108.109 36.8144 106.557 35.715C106.498 35.6732 106.486 35.5939 106.528 35.5366C107.096 34.7784 107.743 33.6884 108.167 32.843C108.205 32.7667 108.307 32.7431 108.377 32.794C109.447 33.5667 110.972 34.1596 112.307 34.1596C114.58 34.1596 116.342 32.5345 116.342 30.2119L116.336 19.3952C116.336 19.3207 116.4 19.2613 116.478 19.2646C117.069 19.2898 117.618 19.3076 118.224 19.3076C118.816 19.3076 119.403 19.2904 119.971 19.2663C120.037 19.2635 120.094 19.3063 120.109 19.3651Z" fill="white"/>
<path fill-rule="evenodd" clip-rule="evenodd" d="M68.5162 37.4525C68.4396 37.4525 68.3782 37.3914 68.3807 37.3177C68.4844 34.2929 68.5367 31.2531 68.5367 28.1989C68.5367 25.2527 68.4879 22.3192 68.3909 19.3993C68.3885 19.3256 68.4499 19.2646 68.5265 19.2646H75.7702C81.6829 19.2646 85.1788 23.244 85.1788 28.3441C85.1788 33.4442 81.5957 37.4525 75.7702 37.4525H68.5162ZM75.7702 34.0341C79.0332 34.0341 81.3628 31.9606 81.3628 28.3455C81.3628 24.7305 79.0317 22.6844 75.7702 22.6844H72.3528C72.2779 22.6844 72.2172 22.7428 72.2172 22.8148V33.9022C72.2172 33.9743 72.2779 34.0327 72.3528 34.0327H75.7702V34.0341Z" fill="white"/>
</svg>
