<svg width="185" height="58" viewBox="0 0 185 58" fill="none" xmlns="http://www.w3.org/2000/svg">
<path fill-rule="evenodd" clip-rule="evenodd" d="M110.538 14.7872C110.847 14.7475 111.167 14.7065 111.516 14.9276C111.502 14.9365 111.489 14.9449 111.476 14.9531C111.342 15.039 111.266 15.0881 111.198 15.1628C110.215 15.7661 109.294 16.4511 108.448 17.2282C106.936 18.629 105.614 20.173 104.82 22.0748C104.535 22.7598 104.355 23.4654 104.397 24.2118C104.471 25.4081 105.413 26.0625 106.597 25.725C107.274 25.541 107.909 25.2445 108.501 24.8662C109.866 23.9766 110.891 22.7905 111.685 21.4306C112.721 19.6515 113.483 17.7701 113.525 15.6843C113.525 15.4389 113.663 15.3571 113.864 15.3162C114.297 15.2242 114.741 15.2344 115.175 15.3264C116.497 15.5922 117.756 16.0319 118.919 16.6863C119.712 17.131 120.506 17.593 121.299 18.055C121.563 18.2091 121.828 18.3631 122.092 18.5165L124.504 19.8969C124.736 20.04 124.927 20.0605 125.149 19.8356C125.617 19.3537 126.096 18.8875 126.574 18.422C126.766 18.2356 126.957 18.0493 127.148 17.8622C127.391 17.6168 127.391 17.5861 127.106 17.402C127.053 17.3611 126.989 17.3305 126.926 17.2998C126.615 17.1346 126.304 16.9691 125.993 16.8035C124.608 16.0666 123.218 15.3267 121.828 14.6004C120.284 13.7927 118.623 13.3837 116.857 13.445C115.619 13.4859 114.403 13.6904 113.24 14.1301C112.986 14.2221 112.806 14.2119 112.573 14.0381C112.023 13.6189 111.367 13.4246 110.659 13.4144C109.337 13.4041 108.067 13.6598 106.851 14.1505C104.958 14.9174 103.213 15.9297 101.542 17.0851C98.9504 18.8846 96.6764 21.0114 94.6562 23.3938C93.3764 24.8968 92.2447 26.4919 91.2293 28.179C89.9072 30.3876 88.7438 32.6575 87.9294 35.0808C87.316 36.8803 87.2208 38.731 87.8765 40.551C88.4477 42.1461 89.5476 43.2606 91.2928 43.6696C92.6466 43.9764 93.9687 43.7616 95.2062 43.1993C97.385 42.2177 99.1513 40.7146 100.664 38.9253C101.563 37.8721 102.324 36.727 102.97 35.5102C103.604 34.3241 104.175 33.1176 104.292 31.7577C104.355 31.042 104.387 30.3262 104.101 29.6412C103.837 29.0072 103.361 28.6084 102.684 28.4449C101.806 28.2404 101.002 28.4755 100.23 28.8436C98.5061 29.6616 97.1735 30.8988 96.1581 32.4632C95.1533 34.0072 94.635 35.7147 94.3706 37.504C94.369 37.5185 94.3665 37.5335 94.364 37.5488C94.3507 37.6305 94.3361 37.7198 94.4341 37.7801C94.4467 37.776 94.461 37.7752 94.475 37.7744C94.4961 37.7732 94.5165 37.772 94.5293 37.7597C94.5822 37.7188 94.635 37.6779 94.6879 37.6267C95.7668 36.6145 96.9408 35.7249 98.3052 35.091C98.559 34.9683 98.6754 34.8149 98.7388 34.5593C98.9609 33.6288 99.3311 32.7393 99.8705 31.9315C100.315 31.2771 100.822 30.6534 101.521 30.2342C102.451 29.6718 103.16 30.0297 103.223 31.0726C103.234 31.1749 103.234 31.2771 103.223 31.3794C103.17 32.1156 102.991 32.8211 102.737 33.5164C102.208 34.9274 101.425 36.1953 100.495 37.3813C99.5003 38.6492 98.3369 39.7637 96.9408 40.6226C96.4331 40.9294 95.8831 41.1645 95.2908 41.2872C94.2014 41.502 93.1332 41.093 92.5197 40.2034C91.9697 39.4161 91.8534 38.5163 91.9697 37.6063C92.213 35.7863 92.763 34.0481 93.5033 32.361C94.6668 29.7332 96.2216 27.3201 97.9561 25.0195C99.5321 22.9132 101.341 21.0114 103.297 19.2323C104.799 17.8622 106.396 16.6045 108.216 15.6331C108.935 15.2446 109.654 14.897 110.479 14.7947C110.499 14.7923 110.518 14.7898 110.538 14.7872ZM111.759 16.083C112.33 15.7763 112.351 15.807 112.33 16.6045C112.245 17.6679 111.875 18.8437 111.304 19.9378C110.648 21.2057 109.834 22.3713 108.744 23.3529C108.11 23.9153 107.433 24.3958 106.608 24.6412C105.91 24.8559 105.37 24.4776 105.381 23.7619C105.392 23.312 105.55 22.8928 105.741 22.494C106.513 20.9092 107.56 19.5084 108.85 18.2712C109.728 17.4225 110.68 16.6659 111.759 16.083ZM84.3708 44.1778C84.5019 44.2483 84.6368 44.3209 84.7775 44.3956C84.6823 44.0786 84.5131 43.9252 84.3439 43.7821C83.4449 42.913 82.493 42.1052 81.4353 41.4202C78.4527 39.4774 75.1527 38.5572 71.5778 38.4856C69.4942 38.4447 67.4423 38.7719 65.4115 39.2423C64.0206 39.5593 62.6323 39.8763 61.2439 40.1933C59.8559 40.5102 58.4678 40.8271 57.0771 41.1441C54.9406 41.6247 52.7829 41.9416 50.583 41.8291C49.8849 41.7985 49.208 41.6758 48.5522 41.4917C47.8224 41.2872 47.1455 40.9703 46.5638 40.4692C45.5379 39.5695 45.0619 38.4345 44.9667 37.1257C44.8504 35.5511 45.1677 34.0276 45.5907 32.5348C46.2677 30.1524 47.3571 27.9336 48.7638 25.8784C50.8897 22.7701 53.3329 19.9071 56.2627 17.4634C57.5424 16.4 58.9492 15.5207 60.5568 14.9992C60.9799 14.8663 61.4135 14.7845 61.8578 14.8152C62.4818 14.8561 62.8202 15.2446 62.7674 15.8376C62.7462 16.0728 62.651 16.2262 62.3972 16.2569C62.027 16.2978 61.6885 16.4409 61.3606 16.6147C60.5674 17.0442 60.1126 17.9951 60.2924 18.8233C60.4087 19.355 60.8741 19.6617 61.4241 19.5697C61.8472 19.4981 62.1856 19.2936 62.4818 19.0176C63.2856 18.2507 63.7616 17.2998 63.9202 16.2364C64.1846 14.4471 63.0952 13.3019 61.202 13.2917C59.9222 13.2917 58.7165 13.578 57.5425 14.0176C54.6762 15.0912 52.2012 16.7783 49.9589 18.7722C48.1186 20.4081 46.4263 22.1873 44.9667 24.1709C43.3379 26.3794 41.9947 28.7209 41.1379 31.3078C40.4399 33.4039 40.1331 35.5511 40.5245 37.7494C40.6937 38.7106 40.937 39.6513 41.5187 40.4692C42.8514 42.3608 44.7869 43.2913 47.0715 43.6594C48.3618 43.8639 49.6416 43.7105 50.9108 43.4958C53.6396 43.0357 56.326 42.4018 59.0124 41.7678L59.0126 41.7678C61.4664 41.1952 63.9414 40.776 66.4904 40.9805C67.8653 41.093 69.1769 41.3793 70.3826 42.0336C71.2182 42.4835 71.9162 43.0664 72.4556 43.823C72.7729 44.2729 72.7835 44.2627 73.1537 43.8332C73.2806 43.6901 73.4075 43.5469 73.545 43.4242C74.4546 42.6165 75.5546 42.279 76.771 42.2177C79.0873 42.1052 81.2449 42.6676 83.3074 43.6287C83.6592 43.795 83.9994 43.978 84.3708 44.1778ZM142.911 13.9176C142.969 13.8293 143.027 13.7399 142.981 13.5882C142.965 13.5935 142.951 13.5974 142.938 13.6009C142.902 13.6107 142.881 13.6166 142.865 13.6393L142.865 13.6394C142.812 13.6803 142.759 13.7211 142.706 13.7722C141.374 14.9788 139.946 16.0524 138.338 16.8908C136.773 17.6986 135.155 18.3325 133.378 18.5677C132.742 18.6508 132.113 18.6461 131.485 18.6414C131.34 18.6403 131.195 18.6392 131.051 18.6392C131.04 18.6392 131.028 18.6392 131.017 18.6392C130.818 18.6387 130.629 18.6382 130.469 18.8028C129.792 19.4981 129.147 20.2241 128.533 20.9705C128.29 21.267 128.322 21.3386 128.724 21.4204C129.528 21.584 130.332 21.6249 131.146 21.5533C133.113 21.3795 134.922 20.7456 136.635 19.8356C139.279 18.4348 141.331 16.4409 142.886 13.9563C142.894 13.9433 142.903 13.9304 142.911 13.9176ZM92.8068 21.1523C92.6717 21.1534 92.5369 21.1546 92.4034 21.1546H92.4032C91.9802 21.1546 91.5572 21.1546 91.1342 21.1443C90.912 21.1341 90.764 21.2057 90.6476 21.3897C90.522 21.5873 90.3965 21.7842 90.2711 21.9807C89.9425 22.4958 89.6154 23.0086 89.2938 23.5267C89.1034 23.8335 89.1563 23.9255 89.5159 23.9255C90.1108 23.9408 90.7058 23.9389 91.3007 23.937C91.499 23.9363 91.6974 23.9357 91.8957 23.9357C92.1072 23.9459 92.2553 23.8744 92.3716 23.6903C92.5414 23.4241 92.7111 23.1605 92.8804 22.8976C93.1858 22.4234 93.4895 21.9517 93.7889 21.4715C93.937 21.2466 93.8841 21.1648 93.6197 21.1546C93.3514 21.1477 93.0783 21.15 92.8068 21.1523ZM134.026 17.6784C133.929 17.8422 133.828 18.0116 133.795 18.2046C134.512 18.2851 134.891 18.1142 135.186 17.5714C135.205 17.5344 135.223 17.4972 135.242 17.4598C135.352 17.2432 135.465 17.0204 135.555 16.7975C135.755 16.2749 135.892 15.7422 135.86 15.1793C135.818 14.4255 135.46 14.0837 134.68 14.0536C134.017 14.0234 133.406 14.2144 132.805 14.4757C131.281 15.1376 130.03 16.1697 128.79 17.1926L128.782 17.1995C125.748 19.7123 123.146 22.607 120.85 25.7529C118.975 28.326 117.311 31.0297 115.836 33.8239C115.594 34.2862 115.257 34.5576 114.74 34.6481C114.703 34.6545 114.666 34.663 114.629 34.6716C114.549 34.6898 114.468 34.7084 114.382 34.7084C114.341 34.7112 114.297 34.7225 114.253 34.7339C114.136 34.7637 114.016 34.7944 113.94 34.6782C113.872 34.5726 113.941 34.467 114.004 34.372C114.019 34.3495 114.033 34.3275 114.045 34.3063C114.288 33.844 114.498 33.3615 114.688 32.8791C115.014 32.0549 115.183 31.2106 115.13 30.3261C115.056 29.0899 114.414 28.4868 113.129 28.4768C112.634 28.4667 112.16 28.5672 111.696 28.7381C110.38 29.2306 109.231 29.9945 108.189 30.9091C106.872 32.0549 105.798 33.3917 104.786 34.7888C103.817 36.1356 103.08 37.6031 102.574 39.161C102.269 40.1158 102.111 41.0907 102.343 42.0858C102.595 43.1612 103.438 43.7342 104.586 43.6236C105.155 43.5633 105.692 43.4125 106.187 43.1512C107.42 42.518 108.494 41.7039 109.463 40.739C110.727 39.4826 111.76 38.0754 112.718 36.608C113.018 36.1498 113.115 35.9379 113.28 35.8315C113.451 35.7209 113.696 35.7243 114.319 35.6833C114.345 35.6783 114.372 35.6758 114.398 35.6733C114.424 35.6707 114.451 35.6682 114.477 35.6632C114.93 35.613 114.951 35.623 114.825 36.025C114.793 36.1356 114.751 36.2462 114.709 36.3567C114.644 36.5409 114.578 36.7251 114.512 36.9095C114.203 37.7714 113.894 38.6368 113.677 39.5228C113.487 40.2766 113.371 41.0304 113.498 41.8144C113.698 43.0004 114.74 43.8146 115.857 43.6035C116.321 43.513 116.763 43.3522 117.174 43.111C118.08 42.5883 118.827 41.8848 119.554 41.1511C119.588 41.1185 119.62 41.0842 119.651 41.0496C119.747 40.9453 119.844 40.8396 120.018 40.7792C120.018 40.8972 120.016 41.012 120.014 41.1243C120.008 41.4519 120.002 41.7588 120.049 42.0657C120.165 42.8798 120.734 43.4728 121.545 43.6035C122.061 43.6839 122.556 43.6035 123.03 43.3824C123.926 42.9602 124.705 42.3974 125.442 41.7742C125.474 41.7463 125.504 41.7151 125.533 41.6837C125.632 41.5795 125.733 41.4727 125.927 41.4727C125.939 41.5802 125.952 41.685 125.965 41.7885C125.987 41.9657 126.009 42.1393 126.022 42.317C126.106 43.2819 126.875 43.7643 127.886 43.5934C128.487 43.4929 129.024 43.2618 129.54 42.9703C130.499 42.4275 131.31 41.7039 132.079 40.95C133.49 39.5429 134.754 38.0252 135.871 36.3969C135.883 36.3786 135.896 36.3607 135.909 36.343C135.959 36.2735 136.006 36.2077 136.039 36.1356C136.092 36.0351 136.06 35.9547 135.934 35.9044C135.544 35.7637 135.028 35.9145 134.775 36.2462C133.996 37.2714 133.174 38.2765 132.279 39.2213C131.805 39.7238 131.278 40.1661 130.678 40.5178C130.664 40.5257 130.651 40.5337 130.637 40.5418C130.425 40.6687 130.179 40.8156 129.961 40.5982C129.75 40.3964 129.889 40.1694 130.011 39.9709C130.023 39.9519 130.035 39.9332 130.046 39.9148C131.195 37.9138 132.409 35.9511 133.624 33.9866C133.801 33.7012 133.977 33.4159 134.154 33.1304L136.618 29.1502C136.808 28.8386 136.766 28.7783 136.397 28.7682C136.146 28.7644 135.894 28.7679 135.643 28.7715C135.243 28.7772 134.844 28.7829 134.449 28.7582C133.848 28.728 133.332 28.7883 133.069 29.3914C133.058 29.3914 133.037 29.3914 133.005 29.4014C132.998 29.3967 132.989 29.392 132.98 29.3869C132.951 29.3707 132.916 29.3518 132.9 29.321C132.5 28.7079 131.899 28.4667 131.162 28.4768C130.541 28.4868 129.94 28.6376 129.403 28.929C128.413 29.4718 127.496 30.1151 126.664 30.8689C125.074 32.3062 123.757 33.9545 122.525 35.6733C122.32 35.9605 122.118 36.2498 121.916 36.5392C121.213 37.5458 120.509 38.5536 119.691 39.4826C119.291 39.9449 118.87 40.4073 118.322 40.7189C117.827 41.0103 117.448 40.8294 117.3 40.2967C117.226 40.0153 117.216 39.7339 117.269 39.4524C117.342 39.0202 117.458 38.5981 117.595 38.186C117.985 37.0201 118.469 35.8843 118.985 34.7687C119.175 34.3566 119.438 34.0752 119.818 33.8339C121.851 32.5173 123.747 31.0197 125.527 29.4014C127.581 27.5219 129.498 25.5218 131.289 23.4111C131.305 23.392 131.321 23.3729 131.337 23.3538C131.638 23.0008 131.941 22.6441 132.131 22.215C131.383 22.0843 131.057 22.1949 130.646 22.6974C129.772 23.7729 128.834 24.788 127.855 25.773C126.548 27.0897 125.2 28.3561 123.799 29.5723C122.936 30.3261 122.03 31.0398 121.092 31.7232C121.069 31.7396 121.046 31.7568 121.023 31.7742C120.875 31.8846 120.715 32.0047 120.46 32.0047C120.797 31.281 121.187 30.6478 121.577 30.0146C123.515 26.8485 125.632 23.793 128.034 20.9184C129.329 19.3706 130.741 17.9232 132.321 16.6467C132.837 16.2246 133.364 15.8125 133.964 15.4808C133.979 15.4724 133.995 15.4638 134.011 15.4551C134.222 15.3382 134.465 15.2033 134.691 15.3904C134.881 15.545 134.822 15.7818 134.77 15.9893C134.764 16.0111 134.759 16.0327 134.754 16.0537C134.622 16.5577 134.382 17.015 134.139 17.4796L134.111 17.5312C134.085 17.5801 134.056 17.629 134.026 17.6784ZM125.632 40.1761C125.369 40.4073 125.095 40.6083 124.81 40.6183C124.305 40.6284 124.063 40.3671 124.094 39.9047C124.115 39.563 124.231 39.2213 124.358 38.8896C124.968 37.3015 125.906 35.8843 126.907 34.5073C127.581 33.5726 128.36 32.7082 129.161 31.8639C129.477 31.5356 129.83 31.243 130.184 30.9504C130.36 30.8041 130.537 30.6578 130.709 30.5071C130.994 30.2658 131.341 30.1352 131.71 30.0849C132.131 30.0246 132.363 30.2759 132.237 30.6578C132.182 30.8222 132.089 30.9717 131.997 31.1192C131.982 31.143 131.967 31.1667 131.952 31.1905C131.469 31.9398 130.989 32.6905 130.51 33.4411C129.684 34.7342 128.859 36.0269 128.013 37.3116C127.338 38.3468 126.591 39.3519 125.632 40.1761ZM108.961 34.0013C109.104 33.794 109.247 33.5858 109.442 33.4218C109.581 33.5099 109.652 33.6301 109.721 33.7472C109.746 33.7905 109.772 33.8334 109.8 33.8741C110.264 34.5174 110.896 34.9496 111.602 35.3014C112.107 35.5527 112.118 35.5627 111.844 36.0049C110.991 37.392 110.021 38.7087 108.757 39.7942C108.42 40.0856 108.052 40.3369 107.62 40.4977C106.746 40.8194 106.103 40.357 106.177 39.4625C106.208 39.0504 106.314 38.6383 106.472 38.2463C107.041 36.7889 107.883 35.4823 108.81 34.2159C108.862 34.1457 108.912 34.0735 108.961 34.0013ZM114.024 30.8689V31.0699C114.041 31.5316 113.896 31.9663 113.75 32.4016C113.718 32.497 113.686 32.5924 113.656 32.6881C113.483 33.2315 113.202 33.7374 112.927 34.233L112.897 34.2862C112.802 34.4671 112.676 34.5878 112.444 34.4973C111.538 34.1254 110.601 33.4319 110.685 32.1956C110.717 31.6629 110.97 31.2307 111.317 30.8488C111.665 30.4669 112.086 30.1754 112.592 29.9945C113.434 29.6929 113.972 30.0146 114.024 30.8689ZM85.9104 21.4009C85.4891 21.3808 85.131 21.421 84.973 21.8733C84.8169 21.8259 84.7278 21.7466 84.6476 21.6753C84.6087 21.6408 84.5719 21.608 84.5306 21.5818C84.0671 21.1697 83.5193 21.0089 82.8873 21.0792C82.6029 21.1094 82.3291 21.1697 82.0657 21.2601C80.7174 21.7124 79.6641 22.5768 78.6529 23.4814C77.2519 24.7277 76.0406 26.1449 74.903 27.6124C73.5336 29.3813 72.0906 31.09 70.3841 32.5675C69.7311 33.1304 69.0359 33.643 68.1721 33.8842C67.0134 34.2058 66.2866 33.6932 66.2129 32.5474C66.1708 31.9946 66.3182 31.482 66.5289 30.9795C67.6454 28.2556 69.2255 25.8333 71.4901 23.8432C71.9852 23.4111 72.4803 22.9789 73.1123 22.7376C73.3967 22.6271 73.6916 22.5768 73.9866 22.6271C74.3131 22.6773 74.4922 22.9186 74.5027 23.2301C74.513 23.5441 74.3125 23.5899 74.0579 23.648L74.0392 23.6523C72.9859 23.8734 72.375 24.5267 72.1538 25.5218C71.9747 26.3057 72.5856 26.8284 73.3967 26.5872C73.7022 26.4967 73.955 26.3158 74.1762 26.0947C74.8503 25.4112 75.3243 24.6172 75.535 23.6925C75.8089 22.4864 75.1979 21.4009 74.0814 21.1496C73.4072 20.9988 72.7226 21.0089 72.059 21.2199C71.0267 21.5416 70.1419 22.1145 69.2992 22.7477C68.7877 23.1311 68.322 23.5582 67.8553 23.9863C67.5146 24.2988 67.1733 24.6118 66.8133 24.9087C66.0654 25.5218 65.2965 26.0947 64.4011 26.5068C64.1694 26.6173 63.9377 26.7279 63.6533 26.7078C63.621 26.5309 63.6936 26.4011 63.7625 26.2779C63.7837 26.2401 63.8045 26.2028 63.8218 26.165C64.2747 25.1599 64.6118 24.1247 64.5486 23.009C64.4854 21.9135 63.8007 21.1998 62.6737 21.0591C62.1786 20.9888 61.694 21.0792 61.22 21.2199C60.1035 21.5516 59.1134 22.1245 58.1864 22.7979C56.954 23.6925 55.8796 24.7478 54.9105 25.9037C53.5412 27.542 52.4246 29.311 51.7294 31.3011C51.4239 32.1956 51.2659 33.1203 51.3397 34.0752C51.4661 35.6934 52.8038 36.5879 54.4365 36.1557C55.1738 35.9647 55.8269 35.613 56.4484 35.2009C57.3227 34.6079 58.1021 33.9143 58.8395 33.1706C60.3247 31.673 61.6624 30.0648 62.7369 28.2657C62.7432 28.2545 62.7494 28.2432 62.7557 28.2319C62.8223 28.1116 62.8892 27.9909 63.0529 27.9541C63.4742 27.8636 63.885 27.7732 64.4222 27.6526C63.8113 28.6074 63.3583 29.4919 62.9897 30.4166C62.5578 31.482 62.2734 32.5776 62.3893 33.7435C62.5262 35.0702 63.5901 36.025 64.833 36.2261C65.8548 36.3869 66.7817 36.1055 67.6876 35.7135C68.6883 35.2712 69.552 34.638 70.4052 33.9947C70.77 33.724 71.1002 33.4201 71.4346 33.1124C71.6216 32.9403 71.8099 32.7671 72.0063 32.5977C72.0718 32.7461 72.0354 32.8642 72.0012 32.9756C71.9914 33.0074 71.9817 33.0387 71.9747 33.0701C71.8694 33.5827 71.7956 34.0953 71.8272 34.6179C71.8799 35.6029 72.5119 36.1959 73.5336 36.2361C74.113 36.2562 74.6502 36.1457 75.1663 35.9145C75.9353 35.5627 76.6094 35.0903 77.2203 34.5274C77.2571 34.495 77.2909 34.459 77.3255 34.4221C77.4196 34.3215 77.52 34.2144 77.7049 34.1556C77.7049 34.2463 77.7023 34.3322 77.6999 34.4145C77.6953 34.5692 77.6911 34.7113 77.7049 34.8491C77.7681 35.623 78.2737 36.1557 79.0216 36.2562C79.5377 36.3266 80.0222 36.1557 80.4857 35.9446C81.9393 35.2913 83.0769 34.2259 84.1724 33.1505C85.3943 31.9544 86.4582 30.6176 87.501 29.2708L87.5011 29.2707C87.5853 29.1602 87.6695 29.0496 87.7433 28.9391C87.7959 28.8587 87.7643 28.7783 87.6695 28.7381C87.3219 28.5974 86.6794 28.7582 86.4371 29.0497C86.282 29.2305 86.1287 29.4131 85.9757 29.5953C85.7546 29.8585 85.5341 30.121 85.31 30.3764C84.52 31.281 83.6984 32.1554 82.6767 32.8188C82.6498 32.8354 82.6229 32.8522 82.5959 32.8691C82.4436 32.9644 82.29 33.0605 82.1289 33.1203C81.7603 33.261 81.5496 33.0902 81.5917 32.7082C81.6128 32.5173 81.7076 32.3564 81.8024 32.1956C82.508 31.0752 83.2135 29.9573 83.9191 28.8394C84.625 27.721 85.3309 26.6025 86.0368 25.4816C86.2386 25.1625 86.4404 24.8441 86.642 24.5262C87.177 23.6822 87.7104 22.8407 88.2383 21.9939C88.5754 21.4612 88.5438 21.4109 87.9118 21.4109C87.7462 21.4109 87.58 21.4115 87.4134 21.4122C86.9124 21.414 86.4085 21.4159 85.9104 21.4009ZM82.9611 22.7678C83.1717 22.6773 83.3824 22.5969 83.572 22.607C84.1724 22.607 84.3304 22.8683 84.025 23.3508C82.8241 25.371 81.5812 27.3711 80.2645 29.3311C79.5693 30.3563 78.832 31.3513 77.9893 32.276C77.6417 32.658 77.2414 32.9796 76.7358 33.1605C76.1354 33.3816 75.7773 33.1002 75.8721 32.4871C76.009 31.6428 76.4093 30.889 76.8411 30.1653C78.2 27.8938 79.78 25.763 81.6549 23.8432C81.719 23.7789 81.7819 23.7138 81.8448 23.6489C82.1746 23.3078 82.501 22.9704 82.9611 22.7678ZM58.6888 25.918C58.6935 25.9166 58.6981 25.9152 58.7025 25.9138C58.7774 25.9227 58.819 25.9633 58.8642 26.0075C58.8699 26.013 58.8757 26.0187 58.8816 26.0243C59.4399 26.8284 60.2404 27.3108 61.1568 27.6526C61.1832 27.6626 61.2069 27.6702 61.2306 27.6777C61.2543 27.6852 61.278 27.6928 61.3043 27.7028C61.6308 27.8234 61.6414 27.8636 61.4623 28.1752C61.3675 28.336 61.2622 28.4969 61.1568 28.6476C60.2826 29.9744 59.3346 31.2609 58.1021 32.3263C57.6913 32.6781 57.2595 32.9796 56.7012 33.0902C55.9533 33.2409 55.5004 32.9092 55.4793 32.1956C55.4582 31.5423 55.6584 30.9292 55.9112 30.3462C56.5959 28.7682 57.5755 27.341 58.6183 25.954C58.6273 25.9367 58.6598 25.9268 58.6888 25.918ZM60.1246 25.6725C59.9876 25.4715 59.9139 25.2504 59.9244 25.0293C59.9244 23.9538 61.1147 22.6673 62.1997 22.5366C62.9791 22.4462 63.3583 22.9387 63.3057 23.7226C63.2425 24.6976 62.9265 25.6223 62.4525 26.4967C62.3577 26.6877 62.2313 26.7982 61.9995 26.758C61.2411 26.6173 60.567 26.3158 60.1246 25.6725Z" fill="white"/>
</svg>
