<svg width="185" height="58" viewBox="0 0 185 58" fill="none" xmlns="http://www.w3.org/2000/svg">
<g clip-path="url(#clip0_1512_1550)">
<path d="M155 23.8485V14.1515C155 14.0505 154.948 14 154.844 14H153.263C150.438 14 147.691 15.5404 146.706 18.1919L147.665 21.1212C147.691 21.197 147.716 21.197 147.768 21.197H151.112C151.164 21.197 151.216 21.2222 151.138 21.2727L148.468 23.1667C148.416 23.2003 148.399 23.2424 148.416 23.2929L149.323 26.0202C149.349 26.096 149.375 26.1212 149.453 26.0455C150.956 24.8333 152.667 24.202 154.819 24.0253C155 24 155 23.9495 155 23.8485ZM146.706 24.5051C146.654 24.4714 146.602 24.4714 146.55 24.5051L144.139 26.2222C144.062 26.2727 144.088 26.298 144.114 26.3232C145.202 27.3333 145.954 28.3687 146.446 29.8333C146.472 29.9091 146.524 29.9848 146.628 29.9848C146.731 29.9848 146.783 29.9091 146.809 29.8333C147.302 28.3687 148.053 27.3333 149.142 26.3232C149.168 26.298 149.194 26.2727 149.116 26.2222L146.706 24.5051ZM145.591 21.1212L146.55 18.1919C145.565 15.5404 142.818 14 139.992 14H138.411C138.307 14 138.256 14.0505 138.256 14.1515V23.8485C138.256 23.9495 138.256 24 138.437 24.0253C140.588 24.202 142.299 24.8333 143.802 26.0455C143.88 26.1212 143.906 26.096 143.932 26.0202L144.839 23.2929C144.857 23.2424 144.839 23.2003 144.787 23.1667L142.144 21.2727C142.066 21.2222 142.118 21.197 142.17 21.197H145.487C145.539 21.197 145.565 21.197 145.591 21.1212ZM138.256 27.5859C134.886 27.5859 132.709 29.8586 132.709 33.3182C132.709 36.7778 134.886 39 138.256 39C141.625 39 143.802 36.7778 143.802 33.3182C143.802 29.8586 141.625 27.5859 138.256 27.5859ZM141.236 33.2929C141.236 35.6414 140.174 36.9545 138.256 36.9545C136.337 36.9545 135.275 35.6414 135.275 33.2929C135.275 30.9444 136.337 29.6313 138.256 29.6313C140.174 29.6313 141.236 30.9444 141.236 33.2929ZM132.709 29.9596V27.6616C132.709 27.6111 132.683 27.5859 132.631 27.5859H132.216C130.687 27.5859 129.598 28.2677 128.821 29.9596C128.795 30.0101 128.743 30.0101 128.743 29.9343V27.9141C128.743 27.8636 128.717 27.8384 128.665 27.8384H126.332C126.28 27.8384 126.255 27.8636 126.255 27.9141V38.6717C126.255 38.7222 126.28 38.7475 126.332 38.7475H128.665C128.717 38.7475 128.743 38.7222 128.743 38.6717V33.4192C128.743 31.298 129.909 30.0354 132.035 30.0354H132.631C132.683 30.0354 132.709 30.0101 132.709 29.9596ZM125.192 33.7222C125.166 30.5657 123.87 27.5859 120.034 27.5859C116.871 27.5859 114.565 29.8081 114.565 33.3434C114.565 36.8788 116.664 39 119.956 39C122.6 39 124.673 37.5606 125.036 35.3131C125.062 35.2121 125.01 35.2121 124.959 35.2121H122.6C122.548 35.2121 122.522 35.2121 122.496 35.2879C122.211 36.3737 121.33 36.9798 120.06 36.9798C118.349 36.9798 117.312 35.8182 117.157 33.8737C117.157 33.798 117.208 33.798 117.234 33.798H125.114C125.166 33.798 125.192 33.7727 125.192 33.7222ZM122.678 32.1313C122.678 32.2071 122.652 32.2071 122.6 32.2071H117.286C117.234 32.2071 117.208 32.2071 117.234 32.0808C117.545 30.5657 118.453 29.6061 120.008 29.6061C121.77 29.6061 122.548 30.7172 122.678 32.1313ZM113.346 38.6717V24.101C113.346 24.0505 113.32 24.0253 113.269 24.0253H110.91C110.858 24.0253 110.832 24.0505 110.832 24.101V30.0101C110.832 30.0354 110.832 30.0606 110.78 30.0606H103.523C103.471 30.0606 103.471 30.0354 103.471 30.0101V24.1263C103.471 24.0758 103.445 24.0505 103.393 24.0505H101.034C100.982 24.0505 100.956 24.0758 100.956 24.1263V38.6717C100.956 38.7222 100.982 38.7475 101.034 38.7475H103.393C103.445 38.7475 103.471 38.7222 103.471 38.6717V32.2828C103.471 32.2576 103.471 32.2323 103.523 32.2323H110.78C110.832 32.2323 110.832 32.2576 110.832 32.2828V38.6717C110.832 38.7222 110.858 38.7475 110.91 38.7475H113.269C113.32 38.7475 113.346 38.7222 113.346 38.6717ZM89.0591 32.9394C89.0591 32.8889 89.0851 32.8636 89.1369 32.8636H96.576C96.6278 32.8636 96.6537 32.8384 96.6537 32.7879C96.4723 29.6818 94.7616 27.5859 91.8844 27.5859C88.8259 27.5859 86.5708 30.0101 86.5708 33.4192C86.5708 36.6515 88.6444 39 91.703 39C94.2432 39 96.0317 37.4343 96.6537 35.2879C96.6797 35.2121 96.6278 35.1869 96.6278 35.1869L96.1872 34.9091C96.1872 34.9091 96.1094 34.8586 96.0576 34.9343C95.3059 35.9949 93.9062 36.7273 92.4547 36.7273C90.5625 36.7273 89.0591 35.3889 89.0591 32.9394ZM89.2147 31.6263C89.5516 30.0354 90.4329 29.1515 91.7548 29.1515C92.9731 29.1515 93.8544 30.1111 93.984 31.6515C93.984 31.702 93.958 31.7273 93.9062 31.7273H89.2665C89.2406 31.7273 89.1887 31.7273 89.2147 31.6263ZM79.3909 30.2879C79.3909 29.404 80.1945 28.8485 81.2831 28.8485C82.6569 28.8485 83.5641 29.7323 83.927 31.1465C83.9529 31.2222 83.9788 31.2222 84.0306 31.2222H85.197C85.2489 31.2222 85.2748 31.197 85.2748 31.1465V28.8232C85.2748 28.798 85.2748 28.7727 85.2489 28.7475C84.4194 28.0657 82.8901 27.5859 81.4905 27.5859C79.028 27.5859 77.1877 29 77.1877 31.0707C77.1877 32.6364 78.2504 33.4444 79.5205 33.8737L82.1125 34.7576C82.9938 35.0606 83.59 35.5404 83.59 36.3232C83.59 37.1818 82.8124 37.7374 81.646 37.7374C80.0908 37.7374 78.9503 36.8788 78.3282 35.2374C78.3023 35.1616 78.2764 35.1616 78.2245 35.1616H77.0322C76.9804 35.1616 76.9544 35.1869 76.9544 35.2374V37.5354C76.9544 37.6111 76.9544 37.6364 77.0322 37.6869C78.069 38.4697 79.676 39 81.4127 39C84.0825 39 85.9487 37.5859 85.9487 35.5152C85.9487 33.8737 84.7564 33.0404 83.3567 32.5606L80.8165 31.702C79.8575 31.3737 79.3909 30.9949 79.3909 30.2879ZM76.6434 29.9596V27.6616C76.6434 27.6111 76.6175 27.5859 76.5656 27.5859H76.1509C74.6475 27.5859 73.4293 28.5707 72.7554 30.3131C72.7294 30.3636 72.6776 30.3636 72.6776 30.2879V27.9141C72.6776 27.8636 72.6517 27.8384 72.5998 27.8384H72.237L68.9969 28.4697C68.9192 28.4949 68.9192 28.5202 68.9192 28.5707V29.3283C68.9192 29.404 68.9451 29.4293 69.0229 29.4545L70.2152 29.8586V36.399C70.2152 37.2323 69.8523 37.4848 68.9969 37.5859C68.9451 37.5859 68.9192 37.6111 68.9192 37.6616V38.6717C68.9192 38.7222 68.9451 38.7475 68.9969 38.7475H74.0255C74.0773 38.7475 74.1032 38.7222 74.1032 38.6717V37.6616C74.1032 37.6111 74.0773 37.5859 74.0255 37.5859C73.2478 37.5101 72.6776 37.3838 72.6776 36.399V33.4949C72.6776 31.298 73.844 30.0354 75.9695 30.0354H76.5656C76.6175 30.0354 76.6434 30.0101 76.6434 29.9596ZM68.2193 38.6717V37.6869C68.2193 37.6364 68.2193 37.6111 68.1416 37.5859C67.1307 37.3838 66.9752 37.1566 66.9752 36.2222V27.8131C66.9752 27.7626 66.9493 27.7374 66.8974 27.7374H66.5086L63.3464 28.3434C63.2686 28.3687 63.2686 28.3939 63.2686 28.4444V29.2778C63.2686 29.3283 63.2686 29.3535 63.3723 29.3788C64.3313 29.6313 64.5128 29.9343 64.5128 30.3384V35.4394C63.8129 36.2222 62.8798 36.702 61.8171 36.702C60.6507 36.702 59.9508 36.0202 59.9508 34.8838V27.8131C59.9508 27.7626 59.9249 27.7374 59.8731 27.7374H59.4843L56.1665 28.3434C56.0887 28.3687 56.0887 28.3939 56.0887 28.4444V29.2778C56.0887 29.3283 56.0887 29.3535 56.1924 29.3788C57.2551 29.6313 57.4884 29.9343 57.4884 30.3384V35.5657C57.4884 37.5606 58.8622 39 60.7543 39C62.2318 39 63.6056 38.1919 64.435 36.9798C64.4868 36.904 64.5128 36.9293 64.5128 36.9798V38.6717C64.5128 38.7222 64.5387 38.7475 64.5905 38.7475H68.1416C68.1934 38.7475 68.2193 38.7222 68.2193 38.6717ZM56.0887 33.1162C56.0887 29.8081 54.0669 27.5859 50.801 27.5859C47.5351 27.5859 45.2282 29.9596 45.2282 33.4697C45.2282 36.7778 47.2499 39 50.5159 39C53.7818 39 56.0887 36.6263 56.0887 33.1162ZM53.2375 33.5202C53.2375 35.9697 52.3562 37.4596 50.801 37.4596C49.1421 37.4596 48.0794 35.8434 48.0794 33.0657C48.0794 30.6162 48.9607 29.1263 50.5159 29.1263C52.1748 29.1263 53.2375 30.7424 53.2375 33.5202ZM44.0877 37.0303L44.3987 34.0253C44.3987 33.9747 44.3728 33.9747 44.321 33.9747H43.2323C43.1805 33.9747 43.1546 33.9747 43.1286 34.0505C42.5843 36.1465 40.9773 37.3838 38.8 37.3838C35.8969 37.3838 33.9788 34.9848 33.9788 31.2222C33.9788 27.4596 35.6377 25.3384 38.5408 25.3384C40.6403 25.3384 42.2474 26.6515 42.8435 28.6212C42.8694 28.697 42.8954 28.697 42.9472 28.697H44.0358C44.0877 28.697 44.1136 28.6717 44.1136 28.6212V25.5152C44.1136 25.4646 44.0877 25.4394 44.0618 25.4141C43.025 24.3788 41.0291 23.7222 38.8518 23.7222C34.3696 23.7222 31 27.0303 31 31.5758C31 36.1212 33.9031 39 38.5168 39C40.6941 39 43.0269 38.2677 44.0119 37.2576C44.0465 37.2239 44.0724 37.1481 44.0897 37.0303H44.0877Z" fill="white"/>
</g>
<defs>
<clipPath id="clip0_1512_1550">
<rect width="124" height="25" fill="white" transform="translate(31 14)"/>
</clipPath>
</defs>
</svg>
