<svg width="185" height="58" viewBox="0 0 185 58" fill="none" xmlns="http://www.w3.org/2000/svg">
<path d="M62.3311 29.3498C62.3311 31.9241 60.7005 33.7219 58.3658 33.7219C56.0312 33.7219 54.4006 31.9651 54.4006 29.3498C54.4006 26.7346 55.9939 24.9778 58.3658 24.9778C60.7378 24.9778 62.3311 26.7756 62.3311 29.3498ZM62.1351 24.0642C61.0698 22.7815 59.5965 22.1319 57.7498 22.1319C53.9392 22.1319 51.174 25.1674 51.174 29.3485C51.174 33.5297 53.9019 36.5652 57.8058 36.5652C59.6365 36.5652 61.0898 35.8797 62.1351 34.5253V36.1872H65.3044V17H62.1351V24.0655V24.0642Z" fill="white"/>
<path d="M73.0308 24.8518C75.0036 24.8518 76.3636 26.0094 76.6139 27.8846H69.3368C69.8076 26.0634 71.2735 24.8518 73.0308 24.8518ZM73.1093 22.4373C69.2795 22.4373 66.3914 25.4739 66.3914 29.5013C66.3914 33.5287 69.2123 36.5652 72.9523 36.5652C75.7982 36.5652 77.6152 35.4051 79.0276 32.6833L79.0874 32.5679L76.8381 31.2372L76.7746 31.3701C75.9127 33.17 74.7856 33.9376 73.0046 33.9376C70.9808 33.9376 69.4688 32.4149 69.2845 30.2175H79.4348V29.1288C79.4348 25.1866 76.8331 22.4348 73.1093 22.4348" fill="white"/>
<path d="M91.4462 29.5817C91.4462 32.1717 89.8506 33.9115 87.4769 33.9115C85.1033 33.9115 83.4798 32.1311 83.4798 29.5817C83.4798 27.0323 85.1232 25.252 87.4769 25.252C89.8307 25.252 91.4462 26.9917 91.4462 29.5817ZM88.1992 22.4348C86.3981 22.4348 84.7177 23.2013 83.7011 24.4627V22.8092H80.5217V42H83.7011V34.8138C84.7495 36.0523 86.3292 36.7299 88.1992 36.7299C91.9393 36.7299 94.6522 33.7237 94.6522 29.583C94.6522 25.4423 91.9989 22.4361 88.1992 22.4361" fill="white"/>
<path d="M115.468 29.5C115.468 32.1006 113.91 33.7803 111.5 33.7803C109.09 33.7803 107.532 32.1006 107.532 29.5C107.532 26.8995 109.09 25.2198 111.5 25.2198C113.91 25.2198 115.468 26.8995 115.468 29.5ZM111.5 22.4348C108.097 22.4348 104.435 24.6465 104.435 29.5C104.435 34.3536 108.097 36.5652 111.5 36.5652C114.903 36.5652 118.565 34.3536 118.565 29.5C118.565 24.6465 114.903 22.4348 111.5 22.4348Z" fill="white"/>
<path d="M139.335 24.8518C141.308 24.8518 142.668 26.0094 142.918 27.8846H135.641C136.112 26.0634 137.578 24.8518 139.335 24.8518ZM139.414 22.4373C135.584 22.4373 132.696 25.4739 132.696 29.5013C132.696 33.5287 135.517 36.5652 139.257 36.5652C142.102 36.5652 143.92 35.4051 145.332 32.6833L145.392 32.5679L143.142 31.2372L143.079 31.3701C142.218 33.17 141.09 33.9376 139.309 33.9376C137.285 33.9376 135.773 32.4149 135.589 30.2175H145.739V29.1288C145.739 25.1866 143.137 22.4348 139.414 22.4348" fill="white"/>
<path d="M157.983 29.349C157.983 31.9231 156.353 33.7208 154.018 33.7208C151.683 33.7208 150.053 31.9641 150.053 29.349C150.053 26.7339 151.646 24.9773 154.018 24.9773C156.39 24.9773 157.983 26.7749 157.983 29.349ZM157.787 17V24.065C156.722 22.7824 155.249 22.1328 153.402 22.1328C149.591 22.1328 146.826 25.1682 146.826 29.349C146.826 33.5299 149.553 36.5652 153.458 36.5652C155.289 36.5652 156.742 35.8797 157.787 34.5254V36.1872H160.956V17H157.787Z" fill="white"/>
<path d="M101.71 17H95.7391V19.8365H98.4904V33.7549H95.7391V36.5652H104.435V33.7549H101.71V17Z" fill="white"/>
<path d="M33.7826 17V36.5652C39.185 36.5652 43.5652 32.185 43.5652 26.7826C43.5652 21.3802 39.185 17 33.7826 17Z" fill="white"/>
<path d="M33.7826 17H24V36.5652H33.7826V17Z" fill="white"/>
<path d="M129.449 22.4348L125.723 32.0512L121.868 22.4348H118.565L124.218 35.9971L123.508 37.8484C123.153 38.7139 122.667 39.0995 121.934 39.0995C121.519 39.0995 121.07 38.9727 120.638 38.7346L120.498 38.6583L119.597 41.326L119.699 41.3829C120.503 41.8331 121.13 42 122.011 42C123.933 42 125.173 41.0401 126.03 38.886L132.696 22.4348H129.447H129.449Z" fill="white"/>
</svg>
