<svg width="185" height="58" viewBox="0 0 185 58" fill="none" xmlns="http://www.w3.org/2000/svg">
<path d="M49.746 17.3775C47.3242 16.27 44.7252 15.4578 42.0081 15C41.6685 15.5907 41.2845 16.3881 41.0187 17.0083C38.1392 16.5801 35.2744 16.5801 32.4539 17.0083C32.1881 16.3733 31.7894 15.5907 31.4497 15C28.7326 15.4578 26.1337 16.27 23.7119 17.3775C18.824 24.6133 17.495 31.6719 18.1595 38.6419C21.4082 41.0193 24.5536 42.4517 27.6399 43.3968C28.4078 42.3631 29.087 41.2704 29.6629 40.1185C28.5407 39.7051 27.4774 39.1882 26.4585 38.5975C26.7243 38.4056 26.9901 38.1988 27.2412 37.9921C33.4137 40.8126 40.1032 40.8126 46.2019 37.9921C46.4529 38.1988 46.7187 38.4056 46.9845 38.5975C45.9656 39.203 44.9024 39.7051 43.7801 40.1185C44.3708 41.2704 45.0501 42.3631 45.8032 43.3968C48.9042 42.4517 52.0496 41.0193 55.2983 38.6419C56.0957 30.5791 53.9988 23.5796 49.746 17.3775ZM30.5194 34.3594C28.6736 34.3594 27.1526 32.676 27.1526 30.6086C27.1526 28.5413 28.644 26.8578 30.5194 26.8578C32.4096 26.8578 33.9158 28.556 33.8863 30.6086C33.8863 32.676 32.3948 34.3594 30.5194 34.3594ZM42.9679 34.3594C41.1221 34.3594 39.6011 32.676 39.6011 30.6086C39.6011 28.5413 41.0925 26.8578 42.9679 26.8578C44.8581 26.8578 46.3643 28.556 46.3348 30.6086C46.3348 32.676 44.8581 34.3594 42.9679 34.3594Z" fill="white"/>
<path d="M89.6757 21.0398C88.1695 21.0398 86.9291 22.1473 86.9291 23.5059C86.9291 24.8792 88.1695 25.9719 89.6757 25.9719C91.182 26.0015 92.4224 24.8792 92.4224 23.5059C92.4224 22.1325 91.182 21.0398 89.6757 21.0398Z" fill="white"/>
<path d="M102.951 29.1467L100.869 28.7775C99.7615 28.5412 99.5104 28.4526 99.4661 27.9949C99.4661 27.5519 100.116 27.3304 101.415 27.3304C103.114 27.3304 104.812 27.7881 106.111 28.4969C106.185 28.5412 106.288 28.4822 106.288 28.3936V25.4845C106.288 25.3959 106.244 25.3221 106.17 25.2778C104.9 24.5394 102.936 24.0226 100.692 24.0226C96.7933 24.0078 94.2239 25.6026 94.2682 27.9801C94.2682 29.8703 95.3018 30.9926 98.2109 31.6718L100.707 32.233C101.504 32.4249 101.725 32.6908 101.725 33.1042C101.725 33.4734 101.223 33.7687 100.219 33.7687C98.2405 33.7835 95.7301 33.0895 94.3715 32.1148C94.2977 32.0558 94.1796 32.1148 94.1796 32.2034V35.275C94.1796 35.3636 94.2239 35.4374 94.2977 35.4817C96.0697 36.5449 98.3291 37.1061 100.677 37.1061C104.753 37.1061 106.997 35.4669 106.997 33.0009C106.968 30.6086 105.609 29.6192 102.951 29.1467Z" fill="white"/>
<path d="M121.144 32.1444C120.701 32.3954 120.169 32.6169 119.593 32.7794C118.914 32.9861 118.235 33.0895 117.541 33.0895C114.824 33.0895 113.421 31.982 113.421 30.5348C113.421 29.0433 114.927 27.9801 117.526 27.9801C118.929 27.9801 120.155 28.3788 121.1 28.9695C121.173 29.0138 121.277 28.9547 121.277 28.8661V25.4255C121.277 25.3369 121.233 25.263 121.159 25.2187C119.815 24.3918 118.131 23.9783 116.108 23.9783C111.073 23.934 108.075 26.784 108.12 30.4757C108.075 34.1675 110.97 37.1061 116.035 37.0618C117.999 37.0618 119.741 36.604 121.203 35.7623C121.277 35.718 121.321 35.6442 121.321 35.5556V32.2182C121.321 32.1592 121.218 32.1001 121.144 32.1444Z" fill="white"/>
<path d="M130.551 24.0078C125.633 23.9635 122.576 26.7397 122.621 30.461C122.576 34.1527 125.648 37.1504 130.551 37.0914C135.453 37.1357 138.495 34.1823 138.451 30.461C138.495 26.725 135.483 23.9635 130.551 24.0078ZM130.551 33.2962C128.779 33.2962 127.701 32.1887 127.701 30.5348C127.701 28.8957 128.779 27.8177 130.551 27.8177C132.293 27.8177 133.371 28.8957 133.371 30.5348C133.371 32.174 132.293 33.2962 130.551 33.2962Z" fill="white"/>
<path d="M150.486 24.6873C150.043 24.4362 149.437 24.259 148.729 24.259C147.03 24.259 145.879 25.2632 145.244 27.4192C145.199 27.5521 145.007 27.5225 145.007 27.3896V24.643C145.007 24.5839 144.948 24.5248 144.889 24.5248H140.149C140.09 24.5248 140.031 24.5839 140.031 24.643V36.5451C140.031 36.6042 140.09 36.6633 140.149 36.6633H144.993C145.052 36.6633 145.111 36.6042 145.111 36.5451V32.8386C145.111 30.0034 146.366 28.7186 148.551 28.7186C149.334 28.7186 149.984 28.8958 150.427 29.1321C150.501 29.1764 150.604 29.1174 150.604 29.0287V24.8792C150.604 24.8202 150.56 24.7316 150.486 24.6873Z" fill="white"/>
<path d="M167.305 21.7336H162.462C162.403 21.7336 162.344 21.7927 162.344 21.8518V25.7355C162.344 26.0899 161.901 26.2228 161.694 25.9422C160.778 24.6427 159.376 24.0077 157.456 24.0077C153.956 23.9487 151.328 26.8578 151.446 30.6381C151.401 34.3151 153.69 37.1356 157.131 37.0912C159.213 37.0912 160.764 36.3824 161.738 35.0239C161.93 34.7581 162.329 34.9057 162.329 35.2158V36.5596C162.329 36.6187 162.388 36.6778 162.447 36.6778H167.291C167.35 36.6778 167.409 36.6187 167.409 36.5596V21.8665C167.438 21.7927 167.379 21.7336 167.305 21.7336ZM159.538 33.2075C157.84 33.2075 156.747 32.1 156.747 30.5347C156.747 28.9547 157.855 27.8767 159.568 27.8767C161.325 27.8767 162.388 28.9399 162.388 30.4904C162.373 32.0705 161.251 33.2075 159.538 33.2075Z" fill="white"/>
<path d="M92.0236 26.7249C91.3443 27.1236 90.5321 27.3599 89.6609 27.3451C88.7896 27.3451 87.9775 27.1088 87.2982 26.7101C87.2243 26.6658 87.121 26.7249 87.121 26.8135V36.5744C87.121 36.6335 87.18 36.6926 87.2391 36.6926H92.0827C92.1417 36.6926 92.2008 36.6335 92.2008 36.5744V26.843C92.2008 26.7249 92.0974 26.6658 92.0236 26.7249Z" fill="white"/>
<path d="M76.4741 21.7485H68.9282C68.8691 21.7485 68.8101 21.8075 68.8101 21.8666V36.5597C68.8101 36.6188 68.8691 36.6778 68.9282 36.6778H75.8834C82.248 36.7221 85.5115 33.3848 85.4672 29.3091C85.5115 25.1301 82.3513 21.7189 76.4741 21.7485ZM75.7948 33.0599H73.9785C73.9194 33.0599 73.8603 33.0009 73.8603 32.9418V25.4845C73.8603 25.4254 73.9194 25.3664 73.9785 25.3664H75.7948C78.4381 25.3664 80.0329 26.8578 80.0477 29.1024C80.0477 29.1615 80.0477 29.2353 80.0477 29.3091C80.0477 31.5537 78.4529 33.0599 75.7948 33.0599Z" fill="white"/>
</svg>
