<svg width="185" height="58" viewBox="0 0 185 58" fill="none" xmlns="http://www.w3.org/2000/svg">
<path d="M118.266 39.7264C92.7428 35.5373 73.893 40.3489 64.927 43.6528C64.3867 43.852 64.1102 44.4507 64.3094 44.991C64.4641 45.4123 64.9964 45.8484 65.6476 45.6085C74.4173 42.379 92.8796 37.5635 117.931 41.6752C118.5 41.7684 119.034 41.3838 119.128 40.8158C119.221 40.2478 118.835 39.8196 118.267 39.7264H118.266Z" fill="white"/>
<path d="M125.072 24.7275C126.02 24.5323 126.78 23.8424 126.769 23.1862C126.756 22.5291 125.978 22.1564 125.031 22.3506C124.081 22.5469 123.322 23.2378 123.333 23.8929C123.344 24.5481 124.124 24.9228 125.073 24.7275H125.072Z" fill="white"/>
<path d="M138.71 30.8865C138.346 30.4781 137.711 30.4315 137.312 30.8062C134.718 33.2526 125.451 37.2355 122.779 34.2815C131.596 31.2066 133.888 28.1565 132.354 26.3782C130.593 24.3372 126.364 26.5408 124.61 27.7303C120.717 30.372 120.459 32.6172 120.417 32.9513C119.892 33.1168 117.635 33.5936 116.843 33.3279C116.209 33.1158 117.045 31.6507 118.26 30.4285C119.501 29.1805 121.143 28.0108 121.386 27.8473C121.861 27.5261 121.987 26.8808 121.666 26.405C121.345 25.9292 120.665 25.7567 120.224 26.1244C118.262 27.7561 111.101 33.2774 107.614 32.8422C107.36 32.8105 106.874 32.6985 106.874 32.0046C113.054 28.6214 118.493 24.1548 120.113 22.657C123.715 19.3244 123.314 17.8474 122.316 17.1188C121.068 16.2069 117.149 17.4846 109.407 24.6891C108.445 24.1726 104.977 23.4867 99.1119 28.8236C97.7569 29.6454 96.1788 30.3532 94.7395 30.714C95.8328 29.6682 98.7967 26.5705 96.5019 24.3798C93.7472 21.75 86.5397 26.852 84.7376 29.0457C78.4709 33.3121 72.213 35.9508 71.0681 33.9396C75.3305 31.5338 91.0381 21.8551 91.8519 17.5649C92.2712 15.3534 90.2431 14.941 88.9862 15.2196C85.8835 15.9065 82.5202 17.8811 79.6049 19.932C73.2975 24.3709 68.7426 29.355 68.4849 32.868C60.8412 37.1116 51.4471 41.1678 47.8736 38.4855C47.4661 38.1802 45.9406 35.1985 53.5634 31.276C57.2112 29.3996 61.6927 27.9186 65.289 27.4864C66.1881 27.3784 66.4498 26.7222 66.4637 26.29C66.4825 25.72 66.0414 25.1827 65.4913 25.1332C64.2403 25.0192 57.8169 24.7902 57.0873 22.8206C56.6076 21.527 59.7489 18.0169 68.5275 15.8936C73.346 14.7279 75.8163 15.4327 75.8678 16.0988C76.0006 17.8097 70.5526 19.5425 68.4809 19.6812C67.8703 19.7219 67.4054 20.2453 67.444 20.8569C67.4807 21.4447 68.0011 21.9294 68.6197 21.8937C70.4277 21.7887 75.7191 20.4534 77.4855 17.9901C78.0714 17.1733 78.2657 16.2326 78.0486 15.4406C77.3785 12.9882 73.6266 12.3687 68.015 13.6514C63.9598 14.5782 54.0402 17.9326 54.8302 23.2478C55.0503 24.7278 56.4083 25.7825 58.7903 26.4863C51.9605 28.5729 41.6236 34.2478 46.0804 40.1359C46.911 41.2333 49.2177 42.2701 53.6615 41.494C58.9489 40.5701 66.0107 36.9609 69.1361 35.247C72.4698 39.4728 81.0105 33.8989 82.883 32.8323C82.883 33.8949 83.6056 35.478 85.6585 35.478C87.7114 35.478 90.6356 33.9059 92.4467 32.5954C94.2171 32.8234 96.8875 31.7508 97.061 31.6805C96.1302 34.3598 98.0205 35.0537 99.1079 35.0537C100.719 35.0537 103.572 33.7344 105.001 33.0068C105.081 33.2219 105.696 34.8069 107.992 34.8069C110.542 34.8069 114.298 32.5657 114.593 32.3962C114.476 33.093 114.127 36.5862 120.755 34.8703C124.24 40.5602 135.994 34.802 138.631 32.2841C139.026 31.9065 139.075 31.2949 138.711 30.8865H138.71ZM71.7878 30.5683C73.4392 27.9295 77.1773 24.4512 81.5438 21.4913C85.7983 18.6067 88.4975 17.6313 89.5175 17.5153C89.0427 18.3401 87.4527 20.1323 83.5967 23.0773C80.2541 25.6298 75.9114 28.5124 71.4497 31.1501C71.5578 30.9489 71.6728 30.7526 71.7878 30.5673V30.5683ZM86.8232 33.2923C85.9529 33.5411 85.4394 33.5302 85.2412 33.4271C84.2965 32.9354 85.8478 30.1827 88.8474 28.214C88.3101 29.6196 88.5609 31.162 89.8773 31.9065C88.8385 32.523 87.7778 33.0187 86.8222 33.2913L86.8232 33.2923ZM91.613 30.7457C89.5165 30.3046 90.6386 28.3191 91.5347 27.4101C94.0426 24.8645 95.4086 25.7834 95.3203 26.4496C95.1489 27.7333 93.1296 29.7584 91.613 30.7447V30.7457ZM120.828 18.9764C118.985 21.7718 111.684 26.9482 108.431 28.8435C109.999 26.7162 115.517 21.1235 120.828 18.9764ZM99.0049 33.1099C98.7114 33.0038 99.0296 31.9778 99.9882 30.9331C103.482 27.1236 106.883 26.3762 107.799 26.3921C106.316 28.0842 105.387 29.5621 105.014 30.8191C101.311 32.8065 99.3349 33.2288 99.0049 33.1099ZM130.742 27.5994C130.551 28.4658 127.636 30.5138 122.785 32.2316C125.158 28.7642 129.885 27.2416 130.742 27.5994Z" fill="white"/>
</svg>
