<svg width="185" height="58" viewBox="0 0 185 58" fill="none" xmlns="http://www.w3.org/2000/svg">
<path d="M28 35.0299V23.0002H37.6296V25.4002H30.4V27.8002H35.2V30.2299H30.4V32.6299H37.6296V35.0299H28Z" fill="white"/>
<path d="M48.0591 35.0299L43.2295 23.0002H45.8073L49.2739 31.5632L52.6813 23.0002H55.2591L50.4591 35.0299H48.0591Z" fill="white"/>
<path d="M61.5112 35.0299V23.0002H71.1409V25.4002H63.9112V27.8002H68.7112V30.2299H63.9112V32.6299H71.1409V35.0299H61.5112Z" fill="white"/>
<path d="M87.0518 29.7559L88.7703 35.03H86.2518L84.6814 30.23H80.474V35.03H78.074V23.0003H85.274C85.7509 22.9939 86.2243 23.0823 86.6669 23.2604C87.1094 23.4384 87.5121 23.7025 87.8518 24.0374C88.1944 24.3713 88.4635 24.773 88.6421 25.2169C88.8207 25.6607 88.9047 26.137 88.8888 26.6151C88.9044 27.2576 88.7408 27.8917 88.4163 28.4464C88.0919 29.0011 87.6194 29.4546 87.0518 29.7559ZM80.474 27.8003H85.274C85.4338 27.802 85.5923 27.7714 85.7399 27.7103C85.8876 27.6492 86.0214 27.5589 86.1332 27.4448C86.2495 27.3345 86.3413 27.2011 86.4025 27.053C86.4638 26.905 86.4932 26.7457 86.4888 26.5855C86.4888 26.426 86.4574 26.268 86.3963 26.1206C86.3353 25.9732 86.2458 25.8393 86.133 25.7265C86.0202 25.6137 85.8863 25.5242 85.7389 25.4632C85.5915 25.4021 85.4335 25.3707 85.274 25.3707H80.474V27.8003Z" fill="white"/>
<path d="M96.0295 35.0299V23.0002H98.4295V32.6299H104.444V35.0299H96.0295Z" fill="white"/>
<path d="M118.904 32.6299H113.956L112.978 35.0299H110.4L115.23 23.0002H117.63L122.459 35.0299H119.882L118.904 32.6299ZM117.926 30.2299L116.415 26.4669L114.904 30.2299H117.926Z" fill="white"/>
<path d="M139.111 23.0002V35.0299H136.711L130.696 27.0299V35.0299H128.296V23.0002H130.696L136.711 31.0002V23.0002H139.111Z" fill="white"/>
<path d="M146.37 35.0299V23.0002H156V25.4002H148.77V27.8002H153.57V30.2299H148.77V32.6299H156V35.0299H146.37Z" fill="white"/>
</svg>
