<svg width="185" height="58" viewBox="0 0 185 58" fill="none" xmlns="http://www.w3.org/2000/svg">
<path fill-rule="evenodd" clip-rule="evenodd" d="M89.1547 57.9995H89.0018C77.8141 49.7342 66.6208 41.4766 55.4265 33.2211C55.1696 31.1178 54.9146 29.0142 54.6595 26.9107L54.6595 26.9106C53.796 19.7891 52.9325 12.6676 52 5.55485V5.14712C56.4041 4.73214 60.8047 4.27756 65.2051 3.82301L65.2056 3.82295C66.669 3.67179 68.1323 3.52063 69.5957 3.37093C70.007 4.6665 70.4158 5.95443 70.8286 7.25663L76.059 6.70556L78.4287 6.45594L78.441 6.49067L78.4441 6.49917C78.6186 6.99153 78.7881 7.4698 78.9629 7.96251L92.5266 6.38866C92.6204 4.75926 92.7131 3.14413 92.8069 1.50963L96.7806 1.12818C98.6587 0.947909 100.533 0.76804 102.411 0.587645C102.475 1.03054 102.534 1.43777 102.596 1.86487L102.918 1.82982L102.918 1.8298C108.39 1.2345 113.86 0.639311 119.326 0H119.734L120.225 3.9159L120.711 7.79025L123.791 7.46519L126.231 7.2077C128.554 13.1183 130.877 19.0279 133.24 24.9227V25.1265C122.789 32.0914 112.743 39.8605 102.736 47.5993C98.2123 51.0981 93.6962 54.5907 89.1541 58L89.1547 57.9995ZM100.903 2.7945C98.8827 3.01009 96.8822 3.22364 94.869 3.43872L95.6049 9.44261L96.2558 14.7533L96.0562 14.7753C95.9308 14.7891 95.8114 14.8022 95.6845 14.816L94.3261 13.376L94.3117 13.3607C92.8677 11.83 91.4237 10.2994 89.9844 8.77339L83.661 9.48132L84.6338 17.3041L84.6595 17.5109C85.1787 21.6855 85.6973 25.8555 86.2164 30.0321L92.2519 29.3894L91.2415 21.1459L90.9777 18.9937C91.1954 18.9749 91.3794 18.9591 91.5603 18.9433L93.7374 21.6446L98.0667 27.0164C99.9728 26.8222 101.877 26.628 103.812 26.4308C102.841 18.5432 101.874 10.6816 100.904 2.7945H100.903ZM56.4968 25.267L54.2645 6.97325C57.2303 6.66817 60.1851 6.36397 63.1438 6.05935L63.1447 6.05925L67.8562 5.57422C68.0635 7.27635 68.2688 8.96522 68.477 10.6787L68.556 11.3283L65.4618 11.6677C63.9999 11.828 62.5386 11.9883 61.071 12.1494C61.2239 13.4654 61.3743 14.7615 61.5282 16.0896L62.8866 15.956L67.3863 15.5132C67.5534 16.817 67.7189 18.1121 67.8872 19.4281L67.9724 20.0951L64.0092 20.4926L62.1077 20.6833L62.7422 26.0997L63.2713 30.6156L61.1283 30.8415L57.2271 31.2527L56.4968 25.267ZM107.237 9.24534L107.428 10.8313C108.102 16.4382 108.773 22.0173 109.445 27.6066C110.868 27.4542 112.274 27.3036 113.677 27.1533L116.07 26.8971L115.09 18.755L113.861 8.54404C114.969 8.42356 116.059 8.30474 117.154 8.18548L117.163 8.18449L118.681 8.01909L118.304 4.93027L117.98 2.27209L103.116 3.83422L103.341 5.69595C103.498 6.99449 103.655 8.28905 103.812 9.59039C104.968 9.47367 106.088 9.36053 107.237 9.24483V9.24534ZM84.0106 28.4608L80.9661 19.8213L80.933 19.7276C79.6321 16.0359 78.3325 12.3481 77.0317 8.65668C76.0901 8.75479 75.1537 8.85252 74.2174 8.95025C73.281 9.04798 72.3446 9.1457 71.403 9.24381C69.9887 16.8297 68.5759 24.4079 67.1595 32.007L69.9143 31.702L72.3882 31.4281C72.6624 29.4434 72.9345 27.4725 73.2067 25.5001L75.3646 25.2515L75.3848 25.2492C76.1639 25.1595 76.9425 25.0699 77.7279 24.9792L78.9557 28.9924C80.1647 28.8648 81.3643 28.7386 82.5728 28.6115L84.0101 28.4603L84.0106 28.4608ZM130.47 23.5828L124.895 9.41863L121.921 9.7304L118.361 10.1036V24.8656L119.588 24.7433C120.557 24.6468 121.5 24.5528 122.451 24.4579L122.448 24.4054L122.445 24.3361C122.392 23.3365 122.341 22.3624 122.29 21.3764L125.18 21.0293C125.559 22.0553 125.925 23.0461 126.294 24.045L130.47 23.5828ZM76.3432 20.4508L73.8953 20.7419L73.9171 20.597C74.1237 19.2275 74.3282 17.8723 74.5364 16.4938C74.7265 16.4775 74.909 16.4617 75.1185 16.4433L76.3427 20.4508H76.3432ZM123.913 17.665C123.913 17.665 123.913 17.665 123.913 17.665V17.6655C123.913 17.6654 123.913 17.6652 123.913 17.665ZM122.148 17.9081C122.787 17.82 123.33 17.745 123.913 17.665C123.48 16.3289 123.057 15.0212 122.63 13.7049C122.427 13.7278 122.245 13.7482 122.148 13.7594V17.9081Z" fill="white"/>
</svg>
