<svg width="185" height="58" viewBox="0 0 185 58" fill="none" xmlns="http://www.w3.org/2000/svg">
<path d="M129.801 28.4544H126.617C124.562 28.4544 123.432 29.9946 123.432 32.6644V42.2156H117.27V28.4544H114.702C112.648 28.4544 111.518 29.9946 111.518 32.6644V42.2156H105.356V23.3193H111.518V26.1952C112.546 23.936 113.88 23.3193 115.934 23.3193H123.431V26.1952C124.458 23.936 125.792 23.3193 127.847 23.3193H129.902L129.801 28.4544ZM103.921 34.2061H91.1855C91.4938 36.363 92.828 37.4926 94.9849 37.4926C96.6274 37.4926 97.7585 36.7737 98.1691 35.6441L103.613 37.1843C102.277 40.4708 98.9904 42.4217 94.9864 42.4217C88.3111 42.4217 85.2306 37.1843 85.2306 32.6659C85.2306 28.2498 87.9004 23.0124 94.5757 23.0124C101.662 23.0124 104.025 28.3521 104.025 32.3576C104.023 33.2811 104.023 33.7955 103.921 34.2061ZM98.0668 30.6113C97.9645 28.9688 96.7312 27.5308 94.678 27.5308C92.7272 27.5308 91.5976 28.3521 91.1869 30.6113H98.0668ZM74.5484 42.2156H79.888L86.6656 23.4216H80.5062L77.2196 34.4107L73.9331 23.3193H67.7707L74.5484 42.2156ZM49.4911 42.2156H55.5497V28.4544H61.4038V42.2156H67.4624V23.3193H55.5497V22.1897C55.5497 20.9578 56.4747 20.1351 57.8089 20.1351H61.4038V15H56.8854C52.4693 15 49.4911 17.7736 49.4911 21.7776V23.3178H46V28.4529H49.4911V42.2156Z" fill="white"/>
<path d="M133.602 42.73C135.656 42.73 137.401 40.9838 137.401 38.9306C137.401 36.876 135.655 35.1312 133.602 35.1312C131.547 35.1312 129.802 36.8774 129.802 38.9306C129.801 40.9838 131.547 42.73 133.602 42.73Z" fill="white"/>
</svg>
