<svg width="185" height="58" viewBox="0 0 185 58" fill="none" xmlns="http://www.w3.org/2000/svg">
<path d="M67.2441 48.476V23.4207H63V20.7752H67.3569V18.6275C67.3569 11.675 71.3183 8 76.2976 8C80.5417 8 84.2192 10.7139 84.4461 13.6531L79.1841 15.6882C79.1841 13.3137 78.5046 10.5999 75.9021 10.5999C73.9778 10.5999 72.0535 12.2956 72.0535 16.7621V20.7752H83.9923V23.4321H72.1106V48.4747H67.2441V48.476Z" fill="white"/>
<path d="M86.5061 48.4759V9.75255L91.3726 9.18774V48.4772H86.5061V48.4759Z" fill="white"/>
<path d="M93.8381 34.6257C93.8381 26.0333 99.7238 20.0408 107.475 20.0408C115.227 20.0408 121 26.0333 121 34.6257C121 43.218 115.228 49.2105 107.475 49.2105C99.7226 49.2105 93.8381 43.218 93.8381 34.6257ZM115.624 34.6257C115.624 27.2769 112.342 22.6976 107.475 22.6976C102.609 22.6976 99.1572 27.2769 99.1572 34.6257C99.1572 41.9745 102.552 46.5537 107.475 46.5537C112.399 46.5537 115.624 42.0314 115.624 34.6257Z" fill="white"/>
</svg>
