<svg width="185" height="58" viewBox="0 0 185 58" fill="none" xmlns="http://www.w3.org/2000/svg">
<path fill-rule="evenodd" clip-rule="evenodd" d="M71.0451 26.4606V20.2928H66.8897C66.8897 18.8759 67.7623 18.3758 69.1752 18.3758C69.788 18.3842 70.3992 18.4399 71.0035 18.5425V14.4168C69.5939 14.1379 68.1603 13.9983 66.7235 14C62.2773 14 58.8284 15.5836 58.8284 20.2928H57V25.7938H58.8699V43.5887H67.8455V25.7938L71.0451 26.4606ZM81.6229 14.382H72.6024V43.5593H81.6229V14.382ZM97.0662 20.0529H106.099V43.5835H97.1078L99.2723 32.1306H98.6479C97.0662 41.7094 94.9432 44 90.3644 44C85.952 44 83.1215 41.3762 83.1215 35.504V20.0529H92.1543V31.4226C92.1543 33.8797 92.8619 35.0459 94.527 35.0459C96.2336 35.0459 97.0662 33.7548 97.0662 30.6729V20.0529ZM126.726 43.5887V35.1324C125.602 34.9082 124.459 34.7966 123.313 34.7992C120.484 34.7992 117.779 35.7156 115.823 37.9234H115.24C117.196 34.4659 121.149 31.7583 126.601 28.6341V20.0529H107.583V28.4258C110.912 28.4258 116.114 27.5927 119.193 26.4679L119.235 26.9262C116.697 28.0509 113.908 29.6338 111.994 31.0918C109.039 33.2996 107.333 35.9656 107.333 39.2147C107.333 40.6311 107.541 42.5472 107.832 43.5887H126.726Z" fill="white"/>
</svg>
