<svg width="185" height="58" viewBox="0 0 185 58" fill="none" xmlns="http://www.w3.org/2000/svg">
<path d="M61.1009 33.5643L57.9562 31.7487C57.8177 31.6687 57.7026 31.5538 57.6225 31.4155C57.5424 31.2771 57.4999 31.1201 57.4995 30.9602V27.329C57.4992 26.9575 57.4013 26.5927 57.2154 26.271C57.0296 25.9494 56.7624 25.6823 56.4407 25.4966L53.296 23.681C53.1579 23.6004 53.0432 23.485 52.9634 23.3463C52.8836 23.2077 52.8415 23.0506 52.8412 22.8906V19.2594C52.841 18.8874 52.7431 18.522 52.5573 18.1998C52.3715 17.8775 52.1042 17.6098 51.7824 17.4233L47.5789 15L43.3754 17.4233C43.0543 17.6102 42.7878 17.8782 42.6026 18.2004C42.4175 18.5226 42.3202 18.8878 42.3204 19.2594V22.8906C42.3201 23.0506 42.2779 23.2077 42.1981 23.3463C42.1183 23.485 42.0037 23.6004 41.8655 23.681L38.7171 25.4966C38.396 25.6828 38.1294 25.9501 37.9439 26.2716C37.7585 26.5932 37.6606 26.9578 37.6602 27.329V30.9602C37.6601 31.1199 37.6181 31.2769 37.5382 31.4153C37.4584 31.5537 37.3436 31.6686 37.2053 31.7487L34.0588 33.5643C33.7375 33.7509 33.4706 34.0184 33.2849 34.3403C33.0991 34.6621 33.0009 35.027 33 35.3985V40.2451L37.2035 42.6684C37.5251 42.8543 37.8899 42.9522 38.2613 42.9522C38.6328 42.9522 38.9976 42.8543 39.3192 42.6684L42.4639 40.8528C42.6026 40.7732 42.7597 40.7313 42.9197 40.7313C43.0796 40.7313 43.2367 40.7732 43.3754 40.8528L46.5201 42.6684C46.8421 42.8541 47.2072 42.9518 47.5789 42.9518C47.9506 42.9518 48.3157 42.8541 48.6377 42.6684L51.7824 40.8528C51.9211 40.7732 52.0782 40.7313 52.2382 40.7313C52.3981 40.7313 52.5552 40.7732 52.6939 40.8528L55.8386 42.6684C56.1602 42.8543 56.525 42.9522 56.8965 42.9522C57.2679 42.9522 57.6328 42.8543 57.9543 42.6684L62.1578 40.2451V35.3985C62.1573 35.0271 62.0595 34.6623 61.874 34.3404C61.6886 34.0186 61.422 33.751 61.1009 33.5643ZM51.6407 19.2594V22.8906C51.6415 23.262 51.7398 23.6266 51.9255 23.9481C52.1113 24.2697 52.3782 24.5368 52.6995 24.723L55.8442 26.5386C55.9828 26.6189 56.098 26.7341 56.1781 26.8728C56.2583 27.0115 56.3006 27.1688 56.3009 27.329V30.9602C56.3013 31.3314 56.3992 31.696 56.5847 32.0175C56.7701 32.3391 57.0367 32.6063 57.3578 32.7926L60.5025 34.6082C60.6413 34.6883 60.7565 34.8035 60.8367 34.9422C60.9168 35.0809 60.9591 35.2383 60.9592 35.3985V38.8601L48.181 31.4859V16.7392L51.1803 18.4709C51.3196 18.5502 51.4355 18.6649 51.5164 18.8033C51.5972 18.9418 51.6401 19.0991 51.6407 19.2594ZM34.6609 34.6082L37.8056 32.7926C38.1269 32.6064 38.3938 32.3392 38.5795 32.0177C38.7653 31.6962 38.8635 31.3315 38.8644 30.9602V27.329C38.8643 27.1689 38.9063 27.0117 38.9861 26.873C39.0659 26.7343 39.1808 26.619 39.3192 26.5386L42.4639 24.723C42.7852 24.5368 43.0521 24.2697 43.2379 23.9481C43.4237 23.6266 43.5219 23.262 43.5227 22.8906V19.2594C43.5231 19.0997 43.5653 18.9429 43.6451 18.8046C43.7249 18.6663 43.8395 18.5512 43.9775 18.4709L46.9805 16.7392V31.4859L34.2061 38.8601V35.3985C34.206 35.2385 34.248 35.0812 34.3278 34.9425C34.4076 34.8038 34.5225 34.6885 34.6609 34.6082ZM57.3522 41.6357C57.2135 41.7154 57.0564 41.7573 56.8965 41.7573C56.7365 41.7573 56.5794 41.7154 56.4407 41.6357L53.296 39.8201C52.9744 39.6342 52.6096 39.5364 52.2382 39.5364C51.8667 39.5364 51.5019 39.6342 51.1803 39.8201L48.0356 41.6357C47.8969 41.7154 47.7398 41.7573 47.5798 41.7573C47.4199 41.7573 47.2628 41.7154 47.1241 41.6357L43.9794 39.8201C43.6575 39.6343 43.2923 39.5364 42.9206 39.5364C42.5489 39.5364 42.1837 39.6343 41.8618 39.8201L38.7171 41.6357C38.5784 41.7154 38.4213 41.7573 38.2613 41.7573C38.1014 41.7573 37.9443 41.7154 37.8056 41.6357L34.8081 39.904L47.5789 32.5223L60.3497 39.8965L57.3522 41.6357Z" fill="white"/>
<path d="M69.8657 37.6503H72.9899V30.7607H79.6185V27.918H72.9899V23.9159H80.092V21.075H69.8657V37.6503Z" fill="white"/>
<path d="M111.602 26.3429C110.878 25.9177 110.05 25.7009 109.211 25.7166C107.41 25.7166 106.202 26.3634 105.587 27.6571H105.35V25.9048H102.414V37.6485H105.397V31.5902C105.397 30.5016 105.65 29.6535 106.156 29.0458C106.661 28.4381 107.371 28.1336 108.286 28.1324C109.106 28.1324 109.728 28.3536 110.15 28.796C110.573 29.2384 110.786 29.9014 110.79 30.785V37.6522H113.772V30.6414C113.79 29.7557 113.595 28.8786 113.204 28.0839C112.846 27.3636 112.29 26.7598 111.602 26.3429Z" fill="white"/>
<path d="M120.341 22.2587H117.359V25.9048H114.421V28.3281H117.359V35.0052C117.359 35.8105 117.595 36.4542 118.069 36.9364C118.318 37.1804 118.615 37.3704 118.94 37.4946C119.266 37.6187 119.614 37.6742 119.963 37.6578H123.277V35.2345H121.005C120.562 35.2345 120.341 34.9977 120.341 34.5243V28.3206H123.562V25.8973H120.341V22.2587Z" fill="white"/>
<path d="M126.908 20.4599C126.352 20.4431 125.812 20.6475 125.406 21.0284C124.601 21.733 124.601 23.2653 125.406 23.9643C126.165 24.723 127.654 24.723 128.413 23.9643C129.218 23.2578 129.218 21.7274 128.413 21.0284C128.006 20.6472 127.465 20.4428 126.908 20.4599Z" fill="white"/>
<path d="M128.401 25.9048H125.417V37.6504H128.401V25.9048Z" fill="white"/>
<path d="M84.139 27.5638H84.3757C84.8268 26.3075 85.8204 25.8582 87.3117 25.8582H88.5494V28.3691H86.7972C85.2817 28.3691 84.1875 29.1725 84.1875 30.8316V37.6503H81.205V25.9067H84.1409L84.139 27.5638Z" fill="white"/>
<path d="M147.64 25.9048L144.542 34.3863H144.306L141.204 25.9048H135.94V23.8543C135.94 23.3809 136.16 23.1441 136.601 23.1441H138.639V20.7208H135.561C134.771 20.7208 134.139 20.9613 133.666 21.4422C133.192 21.9232 132.955 22.5718 132.955 23.3883V25.9048H129.973V28.3281H132.955V37.6578H135.938V28.3206H138.92L142.859 38.4015L142.346 39.6318C142.261 39.8369 142.084 39.9711 141.746 39.9711H139.137V42.3944H142.607C143.827 42.3944 144.658 41.7904 145.012 40.8752L150.865 25.9048H147.64Z" fill="white"/>
<path d="M94.9841 37.9822C98.5985 37.9822 101.136 35.4601 101.136 31.7785C101.136 28.097 98.6358 25.5749 94.9841 25.5749C91.3324 25.5749 88.8326 28.1138 88.8326 31.7785C88.8326 35.4433 91.3678 37.9822 94.9841 37.9822ZM91.8096 31.7767C91.8096 29.3906 93.23 28.1771 94.9785 28.1771C96.727 28.1771 98.1474 29.3906 98.1474 31.7767C98.1474 34.1627 96.727 35.3762 94.9785 35.3762C93.23 35.3762 91.8096 34.1645 91.8096 31.7767Z" fill="white"/>
</svg>
