<svg width="185" height="58" viewBox="0 0 185 58" fill="none" xmlns="http://www.w3.org/2000/svg">
<path d="M34.5553 16.9715C32.3359 17.4004 30.5361 18.529 29.3376 20.2614C28.5935 21.3275 28.1089 22.5851 27.8104 24.1593C27.5681 25.4919 27.6287 27.3534 27.9921 29.1441C28.5632 31.9717 30.1683 34.9909 32.4354 37.5104C34.0405 39.2886 36.8094 41.0543 39.1284 41.7748C41.4603 42.5036 44.0778 42.4578 46.4011 41.6624C47.8245 41.1751 49.7714 40.0799 51.0607 39.0554C51.7573 38.5016 53.2109 37.0773 53.2758 36.8816C53.2931 36.8275 53.4229 36.6567 53.5571 36.4901C55.1925 34.5412 56.5077 31.9343 57.0615 29.5564C57.4682 27.8156 57.6629 25.9958 57.5244 25.3211C57.4768 25.1171 57.3816 24.5924 57.3124 24.1593C56.724 20.4862 54.5738 17.9959 51.1862 17.0922C50.6627 16.959 50.3728 16.934 49.0186 16.934C47.5736 16.9256 47.3919 16.9423 46.6174 17.1297C45.3498 17.4379 43.9956 17.9751 42.8708 18.6206L42.5982 18.7788L41.6983 18.3291C40.5561 17.746 39.773 17.4504 38.6568 17.1672C37.8521 16.9715 37.6184 16.9423 36.3508 16.9215C35.5807 16.9048 34.776 16.934 34.5553 16.9715ZM37.718 19.5576C38.328 19.6783 39.0548 19.9157 39.799 20.2239L40.2446 20.4196L39.4096 21.2525C38.9467 21.7106 38.5184 22.1728 38.4491 22.2811C38.3799 22.3894 38.09 22.7767 37.8002 23.1515C36.7662 24.5007 35.8836 26.0583 35.3038 27.5741C35.161 27.9406 35.0139 28.2862 34.975 28.332C34.8755 28.4653 34.7024 29.0733 34.4645 30.1227C34.2698 31.0306 34.2525 31.2263 34.2525 32.9712C34.2438 34.4496 34.2741 34.941 34.3693 35.3116C34.4385 35.574 34.4775 35.7822 34.4472 35.7822C34.378 35.7739 33.4694 34.6953 33.0324 34.0873C31.0379 31.3346 30.0039 27.7365 30.3976 24.888C30.5404 23.8761 30.986 22.5268 31.4057 21.8605C31.9595 20.9527 33.1103 20.0448 34.127 19.7033C35.0875 19.3702 36.472 19.3202 37.718 19.5576ZM50.6281 19.5951C53.6609 20.3738 55.2876 23.5679 54.7338 27.6241C54.4267 29.8645 53.6219 31.8968 52.2721 33.8624C51.7789 34.5745 50.7795 35.7947 50.7319 35.753C50.7146 35.7364 50.7535 35.4324 50.8184 35.0617C51.0823 33.4959 51.0391 31.8177 50.6713 30.0478C50.4853 29.1566 50.1175 27.9114 50.0137 27.8365C49.9921 27.8156 49.8493 27.5158 49.7022 27.1618C49.5551 26.8078 49.3042 26.2623 49.1311 25.9416C48.8196 25.3336 48.6206 25.1837 48.3178 25.2962C48.2226 25.3253 46.9419 26.0749 45.4623 26.9619C43.9826 27.8448 42.6328 28.6402 42.4511 28.7235C42.278 28.8068 42.092 28.9317 42.0358 28.9942C41.8713 29.1816 41.9795 29.6605 42.2564 30.0269C42.3905 30.206 42.6155 30.5225 42.7669 30.7307C43.0265 31.0972 43.1736 31.2096 43.3856 31.2096C43.4721 31.2096 45.2633 30.1436 46.6564 29.2524C47.0155 29.0275 47.3529 28.8109 47.4092 28.7859C47.526 28.7193 47.7596 29.4148 48.0279 30.6433C48.6163 33.371 48.1533 36.107 46.8165 37.8019C46.3406 38.4099 45.6743 38.918 44.9171 39.2636C44.0821 39.6468 43.351 39.7717 42.3126 39.7301C40.8114 39.6551 39.8812 39.2636 38.8255 38.2517C38.2718 37.7186 38.09 37.4813 37.8304 36.9691C36.7575 34.8244 36.619 32.713 37.3459 29.877C38.4794 25.4253 42.1872 21.2775 46.3016 19.8616C46.8165 19.6908 47.7553 19.4784 48.374 19.4035C48.8758 19.3493 50.044 19.4451 50.6281 19.5951ZM70.8066 22.1062C69.9716 22.1895 69.2491 22.3103 69.0457 22.3977C68.9203 22.4518 68.4963 22.6143 68.1242 22.7642C67.0382 23.1765 66.333 23.6429 65.3726 24.5632C64.6544 25.2587 64.451 25.5085 64.1439 26.0707C63.43 27.3992 63.1661 28.6277 63.244 30.231C63.3132 31.6011 63.6593 32.7505 64.3472 33.8499C64.6977 34.4121 65.6927 35.4032 66.359 35.8447C67.1637 36.386 68.4097 36.9399 69.1971 37.1106C69.9629 37.2772 71.6589 37.2689 72.4809 37.094C73.5928 36.8608 75.0552 36.1028 75.8382 35.3616L76.206 35.0076V35.7489C76.206 36.3485 76.2363 36.5276 76.3617 36.7234L76.5175 36.9691H77.5904C78.1832 36.9691 78.711 36.9399 78.7543 36.9107C79.0052 36.7525 79.0182 36.5151 79.0182 33.5292C79.0182 30.9056 79.0009 30.5142 78.8927 30.4184C78.7932 30.3143 78.3908 30.2976 75.7344 30.2976H72.6929L72.5372 30.4934C72.3944 30.6641 72.3728 30.8015 72.3728 31.5428C72.3728 32.3757 72.3814 32.3965 72.5847 32.5839C72.7967 32.763 72.8443 32.7713 73.7961 32.7713C74.3499 32.7713 74.7956 32.8005 74.7956 32.8379C74.7956 32.9795 74.0428 33.5334 73.5149 33.7916C72.7708 34.1372 71.8406 34.2996 70.9407 34.2413C68.8683 34.1081 67.38 32.9462 66.8435 31.0389C66.7484 30.7016 66.7094 30.281 66.7094 29.623C66.7094 28.7984 66.7397 28.611 66.9301 28.0863C67.4319 26.6912 68.4011 25.7334 69.7596 25.267C70.3999 25.0505 71.6675 24.9963 72.4506 25.1546C73.6707 25.4003 74.7653 26.1374 75.3364 27.0952C75.6825 27.674 75.7733 27.7115 76.3704 27.5158C77.4347 27.1618 78.5077 26.7204 78.5769 26.608C78.6807 26.458 78.4298 25.8792 77.9582 25.1754C77.1751 24.0218 76.1757 23.2473 74.761 22.7225C74.4148 22.5934 74.0817 22.4602 74.0038 22.4227C73.6534 22.2478 71.5507 22.0396 70.8066 22.1062ZM92.4431 22.4435L92.2398 22.5934V29.6022C92.2398 35.9279 92.2571 36.6276 92.3652 36.79L92.4907 36.9774L95.9475 36.9691C99.5125 36.9691 99.6293 36.9607 100.806 36.6526C103.264 36.0237 104.834 34.8327 105.773 32.9046C106.314 31.7968 106.431 31.2096 106.439 29.6272C106.439 27.9864 106.322 27.4367 105.704 26.2165C104.735 24.3217 103.082 23.1515 100.534 22.5643C99.4217 22.3186 98.9674 22.2853 95.7528 22.2853C92.733 22.2894 92.6465 22.2936 92.4431 22.4435ZM99.85 25.3919C100.923 25.6751 101.697 26.2248 102.359 27.1535C102.563 27.445 102.805 27.8864 102.883 28.1446C103.086 28.761 103.147 29.698 103.039 30.3726C102.952 30.9265 102.692 31.7302 102.584 31.8052C102.545 31.826 102.381 32.0467 102.217 32.2841C101.624 33.1294 100.841 33.6542 99.7764 33.9124C99.2616 34.0415 98.9068 34.0623 97.345 34.0623H95.5235V29.6938C95.5235 27.2868 95.5452 25.292 95.5841 25.2628C95.6144 25.2254 96.484 25.217 97.5181 25.242C98.9112 25.2545 99.5125 25.3003 99.85 25.3919ZM128.141 22.3394C127.842 22.4519 127.838 22.556 127.829 25.2045V27.7823L127.44 27.4283C126.159 26.2748 123.78 26.1832 122.006 27.2201C121.746 27.37 121.326 27.699 121.058 27.9531C119.414 29.5189 119.003 32.2549 120.089 34.3913C121.006 36.207 123.061 37.3897 125.064 37.2564C126.103 37.1898 126.7 36.9274 127.505 36.1986L127.833 35.8988V36.2528C127.833 36.4568 127.89 36.6859 127.959 36.7941C128.084 36.9815 128.093 36.9815 129.361 36.9815C130.416 36.9815 130.659 36.9607 130.762 36.8608C130.871 36.7567 130.888 36.0071 130.888 29.6813C130.888 22.6809 130.888 22.6184 130.732 22.456C130.576 22.2978 130.507 22.2894 129.417 22.2978C128.772 22.2936 128.201 22.3186 128.141 22.3394ZM126.341 29.4606C126.817 29.6688 127.418 30.256 127.665 30.7557C127.838 31.1097 127.868 31.2721 127.868 31.8801C127.868 32.5381 127.846 32.638 127.608 33.0961C127.163 33.9665 126.38 34.4287 125.363 34.4287C123.814 34.4287 122.737 33.2585 122.836 31.6927C122.884 30.9806 123.156 30.4184 123.697 29.9228C124.277 29.3815 124.666 29.2482 125.48 29.2857C125.778 29.3023 126.137 29.369 126.341 29.4606ZM140.38 22.4727L140.185 22.6517V25.2087C140.185 26.6121 140.168 27.7573 140.146 27.7573C140.129 27.7573 139.96 27.6074 139.761 27.4283C139.402 27.091 138.814 26.7912 138.221 26.6246C137.706 26.483 136.331 26.4955 135.733 26.6538C134.678 26.9328 133.605 27.6074 133.012 28.3862C132.817 28.6319 132.636 28.8567 132.597 28.8817C132.497 28.9484 132.277 29.4065 132.086 29.9686C131.805 30.7849 131.701 31.7135 131.796 32.4964C131.892 33.1711 132.203 34.2039 132.424 34.5287C133.073 35.4574 133.8 36.1403 134.682 36.6276C135.435 37.0398 135.958 37.1981 136.785 37.2564C137.975 37.3397 138.879 37.0232 139.748 36.2236C139.93 36.057 140.095 35.9321 140.125 35.9321C140.155 35.9321 140.181 36.0654 140.181 36.2403C140.181 36.5484 140.289 36.8233 140.445 36.9232C140.562 36.9982 142.933 36.9982 143.05 36.9232C143.292 36.7733 143.309 36.4069 143.309 29.6313C143.309 22.3894 143.318 22.4727 142.959 22.3394C142.889 22.3186 142.318 22.2936 141.7 22.2936C140.601 22.2894 140.557 22.2936 140.38 22.4727ZM138.637 29.4523C139.13 29.6938 139.614 30.1477 139.839 30.585C139.965 30.8265 140.103 31.0431 140.146 31.0722C140.194 31.1014 140.224 31.4387 140.224 31.8218C140.224 32.4423 140.203 32.5631 139.999 32.9545C139.489 33.9124 138.836 34.3621 137.84 34.4163C136.763 34.4704 135.95 34.0206 135.478 33.0961C135.245 32.638 135.219 32.5423 135.219 31.8801C135.227 31.2596 135.249 31.1139 135.439 30.7557C135.664 30.3226 135.768 30.1935 136.214 29.7896C136.789 29.2815 137.949 29.1149 138.637 29.4523ZM156.271 24.5132C156.241 24.5341 156.215 24.7923 156.215 25.0754C156.215 25.4794 156.236 25.5835 156.332 25.5835C156.418 25.5835 156.448 25.5002 156.448 25.2628V24.9463L156.604 25.1879C156.691 25.3211 156.786 25.4336 156.825 25.4336C156.864 25.4336 156.95 25.3211 157.02 25.1879L157.145 24.9463V25.2628C157.154 25.5335 157.175 25.5835 157.309 25.5835C157.457 25.5835 157.474 25.546 157.452 25.038C157.431 24.559 157.413 24.4966 157.271 24.4966C157.175 24.4966 157.059 24.6007 156.95 24.7881L156.777 25.0713L156.691 24.8089C156.634 24.6673 156.544 24.5257 156.479 24.5008C156.336 24.4549 156.336 24.4549 156.271 24.5132ZM84.5344 26.5913C82.5182 26.9744 80.9132 28.2571 80.3031 29.9728C80.1863 30.3018 80.0608 30.61 80.0219 30.6641C79.8272 30.9056 79.8186 32.9421 80.0219 33.1836C80.0608 33.2377 80.1387 33.4085 80.195 33.575C80.381 34.1581 80.8526 34.9035 81.3588 35.4282C81.8433 35.9321 82.9076 36.6859 83.1283 36.6859C83.1845 36.6859 83.271 36.7317 83.3143 36.79C83.3619 36.8441 83.6734 36.969 84.0109 37.069C84.8069 37.3022 86.2001 37.3147 87.0783 37.1065C87.7662 36.9399 88.8911 36.3652 89.4968 35.878C91.3182 34.3954 91.8763 31.9717 90.9202 29.7146C90.4356 28.5736 89.4189 27.5699 88.1989 27.0369C87.1649 26.5746 85.5987 26.3872 84.5344 26.5913ZM86.4683 29.4523C86.6241 29.5064 86.8533 29.623 86.9702 29.7229C88.0085 30.5558 88.2075 30.9015 88.2118 31.8801C88.2118 32.4506 88.1815 32.5756 87.9609 33.0045C87.6105 33.6958 86.9226 34.1747 86.0616 34.3455C84.9887 34.5537 83.8551 33.9998 83.3143 32.9879C83.0504 32.4923 83.0158 31.5428 83.2538 30.9431C83.4398 30.4642 84.0974 29.7521 84.582 29.5189C85.0968 29.2565 85.8193 29.2357 86.4683 29.4523ZM111.83 26.5288C111.025 26.6871 110.766 26.7537 110.303 26.9328C108.935 27.4742 107.958 28.4778 107.477 29.8396C107.175 30.6849 107.062 31.4054 107.118 32.2174C107.175 33.0795 107.33 33.6417 107.72 34.3913C108.235 35.4032 109.199 36.3402 110.052 36.6484C110.233 36.715 110.381 36.7983 110.381 36.8358C110.381 37.0315 111.999 37.3147 112.76 37.2564C113.777 37.1731 114.357 36.9191 115.14 36.1986L115.468 35.8988V36.2528C115.468 36.4568 115.525 36.6859 115.594 36.7941C115.719 36.9815 115.728 36.9815 117.035 36.9815C118.198 36.9815 118.358 36.9649 118.467 36.8483C118.583 36.7192 118.601 36.2694 118.601 31.8718C118.601 27.2826 118.592 27.0286 118.458 26.9161C118.333 26.812 118.112 26.787 117.065 26.787C115.555 26.787 115.468 26.8162 115.468 27.4034V27.7865L115.083 27.4408C114.607 27.0119 114.036 26.7371 113.361 26.5955C112.881 26.4913 112.185 26.4622 111.83 26.5288ZM113.859 29.4314C114.054 29.4856 114.344 29.6855 114.69 30.0103C115.166 30.4517 115.239 30.5558 115.395 31.0514C115.819 32.3715 115.278 33.6583 114.071 34.1997C113.444 34.4787 112.57 34.4704 111.934 34.1831C111.412 33.9328 110.993 33.5205 110.744 33.0128C110.61 32.7297 110.58 32.5256 110.58 31.8801C110.58 31.1888 110.601 31.0472 110.774 30.7266C111.077 30.1435 111.769 29.5355 112.258 29.4064C112.894 29.2565 113.24 29.2565 113.859 29.4314ZM144.166 26.8578C143.906 26.9994 143.932 27.2701 144.321 28.4861C146.45 35.0826 146.956 36.5984 147.082 36.7692C147.229 36.9774 147.246 36.9774 148.06 36.9774C148.687 36.9774 148.873 36.9982 148.843 37.069C148.825 37.1231 148.747 37.3522 148.687 37.5854C148.423 38.4641 147.999 38.8014 147.147 38.8056C146.671 38.8056 146.537 38.7764 146.052 38.5265C145.412 38.2059 145.13 38.1809 144.901 38.4141C144.555 38.7723 143.941 39.7717 143.941 39.9716C143.941 40.2506 144.248 40.5171 144.91 40.8336C146.277 41.4791 148.328 41.4708 149.587 40.817C150.141 40.5255 150.837 39.8259 151.157 39.2345C151.464 38.6723 151.555 38.3933 151.949 37.044C152.096 36.5276 152.55 35.0118 152.957 33.6708C154.121 29.8562 154.891 27.2618 154.891 27.1285C154.891 27.0702 154.835 26.9578 154.765 26.8953C154.666 26.7995 154.419 26.7745 153.32 26.7745C152.139 26.7745 151.984 26.7912 151.858 26.9078C151.702 27.0577 151.616 27.3284 150.902 29.9603C150.145 32.763 149.691 34.3455 149.652 34.3455C149.621 34.3455 149.02 32.359 147.956 28.7235C147.809 28.2071 147.653 27.749 147.618 27.7115C147.588 27.6657 147.51 27.495 147.454 27.3159C147.298 26.7995 147.229 26.7745 145.663 26.7745C144.91 26.7829 144.235 26.8203 144.166 26.8578Z" fill="white"/>
</svg>
