<svg width="185" height="58" viewBox="0 0 185 58" fill="none" xmlns="http://www.w3.org/2000/svg">
<path d="M65.5711 24.0417H53.4364V27.6423H62.0431C61.6167 32.6823 57.417 34.8456 53.4509 34.8456C52.1945 34.8512 50.9495 34.6063 49.7888 34.1254C48.628 33.6445 47.5746 32.9372 46.6902 32.0448C45.8058 31.1523 45.108 30.0926 44.6376 28.9275C44.1673 27.7625 43.9337 26.5153 43.9506 25.259C43.9506 19.8081 48.1706 15.6113 53.4626 15.6113C57.5449 15.6113 59.9506 18.2137 59.9506 18.2137L62.4706 15.6026C62.4706 15.6026 59.2333 12 53.3307 12C45.8144 12 40 18.3436 40 25.195C40 31.9089 45.4693 38.456 53.5207 38.456C60.6029 38.456 65.7873 33.6041 65.7873 26.4298C65.7873 24.9159 65.5672 24.0417 65.5672 24.0417H65.5711Z" fill="white"/>
<path d="M75.5125 21.4335C70.5326 21.4335 66.9639 25.3269 66.9639 29.8658C66.9639 34.4735 70.424 38.4386 75.5706 38.4386C80.2287 38.4386 84.0446 34.8786 84.0446 29.9646C84.0446 24.3431 79.6055 21.4325 75.5125 21.4325V21.4335ZM75.5609 24.7735C78.0092 24.7735 80.3295 26.7536 80.3295 29.9433C80.3295 33.0642 78.0189 35.1015 75.5493 35.1015C72.8354 35.1015 70.7031 32.9285 70.7031 29.9181C70.7031 26.9717 72.8161 24.7735 75.5687 24.7735H75.5609Z" fill="white"/>
<path d="M94.1033 21.4335C89.1234 21.4335 85.5547 25.3269 85.5547 29.8658C85.5547 34.4735 89.0148 38.4386 94.1614 38.4386C98.8195 38.4386 102.635 34.8786 102.635 29.9646C102.635 24.3431 98.1963 21.4325 94.1033 21.4325V21.4335ZM94.1517 24.7735C96.6 24.7735 98.9203 26.7536 98.9203 29.9433C98.9203 33.0642 96.6097 35.1015 94.1401 35.1015C91.4263 35.1015 89.294 32.9285 89.294 29.9181C89.294 26.9717 91.4069 24.7735 94.1595 24.7735H94.1517Z" fill="white"/>
<path d="M112.337 21.4432C107.766 21.4432 104.174 25.4461 104.174 29.9395C104.174 35.057 108.339 38.4512 112.258 38.4512C114.681 38.4512 115.97 37.4888 116.91 36.3848V38.0616C116.91 40.9954 115.129 42.7526 112.44 42.7526C109.842 42.7526 108.54 40.821 108.078 39.7257L104.81 41.0827C105.969 43.5348 108.303 46.0907 112.467 46.0907C117.023 46.0907 120.475 43.2285 120.475 37.2251V21.954H116.924V23.3943C115.828 22.2118 114.328 21.4432 112.339 21.4432H112.337ZM112.667 24.7774C114.908 24.7774 117.209 26.6906 117.209 29.9579C117.209 33.2794 114.912 35.1093 112.617 35.1093C110.181 35.1093 107.914 33.1321 107.914 29.9889C107.914 26.7245 110.269 24.7774 112.667 24.7774Z" fill="white"/>
<path d="M136.347 21.4228C132.036 21.4228 128.416 24.8539 128.416 29.9133C128.416 35.2692 132.451 38.4454 136.751 38.4454C140.349 38.4454 142.566 36.4778 143.875 34.7139L140.935 32.758C140.172 33.9404 138.897 35.0986 136.77 35.0986C134.379 35.0986 133.28 33.7902 132.599 32.5205L144 27.7907L143.418 26.4047C142.317 23.6908 139.747 21.4228 136.347 21.4228ZM136.495 24.693C138.049 24.693 139.166 25.5188 139.641 26.5093L132.027 29.6913C131.698 27.2275 134.033 24.693 136.486 24.693H136.495Z" fill="white"/>
<path d="M122.972 37.9414H126.717V12.8801H122.972V37.9414Z" fill="white"/>
</svg>
