<svg width="185" height="58" viewBox="0 0 185 58" fill="none" xmlns="http://www.w3.org/2000/svg">
<path d="M124.59 19.6768C119.396 19.6768 115.167 23.9055 115.167 29.1284C115.167 34.3372 119.396 38.5799 124.59 38.5799C129.771 38.5799 134 34.3372 134 29.1284C134 23.9055 129.771 19.6768 124.59 19.6768ZM124.59 34.0992C121.86 34.0992 119.634 31.8728 119.634 29.1284C119.634 26.3839 121.86 24.1575 124.59 24.1575C127.321 24.1575 129.547 26.3839 129.547 29.1284C129.533 31.8728 127.307 34.0992 124.59 34.0992ZM96.8658 27.21L95.2275 26.3839C94.5134 26.0338 94.0653 25.7538 93.8833 25.5438C93.7153 25.3617 93.6173 25.1237 93.6173 24.8716C93.6173 24.5496 93.7573 24.2835 94.0373 24.0735C94.3174 23.8635 94.7094 23.7515 95.2275 23.7515C96.1517 23.7515 97.1739 24.3116 98.3081 25.4317L101.081 22.6453C100.394 21.7071 99.4982 20.965 98.4761 20.4329C97.4679 19.9288 96.3337 19.6628 95.1995 19.6628C93.5052 19.6628 92.105 20.1669 91.0128 21.175C89.9207 22.1832 89.3746 23.4014 89.3746 24.8156C89.3746 27.014 90.8168 28.8483 93.7153 30.3186L95.2275 31.0747C96.5298 31.7328 97.1739 32.4049 97.1739 33.105C97.1739 33.4831 96.9918 33.8051 96.6418 34.0992C96.2777 34.3792 95.8016 34.5193 95.2135 34.5193C94.6674 34.5193 94.0373 34.3232 93.3372 33.9452C92.6371 33.5671 92.007 33.063 91.4889 32.4469L88.7305 35.4714C90.2847 37.5158 92.3711 38.5519 94.9755 38.5519C96.9358 38.5519 98.5041 38.0198 99.6663 36.9417C100.828 35.8775 101.417 34.5473 101.417 32.951C101.417 31.7468 101.095 30.7106 100.45 29.8145C99.7783 28.9463 98.5881 28.0782 96.8658 27.21ZM68.9172 36.5216V20.0408H64.4504V21.147C62.9522 20.1809 61.1879 19.6628 59.4096 19.6628C54.2287 19.6628 50 23.8915 50 29.1144C50 34.3232 54.2287 38.5659 59.4096 38.5659C61.1739 38.5659 62.9102 38.0758 64.4084 37.1237C64.4084 37.2637 64.4084 37.3897 64.4084 37.4877C64.4084 40.2322 62.182 42.4586 59.4516 42.4586C58.5274 42.4586 57.6173 42.1925 56.8331 41.7024L54.6208 45.5951C56.077 46.4772 57.7573 46.9533 59.4656 46.9533C64.6604 46.9533 68.9452 42.7106 68.9452 37.5017C68.9172 37.3057 68.9312 36.7176 68.9172 36.5216ZM59.3956 34.0992C56.6651 34.0992 54.4387 31.8728 54.4387 29.1284C54.4387 26.3839 56.6651 24.1575 59.3956 24.1575C62.126 24.1575 64.3524 26.3839 64.3524 29.1284C64.3524 31.8728 62.126 34.0992 59.3956 34.0992ZM86.7141 20.0408H82.2194V29.0303C82.2194 30.3046 82.2194 32.5169 81.2812 33.4551C80.8331 33.9032 80.3431 34.3092 79.3069 34.3092C78.2707 34.3092 77.7806 33.9032 77.3326 33.4551C76.3944 32.5169 76.3944 30.3046 76.4084 29.0303V20.0408H71.9277V29.0023C71.9137 30.8506 71.8996 34.2812 74.14 36.5636C75.4562 37.8938 77.0245 38.5799 79.3069 38.5799C81.5893 38.5799 83.1575 37.9078 84.4737 36.5636C86.7281 34.2812 86.7001 30.8506 86.6861 29.0023L86.7141 20.0408ZM112.156 33.3011C111.792 33.5811 110.924 34.1832 109.944 34.0432C109.132 33.9312 108.474 33.3431 108.376 31.3547V23.8915H113.655V20.0268H108.376V15H103.895V15.9942V30.7666C103.895 33.119 104.483 38.5799 109.944 38.5799C112.702 38.5379 114.369 37.0397 115.069 36.4516L115.167 36.3816L112.478 33.063C112.464 33.063 112.282 33.217 112.156 33.3011Z" fill="white"/>
</svg>
