<svg width="185" height="58" viewBox="0 0 185 58" fill="none" xmlns="http://www.w3.org/2000/svg">
<path fill-rule="evenodd" clip-rule="evenodd" d="M54 14.6741H131V43.3261H54V14.6741ZM55.3114 42.0119H129.689V15.9883H55.3114V42.0119ZM74.2209 22.0259V35.4456L75.2701 35.5765V36.3469H70.0648V35.5765L71.1593 35.4456V29.3375H64.4661V35.4456L65.5202 35.5765V36.3469H60.3553V35.5765L61.4095 35.4456V22.0259L60.3553 21.9V21.1246H65.5202V21.9L64.4661 22.0259V27.7463H71.1593V22.0259L70.0648 21.9V21.1246H75.2701V21.9L74.2209 22.0259ZM80.0819 23.874C79.164 23.874 78.4175 23.1035 78.4175 22.1518C78.4175 21.2051 79.164 20.4347 80.0819 20.4347C80.9999 20.4347 81.7414 21.2051 81.7414 22.1518C81.7414 23.1035 80.9999 23.874 80.0819 23.874ZM81.3934 35.5261L82.3971 35.6571V36.3469H77.5903V35.6571L78.594 35.5261V26.3665L77.5903 26.2406V25.5508H81.4388V35.5261H81.3934ZM84.45 35.6571L85.4133 35.5261V21.5073L84.45 21.3361V20.6512H88.2984V35.5261L89.2618 35.6571V36.3469H84.45V35.6571ZM97.7003 25.5055V26.5377H95.1228V32.9882C95.1228 34.6651 95.4708 35.1837 97.0042 35.1837C97.5691 35.1837 98.0533 35.1837 98.5325 35.0528V35.7829C97.1353 36.2563 95.9551 36.4728 94.9917 36.4728C92.7623 36.4728 92.2781 35.4859 92.2781 33.5925V26.5377H90.2706V25.5055H92.3689V23.2697L95.1682 22.4539V25.5055H97.7003ZM110.643 31.0546C110.643 34.4082 108.323 36.6893 104.736 36.6893C101.241 36.6893 99.0117 35.224 99.0117 31.0546C99.0117 27.57 101.327 25.2487 104.913 25.2487C108.499 25.2033 110.643 27.3132 110.643 31.0546ZM107.495 30.969C107.495 27.5297 106.446 26.0644 104.782 26.0644C103.163 26.0644 102.114 27.4844 102.114 30.969C102.114 34.4083 103.163 35.8283 104.782 35.8283C106.532 35.8283 107.495 34.4939 107.495 30.969ZM124.241 35.6571V36.3419H119.434V35.6571L120.393 35.5261V29.3325C120.393 27.6153 119.737 26.8399 118.426 26.8399C117.815 26.8399 116.852 27.2679 116.151 27.7412V35.4858L117.16 35.6117V36.3016H112.302V35.6117L113.311 35.4858V26.4119L112.302 26.2809V25.5055H116.151V27.0111C117.331 26.0644 118.516 25.294 120.13 25.294C122.274 25.294 123.237 26.5377 123.237 28.99V35.5261L124.241 35.6571Z" fill="white"/>
</svg>
