<svg width="185" height="58" viewBox="0 0 185 58" fill="none" xmlns="http://www.w3.org/2000/svg">
<path d="M84.7665 23.0447C80.9732 23.0447 79.0924 26.0475 78.5406 27.9383H77.6287C78.3651 26.604 78.6546 25.2688 78.6546 21.97V15.8896H76.2237V41.8413H78.6907V33.5369C78.6907 30.7936 79.096 25.2697 84.2147 25.2697C87.0138 25.2697 88.7815 26.9747 88.7815 30.7562V41.8413H91.2124V30.1624C91.2124 26.0839 89.3713 23.0447 84.7674 23.0447H84.7665Z" fill="white"/>
<path d="M102.182 23.0447C97.2837 23.0447 93.247 26.8636 93.247 32.7208C93.247 38.578 97.4013 42.3232 102.182 42.3232C106.964 42.3232 111.118 38.5789 111.118 32.7208C111.118 26.8627 107.081 23.0447 102.182 23.0447ZM102.182 40.1364C98.7339 40.1364 95.952 37.7264 95.952 32.7581C95.952 27.7898 98.7339 25.2688 102.182 25.2688C105.631 25.2688 108.413 27.7898 108.413 32.7581C108.413 37.7264 105.63 40.1364 102.182 40.1364Z" fill="white"/>
<path d="M122.089 23.0447C117.19 23.0447 113.153 26.8636 113.153 32.7208C113.153 38.578 117.308 42.3232 122.089 42.3232C126.87 42.3232 131.024 38.5789 131.024 32.7208C131.024 26.8627 126.988 23.0447 122.089 23.0447ZM122.089 40.1364C118.64 40.1364 115.858 37.7264 115.858 32.7581C115.858 27.7898 118.64 25.2688 122.089 25.2688C125.538 25.2688 128.319 27.7898 128.319 32.7581C128.319 37.7264 125.537 40.1364 122.089 40.1364Z" fill="white"/>
<path d="M141.016 31.127L149.264 23.5639L145.973 23.6049L135.036 33.8001L134.466 33.2828C135.645 31.9476 135.528 30.422 135.528 27.9757V15.8887H133.061V41.8414H135.528V36.1317L139.247 32.7209L146.833 41.8414H150L141.015 31.127H141.016Z" fill="white"/>
<path d="M60.7999 24.3927C59.0557 23.6185 58.0108 21.796 58.217 19.8889C58.6278 16.0845 54.3541 13.6008 51.2872 15.8614C49.7493 16.9944 47.6595 16.9944 46.1215 15.8614C43.0547 13.6008 38.781 16.0845 39.1917 19.8889C39.398 21.796 38.3531 23.6185 36.6089 24.3927C33.1304 25.9364 33.1304 30.9047 36.6089 32.4485C38.3531 33.2227 39.398 35.0451 39.1917 36.9523C38.781 40.7566 43.0547 43.2403 46.1215 40.9798C47.6595 39.8468 49.7493 39.8468 51.2872 40.9798C54.3541 43.2403 58.6278 40.7557 58.217 36.9523C58.0108 35.0451 59.0557 33.2227 60.7999 32.4485C64.2784 30.9047 64.2784 25.9364 60.7999 24.3927ZM51.1054 29.9721L55.7952 34.6936L54.9349 35.5597L50.245 30.8383C49.3937 29.9812 48.0141 29.9812 47.1637 30.8383L42.4739 35.5597L41.6135 34.6936L46.3034 29.9721C47.1547 29.1151 47.1547 27.7261 46.3034 26.87L41.6135 22.1485L42.4739 21.2824L47.1637 26.0038C48.015 26.8609 49.3946 26.8609 50.245 26.0038L54.9349 21.2824L55.7952 22.1485L51.1054 26.87C50.2541 27.727 50.2541 29.116 51.1054 29.9721Z" fill="white"/>
</svg>
