<svg width="185" height="58" viewBox="0 0 185 58" fill="none" xmlns="http://www.w3.org/2000/svg">
<path d="M156.621 18.5322H154.55L146.133 38.3983H148.407L150.738 32.7026H160.407L162.726 38.3983H165L156.621 18.5322ZM151.507 30.8078L155.572 20.8518L159.626 30.8078H151.507Z" fill="white"/>
<path d="M100.485 30.5322C100.485 34.6433 97.3964 36.8366 94.2844 36.8366C91.1724 36.8366 88.0719 34.6433 88.0719 30.5322V18.5322H86.0853V30.5208C86.0853 35.9409 90.1963 38.7772 94.2844 38.7772C98.3724 38.7772 102.472 35.9409 102.472 30.5208V18.5322H100.485V30.5322Z" fill="white"/>
<path d="M126.598 31.6461C125.794 33.5638 125.289 34.8155 125.289 34.8155C125.289 34.8155 124.772 33.5638 123.969 31.6461L118.503 18.5322H115.322V38.3983H117.308V20.7255L124.646 38.3983H125.921L133.259 20.7255V38.3983H135.245V18.5322H132.063L126.598 31.6461Z" fill="white"/>
<path d="M71.1684 27.1791H59.5933V18.5322H57.6067V38.3983H59.5933V29.0394H71.1684V38.3983H73.155V18.5322H71.1684V27.1791Z" fill="white"/>
<path d="M30.4833 17.0166C24.156 17.0166 19 22.1726 19 28.4999C19 34.8272 24.156 39.9832 30.4833 39.9832C36.8106 39.9832 41.9666 34.8272 41.9666 28.4999C41.9666 22.1726 36.8106 17.0166 30.4833 17.0166ZM20.6766 28.4999C20.6766 27.5582 20.8144 26.6626 21.0555 25.8013H29.622C29.4153 29.8319 27.7158 33.6674 24.868 36.5267C22.3416 34.7468 20.6766 31.8185 20.6766 28.4999ZM30.4833 38.3066C29.0134 38.3066 27.6125 37.9736 26.3608 37.3879C28.2555 35.3898 29.6565 32.9784 30.4833 30.3831C31.3101 32.9784 32.711 35.3898 34.6058 37.3879C33.3541 37.9736 31.9531 38.3066 30.4833 38.3066ZM40.29 28.4999C40.29 31.8185 38.6249 34.7468 36.0986 36.5267C33.2507 33.6674 31.5512 29.8319 31.3445 25.8013H39.911C40.1522 26.6626 40.29 27.5582 40.29 28.4999ZM31.3216 24.1133V20.9455C31.023 20.9111 30.7474 20.8881 30.4833 20.8881C30.2192 20.8881 29.9436 20.9111 29.645 20.9455V24.1133H21.7215C23.3292 20.8979 26.6479 18.6932 30.4833 18.6932C34.3187 18.6932 37.6374 20.8979 39.245 24.1133H31.3216Z" fill="white"/>
</svg>
