<svg width="185" height="58" viewBox="0 0 185 58" fill="none" xmlns="http://www.w3.org/2000/svg">
<path d="M86.6073 16.9775H89.2739C89.607 16.9775 89.8779 17.2484 89.8779 17.5815V36.394H100.268C100.601 36.394 100.872 36.6648 100.872 36.998V39.2547C100.872 39.5878 100.601 39.8587 100.268 39.8587H86.6058C86.2712 39.8587 86.0018 39.5878 86.0018 39.2547V17.5815C86.0018 17.2484 86.2727 16.9775 86.6058 16.9775" fill="white"/>
<path d="M109.002 39.8601H106.335C106.002 39.8601 105.731 39.5892 105.731 39.2561V17.5815C105.731 17.2484 106.002 16.9775 106.335 16.9775H109.002C109.335 16.9775 109.606 17.2484 109.606 17.5815V39.2561C109.606 39.5892 109.335 39.8601 109.002 39.8601Z" fill="white"/>
<path d="M122.617 39.469L114.428 17.7944C114.278 17.399 114.571 16.9761 114.993 16.9761H117.758C118.013 16.9761 118.238 17.1354 118.325 17.3744L124.665 34.8282L131.005 17.3744C131.092 17.1354 131.319 16.9761 131.573 16.9761H134.225C134.648 16.9761 134.941 17.399 134.79 17.7944L126.6 39.469C126.512 39.7037 126.286 39.8601 126.035 39.8601H123.182C122.93 39.8601 122.706 39.7051 122.617 39.469Z" fill="white"/>
<path d="M142.946 39.8601H140.278C139.945 39.8601 139.674 39.5892 139.674 39.2561V17.5815C139.674 17.2484 139.945 16.9775 140.278 16.9775H142.946C143.279 16.9775 143.55 17.2484 143.55 17.5815V39.2561C143.55 39.5892 143.279 39.8601 142.946 39.8601Z" fill="white"/>
<path d="M53.981 29.3458C53.981 27.5454 52.3689 25.9014 51.536 24.9773C50.5453 23.8765 49.1316 23.2478 47.6513 23.2478H42.8714C42.0733 23.242 41.4983 23.9865 41.3404 24.7716C41.1376 25.7928 41 27.218 41 29.3443C41 31.039 41.1506 32.851 41.3404 33.9171C41.478 34.7022 42.0733 35.4409 42.8714 35.4409H47.6542C49.1345 35.4409 50.5467 34.8137 51.5375 33.7143C52.3689 32.7902 53.981 31.1448 53.981 29.3443" fill="white"/>
<path d="M73.3496 24.7715C73.212 23.9865 72.6167 23.2478 71.8186 23.2478H63.4422V14.8714C63.448 14.0733 62.7035 13.4983 61.9185 13.3404C60.8973 13.1376 59.472 13 57.3457 13C55.651 13 53.839 13.1506 52.773 13.3404C51.9879 13.478 51.2492 14.0733 51.2492 14.8714V15.374C51.2492 18.2318 52.308 20.9882 54.2214 23.1116C55.7481 24.8048 57.3254 26.556 57.3254 29.3457C57.3254 32.1354 55.7466 33.891 54.2185 35.5842C52.3066 37.7033 51.2492 40.4553 51.2492 43.3088V43.8186C51.242 44.6167 51.9879 45.1917 52.773 45.3496C53.7941 45.5524 55.2194 45.69 57.3457 45.69C59.0404 45.69 60.8524 45.5394 61.9185 45.3496C62.7035 45.212 63.4422 44.6167 63.4422 43.8186V35.4422H71.8186C72.6167 35.4495 73.1932 34.7035 73.3496 33.9185C73.5524 32.8973 73.69 31.472 73.69 29.3457C73.69 27.651 73.5393 25.839 73.3496 24.773" fill="white"/>
</svg>
