<svg width="185" height="58" viewBox="0 0 185 58" fill="none" xmlns="http://www.w3.org/2000/svg">
<path d="M140.324 38.5593L140.601 38.0044C141.156 37.4495 141.415 37.4495 142.247 37.7269L144.171 38.2818C144.726 38.2818 144.985 38.0044 144.985 37.7269C144.985 36.6356 140.324 37.172 140.324 33.6206C140.324 31.6969 142.247 30.6056 144.43 30.6056L147.168 31.1605C147.723 31.438 147.981 31.9744 147.723 32.8067L147.445 33.0842C147.168 33.6391 146.631 33.8981 146.076 33.6391L144.153 33.3616L143.339 33.6391C143.339 35.0079 148 34.194 148 37.7454C148 39.6691 146.354 41.0379 143.894 41.0379C142.525 41.0379 141.434 40.483 140.601 40.224C140.046 39.6506 140.046 39.0957 140.324 38.5593ZM131.279 41.8517L131.834 42.1292C132.389 42.1292 132.925 41.5743 133.202 41.0379L133.48 40.483L129.91 31.9929C129.355 31.179 129.91 30.9016 130.465 30.9016H132.111C132.666 30.9016 133.202 31.179 133.202 31.7154L134.571 35.2853L134.849 36.9316L135.126 35.2853L136.217 31.7154C136.217 31.1605 136.772 30.9016 137.309 30.9016H138.678C139.491 30.9016 139.769 31.179 139.491 31.9929L135.922 41.8517C135.145 44.1084 132.703 45.3107 130.446 44.5893C129.892 44.3118 129.633 43.7754 129.892 43.2205L130.169 42.6656C130.465 41.8517 131.001 41.8517 131.279 41.8517ZM125.526 34.453H125.804C125.804 33.6391 124.99 33.3616 124.435 33.3616L122.511 33.6391C121.956 33.9166 121.42 33.9166 121.142 33.3616L120.865 32.8067C120.588 32.2518 120.865 31.7154 121.42 31.438C121.975 30.8831 123.344 30.6241 124.712 30.6241C127.45 30.6241 129.096 31.9929 129.096 34.453V39.6506C129.096 40.2055 128.819 40.7419 128.005 40.7419H127.191C126.377 40.7419 126.1 40.187 126.1 39.6506V39.3731C126.1 39.3731 125.008 40.7419 123.085 40.7419C121.161 41.0194 119.792 39.6506 119.792 38.0044C120.051 35.2668 123.066 34.453 125.526 34.453ZM124.157 38.5593C124.971 38.5593 125.804 37.468 125.804 36.6356V36.3581H125.526C124.435 36.3581 123.325 36.6356 123.325 37.4495C123.344 38.0044 123.603 38.5593 124.157 38.5593ZM112.93 30.6056C114.854 30.6056 115.39 31.6969 115.39 31.6969V28.1455C115.39 27.3317 115.667 27.0542 116.481 27.0542H117.573C118.386 27.0542 118.664 27.3317 118.664 27.8681V39.6506C118.664 40.2055 118.386 40.7419 117.573 40.7419H116.759C115.945 40.7419 115.667 40.4645 115.667 39.6506V39.3731C115.667 39.3731 114.854 41.0194 112.652 41.0194C110.192 41.0194 108.546 38.8182 108.546 35.8217C108.546 32.5293 110.192 30.6056 112.93 30.6056ZM113.466 38.2818C114.558 38.2818 115.39 37.468 115.39 35.8217C115.39 34.453 114.835 33.3616 113.466 33.3616C112.652 33.3616 111.543 34.1755 111.543 35.8217C111.561 37.1905 112.375 38.2818 113.466 38.2818ZM104.162 31.9744C104.162 31.1605 104.44 30.8831 105.254 30.8831H106.345C107.159 30.8831 107.436 31.1605 107.436 31.6969V39.6506C107.436 40.2055 107.159 40.7419 106.345 40.7419H105.254C104.699 40.7419 104.162 40.4645 104.162 39.6506V31.9744ZM104.162 28.423V27.8681C104.162 27.3132 104.717 27.0542 105.254 27.0542H106.345C107.159 27.0542 107.436 27.3317 107.436 27.8681V28.423C107.436 29.2368 107.159 29.5143 106.345 29.5143H105.254C104.699 29.5143 104.162 29.2368 104.162 28.423ZM98.4098 28.1455C98.4098 27.3317 98.6872 27.0542 99.5011 27.0542H100.592C101.406 27.0542 101.684 27.3317 101.684 27.8681V36.9131C101.684 37.468 101.961 37.7269 102.239 37.7269C102.794 38.0044 103.052 38.2818 103.052 38.8182V39.6321C103.052 40.187 102.775 40.7234 101.961 40.7234C100.315 40.7234 98.3913 40.446 98.3913 36.8946V28.1455H98.4098ZM91.5474 30.6056C94.5624 30.6056 97.2999 32.8067 97.2999 35.8032C97.2999 38.7997 94.5624 41.0009 91.5474 41.0009C88.5324 41.0009 86.0723 38.7997 86.0723 35.8032C86.0723 32.8067 88.5324 30.6056 91.5474 30.6056ZM91.5474 38.2818C92.6387 38.2818 93.7485 37.1905 93.7485 35.8217C93.7485 34.1755 92.6572 33.3616 91.5474 33.3616C90.4561 33.3616 89.3463 34.1755 89.3463 35.8217C89.3648 37.1905 90.4561 38.2818 91.5474 38.2818ZM75.1036 28.1455C75.1036 27.3317 75.3811 27.0542 76.195 27.0542H77.2863C78.1002 27.0542 78.3776 27.3317 78.3776 27.8681V32.2518C78.9325 31.1605 80.0238 30.6056 81.3926 30.6056C83.3163 30.6056 84.9625 31.4195 84.9625 34.1755V39.6506C84.9625 40.2055 84.6851 40.7419 83.8712 40.7419H82.7799C81.966 40.7419 81.6886 40.187 81.6886 39.6506V34.9894C81.6886 33.8981 81.4111 33.6206 80.5972 33.6206C79.2285 33.6206 78.3961 34.7119 78.3961 36.0807V39.6506C78.3961 40.2055 78.1186 40.7419 77.3048 40.7419H76.2135C75.3996 40.7419 75.1221 40.4645 75.1221 39.6506V28.1455H75.1036ZM69.3511 30.6056C72.3661 30.6056 74.0123 32.8067 74.0123 35.2668C74.0123 35.8217 73.4574 36.3581 72.921 36.3581H67.7049C67.9823 37.7269 68.7962 38.2818 69.906 38.2818L71.8297 37.7269C72.3846 37.4495 72.921 37.4495 73.1985 38.0044L73.4759 38.5593C73.7534 39.1142 73.7534 39.6506 73.1985 39.9281C72.3846 40.483 71.2748 41.0194 69.6286 41.0194C66.0587 41.0194 64.4309 38.2818 64.4309 35.8217C64.4124 32.8067 66.3361 30.6056 69.3511 30.6056ZM70.7199 34.453C70.7199 33.6391 70.165 33.0842 69.3511 33.0842C68.5372 33.0842 67.9823 33.6391 67.7049 34.453H70.7199ZM53.7397 31.9744C53.4623 31.1605 54.0172 30.8831 54.831 30.8831H55.9223C56.4773 30.8831 57.0137 31.1605 57.2911 31.6969L58.3824 36.0807L58.9373 37.7269L59.2148 36.0807L60.5836 31.6969C60.5836 31.142 61.1385 30.8831 61.6749 30.8831H63.0437C63.5986 30.8831 64.135 31.1605 63.8575 31.9744L61.12 39.9281C60.8425 40.483 60.5651 40.7419 60.0287 40.7419H57.8275C57.0137 40.7419 56.7362 40.4645 56.4588 39.9281L53.7397 31.9744ZM47.7097 30.6056C51.0022 30.6056 53.4623 32.8067 53.4623 35.8032C53.4623 38.7997 51.0022 41.0009 47.7097 41.0009C44.6947 41.0009 42.2346 38.7997 42.2346 35.8032C42.2346 32.8067 44.6947 30.6056 47.7097 30.6056ZM47.7097 38.2818C49.0785 38.2818 50.1698 37.1905 50.1698 35.8217C50.1698 34.1755 49.0785 33.3616 47.7097 33.3616C46.6184 33.3616 45.5086 34.1755 45.5086 35.8217C45.5086 37.1905 46.6184 38.2818 47.7097 38.2818ZM37.0185 28.1455C37.0185 27.3317 37.296 27.0542 38.1098 27.0542H39.2011C40.015 27.0542 40.2925 27.3317 40.2925 27.8681V36.9131C40.2925 37.468 40.5699 37.7269 40.8474 37.7269C41.4023 38.0044 41.6612 38.2818 41.6612 38.8182V39.6321C41.6612 40.187 41.3838 40.7234 40.5699 40.7234C38.9237 40.7234 37 40.446 37 36.8946V28.1455H37.0185Z" fill="white"/>
<path d="M72.6436 29.5142L70.9973 28.9593L69.6286 28.6819L68.2598 28.4044L67.9823 28.1269L65.7812 27.8495H64.6899L62.7847 27.5905H61.1385H60.861H60.5836L59.7697 27.3131H56.4773H56.1998L55.9224 27.0356L52.3525 27.3131L50.7062 27.5905H49.8924L49.6149 27.868H48.801L48.2461 28.1454L46.3225 28.7004L44.3988 29.5142L44.1213 29.7917H42.4751V29.2368L44.1213 27.868L44.9352 27.5905L47.6727 26.4992L49.319 26.2218L51.2426 25.6669H52.8889L53.1663 25.9443L53.7212 25.6669L55.6449 25.3894H61.4159L61.6934 25.6669H64.7084V25.9443L64.9858 26.2218V25.9443C64.9858 25.6669 65.2633 25.3894 65.5408 25.6669L67.187 25.9443H68.5558L71.5707 26.4992L72.6621 27.3131L72.9395 28.1269L73.217 28.4044V29.2183C73.1985 29.7917 72.921 29.7917 72.6436 29.5142ZM55.3859 25.9443H55.1085L55.3859 26.2218V25.9443ZM60.861 25.9443H56.4773H55.9224V26.2218H61.12V25.9443H60.861ZM61.6749 26.2218V25.9443H61.4159V26.2218H61.6749ZM62.7847 26.2218V25.9443L62.5073 26.2218H62.7847ZM64.4124 25.9443H64.135V26.2218H64.4124V25.9443ZM66.3361 26.7767V27.0541L66.6136 26.7767H66.3361ZM66.6136 26.2218H66.3361L66.6136 26.4992V26.2218Z" fill="white"/>
<path fill-rule="evenodd" clip-rule="evenodd" d="M50.4472 24.853C51.557 27.0357 53.7397 27.868 56.7547 27.3131L57.587 27.0357C59.4922 26.4993 61.1384 25.1305 61.4159 23.2068C61.6933 21.0242 61.1384 19.378 59.4922 18.0092C57.5685 16.8994 55.6633 16.8994 53.7397 17.4543C50.4472 18.2681 48.801 21.8381 50.4472 24.853ZM54.5535 15.2716C54.5535 15.2716 55.9223 9.5191 52.9073 9.24165C50.1698 8.9642 51.5385 14.7167 54.5535 15.2716ZM44.1398 14.1803C45.786 13.6254 48.5235 18.2866 48.5235 18.2866C46.0634 19.1005 43.0484 17.1768 42.4935 16.6404C41.9386 16.104 42.4935 14.7352 44.1398 14.1803ZM63.876 11.9607C61.1384 10.5919 59.7697 16.8994 59.7697 16.8994C59.7697 16.8994 64.1534 15.2716 64.1534 14.4208C64.1534 14.2706 64.3245 14.119 64.5168 13.9485C65.0116 13.5099 65.6474 12.9463 63.876 11.9607ZM64.1534 21.0242C64.1534 21.0242 66.6135 18.0092 68.8147 19.9329C71.0158 21.8565 66.6135 23.2068 64.1534 21.0242ZM42.4935 23.7617C42.771 21.5606 46.8773 23.7617 46.8773 23.7617C45.2311 25.1305 43.0484 26.4993 43.3074 25.408C43.3074 24.9648 43.0817 25.0158 42.8508 25.0679C42.513 25.1441 42.164 25.2229 42.4935 23.7617ZM56.7547 19.9329L55.3859 21.3017C55.298 21.2431 55.2159 21.1876 55.1384 21.1352C54.4816 20.6913 54.1532 20.4693 53.4252 20.4693C52.6114 20.4693 52.0565 21.0242 52.0565 22.1156C51.7975 22.6705 52.3339 23.4843 52.6114 23.7618C53.7212 25.1306 54.8125 25.9444 56.1813 26.4993H56.7362L58.6599 23.4843C59.2148 22.6705 59.2148 21.8381 59.2148 21.0242C58.9373 20.2104 58.4009 19.6555 57.846 19.6555L56.7547 19.9329Z" fill="white"/>
</svg>
