<svg width="185" height="58" viewBox="0 0 185 58" fill="none" xmlns="http://www.w3.org/2000/svg">
<path d="M82.0029 14.2806C81.5118 14.2806 81.3014 14.5787 81.1085 14.9997C69.6914 41.429 68.7268 43.516 68.7268 43.516H75.1982L76.5486 40.2014H86.2996L87.65 43.516H95.2614C95.2614 43.516 94.6125 42.1656 82.8798 14.9997C82.7219 14.5787 82.4939 14.2806 82.0029 14.2806ZM78.6181 35.133L81.4417 28.2056L84.2653 35.133H78.6181ZM64.9387 14.8769C65.2894 14.5261 65.6577 14.2806 66.2189 14.2806V43.516H60.1333V29.5384L53.1007 36.5711L46.0681 29.5384V43.516H40V14.2806C40.5612 14.2806 40.9295 14.5261 41.2803 14.8769L53.1182 26.7149L64.9387 14.8769ZM114.483 30.1523C116.728 28.8194 118.411 26.4693 118.411 23.1196C118.411 20.489 117.359 18.3143 115.535 16.8411C113.676 15.3504 111.536 14.5437 107.152 14.5437H97.7868V43.516H104.714V32.7303C104.767 32.7303 106.258 32.7303 106.854 32.7303C109.186 32.7303 110.361 33.6247 111.344 35.9748C112.168 37.9565 112.764 40.3241 113.518 43.516H121.235C120.147 40.2365 119.586 38.6756 118.762 36.3606C117.657 33.2038 116.289 31.2396 114.483 30.1523ZM110.063 26.6096C109.221 27.2585 108.152 27.4514 106.205 27.4514C105.696 27.4514 104.732 27.4514 104.732 27.4514C104.732 27.4514 104.714 19.7348 104.732 19.7348C104.749 19.7348 105.556 19.7348 106.205 19.7348C108.239 19.7348 109.239 19.9628 110.063 20.5767C110.993 21.2782 111.414 22.348 111.414 23.5931C111.414 24.926 110.94 25.9257 110.063 26.6096ZM144.437 38.5879C142.789 42.4111 138.737 44.2 134.125 44.2C129.372 44.2 125.461 42.6567 122.813 39.4648L126.794 35.2908C128.601 37.5532 131.056 38.8334 133.809 38.7633C135.791 38.7107 137.001 37.9565 137.492 36.8341C138.053 35.5539 137.527 34.3789 136.598 33.6423C133.985 31.5904 127.952 31.4676 125.093 27.469C123.62 25.3995 123.199 22.5233 124.409 19.7699C125.952 16.2273 129.425 14 134.037 14C137.983 14 141.736 15.5082 144.086 17.9986L140.105 22.1726C138.615 20.4013 136.475 19.3139 134.09 19.3139C132.354 19.3139 131.179 20.0856 130.828 21.2782C130.547 22.2427 130.845 23.2424 131.722 23.9264C133.95 25.6626 139.597 26.1712 142.701 29.1175C145.367 31.6956 145.875 35.2382 144.437 38.5879Z" fill="white"/>
</svg>
