<svg width="185" height="58" viewBox="0 0 185 58" fill="none" xmlns="http://www.w3.org/2000/svg">
<path d="M144.881 37H158V32.9632H150.385C148.687 32.9632 148.687 30.4696 150.385 30.4696H156.302V26.9093H150.385C148.687 26.9093 148.687 24.4157 150.385 24.4157H158V20.3789H144.881V37ZM130.477 37H143.112V32.9632H137.243C135.981 32.9632 134.963 31.9657 134.963 30.73V20.3789H130.477V37ZM117.831 26.7902V23.917H121.493C123.943 23.917 123.943 26.7902 121.493 26.7902H117.831ZM113.346 37H122.223C126.468 37 128.649 34.9109 128.649 32.132C128.649 29.7575 127.048 28.3085 124.212 28.3085V27.7156C126.612 27.7156 128.018 26.5768 128.018 24.5349C128.018 22.1355 126.077 20.3789 122.466 20.3789H113.349V37H113.346ZM117.831 33.4148V30.09H121.711C124.84 30.09 124.84 33.4148 121.711 33.4148H117.831ZM100.929 29.8767L102.383 24.4157H104.081L105.535 29.8767H100.929ZM94.5021 37H99.0864L99.9608 33.6752H106.532L107.355 37H111.987L108.3 23.7757C106.919 18.7414 99.5448 18.7414 98.1638 23.7757L94.5021 37ZM85.8457 37H90.3083V26.6489C90.3083 25.4132 91.3525 24.4157 92.5891 24.4157H95.6453V20.3789H80.5115V24.4157H83.5423C84.827 24.4157 85.8457 25.4132 85.8457 26.6489V37ZM70.8591 29.8767L72.3136 24.4157H74.0115L75.466 29.8767H70.8591ZM64.4326 37H69.0169L69.8913 33.6752H76.4621L77.2856 37H81.8925L78.2307 23.7757C76.8498 18.7414 69.4753 18.7414 68.0944 23.7757L64.4326 37ZM49.9554 37H63.0743V32.9632H55.4367C53.7643 32.9632 53.7643 30.4696 55.4367 30.4696H61.3793V26.9093H55.4367C53.7643 26.9093 53.7643 24.4157 55.4367 24.4157H63.0743V20.3789H49.9554V37ZM27 37H31.5107V28.0259L30.0562 24.4157H30.6872L33.5001 31.2066C34.8584 34.4843 39.4653 34.4843 40.8236 31.2066L43.6138 24.4157H44.2448L42.8129 28.0259V37H47.2982V23.7037C47.2982 19.6197 41.4292 18.5503 39.9265 22.3738L37.4533 28.6659H36.8477L34.3745 22.3738C32.869 18.5503 27 19.6197 27 23.7037V37Z" fill="white"/>
</svg>
