<svg width="185" height="58" viewBox="0 0 185 58" fill="none" xmlns="http://www.w3.org/2000/svg">
<path d="M46.9703 45.5357C46.0918 45.5357 45.3977 45.5195 44.888 45.4869C44.3891 45.4652 43.9011 45.411 43.4239 45.3242C42.9576 45.2266 42.6159 45.0856 42.399 44.9013C42.1821 44.7061 42.0086 44.4566 41.8785 44.153C41.7592 43.8493 41.6995 43.4589 41.6995 42.9817C41.6995 42.4611 41.7863 42.0327 41.9598 41.6965C42.1333 41.3603 42.4478 41.0187 42.9033 40.6717C43.4564 40.2379 43.8089 39.8366 43.9607 39.4678C44.1234 39.0991 44.2048 38.5135 44.2048 37.7109V33.7741C44.2048 33.2536 44.1234 32.9282 43.9607 32.7981C43.8089 32.6571 43.5107 32.5866 43.066 32.5866C42.3394 32.5866 41.8134 32.4781 41.488 32.2612C41.1627 32.0335 41 31.5834 41 30.911C41 29.8482 41.6019 28.8721 42.8057 27.9828C43.836 27.1586 44.9585 26.7464 46.1732 26.7464C47.1058 26.7464 47.7891 26.9362 48.2229 27.3158C48.6567 27.6954 48.8736 28.2865 48.8736 29.089C48.8736 29.4794 48.8953 29.7397 48.9387 29.8699C48.9821 29.9891 49.0905 30.0488 49.264 30.0488C49.405 30.0488 49.5135 30.0054 49.5894 29.9187C49.6653 29.8319 49.7846 29.6421 49.9473 29.3493C50.11 29.0565 50.2943 28.7691 50.5004 28.4871C50.8691 27.9991 51.4331 27.5761 52.1922 27.2182C52.9514 26.8603 53.8624 26.6814 54.9252 26.6814C56.7906 26.6814 58.1137 27.1694 58.8946 28.1455C59.1223 28.4166 59.3175 28.7311 59.4802 29.089C59.6429 29.4469 59.7676 29.718 59.8544 29.9024C59.952 30.0759 60.0658 30.1572 60.196 30.1464C60.337 30.1356 60.4563 30.0596 60.5539 29.9187C60.6623 29.7777 60.8196 29.5445 61.0256 29.2191C61.2317 28.8829 61.4866 28.5576 61.7902 28.2431C62.3542 27.6791 62.9235 27.2833 63.4983 27.0555C64.084 26.8278 64.8269 26.7031 65.727 26.6814C67.3863 26.6597 68.7311 27.1586 69.7614 28.178C70.7917 29.1866 71.2906 30.5206 71.2581 32.1799C71.2364 32.9607 71.1876 34.0073 71.1117 35.3196C71.0357 36.621 70.9978 37.6404 70.9978 38.3779C70.9978 39.1045 71.0629 39.6522 71.193 40.0209C71.3231 40.3788 71.5672 40.6879 71.925 40.9482C72.6842 41.5122 73.0638 42.2876 73.0638 43.2745C73.0638 44.3373 72.771 44.9826 72.1853 45.2104C71.6105 45.4273 70.3417 45.5357 68.3787 45.5357C68.2919 45.5357 68.2268 45.5357 68.1835 45.5357C68.1401 45.5357 68.0804 45.5357 68.0045 45.5357C67.9286 45.5357 67.8581 45.5357 67.793 45.5357C66.5458 45.5357 65.6023 45.4544 64.9624 45.2917C64.3334 45.129 63.905 44.8796 63.6773 44.5434C63.4495 44.2072 63.3357 43.7083 63.3357 43.0468C63.3357 42.5045 63.417 42.0761 63.5797 41.7616C63.7424 41.4362 63.9918 41.1434 64.328 40.8831C64.675 40.5686 64.9136 40.2216 65.0438 39.842C65.1848 39.4624 65.2553 38.9744 65.2553 38.3779V35.4172C65.2553 34.5279 65.0763 33.8283 64.7184 33.3186C64.3714 32.8089 63.84 32.554 63.1242 32.554C62.2023 32.554 61.5625 32.8252 61.2046 33.3674C60.8467 33.8988 60.6352 34.8153 60.5701 36.1167C60.5484 36.7565 60.5376 37.6296 60.5376 38.7358C60.5376 39.3865 60.5756 39.8583 60.6515 40.1511C60.7274 40.4439 60.8955 40.7313 61.1558 41.0133C61.698 41.6857 61.9692 42.4394 61.9692 43.2745C61.9692 43.73 61.9095 44.0987 61.7902 44.3807C61.6818 44.6627 61.5571 44.885 61.4161 45.0477C61.2751 45.2104 60.9877 45.3242 60.5539 45.3893C60.1309 45.4652 59.7568 45.5086 59.4314 45.5195C59.1169 45.5303 58.5746 45.5357 57.8046 45.5357C57.5877 45.5357 57.4196 45.5357 57.3003 45.5357C56.0531 45.5357 55.1042 45.4544 54.4535 45.2917C53.8136 45.129 53.3744 44.8796 53.1358 44.5434C52.908 44.1963 52.7941 43.6975 52.7941 43.0468C52.7941 42.5153 52.8809 42.0924 53.0544 41.7779C53.2279 41.4634 53.4882 41.1543 53.8353 40.8506C54.204 40.5144 54.4426 40.1402 54.5511 39.7281C54.6704 39.316 54.73 38.6545 54.73 37.7435V35.0755C54.73 34.273 54.5456 33.6386 54.1769 33.1722C53.819 32.7059 53.3147 32.4727 52.664 32.4727C51.6446 32.4727 50.9288 32.8469 50.5167 33.5952C50.1045 34.3435 49.8985 35.3846 49.8985 36.7186V38.7846C49.9202 39.4136 49.9635 39.8528 50.0286 40.1023C50.0937 40.3517 50.2509 40.6012 50.5004 40.8506C50.5221 40.8723 50.5709 40.9374 50.6468 41.0458C50.7227 41.1434 50.7715 41.2085 50.7932 41.241C50.8149 41.2627 50.8583 41.3224 50.9233 41.42C50.9993 41.5176 51.0481 41.5935 51.0698 41.6477C51.0914 41.6911 51.1294 41.7616 51.1836 41.8592C51.2379 41.9568 51.2704 42.0436 51.2812 42.1195C51.3029 42.1954 51.3246 42.2876 51.3463 42.396C51.3788 42.4936 51.4005 42.5967 51.4114 42.7051C51.4222 42.8136 51.4276 42.9275 51.4276 43.0468C51.4276 43.6975 51.3084 44.1963 51.0698 44.5434C50.842 44.8796 50.4082 45.129 49.7683 45.2917C49.1393 45.4544 48.2066 45.5357 46.9703 45.5357Z" fill="white"/>
<path d="M82.613 46.0075C80.791 46.0075 79.1696 45.6062 77.7489 44.8037C76.3282 44.0011 75.2274 42.8949 74.4466 41.485C73.6765 40.0752 73.2915 38.4755 73.2915 36.6861C73.2915 35.3521 73.4868 34.0832 73.8772 32.8794C74.2676 31.6756 74.837 30.5965 75.5853 29.6421C76.3336 28.6769 77.3097 27.9123 78.5135 27.3483C79.7282 26.7736 81.0947 26.4862 82.613 26.4862C85.1508 26.4862 87.1788 27.2128 88.6971 28.666C90.2155 30.1084 90.9746 32.1365 90.9746 34.7502C90.9746 35.4009 90.9312 35.9052 90.8445 36.2631C90.7686 36.621 90.5896 36.9084 90.3076 37.1253C90.0257 37.3313 89.6732 37.4669 89.2502 37.532C88.8381 37.5862 88.2362 37.6133 87.4445 37.6133H79.88C79.4353 37.6133 79.213 37.8248 79.213 38.2478C79.2347 38.9202 79.7173 39.4841 80.6608 39.9396C81.6044 40.3843 82.7648 40.6066 84.1422 40.6066C85.8123 40.6066 87.168 40.33 88.2091 39.7769C88.2959 39.7335 88.4097 39.6793 88.5507 39.6143C88.6917 39.5383 88.8002 39.4841 88.8761 39.4516C88.9628 39.419 89.055 39.3865 89.1526 39.354C89.2611 39.3214 89.3587 39.3052 89.4454 39.3052C90.1287 39.3052 90.3402 39.983 90.0799 41.3386C89.7871 42.7702 88.9574 43.9089 87.5909 44.7549C86.2244 45.5899 84.5651 46.0075 82.613 46.0075ZM80.4494 34.4736C81.7508 34.4736 82.7052 34.4411 83.3125 34.376C83.9198 34.3001 84.3211 34.1917 84.5163 34.0507C84.7115 33.8988 84.8091 33.6657 84.8091 33.3512C84.8091 32.6571 84.5488 32.0443 84.0283 31.5129C83.5077 30.9815 82.8733 30.7158 82.1249 30.7158C81.2031 30.7158 80.4711 31.0194 79.9288 31.6268C79.3974 32.2341 79.1588 33.0095 79.213 33.9531C79.2239 34.1808 79.3052 34.3272 79.457 34.3923C79.6089 34.4465 79.9396 34.4736 80.4494 34.4736Z" fill="white"/>
<path d="M97.2865 45.8123C95.4862 45.8123 94.1631 45.3134 93.3172 44.3156C92.4821 43.3179 92.0646 41.9622 92.0646 40.2487C92.0646 38.6653 92.6285 37.3639 93.7564 36.3444C94.8843 35.325 96.4081 34.8153 98.3277 34.8153C99.1194 34.8153 99.8623 34.8749 100.556 34.9942C101.25 35.1135 101.652 35.1731 101.76 35.1731C101.977 35.1731 102.129 35.146 102.216 35.0918C102.313 35.0376 102.389 34.8803 102.443 34.62C102.498 34.3598 102.514 33.9476 102.492 33.3837C102.46 31.6268 101.69 30.7483 100.182 30.7483C99.4772 30.7483 98.9513 30.8568 98.6042 31.0737C98.2572 31.2797 98.0186 31.6485 97.8884 32.1799C97.7257 32.8523 97.4763 33.3295 97.1401 33.6114C96.8039 33.8826 96.3105 34.0181 95.6597 34.0181C94.7054 34.0181 93.9354 33.8229 93.3497 33.4325C92.7749 33.0312 92.4875 32.4022 92.4875 31.5454C92.4875 30.1898 93.187 29.0348 94.5861 28.0804C96.3864 26.8549 98.7289 26.2421 101.614 26.2421C103.88 26.2421 105.605 26.7627 106.787 27.8038C107.98 28.8341 108.576 30.3037 108.576 32.2124C108.576 33.1559 108.517 34.517 108.397 36.2956C108.278 38.0634 108.218 39.034 108.218 39.2076C108.218 39.8366 108.473 40.1511 108.983 40.1511C109.124 40.1511 109.303 40.124 109.52 40.0697C109.737 40.0047 109.916 39.9721 110.057 39.9721C110.425 39.9721 110.68 40.0969 110.821 40.3463C110.973 40.5957 111.049 40.997 111.049 41.5501C111.049 41.9948 110.968 42.4557 110.805 42.9329C110.642 43.4101 110.404 43.8656 110.089 44.2994C109.775 44.7332 109.346 45.0856 108.804 45.3568C108.273 45.6388 107.676 45.7797 107.015 45.7797C105.616 45.7797 104.542 45.3459 103.794 44.4783C103.609 44.2614 103.436 44.0228 103.273 43.7625C103.121 43.4914 102.997 43.3016 102.899 43.1932C102.812 43.0739 102.698 43.0142 102.557 43.0142C102.395 43.0142 102.254 43.0684 102.134 43.1769C102.026 43.2745 101.885 43.4589 101.711 43.73C101.549 43.9903 101.408 44.1963 101.288 44.3482C100.865 44.8471 100.377 45.2158 99.8243 45.4544C99.2712 45.693 98.4253 45.8123 97.2865 45.8123ZM100.215 41.176C100.909 41.176 101.473 40.9265 101.907 40.4276C102.34 39.9179 102.557 39.2781 102.557 38.508C102.557 37.9875 102.487 37.6784 102.346 37.5808C102.205 37.4723 101.852 37.4181 101.288 37.4181C101.191 37.4181 101.115 37.4181 101.061 37.4181C100.377 37.4181 99.8134 37.6133 99.3688 38.0037C98.935 38.3942 98.7181 38.9093 98.7181 39.5492C98.7181 40.1348 98.8428 40.5524 99.0922 40.8018C99.3417 41.0512 99.7158 41.176 100.215 41.176Z" fill="white"/>
<path d="M119.232 45.8448C117.29 45.8448 115.723 45.2917 114.53 44.1855C113.337 43.0793 112.741 41.5881 112.741 39.7119C112.741 39.1804 112.79 38.2966 112.887 37.0602C112.985 35.8239 113.034 34.8207 113.034 34.0507C113.034 33.888 113.034 33.7578 113.034 33.6602C113.034 33.5518 113.023 33.4488 113.001 33.3512C112.98 33.2535 112.969 33.1831 112.969 33.1397C112.969 33.0854 112.936 33.0366 112.871 32.9933C112.817 32.939 112.779 32.9065 112.757 32.8957C112.746 32.8848 112.687 32.874 112.578 32.8631C112.481 32.8414 112.405 32.836 112.35 32.8469C112.307 32.8469 112.204 32.8469 112.041 32.8469C111.879 32.8469 111.754 32.8469 111.667 32.8469C111.407 32.8469 111.19 32.8089 111.017 32.733C110.843 32.6462 110.707 32.5486 110.61 32.4402C110.523 32.3317 110.458 32.1582 110.415 31.9196C110.371 31.6702 110.344 31.4587 110.333 31.2851C110.333 31.1116 110.333 30.8459 110.333 30.488C110.333 30.0976 110.36 29.7831 110.415 29.5445C110.469 29.2951 110.539 29.0944 110.626 28.9426C110.713 28.7799 110.87 28.6281 111.098 28.4871C111.326 28.3461 111.548 28.2268 111.765 28.1292C111.982 28.0316 112.318 27.8798 112.773 27.6737C113.229 27.4568 113.663 27.2399 114.075 27.023C114.541 26.7844 115.083 26.4645 115.702 26.0632C116.32 25.6511 116.83 25.3528 117.231 25.1685C117.632 24.9841 118.044 24.8919 118.467 24.8919C119.248 24.8919 119.638 25.3583 119.638 26.2909C119.638 26.4428 119.638 26.5729 119.638 26.6814C119.649 26.7898 119.666 26.8874 119.687 26.9742C119.72 27.0609 119.741 27.1314 119.752 27.1857C119.774 27.2399 119.823 27.2887 119.899 27.3321C119.985 27.3646 120.045 27.3917 120.078 27.4134C120.121 27.4243 120.213 27.4351 120.354 27.446C120.506 27.4568 120.62 27.4622 120.696 27.4622C120.772 27.4514 120.918 27.446 121.135 27.446C121.352 27.446 121.531 27.446 121.672 27.446C121.704 27.446 121.748 27.446 121.802 27.446C122.312 27.446 122.675 27.4514 122.892 27.4622C123.109 27.4731 123.353 27.5002 123.624 27.5436C123.895 27.5869 124.08 27.6629 124.177 27.7713C124.275 27.8689 124.356 28.0099 124.421 28.1943C124.497 28.3786 124.535 28.6172 124.535 28.9101C124.535 29.1812 124.513 29.5499 124.47 30.0163C124.427 30.4826 124.399 30.9056 124.389 31.2851C124.378 31.5563 124.345 31.7894 124.291 31.9847C124.237 32.1799 124.139 32.3371 123.998 32.4564C123.857 32.5757 123.727 32.6733 123.608 32.7492C123.488 32.8143 123.282 32.8631 122.99 32.8957C122.697 32.9173 122.453 32.9336 122.258 32.9445C122.062 32.9445 121.737 32.9445 121.282 32.9445C121.173 32.9445 121.092 32.9445 121.037 32.9445C120.756 32.9445 120.533 32.9499 120.37 32.9607C120.208 32.9607 120.045 32.9716 119.882 32.9933C119.731 33.015 119.622 33.0421 119.557 33.0746C119.492 33.0963 119.422 33.1505 119.346 33.2373C119.281 33.3132 119.243 33.3891 119.232 33.465C119.221 33.5301 119.205 33.644 119.183 33.8067C119.172 33.9585 119.167 34.1049 119.167 34.2459C119.178 34.3869 119.183 34.5929 119.183 34.8641C119.183 35.1243 119.178 35.3738 119.167 35.6124C119.167 35.9269 119.161 36.3715 119.15 36.9463C119.14 37.5211 119.134 37.9224 119.134 38.1502C119.134 38.7683 119.291 39.2509 119.606 39.598C119.931 39.9342 120.387 40.1023 120.972 40.1023C121.319 40.1023 121.802 40.0481 122.42 39.9396C123.038 39.8312 123.451 39.7769 123.657 39.7769C123.939 39.7769 124.155 39.88 124.307 40.086C124.47 40.2921 124.546 40.6662 124.535 41.2085C124.513 42.5641 124.025 43.6758 123.071 44.5434C122.127 45.411 120.848 45.8448 119.232 45.8448Z" fill="white"/>
<path d="M134.252 25.0058C133.59 25.5047 132.587 25.7541 131.242 25.7541C129.897 25.7541 128.845 25.4938 128.086 24.9733C127.327 24.4527 126.947 23.7369 126.947 22.8259C126.926 21.8824 127.273 21.1178 127.988 20.5321C128.715 19.9465 129.745 19.6537 131.079 19.6537C132.457 19.6537 133.492 19.9465 134.186 20.5321C134.891 21.1069 135.244 21.8715 135.244 22.8259C135.244 23.7694 134.913 24.4961 134.252 25.0058ZM131.014 45.5357C130.873 45.5357 130.667 45.5357 130.396 45.5357C129.539 45.5357 128.927 45.5303 128.558 45.5195C128.2 45.5086 127.782 45.4652 127.305 45.3893C126.839 45.3242 126.524 45.2104 126.362 45.0477C126.21 44.8742 126.069 44.641 125.939 44.3482C125.819 44.0554 125.76 43.6758 125.76 43.2094C125.76 42.2984 126.145 41.5447 126.915 40.9482C127.305 40.6771 127.593 40.3626 127.777 40.0047C127.972 39.6359 128.108 39.0178 128.184 38.1502C128.184 38.0634 128.189 37.4723 128.2 36.377C128.211 35.2708 128.216 34.3272 128.216 33.5464C128.216 33.0475 128.151 32.7221 128.021 32.5703C127.891 32.4185 127.647 32.3426 127.289 32.3426C126.736 32.3426 126.329 32.2558 126.069 32.0823C125.809 31.9087 125.678 31.5888 125.678 31.1225C125.678 30.6236 125.836 30.1084 126.15 29.577C126.465 29.0348 126.877 28.5576 127.387 28.1455C128.547 27.2995 129.821 26.8766 131.209 26.8766C132.5 26.8766 133.422 27.1206 133.975 27.6086C134.539 28.0858 134.821 28.8016 134.821 29.756C134.821 30.3958 134.674 31.3231 134.382 32.5378C134.089 33.7416 133.942 34.7448 133.942 35.5473C133.942 36.5668 133.975 37.6458 134.04 38.7846C134.073 39.3811 134.143 39.8149 134.252 40.086C134.371 40.3571 134.582 40.612 134.886 40.8506C135.222 41.1543 135.472 41.4742 135.634 41.8104C135.797 42.1358 135.878 42.5804 135.878 43.1444C135.878 43.7734 135.748 44.2506 135.488 44.5759C135.238 44.9013 134.767 45.1453 134.073 45.308C133.389 45.4598 132.37 45.5357 131.014 45.5357Z" fill="white"/>
<path d="M46.5712 24.4494C45.497 24.4494 44.5411 24.2129 43.7034 23.7397C42.8658 23.2665 42.2168 22.6143 41.7564 21.7831C41.3024 20.9518 41.0754 20.0087 41.0754 18.9537C41.0754 18.1672 41.1905 17.4191 41.4207 16.7093C41.6509 15.9996 41.9866 15.3633 42.4278 14.8006C42.869 14.2316 43.4445 13.7808 44.1542 13.4483C44.8704 13.1094 45.676 12.9399 46.5712 12.9399C48.0675 12.9399 49.2632 13.3684 50.1584 14.2252C51.0535 15.0756 51.5011 16.2713 51.5011 17.8123C51.5011 18.1959 51.4756 18.4933 51.4244 18.7043C51.3796 18.9153 51.2741 19.0847 51.1079 19.2126C50.9416 19.3341 50.7338 19.414 50.4845 19.4524C50.2415 19.4844 49.8866 19.5004 49.4198 19.5004H44.9599C44.6977 19.5004 44.5667 19.625 44.5667 19.8744C44.5794 20.2709 44.864 20.6034 45.4203 20.8719C45.9766 21.1341 46.6607 21.2651 47.4728 21.2651C48.4575 21.2651 49.2568 21.1021 49.8706 20.776C49.9218 20.7504 49.9889 20.7184 50.072 20.6801C50.1552 20.6353 50.2191 20.6034 50.2639 20.5842C50.315 20.565 50.3694 20.5458 50.4269 20.5266C50.4908 20.5074 50.5484 20.4978 50.5996 20.4978C51.0024 20.4978 51.1271 20.8975 50.9736 21.6968C50.801 22.5408 50.3118 23.2122 49.5061 23.7109C48.7005 24.2033 47.7222 24.4494 46.5712 24.4494ZM45.2956 17.6492C46.0629 17.6492 46.6256 17.6301 46.9836 17.5917C47.3417 17.5469 47.5783 17.483 47.6934 17.3999C47.8085 17.3104 47.866 17.1729 47.866 16.9874C47.866 16.5782 47.7126 16.217 47.4057 15.9036C47.0987 15.5903 46.7247 15.4337 46.2835 15.4337C45.74 15.4337 45.3084 15.6127 44.9887 15.9708C44.6754 16.3289 44.5347 16.786 44.5667 17.3423C44.573 17.4766 44.621 17.5629 44.7105 17.6013C44.8 17.6333 44.9951 17.6492 45.2956 17.6492Z" fill="white"/>
<path d="M55.2225 24.3343C54.1611 24.3343 53.381 24.0402 52.8823 23.452C52.3899 22.8637 52.1437 22.0644 52.1437 21.0541C52.1437 20.1206 52.4762 19.3533 53.1412 18.7522C53.8062 18.1512 54.7046 17.8507 55.8364 17.8507C56.3031 17.8507 56.7411 17.8858 57.1504 17.9562C57.5596 18.0265 57.7962 18.0617 57.8601 18.0617C57.988 18.0617 58.0775 18.0457 58.1287 18.0137C58.1862 17.9817 58.231 17.889 58.263 17.7356C58.2949 17.5821 58.3045 17.3391 58.2917 17.0066C58.2726 15.9708 57.8186 15.4529 56.9298 15.4529C56.5142 15.4529 56.204 15.5168 55.9994 15.6447C55.7948 15.7662 55.6541 15.9836 55.5774 16.2969C55.4815 16.6933 55.3344 16.9747 55.1362 17.1409C54.938 17.3008 54.6471 17.3807 54.2634 17.3807C53.7007 17.3807 53.2467 17.2656 52.9015 17.0354C52.5626 16.7988 52.3931 16.428 52.3931 15.9228C52.3931 15.1236 52.8055 14.4426 53.6304 13.8799C54.6918 13.1573 56.073 12.7961 57.7738 12.7961C59.1102 12.7961 60.1269 13.103 60.8238 13.7168C61.5272 14.3243 61.8789 15.1907 61.8789 16.3161C61.8789 16.8724 61.8437 17.6748 61.7734 18.7235C61.703 19.7657 61.6679 20.338 61.6679 20.4403C61.6679 20.8112 61.8181 20.9966 62.1186 20.9966C62.2018 20.9966 62.3073 20.9806 62.4352 20.9486C62.563 20.9103 62.6685 20.8911 62.7517 20.8911C62.9691 20.8911 63.1193 20.9646 63.2025 21.1117C63.292 21.2588 63.3367 21.4953 63.3367 21.8214C63.3367 22.0836 63.2888 22.3554 63.1929 22.6367C63.097 22.918 62.9563 23.1866 62.7708 23.4424C62.5854 23.6981 62.3328 23.9059 62.0131 24.0658C61.6998 24.232 61.3481 24.3152 60.9581 24.3152C60.1333 24.3152 59.5002 24.0594 59.059 23.5479C58.9503 23.42 58.848 23.2793 58.7521 23.1258C58.6626 22.966 58.5891 22.8541 58.5315 22.7902C58.4804 22.7198 58.4132 22.6847 58.3301 22.6847C58.2342 22.6847 58.1511 22.7166 58.0807 22.7806C58.0168 22.8381 57.9337 22.9468 57.8314 23.1067C57.7354 23.2601 57.6523 23.3816 57.582 23.4711C57.3326 23.7653 57.0449 23.9827 56.7188 24.1233C56.3927 24.264 55.8939 24.3343 55.2225 24.3343ZM56.949 21.6008C57.3582 21.6008 57.6907 21.4538 57.9465 21.1596C58.2022 20.8591 58.3301 20.4819 58.3301 20.0279C58.3301 19.721 58.2885 19.5387 58.2054 19.4812C58.1223 19.4172 57.9145 19.3853 57.582 19.3853C57.5244 19.3853 57.4797 19.3853 57.4477 19.3853C57.0449 19.3853 56.7124 19.5004 56.4502 19.7305C56.1944 19.9607 56.0666 20.2645 56.0666 20.6417C56.0666 20.987 56.1401 21.2332 56.2872 21.3802C56.4342 21.5273 56.6548 21.6008 56.949 21.6008Z" fill="white"/>
<path d="M68.1611 24.3535C67.0166 24.3535 66.0926 24.0274 65.3893 23.3752C64.6859 22.723 64.3342 21.8438 64.3342 20.7376C64.3342 20.4243 64.363 19.9032 64.4205 19.1743C64.4781 18.4453 64.5069 17.8539 64.5069 17.3999C64.5069 17.304 64.5069 17.2272 64.5069 17.1697C64.5069 17.1057 64.5005 17.045 64.4877 16.9874C64.4749 16.9299 64.4685 16.8883 64.4685 16.8628C64.4685 16.8308 64.4493 16.802 64.411 16.7764C64.379 16.7445 64.3566 16.7253 64.3438 16.7189C64.3374 16.7125 64.3023 16.7061 64.2383 16.6997C64.1808 16.6869 64.136 16.6837 64.104 16.6901C64.0785 16.6901 64.0177 16.6901 63.9218 16.6901C63.8259 16.6901 63.7524 16.6901 63.7012 16.6901C63.5477 16.6901 63.4199 16.6677 63.3176 16.623C63.2152 16.5718 63.1353 16.5143 63.0778 16.4503C63.0266 16.3864 62.9883 16.2841 62.9627 16.1434C62.9371 15.9964 62.9211 15.8717 62.9147 15.7694C62.9147 15.6671 62.9147 15.5104 62.9147 15.2994C62.9147 15.0692 62.9307 14.8838 62.9627 14.7431C62.9946 14.596 63.0362 14.4777 63.0874 14.3882C63.1385 14.2923 63.2312 14.2028 63.3655 14.1197C63.4998 14.0365 63.6309 13.9662 63.7587 13.9087C63.8866 13.8511 64.0849 13.7616 64.3534 13.6401C64.622 13.5122 64.8777 13.3843 65.1207 13.2565C65.3957 13.1158 65.7154 12.9272 66.0798 12.6906C66.4443 12.4476 66.7448 12.2718 66.9814 12.1631C67.218 12.0544 67.461 12 67.7103 12C68.1707 12 68.4009 12.2749 68.4009 12.8248C68.4009 12.9144 68.4009 12.9911 68.4009 13.055C68.4073 13.119 68.4169 13.1765 68.4297 13.2277C68.4489 13.2788 68.4617 13.3204 68.4681 13.3524C68.4808 13.3843 68.5096 13.4131 68.5544 13.4387C68.6055 13.4579 68.6407 13.4739 68.6599 13.4866C68.6855 13.493 68.7398 13.4994 68.8229 13.5058C68.9124 13.5122 68.9796 13.5154 69.0243 13.5154C69.0691 13.509 69.1554 13.5058 69.2833 13.5058C69.4112 13.5058 69.5167 13.5058 69.5998 13.5058C69.619 13.5058 69.6446 13.5058 69.6765 13.5058C69.9771 13.5058 70.1913 13.509 70.3192 13.5154C70.447 13.5218 70.5909 13.5378 70.7508 13.5634C70.9106 13.589 71.0193 13.6337 71.0769 13.6977C71.1344 13.7552 71.1824 13.8383 71.2207 13.947C71.2655 14.0557 71.2879 14.1964 71.2879 14.369C71.2879 14.5289 71.2751 14.7463 71.2495 15.0212C71.2239 15.2962 71.208 15.5456 71.2016 15.7694C71.1952 15.9292 71.176 16.0667 71.144 16.1818C71.112 16.2969 71.0545 16.3896 70.9714 16.4599C70.8882 16.5303 70.8115 16.5878 70.7412 16.6326C70.6708 16.6709 70.5494 16.6997 70.3767 16.7189C70.2041 16.7317 70.0602 16.7413 69.9451 16.7477C69.83 16.7477 69.6382 16.7477 69.3696 16.7477C69.3057 16.7477 69.2577 16.7477 69.2258 16.7477C69.0595 16.7477 68.9284 16.7509 68.8325 16.7573C68.7366 16.7573 68.6407 16.7637 68.5448 16.7764C68.4553 16.7892 68.3913 16.8052 68.353 16.8244C68.3146 16.8372 68.273 16.8692 68.2283 16.9203C68.1899 16.9651 68.1675 17.0098 68.1611 17.0546C68.1547 17.093 68.1451 17.1601 68.1324 17.256C68.126 17.3455 68.1228 17.4318 68.1228 17.515C68.1292 17.5981 68.1324 17.7196 68.1324 17.8794C68.1324 18.0329 68.1292 18.18 68.1228 18.3206C68.1228 18.5061 68.1196 18.7682 68.1132 19.1071C68.1068 19.446 68.1036 19.6826 68.1036 19.8169C68.1036 20.1813 68.1963 20.4659 68.3817 20.6705C68.5736 20.8687 68.8421 20.9678 69.1874 20.9678C69.392 20.9678 69.6765 20.9358 70.041 20.8719C70.4055 20.808 70.6485 20.776 70.77 20.776C70.9362 20.776 71.0641 20.8367 71.1536 20.9582C71.2495 21.0797 71.2943 21.3003 71.2879 21.62C71.2751 22.4193 70.9874 23.0747 70.4247 23.5862C69.8684 24.0978 69.1139 24.3535 68.1611 24.3535Z" fill="white"/>
<path d="M137.69 22.498C137.69 22.35 137.72 22.2706 137.843 22.1774C137.97 22.0805 138.027 22.0483 138.028 21.8606L138.03 20.9261C138.031 20.829 138.02 20.7998 137.912 20.7994C137.793 20.799 137.793 20.8421 137.753 20.9648C137.665 21.2534 137.571 21.3864 137.344 21.3859C137.185 21.3854 136.99 21.2982 136.991 21.0925C136.991 21.0063 137.024 20.8724 137.079 20.6998C137.217 20.2386 137.322 20.1554 137.538 20.1563C137.737 20.1569 137.791 20.2325 138.018 20.2333L138.851 20.2358C139.086 20.2365 139.133 20.1607 139.324 20.1616C139.548 20.1623 139.649 20.2492 139.788 20.7078C139.838 20.8629 139.859 20.9929 139.859 21.0791C139.858 21.2998 139.71 21.3929 139.523 21.3923C139.292 21.3917 139.198 21.2579 139.109 20.9652C139.07 20.8429 139.066 20.8027 138.94 20.8024C138.846 20.8021 138.806 20.8274 138.806 20.932L138.803 21.8447C138.803 22.0359 138.843 22.0831 138.95 22.1591C139.055 22.2283 139.12 22.2787 139.119 22.4662C139.118 22.7513 139.028 22.7875 138.386 22.7854C137.819 22.7839 137.689 22.7472 137.69 22.498Z" fill="white"/>
<path d="M139.924 22.5527C139.925 22.4372 139.969 22.3294 140.135 22.2504C140.246 22.1963 140.236 22.1318 140.24 21.9838C140.257 21.2509 140.256 21.4817 140.257 21.1463C140.257 21.0165 140.258 20.9337 140.142 20.8719C140.013 20.8032 139.955 20.7345 139.956 20.5576C139.957 20.2112 140.155 20.259 140.714 20.2607C141.201 20.2619 141.382 20.2192 141.471 20.5838C141.517 20.7754 141.567 21.0101 141.621 21.2303C141.681 21.4861 141.659 21.5908 141.746 21.5909C141.825 21.5912 141.808 21.4402 141.869 21.2455C141.909 21.1121 141.979 20.7729 142.045 20.5461C142.14 20.2212 142.226 20.2653 142.72 20.2667C143.215 20.2681 143.395 20.2252 143.394 20.6184C143.393 20.7413 143.339 20.8202 143.231 20.8853C143.112 20.9497 143.104 21.0615 143.104 21.2313C143.106 21.4186 143.105 21.8586 143.105 21.9958C143.104 22.1941 143.176 22.216 143.245 22.2671C143.327 22.3286 143.381 22.3903 143.381 22.574C143.38 22.8667 143.127 22.8441 142.691 22.843C142.355 22.8417 142.189 22.8229 142.19 22.5377C142.191 22.4405 142.209 22.361 142.281 22.2961C142.35 22.2391 142.393 22.1955 142.397 22.0655C142.409 21.889 142.403 21.5683 142.396 21.2977C142.393 21.1207 142.408 21.0485 142.332 21.048C142.263 21.048 142.259 21.1491 142.219 21.3222C142.124 21.7368 142.015 22.1115 141.953 22.3932C141.868 22.8109 141.883 22.8331 141.54 22.8319C141.324 22.8314 141.248 22.7514 141.202 22.5782C141.127 22.3074 140.938 21.5059 140.895 21.2822C140.867 21.1341 140.853 21.0294 140.788 21.0292C140.712 21.0292 140.715 21.1049 140.715 21.2673L140.712 22.1006C140.712 22.2268 140.723 22.2597 140.806 22.3245C140.935 22.4261 140.938 22.4946 140.938 22.6066C140.937 22.8301 140.761 22.8334 140.367 22.8321C140.046 22.831 139.924 22.8053 139.924 22.5527Z" fill="white"/>
</svg>
