<svg width="185" height="58" viewBox="0 0 185 58" fill="none" xmlns="http://www.w3.org/2000/svg">
<path d="M41.5758 32.5014C41.5758 33.7655 41.8533 34.736 42.216 35.3232C42.6914 36.0922 43.4006 36.418 44.1236 36.418C45.0561 36.418 45.9092 36.1866 47.5533 33.9129C48.8703 32.0904 50.4222 29.5323 51.4664 27.9286L53.2348 25.2116C54.4632 23.3246 55.885 21.227 57.5152 19.8052C58.8461 18.6447 60.2817 18 61.7266 18C64.1523 18 66.4629 19.4057 68.2312 22.0421C70.1665 24.9295 71.106 28.5664 71.106 32.3195C71.106 34.5507 70.6662 36.1901 69.9179 37.4853C69.1949 38.7379 67.7857 39.9893 65.4152 39.9893V36.418C67.4449 36.418 67.9515 34.553 67.9515 32.4185C67.9515 29.3769 67.2423 26.0013 65.68 23.5894C64.5714 21.8786 63.1346 20.8333 61.5539 20.8333C59.8442 20.8333 58.4685 22.1227 56.9223 24.4218C56.1003 25.6433 55.2564 27.1319 54.3089 28.8116L53.2659 30.6594C51.1705 34.3745 50.6398 35.2207 49.5922 36.6172C47.7559 39.0625 46.1878 39.9893 44.1236 39.9893C41.6749 39.9893 40.1264 38.929 39.1674 37.331C38.3845 36.0289 38 34.3204 38 32.3736L41.5758 32.5014Z" fill="white"/>
<path d="M40.8195 22.2942C42.4589 19.7672 44.8247 18 47.5383 18C49.1098 18 50.672 18.4651 52.3034 19.7971C54.0879 21.2535 55.9898 23.6516 58.3625 27.6039L59.2133 29.0223C61.2672 32.4439 62.4357 34.2041 63.1196 35.0342C63.9992 36.1003 64.6151 36.418 65.4152 36.418C67.4449 36.418 67.9515 34.553 67.9515 32.4185L71.106 32.3195C71.106 34.5507 70.6662 36.1901 69.9178 37.4853C69.1948 38.7379 67.7857 39.9893 65.4152 39.9893C63.9416 39.9893 62.6361 39.6692 61.1924 38.3073C60.0825 37.2619 58.785 35.4049 57.7869 33.7356L54.8178 28.7759C53.328 26.2869 51.9615 24.431 51.1705 23.5906C50.3198 22.6868 49.226 21.5954 47.4807 21.5954C46.0681 21.5954 44.8685 22.5867 43.8646 24.1029L40.8195 22.2942Z" fill="white"/>
<path d="M47.4807 21.5954C46.0681 21.5954 44.8685 22.5867 43.8646 24.1029C42.4451 26.2454 41.5758 29.4367 41.5758 32.5014C41.5758 33.7655 41.8533 34.736 42.216 35.3232L39.1674 37.331C38.3845 36.0289 38 34.3204 38 32.3736C38 28.8335 38.9717 25.1436 40.8195 22.2942C42.4589 19.7672 44.8247 18 47.5383 18L47.4807 21.5954Z" fill="white"/>
<path d="M78.0573 18.6954H82.1938L89.2269 31.4192L96.2612 18.6954H100.308V39.6025H96.9336V23.5791L90.765 34.675H87.5991L81.4317 23.5791V39.6025H78.0573V18.6954ZM110.881 26.4906C108.461 26.4906 107.004 28.3119 106.655 30.5673H114.868C114.699 28.244 113.359 26.4906 110.881 26.4906ZM103.309 31.8521C103.309 27.1065 106.376 23.6527 110.94 23.6527C115.429 23.6527 118.109 27.0628 118.109 32.1054V33.0321H106.655C107.061 35.4855 108.689 37.1387 111.314 37.1387C113.408 37.1387 114.717 36.4998 115.958 35.3312L117.751 37.5267C116.062 39.0798 113.914 39.9755 111.194 39.9755C106.254 39.9755 103.309 36.3731 103.309 31.8521ZM122.201 26.7899H119.094V24.0269H122.201V19.4575H125.456V24.0269H130.175V26.7899H125.456V33.7931C125.456 36.1843 126.221 37.034 128.1 37.034C128.957 37.034 129.449 36.9603 130.175 36.8394V39.5725C129.27 39.8281 128.407 39.9455 127.472 39.9455C123.957 39.9455 122.201 38.0252 122.201 34.1811V26.7899ZM143.885 29.477C143.231 27.8261 141.772 26.6104 139.628 26.6104C136.842 26.6104 135.059 28.5871 135.059 31.8072C135.059 34.9467 136.701 37.019 139.495 37.019C141.692 37.019 143.26 35.7411 143.885 34.1512V29.477ZM147.141 39.6025H143.945V37.4219C143.051 38.7056 141.426 39.9755 138.793 39.9755C134.558 39.9755 131.728 36.4307 131.728 31.8072C131.728 27.1399 134.626 23.6527 138.972 23.6527C141.121 23.6527 142.806 24.5116 143.945 26.0278V24.0269H147.141V39.6025Z" fill="white"/>
</svg>
