<svg width="185" height="58" viewBox="0 0 185 58" fill="none" xmlns="http://www.w3.org/2000/svg">
<path d="M63.8159 26.5629H60.6826V40.1395H63.8159V26.5629Z" fill="white"/>
<path d="M69.4998 26.5636V40.1403H72.6505V33.5939C72.6505 31.9062 72.8662 30.7229 73.2947 30.0408C73.7319 29.3588 74.4606 29.0149 75.5128 29.0149C76.4688 29.0149 77.1246 29.2743 77.4831 29.7931C77.8562 30.3032 78.0486 31.2271 78.0486 32.565V40.1432H81.1964V31.8159C81.1964 29.9009 80.8175 28.5194 80.0597 27.677C79.1736 26.6831 77.9407 26.1847 76.3639 26.1847C74.9561 26.1964 73.6153 26.788 72.6535 27.8169H72.6505V26.5636H69.4998V26.5636Z" fill="white"/>
<path d="M63.7096 19.4863C63.3248 19.0957 62.8002 18.88 62.2522 18.8859C61.7043 18.8771 61.1738 19.0957 60.7949 19.4921C60.413 19.8681 60.2032 20.3811 60.2119 20.9174C60.2003 22.0454 61.1038 22.9664 62.2318 22.9781C62.2376 22.9781 62.2464 22.9781 62.2522 22.9781C62.8002 22.9927 63.3307 22.7741 63.7096 22.3777C64.0943 21.9929 64.3042 21.4654 64.2925 20.9203C64.3042 20.3811 64.0943 19.8623 63.7096 19.4863Z" fill="white"/>
<path d="M37.6071 27.1344L43.7979 41.1249L50.1723 27.1344L52.2447 40.1281H55.5791L51.5073 17L43.8533 33.7274L36.4645 17L31.938 40.1398H35.2928L37.6071 27.1344Z" fill="white"/>
<path d="M89.3084 19.4836C88.5127 18.6879 87.2186 18.6879 86.4229 19.4836L86.4141 19.4924C86.0265 19.8654 85.8079 20.3814 85.8108 20.9177C85.8021 21.4656 86.0207 21.9932 86.4141 22.375C86.796 22.7685 87.3235 22.9871 87.8715 22.9754C88.4136 22.9871 88.9354 22.7685 89.3084 22.375C89.7019 21.9932 89.9205 21.4656 89.9089 20.9177C89.9205 20.3755 89.7019 19.8567 89.3084 19.4836Z" fill="white"/>
<path d="M108.4 26.5634V34.4331C108.4 35.6777 108.534 36.6191 108.8 37.2516C109.094 37.989 109.566 38.6419 110.173 39.152C111.233 40.073 112.574 40.5277 114.204 40.5277C115.833 40.5277 117.188 40.073 118.249 39.152C118.85 38.6361 119.313 37.9803 119.599 37.2429C119.887 36.3306 120.021 35.3804 120.001 34.4244V26.5547L116.865 26.5634V34.3544C116.865 36.6016 115.979 37.7267 114.204 37.7267C112.434 37.7267 111.542 36.6016 111.542 34.3544V26.5634H108.4Z" fill="white"/>
<path d="M148.696 37.1585C148.136 37.552 147.463 37.7502 146.778 37.7269C145.854 37.7589 144.962 37.4063 144.309 36.7534C143.639 36.0247 143.251 35.0803 143.219 34.0893H152.954V33.3548C152.954 31.1076 152.371 29.3588 151.223 28.0909C150.074 26.823 148.483 26.1847 146.486 26.1847C144.49 26.1847 142.916 26.8434 141.718 28.1492L141.724 28.1463C140.535 29.4783 139.94 31.2184 139.94 33.3607C139.94 35.503 140.552 37.2401 141.773 38.5692C143.003 39.8692 144.633 40.5192 146.658 40.5192C147.32 40.5279 147.979 40.4521 148.623 40.2947C149.217 40.1519 149.786 39.9158 150.308 39.5952C150.85 39.2571 151.339 38.8432 151.765 38.3652C152.26 37.8202 152.698 37.2197 153.062 36.5785L150.415 35.1007C149.771 36.1034 149.2 36.7884 148.696 37.1585ZM143.863 30.478C144.053 30.1778 144.289 29.9097 144.568 29.6911C144.842 29.4754 145.149 29.3063 145.475 29.1897C145.822 29.0732 146.186 29.0149 146.55 29.0149C148.226 29.0149 149.276 29.8514 149.719 31.5273H143.423C143.516 31.1542 143.668 30.8016 143.872 30.478H143.863V30.478Z" fill="white"/>
<path d="M89.4326 26.5629H86.2964V40.1395H89.4326V26.5629Z" fill="white"/>
<path d="M126.542 40.1395L130.622 35.0621L134.606 40.1395H138.34L132.531 32.7887L137.55 26.5629H133.703L130.625 30.521L127.597 26.5629H123.86L128.745 32.7887L122.703 40.1395H126.542Z" fill="white"/>
<path d="M95.7214 18.6094V40.1402H105.296V37.0856H98.9772V18.6152L95.7214 18.6094Z" fill="white"/>
</svg>
