<svg width="185" height="58" viewBox="0 0 185 58" fill="none" xmlns="http://www.w3.org/2000/svg">
<path d="M69.7858 18.3567H63.359C63.188 18.3567 63.0493 18.4953 63.0493 18.6664V38.8581C63.0493 39.0291 63.188 39.1678 63.359 39.1678H69.7858C69.9568 39.1678 70.0954 39.0291 70.0954 38.8581V18.6664C70.0954 18.4953 69.9568 18.3567 69.7858 18.3567Z" fill="white"/>
<path d="M114.57 18.3567H108.143C107.972 18.3567 107.834 18.4953 107.834 18.6664V38.8581C107.834 39.0291 107.972 39.1678 108.143 39.1678H114.57C114.741 39.1678 114.88 39.0291 114.88 38.8581V18.6664C114.88 18.4953 114.741 18.3567 114.57 18.3567Z" fill="white"/>
<path d="M133.895 18.3558H116.739C116.657 18.3558 116.578 18.3885 116.52 18.4465C116.462 18.5046 116.429 18.5834 116.429 18.6655V23.8435C116.429 23.9257 116.462 24.0044 116.52 24.0625C116.578 24.1206 116.657 24.1532 116.739 24.1532H121.474C121.515 24.1532 121.555 24.1612 121.593 24.1768C121.631 24.1923 121.665 24.2151 121.693 24.2439C121.722 24.2727 121.745 24.3068 121.761 24.3444C121.776 24.3819 121.784 24.4222 121.784 24.4629V38.8581C121.784 38.9402 121.817 39.019 121.875 39.0771C121.933 39.1351 122.012 39.1678 122.094 39.1678H128.521C128.603 39.1678 128.682 39.1351 128.74 39.0771C128.798 39.019 128.83 38.9402 128.83 38.8581V24.4637C128.83 24.423 128.838 24.3828 128.854 24.3452C128.869 24.3076 128.892 24.2735 128.921 24.2447C128.95 24.216 128.984 24.1932 129.021 24.1776C129.059 24.162 129.099 24.154 129.14 24.154H133.895C133.977 24.154 134.056 24.1214 134.114 24.0633C134.172 24.0053 134.205 23.9265 134.205 23.8444V18.6663C134.205 18.6256 134.197 18.5853 134.181 18.5476C134.166 18.5099 134.143 18.4757 134.114 18.4468C134.086 18.418 134.051 18.3951 134.014 18.3795C133.976 18.3639 133.936 18.3558 133.895 18.3558Z" fill="white"/>
<path d="M105.976 18.3558H91.0165C90.9343 18.3558 90.8556 18.3885 90.7975 18.4465C90.7394 18.5046 90.7068 18.5834 90.7068 18.6655V38.8581C90.7068 38.9402 90.7394 39.019 90.7975 39.0771C90.8556 39.1351 90.9343 39.1678 91.0165 39.1678H97.4432C97.5254 39.1678 97.6041 39.1351 97.6622 39.0771C97.7203 39.019 97.7529 38.9402 97.7529 38.8581V32.9072C97.7529 32.825 97.7855 32.7463 97.8436 32.6882C97.9017 32.6301 97.9805 32.5975 98.0626 32.5975H105.262C105.303 32.5975 105.343 32.5895 105.381 32.5739C105.418 32.5583 105.453 32.5355 105.481 32.5068C105.51 32.478 105.533 32.4439 105.548 32.4063C105.564 32.3687 105.572 32.3285 105.572 32.2878V27.4665C105.572 27.3843 105.539 27.3056 105.481 27.2475C105.423 27.1894 105.344 27.1568 105.262 27.1568H98.0601C97.9779 27.1568 97.8992 27.1242 97.8411 27.0661C97.783 27.008 97.7504 26.9292 97.7504 26.8471V24.4637C97.7504 24.3816 97.783 24.3028 97.8411 24.2447C97.8992 24.1867 97.9779 24.154 98.0601 24.154H105.973C106.055 24.154 106.134 24.1214 106.192 24.0633C106.25 24.0053 106.283 23.9265 106.283 23.8444V18.6663C106.283 18.5845 106.251 18.5059 106.193 18.4477C106.136 18.3895 106.057 18.3565 105.976 18.3558Z" fill="white"/>
<path d="M78.1252 24.9563C78.1252 24.3622 78.9577 24.1834 80.2065 24.1834C83.1379 24.1834 86.3118 25.0226 88.3327 26.8882C88.3751 26.9287 88.4286 26.9558 88.4864 26.966C88.5442 26.9763 88.6037 26.9692 88.6575 26.9457C88.7113 26.9222 88.757 26.8833 88.7888 26.834C88.8205 26.7847 88.8371 26.727 88.8362 26.6684V20.5739C88.8364 20.5228 88.8239 20.4725 88.7999 20.4274C88.7759 20.3823 88.7411 20.3438 88.6986 20.3154C86.5283 18.8829 83.7975 18 80.595 18C75.9868 18 71.6464 20.2894 71.6464 24.7188C71.6464 31.4083 82.4984 30.8729 82.4984 32.2106C82.4984 32.6864 81.7548 32.9541 80.5682 32.9541C78.6908 32.9541 75.1921 32.5782 72.4436 29.7978C72.3915 29.7439 72.3244 29.7068 72.251 29.6913C72.1776 29.6759 72.1013 29.6827 72.0318 29.7109C71.9623 29.7392 71.9029 29.7875 71.8611 29.8498C71.8193 29.9121 71.7972 29.9855 71.7974 30.0605V37.5497C71.7971 37.607 71.8125 37.6633 71.8422 37.7123C71.8718 37.7613 71.9144 37.8012 71.9653 37.8275C74.8581 39.2676 77.9019 39.5244 80.0596 39.5244C85.6488 39.5244 89.4539 37.3248 89.4539 32.2408C89.4522 25.1947 78.1252 26.6809 78.1252 24.9563Z" fill="white"/>
<path d="M141.616 24.9563C141.616 24.3622 142.448 24.1834 143.697 24.1834C146.629 24.1834 149.618 25.0226 151.639 26.8882C151.693 26.9409 151.765 26.9709 151.841 26.9722C151.88 26.9722 151.919 26.9644 151.956 26.9493C151.992 26.9343 152.025 26.9122 152.053 26.8844C152.081 26.8566 152.103 26.8236 152.118 26.7872C152.133 26.7509 152.141 26.7119 152.141 26.6725V20.5739C152.141 20.5227 152.128 20.4724 152.104 20.4273C152.08 20.3822 152.045 20.3438 152.002 20.3154C149.832 18.8829 147.286 18 144.083 18C139.475 18 135.135 20.2894 135.135 24.7188C135.135 31.4083 145.986 30.8729 145.986 32.2106C145.986 32.6864 145.243 32.9541 144.055 32.9541C142.172 32.9541 138.66 32.5757 135.907 29.7743C135.88 29.7459 135.847 29.7233 135.81 29.7077C135.773 29.6921 135.734 29.684 135.694 29.6837H135.584C135.505 29.6837 135.429 29.7153 135.372 29.7714C135.316 29.8276 135.285 29.9038 135.285 29.9833V37.5497C135.284 37.607 135.3 37.6633 135.329 37.7124C135.359 37.7614 135.402 37.8013 135.453 37.8275C138.345 39.2676 141.389 39.5244 143.547 39.5244C149.136 39.5244 152.946 37.3248 152.946 32.2408C152.945 25.1947 141.616 26.6809 141.616 24.9563Z" fill="white"/>
<path d="M46.7474 39.3548C50.4265 39.3548 51.8549 35.4163 52.6429 32.1543C53.2438 29.6668 53.4738 27.4924 54.0469 27.4924C54.5228 27.4924 54.7905 28.3761 54.7905 29.7902C54.795 30.5817 54.7361 31.3722 54.6143 32.1543C54.313 34.0232 53.5359 36.2002 51.6333 38.4182C51.5749 38.4856 51.5371 38.5683 51.5245 38.6566C51.5119 38.7449 51.525 38.8349 51.5623 38.9159C51.5996 38.9969 51.6595 39.0654 51.7348 39.1131C51.81 39.1609 51.8975 39.186 51.9867 39.1853H59.3718C59.4329 39.1852 59.4925 39.1672 59.5434 39.1335C59.5943 39.0998 59.6341 39.0518 59.658 38.9956C60.3002 37.4327 60.7532 35.7986 61.0075 34.1281C62.7699 23.9735 58.8381 20.2079 58.8381 20.2079C56.3338 17.5299 51.776 17.2102 49.3548 20.2163C48.1959 21.6547 47.4758 24.2135 47.4909 27.9313C47.4548 29.0953 47.1284 29.4629 46.7306 29.462C46.3328 29.4612 46.0072 29.0953 45.9703 27.9313C45.9854 24.2135 45.2653 21.6547 44.1063 20.2163C41.6827 17.2102 37.1248 17.5308 34.6231 20.2079C34.6231 20.2079 30.6922 23.9752 32.4545 34.1281C32.7088 35.7986 33.1618 37.4327 33.804 38.9956C33.8279 39.052 33.8679 39.1 33.9189 39.1337C33.97 39.1674 34.0298 39.1854 34.091 39.1853H41.4762C41.5993 39.1853 41.7173 39.1364 41.8044 39.0494C41.8914 38.9623 41.9403 38.8443 41.9403 38.7212C41.9396 38.61 41.8995 38.5026 41.827 38.4182C39.9245 36.2002 39.1474 34.0232 38.8469 32.1543C38.7244 31.3723 38.6652 30.5817 38.6698 29.7902C38.6698 28.3761 38.9375 27.4924 39.4134 27.4924C39.9866 27.4924 40.2165 29.6668 40.8174 32.1543C41.6038 35.4264 43.0909 39.3548 46.7474 39.3548Z" fill="white"/>
</svg>
