<svg width="185" height="58" viewBox="0 0 185 58" fill="none" xmlns="http://www.w3.org/2000/svg">
<path d="M63.7737 32.0753C63.7737 34.2446 62.5765 35.5723 60.8102 35.5723C59.0439 35.5723 57.7992 34.2446 57.7992 32.0753V24.3701H55.0491V32.0279C55.0491 35.7501 57.1473 38.1684 60.7154 38.1684C64.2835 38.1684 66.512 35.7027 66.512 32.0279V24.3701H63.7856V32.0753H63.7737Z" fill="#F4F4F4"/>
<path d="M71.6686 19.0237H68.9185V37.9074H71.6686V19.0237Z" fill="#F4F4F4"/>
<path d="M100.379 24.382L96.5146 34.3157L92.6383 24.382H89.6985L95.104 37.9194H97.9134L103.307 24.382H100.379Z" fill="#F4F4F4"/>
<path d="M132.99 29.9056L131.378 29.5382C130.394 29.3011 129.896 28.7795 129.896 28.0801C129.896 27.1199 130.809 26.5153 132.03 26.5391C132.788 26.5391 133.535 26.7761 134.27 27.1436C135.183 27.5585 135.942 28.1631 136.25 28.4476V25.6381C135.776 25.2944 134.092 24.1564 131.899 24.1564C128.877 24.1564 127.051 26.136 127.051 28.329C127.051 30.3917 128.533 31.3993 130.489 31.8734L132.053 32.2409C133.429 32.5491 134.116 33.047 134.116 33.9835C134.116 34.9199 133.31 35.809 131.828 35.809C130.892 35.809 129.955 35.5008 129.197 35.0741C128.284 34.5999 127.608 34.0309 127.43 33.8531L127.383 36.7218C127.561 36.8996 129.126 38.1798 131.911 38.1798C135.005 38.1798 136.937 36.0461 136.937 33.8531C136.937 31.9564 135.61 30.4983 133.002 29.9175L132.99 29.9056Z" fill="#F4F4F4"/>
<path d="M88.0627 24.382H85.3125V37.9194H88.0627V24.382Z" fill="#F4F4F4"/>
<path d="M85.6921 19L84.7083 20.707L85.6921 22.4259H87.6718L88.6675 20.707L87.6718 19H85.6921Z" fill="#F4F4F4"/>
<path d="M49.5958 24.3701H49.584L44.1429 33.3437V24.3701H41.0727L35.6435 33.3082V24.3701H33V37.9313H35.6553L41.4876 28.282V37.9313H44.1429L49.9752 28.3294V37.9313H52.6186V24.3701H49.5958Z" fill="#F4F4F4"/>
<path d="M150.048 33.6516L149.384 34.2324C148.803 34.7421 148.187 35.1333 147.57 35.3941C146.966 35.6431 146.231 35.7734 145.365 35.7734C144.595 35.7734 143.884 35.5956 143.208 35.24C142.532 34.8844 142.011 34.3984 141.596 33.7464C141.24 33.1892 141.051 32.5847 141.003 31.8853C141.631 32.075 142.224 32.2291 142.781 32.3595C143.682 32.561 144.63 32.6677 145.579 32.6677C146.527 32.6677 147.381 32.5254 148.199 32.2291C149.064 31.9208 149.775 31.4704 150.32 30.8895C150.913 30.2494 151.21 29.467 151.21 28.5661C151.21 27.7126 150.949 26.9302 150.439 26.2427C149.941 25.5789 149.254 25.0573 148.388 24.6898C147.558 24.3342 146.634 24.1564 145.65 24.1564C144.465 24.1564 143.327 24.4409 142.236 25.0099C141.145 25.5789 140.233 26.4324 139.533 27.5467C138.834 28.661 138.466 30.0005 138.466 31.5297C138.466 32.9047 138.81 34.102 139.486 35.1215C140.161 36.1291 141.051 36.8996 142.129 37.4093C143.184 37.9072 144.334 38.168 145.508 38.168C146.61 38.168 147.618 37.9665 148.495 37.5871C149.337 37.2197 150.155 36.6862 150.937 36.0224L151.53 35.5127L150.036 33.6516H150.048ZM141.311 29.5856C141.489 29.0877 141.738 28.6491 142.058 28.2698C142.532 27.7126 143.089 27.274 143.718 26.9895C144.346 26.705 144.998 26.5509 145.638 26.5509C146.598 26.5509 147.369 26.7524 147.95 27.1673C148.459 27.5348 148.685 27.9734 148.685 28.5661C148.685 28.9099 148.602 29.3485 147.914 29.7278C147.25 30.0953 146.456 30.285 145.567 30.285C144.275 30.285 142.852 30.0479 141.311 29.5856Z" fill="#F4F4F4"/>
<path d="M83.4037 24.3699H79.9305V20.5292H77.1803V24.3699H73.707V26.7526H77.1803V37.9192H79.9305V26.7526H83.4037V24.3699Z" fill="#F4F4F4"/>
<path d="M114.58 32.2172H116.264C116.287 31.8734 116.311 31.506 116.311 31.1503C116.311 27.274 113.608 24.1445 109.945 24.1445C106.282 24.1445 103.343 27.274 103.343 31.1503C103.343 35.0266 106.425 38.1561 110.585 38.1561C113.774 38.1561 115.517 36.6388 115.517 36.6388V33.8531C115.517 33.8531 113.585 35.5719 110.799 35.5719C108.286 35.5719 106.638 34.1732 106.211 32.2054H114.58V32.2172ZM109.945 26.6932C111.961 26.6932 113.193 28.0445 113.549 29.9294H106.211C106.602 28.0445 107.906 26.6932 109.945 26.6932Z" fill="#F4F4F4"/>
<path d="M125.676 24.3583H118.397H118.231V37.8839H120.982V26.741H125.676V24.3583Z" fill="#F4F4F4"/>
</svg>
