<svg width="185" height="58" viewBox="0 0 185 58" fill="none" xmlns="http://www.w3.org/2000/svg">
<path d="M57.2003 40.3241C55.7562 40.5782 54.2866 40.6544 52.7665 40.8574L48.1298 27.2481V41.4415C46.6857 41.5938 45.3682 41.7969 44 42V16H47.8513L53.1211 30.7522V16H57.2003V40.3241ZM65.1813 25.5215C66.7523 25.5215 69.1592 25.4453 70.6033 25.4453V29.5077C68.8044 29.5077 66.7016 29.5077 65.1813 29.5839V35.627C67.563 35.4747 69.9447 35.2714 72.3515 35.1952V39.1051L61.1274 39.994V16H72.3515V20.0625H65.1813V25.5215ZM87.4267 20.0626H83.2209V38.7501C81.8527 38.7501 80.4845 38.7501 79.1672 38.8007V20.0626H74.9614V16H87.4269L87.4267 20.0626ZM94.0141 25.2423H99.5629V29.3047H94.0141V38.5216H90.036V16H101.362V20.0625H94.0141V25.2423ZM107.949 34.9668C110.255 35.0174 112.586 35.1955 114.841 35.3222V39.334C111.218 39.1053 107.595 38.8771 103.895 38.8007V16H107.949V34.9668ZM118.261 39.6133C119.553 39.6896 120.922 39.7658 122.239 39.9179V16H118.261V39.6133ZM140 16L134.857 28.3653L140 42C138.48 41.7969 136.959 41.5176 135.439 41.2636L132.526 33.7482L129.562 40.6544C128.092 40.4003 126.673 40.3241 125.204 40.121L130.423 28.2128L125.71 16H130.068L132.728 22.8301L135.566 16H140Z" fill="white"/>
</svg>
