<svg width="185" height="58" viewBox="0 0 185 58" fill="none" xmlns="http://www.w3.org/2000/svg">
<path d="M59.4863 43.9874C56.9242 43.8844 54.8276 43.1753 53.1881 41.8578C52.8755 41.6066 52.1302 40.8517 51.8799 40.5335C51.215 39.6882 50.7631 38.8652 50.4618 37.9524C49.5341 35.1423 50.0115 31.4549 51.8272 27.408C53.3818 23.9438 55.7808 20.5071 59.9654 15.7483C60.5821 15.0477 62.4182 13 62.4295 13C62.434 13 62.3344 13.1751 62.2081 13.3886C61.1201 15.232 60.1891 17.4034 59.6817 19.2834C58.8667 22.2995 58.9652 24.8881 59.9694 26.8958C60.6625 28.2785 61.8501 29.4764 63.1856 30.1385C65.5239 31.2969 68.9474 31.3931 73.1281 30.419C73.4158 30.3514 87.6788 26.5221 104.823 21.9087C121.968 17.2952 135.998 13.5237 136 13.5265C136.005 13.5305 96.1682 30.7715 75.488 39.7162C72.2129 41.1321 71.3373 41.4898 69.7975 42.037C65.862 43.4346 62.3361 44.1019 59.4863 43.9874Z" fill="white"/>
</svg>
