<svg width="185" height="58" viewBox="0 0 185 58" fill="none" xmlns="http://www.w3.org/2000/svg">
<path d="M151.066 27.3724C150.498 25.807 149.623 24.5178 148.35 23.4896C147.505 22.7989 146.477 22.4153 145.449 22.0469C145.111 22.0162 144.774 21.9855 144.436 21.9548C142.901 21.8014 140.262 21.4791 139.77 21.4944C139.095 21.5098 138.558 21.9548 138.819 22.7989C138.972 23.2747 139.203 23.597 139.51 23.7812C139.203 24.2723 138.957 24.8248 138.742 25.3926C137.622 28.3393 137.453 31.4548 137.361 34.5549C137.315 36.1664 137.699 37.7164 137.99 39.2972C138.082 39.819 138.266 40.3255 138.665 40.6938C138.88 40.8933 139.095 41.1542 139.433 40.7552C139.54 40.6171 140.016 40.6017 140.139 40.7091C140.645 41.1696 141.167 41.2463 141.796 41.0314C142.165 40.9087 142.748 41.0775 142.917 40.7091C143.101 40.3101 143.423 40.2641 143.715 40.0953C144.528 39.6502 145.418 39.2819 146.186 38.7447C147.598 37.7625 148.795 36.504 149.869 35.1535C150.882 33.895 151.634 32.5291 151.649 30.8562C151.649 29.6591 151.48 28.5235 151.066 27.3724ZM147.459 34.1405C145.817 35.7673 144.083 37.2253 141.904 38.1155C141.413 38.315 140.875 38.2843 140.415 38.668C140.062 38.9596 139.955 38.6066 139.924 38.2843C139.709 36.3045 139.648 34.3094 139.924 31.9766C140.001 30.2423 140.277 28.1858 141.014 26.2214C141.627 24.6253 141.95 24.4104 143.638 24.6713C144.436 24.7941 145.219 24.9936 145.955 25.3312C147.905 26.2214 148.733 27.8021 148.933 29.8433C149.102 31.5315 148.687 32.9281 147.459 34.1405Z" fill="white"/>
<path d="M134.506 28.4622C134.337 27.6027 134.061 26.774 133.816 25.9452C133.616 25.27 133.171 24.61 132.695 24.0115C131.79 22.9218 130.777 22.0931 129.273 22.0931C127.938 22.0931 126.71 22.3386 125.559 23.0753C124.086 24.0115 122.858 25.2239 121.446 26.2675C121.415 26.1294 121.461 25.9913 121.507 25.8378C121.722 24.9937 121.86 24.1343 121.845 23.2595C121.83 22.6302 121.599 22.1852 120.832 22.2005C120.832 22.1852 120.847 22.1698 120.847 22.1545C120.678 22.1545 120.51 22.1545 120.341 22.1698C118.607 22.308 116.857 22.3233 115.123 22.5382C113.695 22.7223 112.268 22.9372 110.841 23.106C109.889 23.2134 108.938 23.3669 108.017 23.6432C107.864 23.6892 107.526 23.9041 107.418 23.459C107.219 22.5689 106.958 21.7094 106.759 20.8193C106.513 19.7143 105.592 19.2999 104.748 18.8088C104.61 18.732 104.487 18.7934 104.349 18.8241C102.799 19.2078 101.587 20.19 100.558 21.3104C98.8701 23.1827 97.3046 25.1932 95.9694 27.3572C94.9719 28.9686 93.7134 30.4266 93.0995 32.2529C92.9767 32.6366 92.7158 32.5139 92.4856 32.5139C90.3831 32.4678 88.3112 32.253 86.224 31.992C84.5204 31.7772 82.8169 31.547 81.0366 31.5316C81.6351 30.3192 82.4792 29.4444 83.2619 28.5696C84.7506 26.8968 85.9631 25.0244 87.4364 23.3516C88.0656 22.6302 88.5874 21.7861 89.6617 21.6173C89.9994 21.5559 90.1375 20.896 89.938 20.6044C89.4776 19.9905 88.8944 19.8984 88.1731 20.2821C86.8839 20.942 85.9477 22.0164 85.0576 23.0753C83.2312 25.2853 81.2515 27.3879 79.3637 29.5365C78.4276 30.5955 77.6142 31.7158 77.476 33.1738C77.4607 33.2966 77.3379 33.5114 77.4914 33.5421C78.1206 33.6649 78.4429 34.3402 79.1796 34.3248C81.0826 34.2634 82.9857 34.463 84.8734 34.7392C88.0963 35.2303 91.3192 35.5833 94.5882 35.4298C95.1714 35.3991 95.6932 35.1382 96.0001 34.4323C96.2764 33.7723 96.0155 33.0817 96.4145 32.4218C97.0284 31.4089 97.8265 30.5034 98.3176 29.4137C98.6859 28.6157 99.2691 27.9711 99.8216 27.3111C99.9751 27.127 100.159 27.0195 100.343 27.0195C101.786 26.9889 103.137 26.5438 104.533 26.2829C104.855 26.2215 104.963 26.2982 105.024 26.6512C105.301 28.2627 105.393 29.9202 105.976 31.4702C106.083 31.7465 106.145 32.0688 106.083 32.4064C105.807 33.9258 106.36 34.6471 107.864 34.7545C108.048 34.7699 108.293 35.0001 108.477 34.7239C108.8 34.2634 109.306 33.8644 109.245 33.2659C109.122 31.8386 108.861 30.4266 108.6 29.0147C108.416 27.9864 108.155 26.9735 107.894 25.9606C107.817 25.6997 107.817 25.4848 108.155 25.5002C109.69 25.5616 111.148 25.0704 112.667 25.0091C114.125 24.9477 115.552 24.61 117.041 24.6254C117.839 24.6254 118.622 24.6407 119.466 24.6561C119.42 24.7635 119.374 24.8709 119.313 24.9784C119.359 25.1011 119.267 25.2239 119.205 25.3314C118.745 26.2829 118.576 27.3265 118.284 28.3241C117.839 29.7667 117.578 31.2554 117.241 32.7287C116.995 33.7877 116.734 34.862 116.55 35.9363C116.443 36.6116 116.765 37.2101 117.64 37.1027C118.591 36.9952 118.99 36.5195 119.19 35.5986C119.42 34.555 119.635 33.4807 120.111 32.5292C120.755 31.24 121.569 30.0276 122.551 28.9533C123.426 27.9864 124.377 27.1577 125.298 26.2982C126.05 25.5923 127.063 25.3467 127.83 24.6714C128.183 24.3645 129.396 24.6868 129.779 24.9784C130.654 25.6229 130.623 26.6666 130.946 27.5414C131.069 27.8943 131.437 28.1552 131.329 28.6003C131.084 29.736 131.498 30.8257 131.621 31.9153C131.698 32.6213 131.59 33.3273 131.667 34.0332C131.79 35.1996 131.913 36.366 132.097 37.5324C132.127 37.7166 132.281 37.8547 132.465 37.9161C133.033 38.1309 133.616 38.223 134.199 38.1923C134.43 38.177 134.66 38.0389 134.737 37.8086C134.967 37.1027 135.32 36.3814 135.35 35.6447C135.412 34.5243 135.059 33.4193 135.059 32.2836C135.043 31.0098 134.752 29.736 134.506 28.4622ZM104.364 24.3031C104.103 24.564 103.566 24.5486 103.137 24.6407C102.63 24.7635 102.108 24.8556 101.494 24.9784C102.047 23.8887 102.891 23.1674 103.628 22.3693C103.75 22.2312 103.904 22.0777 104.103 22.1852C104.288 22.2773 104.288 22.4921 104.303 22.6763C104.318 22.8144 104.226 22.9525 104.242 23.0753C104.303 23.505 104.656 24.0115 104.364 24.3031Z" fill="white"/>
<path d="M62.482 21.4176C61.9448 21.4176 61.5305 21.1107 61.1161 20.8804C60.9166 20.773 60.7631 20.7116 60.5943 20.8037C60.1799 21.0339 59.7502 21.2334 59.3972 21.5711C58.6298 22.3231 58.2308 23.2746 57.755 24.1801C56.8342 25.945 56.2971 27.8481 55.9287 29.7972C55.7906 30.5338 55.6064 31.3166 55.7139 32.0379C56.0515 34.2479 57.4328 35.7519 59.3819 36.6574C61.0547 37.4401 62.7429 37.0104 64.3083 36.2123C64.692 36.0128 65.2905 35.89 65.4287 35.537C65.6128 35.0613 65.9351 34.9538 66.2881 34.8157C66.4876 34.739 66.6257 34.6162 66.7332 34.4627C67.6694 33.1122 68.406 31.6849 68.4828 30.2883C68.5595 28.0169 68.053 26.1599 67.1476 24.395C66.1807 22.4766 64.6766 21.4023 62.482 21.4176ZM65.751 30.2423C65.8123 32.4676 64.0321 33.8642 62.1597 34.3246C60.625 34.6929 59.1056 34.0484 58.2615 32.8052C58.0006 32.4216 57.9085 31.9611 57.8778 31.5314C57.7857 29.4749 58.2922 27.5104 59.0442 25.6227C59.1823 25.2851 59.0749 24.8861 59.4739 24.6098C59.8576 24.3643 60.3027 24.2108 60.6864 24.2108C61.6993 24.2261 62.7122 24.3796 63.6791 24.7326C64.0935 24.8861 64.3697 25.1316 64.5846 25.5153C65.2752 26.7584 65.8277 28.9377 65.751 30.2423Z" fill="white"/>
<path d="M52.537 26.866C52.3528 24.1955 52.3375 21.5251 52.2915 18.8547C52.2608 17.7497 52.0306 17.2126 51.1404 17.1512C50.7567 17.1205 50.2503 16.7061 49.928 17.3967C49.7131 17.8878 49.6517 18.3943 49.6364 18.9621C49.5903 22.4153 49.5597 25.853 50.0508 29.2908C50.0815 29.521 50.0661 29.6745 49.8052 29.5978C49.3294 29.4443 48.823 29.3676 48.3472 29.1987C45.9224 28.3853 43.5435 27.2957 41.134 26.3595C41.134 26.3595 38.6324 25.7303 37.3126 25.6689C35.6551 25.6075 34.3506 26.6511 34.059 28.6002C33.7367 30.7948 33.5065 33.0048 33.399 35.2455C33.353 36.105 33.3376 36.9951 33.0767 37.8239C33.046 38.5452 33.0153 39.2819 33 40.0032C33.2609 40.172 33 40.6017 33.3223 40.7859C33.7827 41.0468 34.2431 40.9087 34.4119 40.2487C34.7035 39.1437 34.9184 38.008 35.164 36.8877C35.4556 35.5218 35.5169 34.1098 35.7472 32.7439C35.9467 31.4855 36.2536 30.2884 36.5452 29.076C36.6066 28.8457 36.668 28.6616 36.8828 28.6769C37.6042 28.7383 38.3408 28.6002 39.0161 28.769C39.7988 28.9685 40.5815 29.2601 41.3489 29.5517C41.3489 29.5517 43.6203 30.4726 44.7099 31.0404C45.0629 31.2706 47.8101 32.1147 48.1324 32.2375C48.7616 32.4523 49.3908 32.4063 50.0201 32.7286C50.5419 33.0048 51.1711 32.7132 51.7697 32.4677C52.5984 32.1301 53.0742 30.9944 52.9514 30.2117C52.7672 29.1067 52.6137 28.0017 52.537 26.866Z" fill="white"/>
</svg>
