<svg width="185" height="58" viewBox="0 0 185 58" fill="none" xmlns="http://www.w3.org/2000/svg">
<path d="M60.5581 39.6693L57.2623 36.3746C58.8131 34.41 59.6566 31.9801 59.6566 29.4771C59.6566 26.9741 58.8131 24.5442 57.2623 22.5795L60.557 19.2848C60.6812 19.1603 60.7797 19.0126 60.8468 18.8501C60.9139 18.6875 60.9483 18.5133 60.9481 18.3375C60.9479 18.1616 60.913 17.9876 60.8455 17.8252C60.7781 17.6628 60.6792 17.5153 60.5548 17.3911C60.4303 17.2669 60.2825 17.1684 60.12 17.1013C59.9574 17.0342 59.7833 16.9998 59.6074 17C59.4316 17.0002 59.2575 17.0351 59.0951 17.1025C58.9327 17.17 58.7852 17.2688 58.661 17.3933L55.3618 20.6914C53.3973 19.1543 50.9736 18.3214 48.4793 18.3263C45.9849 18.3312 43.5645 19.1736 41.606 20.7183L38.2832 17.3956C38.0324 17.1447 37.6922 17.0038 37.3375 17.0038C36.9828 17.0038 36.6426 17.1447 36.3917 17.3956C36.1409 17.6464 36 17.9866 36 18.3413C36 18.6961 36.1409 19.0363 36.3917 19.2871L39.7179 22.6143C38.1812 24.5738 37.3461 26.992 37.3461 29.4821C37.3461 31.9723 38.1812 34.3905 39.7179 36.3499L36.3974 39.6772C36.2729 39.8014 36.1742 39.9489 36.1069 40.1113C36.0395 40.2736 36.0048 40.4477 36.0048 40.6235C36.0048 40.7993 36.0395 40.9734 36.1069 41.1357C36.1742 41.2981 36.2729 41.4456 36.3974 41.5698C36.6483 41.8205 36.9884 41.9613 37.3431 41.9613C37.6978 41.9613 38.038 41.8205 38.2889 41.5698L41.6127 38.2437C43.572 39.7882 45.9934 40.6298 48.4883 40.6335C50.9832 40.6372 53.407 39.8027 55.3708 38.2639L58.6689 41.562C58.92 41.8127 59.2603 41.9536 59.6152 41.9536C59.97 41.9536 60.3104 41.8127 60.5615 41.562C60.8118 41.3104 60.952 40.9698 60.9514 40.6149C60.9508 40.2601 60.8093 39.92 60.5581 39.6693ZM48.5008 37.9541C46.7106 37.9556 44.9665 37.387 43.5211 36.3308L47.3479 32.5029L45.4575 30.6114L41.6341 34.436C40.59 32.995 40.0278 31.261 40.0278 29.4816C40.0278 27.7021 40.59 25.9681 41.6341 24.5272L45.4508 28.3439L47.3423 26.4524L43.5211 22.6312C44.9615 21.5792 46.6979 21.0102 48.4816 21.0058C50.2652 21.0013 52.0045 21.5617 53.4501 22.6065L49.5997 26.4546L51.4912 28.3461L55.3461 24.4924C56.4035 25.9393 56.9734 27.685 56.9734 29.4771C56.9734 31.2692 56.4035 33.0149 55.3461 34.4618L51.4935 30.6092L49.6053 32.5007L53.4535 36.3499C52.0131 37.3937 50.2795 37.9552 48.5008 37.9541Z" fill="white"/>
<path d="M48.4616 30.8011C49.1993 30.8011 49.7974 30.203 49.7974 29.4652C49.7974 28.7275 49.1993 28.1294 48.4616 28.1294C47.7238 28.1294 47.1257 28.7275 47.1257 29.4652C47.1257 30.203 47.7238 30.8011 48.4616 30.8011Z" fill="white"/>
<path d="M78.1587 21.0168C76.4922 21.0166 74.863 21.5106 73.4772 22.4363C72.0915 23.362 71.0113 24.6779 70.3734 26.2175C69.7355 27.7571 69.5685 29.4513 69.8935 31.0859C70.2184 32.7204 71.0208 34.2219 72.1992 35.4004C73.3775 36.5789 74.8789 37.3815 76.5134 37.7067C78.1479 38.0319 79.8421 37.8651 81.3818 37.2274C82.9215 36.5897 84.2375 35.5097 85.1634 34.124C86.0893 32.7384 86.5835 31.1093 86.5835 29.4427C86.5835 27.2083 85.6959 25.0653 84.116 23.4851C82.5361 21.905 80.3932 21.0171 78.1587 21.0168ZM78.1587 35.28C77.0042 35.28 75.8756 34.9377 74.9157 34.2963C73.9558 33.6549 73.2076 32.7432 72.7658 31.6766C72.324 30.61 72.2084 29.4363 72.4336 28.3039C72.6588 27.1716 73.2148 26.1315 74.0311 25.3152C74.8475 24.4988 75.8876 23.9429 77.0199 23.7176C78.1522 23.4924 79.3259 23.608 80.3926 24.0498C81.4592 24.4916 82.3708 25.2398 83.0122 26.1997C83.6537 27.1597 83.996 28.2882 83.996 29.4427C83.9942 30.9903 83.3787 32.474 82.2843 33.5684C81.19 34.6627 79.7063 35.2783 78.1587 35.28Z" fill="white"/>
<path d="M110.65 21.1113C110.33 20.9875 109.974 20.9959 109.66 21.1346C109.346 21.2734 109.1 21.531 108.976 21.851L104.911 32.3514H104.476L100.625 21.9206C100.593 21.8258 100.55 21.735 100.497 21.6501C100.498 21.6471 100.498 21.6441 100.497 21.6411C100.477 21.6082 100.455 21.5763 100.431 21.5457C100.429 21.5415 100.426 21.5377 100.422 21.5345C100.4 21.5048 100.376 21.4763 100.35 21.4492L100.34 21.4379C100.314 21.411 100.287 21.3852 100.259 21.3605L100.25 21.3526C100.221 21.3279 100.192 21.3044 100.162 21.283L100.151 21.2752C100.121 21.2534 100.09 21.2335 100.059 21.2157L100.042 21.2067C100.012 21.1888 99.9812 21.1727 99.9496 21.1584L99.9227 21.1461C99.8991 21.136 99.8767 21.1259 99.852 21.1169H99.834L99.7992 21.1057C99.77 21.0967 99.7419 21.0866 99.7139 21.0798L99.678 21.0731C99.6488 21.0664 99.6196 21.0596 99.5904 21.0551H99.5477C99.5208 21.0551 99.4927 21.0484 99.4658 21.0473H99.3412C99.3109 21.0473 99.2817 21.0473 99.2514 21.0551H99.2177C99.1863 21.0551 99.156 21.0664 99.1257 21.0731L99.0942 21.0798L99.0067 21.1057L98.973 21.1169H98.955C98.9303 21.1259 98.9079 21.136 98.8843 21.1461L98.8574 21.1584C98.8259 21.173 98.7956 21.1887 98.7653 21.2056L98.7474 21.2157C98.7159 21.2336 98.6867 21.2538 98.6564 21.274L98.6441 21.283C98.6138 21.3055 98.5857 21.3279 98.5577 21.3515L98.5464 21.3616L98.4678 21.4368L98.4555 21.4503C98.4308 21.4761 98.4083 21.5042 98.3859 21.5322L98.3747 21.5468C98.3511 21.5771 98.3309 21.6074 98.3107 21.6389C98.3083 21.6428 98.3057 21.6465 98.3028 21.6501C98.2502 21.7351 98.2076 21.8258 98.176 21.9206L94.3279 32.3514H93.8912L89.8208 21.851C89.6817 21.5539 89.435 21.3206 89.1304 21.1985C88.8259 21.0763 88.4864 21.0744 88.1805 21.193C87.8746 21.3117 87.6252 21.5421 87.4827 21.8376C87.3402 22.1331 87.3153 22.4718 87.4129 22.785L92.9033 36.9685C92.9816 37.2282 93.1394 37.4566 93.3546 37.6217C93.5698 37.7867 93.8314 37.8799 94.1025 37.8881C94.3736 37.8963 94.6403 37.819 94.8651 37.6673C95.0899 37.5156 95.2612 37.297 95.355 37.0426L99.4029 26.0707L103.452 37.0426C103.546 37.297 103.717 37.5156 103.942 37.6673C104.167 37.819 104.433 37.8963 104.704 37.8881C104.976 37.8799 105.237 37.7867 105.452 37.6217C105.668 37.4566 105.825 37.2282 105.904 36.9685L111.388 22.785C111.512 22.4651 111.504 22.1091 111.366 21.7953C111.227 21.4814 110.97 21.2354 110.65 21.1113Z" fill="white"/>
<path d="M125.027 23.2317C125.267 22.987 125.4 22.6568 125.397 22.3137C125.394 21.9707 125.255 21.6429 125.01 21.4025C124.766 21.1621 124.435 21.0287 124.092 21.0318C123.749 21.0348 123.421 21.174 123.181 21.4188L115.974 28.7547C115.944 28.7861 115.916 28.8175 115.889 28.8512V22.3112C115.902 22.1338 115.878 21.9557 115.819 21.788C115.76 21.6202 115.667 21.4665 115.546 21.3363C115.425 21.2061 115.278 21.1022 115.115 21.0312C114.952 20.9602 114.776 20.9236 114.598 20.9236C114.42 20.9236 114.244 20.9602 114.081 21.0312C113.918 21.1022 113.772 21.2061 113.65 21.3363C113.529 21.4665 113.436 21.6202 113.377 21.788C113.318 21.9557 113.294 22.1338 113.307 22.3112V36.5677C113.294 36.745 113.318 36.9231 113.377 37.0909C113.436 37.2586 113.529 37.4124 113.65 37.5426C113.772 37.6728 113.918 37.7766 114.081 37.8476C114.244 37.9186 114.42 37.9553 114.598 37.9553C114.776 37.9553 114.952 37.9186 115.115 37.8476C115.278 37.7766 115.425 37.6728 115.546 37.5426C115.667 37.4124 115.76 37.2586 115.819 37.0909C115.878 36.9231 115.902 36.745 115.889 36.5677V31.1794H118.304L123.049 37.3602C123.148 37.5043 123.276 37.6267 123.425 37.7199C123.573 37.8132 123.739 37.8753 123.912 37.9026C124.085 37.9298 124.262 37.9216 124.432 37.8785C124.601 37.8354 124.761 37.7583 124.9 37.6518C125.039 37.5453 125.155 37.4116 125.241 37.2589C125.327 37.1062 125.381 36.9377 125.4 36.7634C125.419 36.5892 125.402 36.413 125.351 36.2454C125.3 36.0779 125.215 35.9224 125.102 35.7886L121.427 30.9874L119.722 28.6368L125.027 23.2317Z" fill="white"/>
<path d="M148.255 22.3112C148.268 22.1338 148.244 21.9557 148.185 21.788C148.126 21.6202 148.033 21.4665 147.912 21.3363C147.791 21.2061 147.644 21.1022 147.481 21.0312C147.318 20.9602 147.142 20.9236 146.965 20.9236C146.787 20.9236 146.611 20.9602 146.448 21.0312C146.285 21.1022 146.138 21.2061 146.017 21.3363C145.896 21.4665 145.803 21.6202 145.744 21.788C145.685 21.9557 145.661 22.1338 145.674 22.3112V32.3513H145.213L136.406 21.4917C136.386 21.4671 136.365 21.4435 136.343 21.421L136.319 21.3952C136.305 21.3806 136.29 21.3683 136.274 21.3548C136.239 21.3201 136.202 21.2878 136.162 21.2582L136.132 21.2358C136.111 21.2212 136.089 21.2088 136.067 21.1965C136.044 21.1842 136.039 21.1785 136.023 21.1707C136.007 21.1628 135.987 21.1527 135.968 21.1437C135.949 21.1348 135.929 21.1235 135.909 21.1157L135.866 21.1C135.84 21.0899 135.815 21.0809 135.788 21.073L135.758 21.064C135.71 21.0517 135.662 21.0405 135.612 21.0326C135.589 21.0326 135.567 21.0247 135.544 21.0225H135.514C135.481 21.0208 135.447 21.0208 135.413 21.0225H135.379C135.347 21.0225 135.316 21.0225 135.285 21.0225L135.238 21.0281C135.213 21.0281 135.186 21.0349 135.16 21.0405L135.107 21.0528L135.036 21.0708L134.982 21.0899C134.961 21.0977 134.939 21.1045 134.917 21.1134L134.862 21.1381L134.803 21.1673C134.783 21.1778 134.763 21.1894 134.744 21.2021C134.727 21.2111 134.711 21.2213 134.695 21.2324C134.672 21.2472 134.649 21.2633 134.628 21.2807L134.595 21.3043C134.572 21.3233 134.549 21.3447 134.527 21.366C134.464 21.4248 134.407 21.4898 134.357 21.5602C134.352 21.5681 134.345 21.5759 134.34 21.5838C134.336 21.5916 134.311 21.6298 134.298 21.6534L134.274 21.6927C134.264 21.7118 134.255 21.7308 134.246 21.751C134.237 21.7712 134.227 21.7881 134.219 21.8083L134.203 21.8521C134.193 21.8768 134.184 21.9015 134.176 21.9273C134.173 21.9372 134.171 21.9474 134.169 21.9576C134.151 22.0201 134.138 22.0839 134.13 22.1484C134.13 22.1563 134.13 22.1641 134.13 22.172C134.13 22.1799 134.13 22.1956 134.13 22.2068C134.13 22.2382 134.13 22.2697 134.13 22.3022V36.5587C134.13 36.9019 134.267 37.2312 134.509 37.4739C134.752 37.7166 135.081 37.853 135.425 37.853C135.768 37.853 136.097 37.7166 136.34 37.4739C136.583 37.2312 136.719 36.9019 136.719 36.5587V26.5331H137.183L145.98 37.3826C146.009 37.4182 146.04 37.4523 146.072 37.4848L146.107 37.5162C146.128 37.5364 146.151 37.5555 146.174 37.5746C146.198 37.5937 146.206 37.5982 146.221 37.6094C146.237 37.6206 146.263 37.6397 146.284 37.6532L146.335 37.6846L146.404 37.7216L146.454 37.7452C146.481 37.7576 146.508 37.7677 146.536 37.7778L146.578 37.7935C146.61 37.8036 146.642 37.8126 146.675 37.8204L146.709 37.8294C146.746 37.8373 146.784 37.8429 146.821 37.8474C146.828 37.848 146.836 37.848 146.843 37.8474C146.889 37.8528 146.934 37.8554 146.98 37.8552C147.021 37.8552 147.061 37.853 147.102 37.8485H147.14C147.167 37.8485 147.194 37.8418 147.22 37.8361L147.265 37.8272L147.337 37.8081C147.353 37.8081 147.368 37.8002 147.382 37.7946L147.454 37.7688L147.493 37.7531C147.519 37.7418 147.544 37.7295 147.57 37.716L147.601 37.7003C147.636 37.6815 147.669 37.6609 147.702 37.6386L147.712 37.6318C147.74 37.6128 147.768 37.5925 147.794 37.5712C147.818 37.5521 147.84 37.5308 147.863 37.5095C147.926 37.4507 147.982 37.3856 148.032 37.3153L148.05 37.2917C148.065 37.2693 148.078 37.2457 148.092 37.2221C148.1 37.2094 148.108 37.1963 148.115 37.1828C148.125 37.1637 148.134 37.1446 148.143 37.1244C148.152 37.1042 148.162 37.0874 148.17 37.0672C148.178 37.047 148.181 37.038 148.187 37.0234C148.193 37.0088 148.206 36.974 148.213 36.9482C148.22 36.9224 148.213 36.928 148.222 36.9168C148.239 36.8542 148.252 36.7904 148.26 36.7259C148.26 36.7185 148.26 36.711 148.26 36.7035C148.26 36.6923 148.26 36.6799 148.26 36.6687C148.26 36.6373 148.26 36.6058 148.26 36.5733V22.3112H148.255Z" fill="white"/>
<path d="M129.233 21.0168C129.063 21.0167 128.894 21.0501 128.737 21.115C128.58 21.18 128.437 21.2753 128.317 21.3955C128.196 21.5157 128.101 21.6585 128.036 21.8156C127.971 21.9727 127.937 22.1411 127.937 22.3112V36.5676C127.924 36.745 127.948 36.9231 128.007 37.0908C128.066 37.2586 128.159 37.4123 128.281 37.5425C128.402 37.6727 128.548 37.7766 128.711 37.8476C128.874 37.9186 129.05 37.9552 129.228 37.9552C129.406 37.9552 129.582 37.9186 129.745 37.8476C129.908 37.7766 130.055 37.6727 130.176 37.5425C130.297 37.4123 130.39 37.2586 130.449 37.0908C130.508 36.9231 130.532 36.745 130.519 36.5676V22.3112C130.519 21.9692 130.384 21.6412 130.143 21.3987C129.902 21.1562 129.575 21.0189 129.233 21.0168Z" fill="white"/>
</svg>
