<svg width="185" height="58" viewBox="0 0 185 58" fill="none" xmlns="http://www.w3.org/2000/svg">
<path d="M137.913 14.8585V26.7259H133.818V14.8585H128.731V43.3715H133.818V31.5088H137.913V43.3715H143V14.8585H137.913Z" fill="white"/>
<path d="M46.5525 14.8585H41V43.3715H46.087V32.572C51.901 32.5108 54.9861 29.5322 54.9861 23.7162C54.9861 20.5332 53.9512 14.8595 46.5525 14.8595V14.8585ZM46.4301 27.7891H46.087V19.6424H46.8159C49.0163 19.6424 49.9482 20.8214 49.9482 23.8433C49.9482 25.7964 49.67 27.7891 46.4301 27.7891Z" fill="white"/>
<path d="M101.21 43.3715H112.485V38.5885H106.297V31.5069H110.658V26.7334H106.297V19.6424H112.485V14.8585H101.21V43.3715Z" fill="white"/>
<path d="M85.499 19.6612H90.1363L90.1419 43.3715H95.215V19.6612H99.8578V14.8585H85.499V19.6612Z" fill="white"/>
<path d="M57.5528 14.8585L54.4807 43.3715H59.564L60.2159 37.0206H63.9408L64.5926 43.3715H69.6759L66.6048 14.8585H57.5528ZM60.75 32.2367L61.7728 20.2357H62.3848L63.4076 32.2367H60.75Z" fill="white"/>
<path d="M80.8255 31.0926C83.5962 29.9334 85.039 27.5047 85.039 23.5279C85.039 20.3449 84.0042 14.8595 76.6055 14.8595H71.053V43.3715H76.14V33.4346C79.1471 34.7398 80.6113 38.8249 80.6113 43.3715H85.6455C85.6455 39.0613 84.2611 33.4422 80.8264 31.0926H80.8255ZM76.14 19.6424H76.8688C79.0693 19.6424 80.0012 21.1039 80.0012 24.1259C80.0012 26.079 79.723 28.3541 76.4831 28.3541L76.14 28.307V19.6424Z" fill="white"/>
<path d="M127.228 27.032C127.228 23.9978 128.091 14.5704 120.609 14.5704C113.518 14.5704 113.183 22.105 113.183 29.115C113.183 36.1251 113.518 43.6596 120.609 43.6596C128.091 43.6596 127.228 34.2322 127.228 31.1981H122.299C122.299 34.2539 122.579 39.0387 120.419 39.0387C118.259 39.0387 118.473 34.4432 118.473 29.115C118.473 23.7868 118.368 19.1913 120.419 19.1913C122.579 19.1913 122.299 23.9771 122.299 27.032H127.228Z" fill="white"/>
</svg>
