<svg width="185" height="58" viewBox="0 0 185 58" fill="none" xmlns="http://www.w3.org/2000/svg">
<path fill-rule="evenodd" clip-rule="evenodd" d="M51.0502 22.3979C50.8804 22.5406 50.7683 22.7383 50.7342 22.9552L49.4853 30.7248L48.3242 37.9602H43.6997C43.6068 37.9601 43.5149 37.9402 43.4305 37.9019C43.3462 37.8636 43.2712 37.8078 43.2109 37.7383C43.1506 37.6688 43.1063 37.5873 43.0811 37.4995C43.0559 37.4116 43.0503 37.3194 43.0649 37.2292L46.1848 17.8053C46.2663 17.2931 46.7159 16.9167 47.2429 16.9167H54.7334C57.3136 16.9167 59.33 17.4516 60.4472 18.701C61.4605 19.8359 61.7568 21.0893 61.4629 22.9301C61.213 22.8007 60.9423 22.6885 60.6508 22.5936C60.2645 22.4712 59.8691 22.3787 59.4681 22.3168C58.8756 22.2226 58.2264 22.1779 57.5308 22.1779H51.6598C51.4363 22.1773 51.22 22.2553 51.0502 22.3979ZM118.914 22.2097H113.452C113.271 22.2098 113.096 22.2732 112.959 22.3885C112.822 22.5038 112.731 22.6634 112.703 22.8387L110.494 36.5935C110.483 36.6572 110.487 36.7223 110.505 36.7844C110.523 36.8465 110.554 36.9041 110.597 36.9531C110.64 37.0022 110.693 37.0416 110.752 37.0686C110.812 37.0956 110.877 37.1096 110.943 37.1096H113.746C113.872 37.1094 113.994 37.0649 114.09 36.9841C114.186 36.9033 114.25 36.7915 114.269 36.6688L114.896 32.7699C114.924 32.5945 115.015 32.4346 115.152 32.3191C115.29 32.2037 115.465 32.1402 115.645 32.1401H117.373C120.972 32.1401 123.047 30.4302 123.59 27.0419C123.835 25.5595 123.6 24.3948 122.893 23.5791C122.118 22.6834 120.742 22.2097 118.914 22.2097ZM119.544 27.2333C119.246 29.158 117.749 29.158 116.3 29.158H115.477L116.056 25.5635C116.072 25.4583 116.127 25.3624 116.209 25.2932C116.291 25.224 116.396 25.1861 116.505 25.1862H116.882C117.868 25.1862 118.799 25.1862 119.28 25.7384C119.566 26.0678 119.653 26.5572 119.544 27.2333ZM135.238 27.1713H132.624C132.516 27.1711 132.411 27.209 132.329 27.2782C132.246 27.3474 132.192 27.4434 132.176 27.5486L132.06 28.267L131.876 28.0067C131.31 27.1996 130.048 26.9298 128.788 26.9298C125.898 26.9298 123.43 29.0796 122.95 32.0954C122.701 33.5997 123.054 35.0382 123.923 36.0413C124.722 36.9637 125.861 37.348 127.217 37.348C129.546 37.348 130.837 35.8774 130.837 35.8774L130.721 36.5911C130.71 36.6551 130.714 36.7205 130.732 36.7828C130.75 36.8451 130.781 36.9029 130.824 36.9522C130.867 37.0014 130.92 37.0409 130.98 37.0679C131.04 37.095 131.105 37.1089 131.171 37.1088H133.526C133.707 37.1087 133.881 37.0452 134.019 36.9297C134.156 36.8142 134.247 36.6544 134.275 36.479L135.689 27.6874C135.699 27.6236 135.695 27.5583 135.677 27.4962C135.659 27.434 135.627 27.3765 135.584 27.3274C135.542 27.2784 135.488 27.2391 135.429 27.2121C135.369 27.1852 135.304 27.1713 135.238 27.1713ZM131.593 32.1707C131.342 33.6381 130.154 34.6232 128.642 34.6232C127.884 34.6232 127.276 34.384 126.886 33.9307C126.499 33.4805 126.354 32.8397 126.475 32.1259C126.713 30.671 127.917 29.6537 129.406 29.6537C130.149 29.6537 130.752 29.8961 131.15 30.3534C131.55 30.8153 131.708 31.4601 131.593 32.1707ZM138.321 22.5869L136.08 36.5935C136.069 36.6572 136.073 36.7223 136.091 36.7844C136.109 36.8465 136.14 36.9041 136.183 36.9531C136.226 37.0022 136.279 37.0416 136.338 37.0686C136.398 37.0956 136.463 37.1096 136.528 37.1096H138.782C139.157 37.1096 139.474 36.8429 139.532 36.4798L141.742 22.7258C141.753 22.662 141.749 22.5968 141.731 22.5347C141.713 22.4726 141.682 22.415 141.639 22.3659C141.596 22.3168 141.543 22.2773 141.484 22.2502C141.424 22.2231 141.359 22.209 141.294 22.2089H138.77C138.662 22.2093 138.557 22.2475 138.475 22.3168C138.393 22.3861 138.338 22.4818 138.321 22.5869ZM79.9593 22.21H74.4979C74.3171 22.2099 74.1422 22.2732 74.0048 22.3885C73.8673 22.5038 73.7763 22.6636 73.7481 22.839L71.5393 36.5938C71.5291 36.6576 71.5332 36.7228 71.5511 36.785C71.5691 36.8471 71.6006 36.9047 71.6434 36.9538C71.6862 37.0028 71.7393 37.0422 71.7991 37.0691C71.8589 37.0961 71.9239 37.11 71.9897 37.1099H74.597C74.7779 37.11 74.9529 37.0465 75.0904 36.9311C75.2279 36.8156 75.3188 36.6556 75.3468 36.4801L75.9425 32.7702C75.9705 32.5948 76.0613 32.4349 76.1987 32.3195C76.336 32.204 76.5108 32.1405 76.6916 32.1404H78.4205C82.018 32.1404 84.0943 30.4305 84.6365 27.0422C84.8808 25.5599 84.6469 24.3951 83.9401 23.5794C83.1639 22.6837 81.7872 22.21 79.9593 22.21ZM80.5894 27.2336C80.2907 29.1584 78.7934 29.1584 77.3456 29.1584H76.5215L77.0997 25.5638C77.1166 25.4586 77.1712 25.3628 77.2536 25.2937C77.336 25.2245 77.4408 25.1865 77.5492 25.1865H77.927C78.9132 25.1865 79.8435 25.1865 80.3242 25.7387C80.6109 26.0681 80.6988 26.5575 80.5894 27.2336ZM96.2843 27.1716H93.669C93.5606 27.1717 93.4558 27.2097 93.3733 27.2788C93.2909 27.348 93.2363 27.4437 93.2194 27.5489L93.1036 28.2674L92.9208 28.007C92.3546 27.1999 91.0921 26.9301 89.8319 26.9301C86.9419 26.9301 84.4736 29.0799 83.9928 32.0957C83.7429 33.6 84.0982 35.0385 84.9671 36.0416C85.764 36.964 86.9044 37.3483 88.2612 37.3483C90.5898 37.3483 91.881 35.8777 91.881 35.8777L91.7644 36.5914C91.7541 36.6552 91.7579 36.7205 91.7756 36.7827C91.7934 36.845 91.8247 36.9027 91.8674 36.9519C91.91 37.0011 91.963 37.0406 92.0227 37.0677C92.0824 37.0949 92.1474 37.109 92.2132 37.1091H94.569C94.7499 37.1092 94.9249 37.0458 95.0624 36.9303C95.1999 36.8148 95.2908 36.6548 95.3188 36.4793L96.7323 27.6877C96.7427 27.6241 96.7389 27.5589 96.7212 27.4968C96.7034 27.4348 96.6722 27.3772 96.6296 27.3281C96.587 27.279 96.5341 27.2396 96.4745 27.2126C96.4148 27.1856 96.35 27.1716 96.2843 27.1716ZM92.6389 32.171C92.3865 33.6384 91.2007 34.6236 89.6882 34.6236C88.9287 34.6236 88.3218 34.3843 87.9321 33.931C87.5456 33.4808 87.3987 32.84 87.5217 32.1263C87.7573 30.6713 88.9631 29.654 90.4524 29.654C91.1951 29.654 91.7988 29.8964 92.1965 30.3537C92.5949 30.8156 92.7531 31.4604 92.6389 32.171ZM110.213 27.1716H107.585C107.461 27.1718 107.339 27.2017 107.229 27.2587C107.12 27.3157 107.026 27.3981 106.956 27.4987L103.332 32.7427L101.795 27.7034C101.748 27.5497 101.652 27.415 101.521 27.3193C101.389 27.2235 101.23 27.1717 101.067 27.1716H98.4843C98.4118 27.1715 98.3404 27.1883 98.2758 27.2207C98.2113 27.2531 98.1556 27.3002 98.1133 27.3581C98.071 27.4159 98.0435 27.4829 98.0328 27.5533C98.0222 27.6237 98.0289 27.6956 98.0523 27.763L100.947 36.1067L98.2256 39.8801C98.1772 39.947 98.1485 40.0257 98.1427 40.1076C98.1368 40.1894 98.154 40.2713 98.1924 40.3442C98.2307 40.4171 98.2887 40.4782 98.3601 40.5209C98.4315 40.5635 98.5134 40.5861 98.5969 40.586H101.222C101.344 40.5862 101.465 40.5572 101.574 40.5014C101.682 40.4457 101.776 40.3649 101.845 40.266L110.587 27.8736C110.634 27.8066 110.662 27.7281 110.667 27.6466C110.672 27.5652 110.654 27.4839 110.616 27.4116C110.577 27.3392 110.52 27.2786 110.448 27.2364C110.377 27.1941 110.296 27.1717 110.213 27.1716Z" fill="white"/>
</svg>
