<svg width="185" height="58" viewBox="0 0 185 58" fill="none" xmlns="http://www.w3.org/2000/svg">
<path d="M64.2827 27.4514C64.2816 28.4757 63.8766 29.458 63.156 30.1841C62.7993 30.5445 62.3745 30.83 61.9065 31.0239C61.4385 31.2178 60.9366 31.3163 60.4302 31.3136H54.2426V23.571H60.4529C60.959 23.5674 61.4608 23.6651 61.9288 23.8583C62.3969 24.0514 62.8218 24.3362 63.1787 24.696C63.8923 25.4396 64.2954 26.4287 64.3054 27.4605L64.2827 27.4514ZM69.7343 27.5061C69.7196 25.066 68.7564 22.7279 67.0493 20.9886C66.2179 20.1429 65.228 19.4703 64.1366 19.0091C63.0451 18.548 61.8735 18.3075 60.6891 18.3014H49V44.4351H54.2426V36.6925H60.6891C61.8722 36.6912 63.0433 36.4551 64.1349 35.9978C65.2265 35.5405 66.2171 34.8711 67.0493 34.0281C68.7354 32.2757 69.6852 29.9408 69.7025 27.5061H69.7343ZM89.4009 44.4078H108.323V39.1246H94.6026V36.2279C97.1728 35.4496 99.62 34.3103 101.871 32.8439L104.093 31.4503L101.308 26.9413L99.0866 28.3395C97.6679 29.2564 96.1612 30.0285 94.589 30.6441V23.5892H108.295V18.2787H89.36V31.7736C87.2608 31.8666 85.1766 31.3781 83.336 30.3617C80.3649 28.6675 76.8077 24.7506 76.8077 15.6553V13H71.5605V15.6553C71.5605 24.8872 74.7406 31.5687 80.7692 35.0028C83.2354 36.3969 86.0246 37.1149 88.8558 37.0842H89.3646L89.4009 44.4078ZM130.833 31.3956C130.839 32.5164 130.668 33.631 130.324 34.6976C130.019 35.66 129.528 36.5529 128.88 37.3256C128.256 38.0572 127.481 38.6432 126.608 39.0426C125.661 39.4514 124.641 39.6622 123.61 39.6622C122.579 39.6622 121.558 39.4514 120.611 39.0426C119.737 38.6449 118.962 38.0586 118.34 37.3256C117.688 36.5552 117.197 35.6616 116.895 34.6976C116.223 32.5401 116.223 30.2284 116.895 28.0708C117.206 27.1027 117.696 26.202 118.34 25.4156C118.959 24.6725 119.735 24.0767 120.611 23.6712C121.558 23.2624 122.579 23.0516 123.61 23.0516C124.641 23.0516 125.661 23.2624 126.608 23.6712C127.488 24.0712 128.265 24.6679 128.88 25.4156C129.525 26.2005 130.015 27.1017 130.324 28.0708C130.659 29.1467 130.825 30.2685 130.815 31.3956H130.833ZM135.998 31.3956C136.024 29.5531 135.733 27.7198 135.14 25.9758C134.604 24.3851 133.758 22.9173 132.65 21.6581C131.573 20.4322 130.239 19.4602 128.743 18.8115C125.452 17.4511 121.758 17.4511 118.467 18.8115C116.969 19.4704 115.628 20.4407 114.533 21.6581C113.432 22.9225 112.587 24.3888 112.043 25.9758C110.894 29.5065 110.894 33.3121 112.043 36.8428C112.575 38.4365 113.422 39.9065 114.533 41.165C115.629 42.3743 116.97 43.3341 118.467 43.9797C121.758 45.3401 125.452 45.3401 128.743 43.9797C130.229 43.3277 131.56 42.3685 132.65 41.165C133.759 39.9048 134.605 38.4353 135.14 36.8428C135.707 35.0767 135.997 33.2328 135.998 31.3774" fill="white"/>
</svg>
