<svg width="185" height="58" viewBox="0 0 185 58" fill="none" xmlns="http://www.w3.org/2000/svg">
<path d="M41.29 22.0266C43.6777 22.0266 45.6133 20.9013 45.6133 19.5133C45.6133 18.1252 43.6777 17 41.29 17C38.9024 17 36.9668 18.1252 36.9668 19.5133C36.9668 20.9013 38.9024 22.0266 41.29 22.0266Z" fill="white"/>
<path d="M51.6686 30.0008C50.4272 29.2715 48.5086 30.4348 47.3453 32.488C46.156 34.5412 46.1039 36.7853 47.3453 37.4885C48.5868 38.2178 50.4793 37.0545 51.6686 34.9753C52.8579 32.9481 52.91 30.704 51.6686 30.0008Z" fill="white"/>
<path d="M41.29 41.0002C43.6777 41.0002 45.6133 39.875 45.6133 38.4869C45.6133 37.0989 43.6777 35.9736 41.29 35.9736C38.9024 35.9736 36.9668 37.0989 36.9668 38.4869C36.9668 39.875 38.9024 41.0002 41.29 41.0002Z" fill="white"/>
<path d="M30.9116 30.0008C29.6702 30.704 29.7223 32.9481 30.9116 34.9753C32.101 37.0545 33.9935 38.2178 35.2349 37.4885C36.4763 36.7853 36.4242 34.5412 35.2349 32.488C34.0716 30.4348 32.153 29.2715 30.9116 30.0008Z" fill="white"/>
<path d="M35.2349 20.5117C33.9935 19.7825 32.101 20.9458 30.9116 22.999C29.7223 25.0522 29.6702 27.2963 30.9116 27.9995C32.153 28.7288 34.0716 27.5655 35.2349 25.4862C36.4242 23.4591 36.4763 21.2149 35.2349 20.5117Z" fill="white"/>
<path d="M153.747 34.1068C153.287 34.1068 152.992 34.3759 152.423 34.9966C151.425 36.0254 150.8 36.5897 150.019 36.5897C149.315 36.5897 148.938 36.021 148.938 35.1051C148.938 34.5929 149.046 33.9679 149.181 33.295L150.179 28.594H153.179C154.125 28.594 154.693 28.0514 154.693 27.0791C154.693 26.5365 154.342 26.1328 153.53 26.1328H150.717L151.204 23.9451C151.256 23.6195 151.312 23.3243 151.312 23.0552C151.312 22.2999 150.8 21.7573 149.962 21.7573C149.072 21.7573 148.664 22.352 148.478 23.2722L147.857 26.1371H146.585C145.613 26.1371 145.044 26.6797 145.044 27.6521C145.044 28.1947 145.422 28.5983 146.234 28.5983H147.34L146.342 33.2473C146.234 33.7595 146.099 34.5973 146.099 35.4654C146.099 37.6531 147.232 39.2505 149.667 39.2505C151.073 39.2505 152.315 38.5473 153.261 37.7096C154.181 36.8979 154.854 35.8995 154.854 35.2484C154.854 34.5973 154.368 34.1111 153.747 34.1111V34.1068Z" fill="white"/>
<path d="M139.827 25.8637C135.503 25.8637 132.556 30.161 132.556 34.2413C132.556 34.3151 132.56 34.3889 132.565 34.4627C131.888 35.4958 131.015 36.5679 130.421 36.5679C129.986 36.5679 129.826 36.1643 129.826 35.5392C129.826 34.7839 130.043 33.5121 130.286 32.4052L132.53 22.0264C132.582 21.7009 132.639 21.4318 132.639 21.1626C132.639 20.377 132.126 19.8647 131.289 19.8647C130.368 19.8647 129.991 20.4594 129.804 21.3797L128.589 27.0009C127.942 26.3238 126.996 25.8637 125.563 25.8637C122.746 25.8637 119.921 27.995 118.753 31.2722C117.486 34.5929 116.348 36.5636 115.458 36.5636C115.133 36.5636 114.946 36.2945 114.946 35.8344C114.946 34.4844 115.702 31.1854 116.027 29.5924C116.136 28.9977 116.188 28.7546 116.188 28.403C116.188 27.2136 114.213 25.8072 111.647 25.8072C108.691 25.8072 106.018 27.6738 104.659 30.4475C102.649 34.0026 100.8 36.5636 99.8887 36.5636C99.485 36.5636 99.3461 36.0514 99.2419 35.5652L98.5648 31.8365L102.701 28.4594C103.079 28.1339 103.565 27.6738 103.565 27.0791C103.565 26.3498 103.079 25.8637 102.35 25.8637C101.807 25.8637 101.351 26.1892 100.891 26.5669L94.6756 31.702L96.7547 22.0264C96.8068 21.7009 96.8893 21.4318 96.8893 21.1626C96.8893 20.377 96.3467 19.8647 95.509 19.8647C94.6192 19.8647 94.2111 20.4594 94.0245 21.3797L90.6475 37.0802C90.565 37.4057 90.5129 37.6748 90.5129 37.944C90.5129 38.7296 91.0555 39.2418 91.8629 39.2418C92.7831 39.2418 93.1868 38.6472 93.3777 37.7269L93.8118 35.6998L96.3511 33.6466L96.9718 36.7806C97.2148 38.0221 97.8616 39.2418 99.5414 39.2418C101.221 39.2418 102.519 37.7182 103.834 35.6564C104.234 37.8137 105.762 39.2418 107.893 39.2418C110.024 39.2418 111.487 37.97 112.433 36.2684V36.3205C112.433 38.0785 113.323 39.2375 114.894 39.2375C116.314 39.2375 117.49 38.3737 118.54 36.5549C119.135 38.1436 120.468 39.2375 122.325 39.2375C124.513 39.2375 126.08 37.9136 127.083 36.0774V36.238C127.083 38.1827 128.055 39.2375 129.652 39.2375C131.059 39.2375 132.257 38.4171 133.277 37.0888C134.054 38.4214 135.447 39.2375 137.326 39.2375C141.65 39.2375 144.597 34.9402 144.597 30.8338C144.597 27.9429 142.839 25.8593 139.84 25.8593L139.827 25.8637ZM112.88 31.3504C112.094 34.7275 110.419 36.6461 108.531 36.6461C107.259 36.6461 106.556 35.6738 106.556 34.2153C106.556 31.3504 108.635 28.2684 111.422 28.2684C112.259 28.2684 112.906 28.5115 113.475 28.8631L112.88 31.3504ZM127.933 29.9179C127.07 33.8897 125.095 36.6461 122.933 36.6461C121.744 36.6461 121.04 35.7258 121.04 34.2153C121.04 31.3243 123.041 28.3249 125.715 28.3249C126.744 28.3249 127.525 28.6765 128.094 29.1366L127.933 29.9223V29.9179ZM137.635 36.6461C136.068 36.6461 135.417 35.5088 135.417 34.0807C135.417 31.4589 137.227 28.4594 139.497 28.4594C141.064 28.4594 141.715 29.5967 141.715 31.0292C141.715 33.677 139.905 36.6504 137.635 36.6504V36.6461Z" fill="white"/>
<path d="M91.5849 21.1626C91.5849 20.377 91.0423 19.8647 90.2045 19.8647C89.3147 19.8647 88.9067 20.4594 88.7201 21.3797L85.3431 37.0802C85.2606 37.4057 85.2085 37.6748 85.2085 37.944C85.2085 38.7296 85.7511 39.2418 86.5584 39.2418C87.4786 39.2418 87.8823 38.6472 88.0733 37.7269L91.4503 22.0264C91.5024 21.7009 91.5849 21.4318 91.5849 21.1626Z" fill="white"/>
<path d="M79.7999 25.8635C75.4767 25.8635 72.5294 30.1609 72.5294 34.2412C72.5294 37.1582 74.2874 39.2417 77.2867 39.2417C81.61 39.2417 84.5573 34.9444 84.5573 30.838C84.5573 27.9471 82.7993 25.8635 79.7999 25.8635ZM77.6123 36.6459C76.0453 36.6459 75.3942 35.5087 75.3942 34.0806C75.3942 31.4587 77.2043 28.4593 79.4744 28.4593C81.0414 28.4593 81.6924 29.5966 81.6924 31.029C81.6924 33.6769 79.8824 36.6503 77.6123 36.6503V36.6459Z" fill="white"/>
<path d="M47.3453 20.5117C46.1039 21.2149 46.156 23.4591 47.3453 25.4862C48.5086 27.5655 50.4272 28.7288 51.6686 27.9995C52.91 27.2963 52.8579 25.0522 51.6686 22.999C50.4793 20.9458 48.5868 19.7825 47.3453 20.5117Z" fill="white"/>
<path d="M65.6929 19.5695C64.178 19.5695 62.7196 19.7605 62.1249 19.9211C61.2611 20.1642 61.0441 20.5419 60.8835 21.3275L57.4501 37.1669C57.398 37.4925 57.3416 37.7616 57.3416 38.0307C57.3416 38.8164 57.8537 39.3286 58.6915 39.3286C59.6117 39.3286 59.9893 38.7339 60.176 37.8137L61.1483 33.2993C61.8254 33.3818 62.7152 33.4599 63.987 33.4599C69.5821 33.4599 73.0676 30.4344 73.0676 25.8636C73.0676 21.8658 70.2853 19.5652 65.6886 19.5652L65.6929 19.5695ZM63.8568 30.8685C62.993 30.8685 62.3159 30.8424 61.6952 30.76L63.5052 22.3563C64.0738 22.2738 64.9116 22.1653 65.7754 22.1653C68.7487 22.1653 70.2636 23.5717 70.2636 25.894C70.2636 28.8674 68.1019 30.8685 63.8568 30.8685Z" fill="white"/>
</svg>
