<svg width="185" height="58" viewBox="0 0 185 58" fill="none" xmlns="http://www.w3.org/2000/svg">
<path d="M93.1946 41.0149H96.6794V31.1664C96.6794 28.8028 98.3721 26.9316 100.563 26.9316C102.753 26.9316 104.645 28.7043 104.645 31.1664V41.0149H108.428V30.9694C108.428 26.7346 104.943 23.4846 101.16 23.4846C99.766 23.4846 97.9738 23.977 96.6794 25.7497V23.8785H93.1946V41.0149Z" fill="white"/>
<path d="M128.84 23.4846C123.762 23.4846 119.779 27.5225 119.779 32.5452C119.779 37.6664 123.662 41.4088 128.84 41.4088C134.017 41.4088 138 37.6664 138 32.5452C138 27.5225 134.117 23.4846 128.84 23.4846ZM128.84 37.8634C125.952 37.8634 123.662 35.4997 123.662 32.5452C123.662 29.3937 126.052 27.1285 128.84 27.1285C131.827 27.1285 134.216 29.3937 134.216 32.5452C134.216 35.4997 131.926 37.8634 128.84 37.8634Z" fill="white"/>
<path d="M119.182 41.015V37.371C116.593 38.6513 114.104 37.6665 114.104 34.8104V27.3256H118.784V23.8786H114.104V19.4468H110.42V34.2195C110.42 40.3256 114.602 42.3937 119.182 41.015Z" fill="white"/>
<path d="M82.0433 23.4846C76.9653 23.4846 72.9827 27.5225 72.9827 32.5452C72.9827 37.6664 76.8658 41.4088 82.0433 41.4088C87.2208 41.4088 91.2034 37.6664 91.2034 32.5452C91.2034 27.5225 87.3203 23.4846 82.0433 23.4846ZM82.0433 37.8634C79.1558 37.8634 76.8658 35.4997 76.8658 32.5452C76.8658 29.3937 79.1558 27.1285 82.0433 27.1285C85.0303 27.1285 87.4199 29.3937 87.4199 32.5452C87.4199 35.4997 85.0303 37.8634 82.0433 37.8634Z" fill="white"/>
<path d="M58.645 16C51.4762 16 46 21.4167 46 28.803C46 35.8939 51.4762 41.5076 58.645 41.5076C66.013 41.5076 71.4892 35.8939 71.4892 28.9015C71.4892 21.4167 66.013 16 58.645 16ZM58.645 37.6667C53.6667 37.6667 49.9827 33.9242 49.9827 28.803C49.9827 23.4848 53.6667 19.5455 58.645 19.5455C63.7229 19.5455 67.4069 23.4849 67.4069 28.7045C67.4069 33.9242 63.7229 37.6667 58.645 37.6667Z" fill="white"/>
<path d="M70.8917 41.9999C63.7229 41.2121 59.1428 37.6666 56.8528 30.9696L60.4372 29.7878C62.2294 35.106 65.6147 37.7651 71.29 38.356L70.8917 41.9999Z" fill="white"/>
</svg>
