<svg width="185" height="58" viewBox="0 0 185 58" fill="none" xmlns="http://www.w3.org/2000/svg">
<path d="M66.7216 14.0482C61.4091 13.7232 55.4452 14.8964 52.8441 22.1161C51.7342 25.1992 50.3159 29.7516 49.1812 33.8978C47.7216 39.2282 47.3511 43.3441 49.6012 44.2764C52.9253 45.652 55.1299 38.9294 60.554 38.9886C65.2868 39.0396 65.8486 44.4471 70.8086 44.5008C72.3178 44.5174 74.773 43.0853 74.8088 39.7556C74.8419 36.6587 71.0441 34.7557 71.0716 32.2248C71.1322 26.612 78.8077 29.5726 80.2439 22.5416C80.8181 19.7311 79.028 14.8 66.7216 14.0482Z" fill="white"/>
<path d="M87.1194 25.0603C79.9218 25.9154 71.091 44.5189 79.2553 44.4583C84.0735 44.4225 87.8685 39.9719 92.6633 39.9375C97.8161 39.899 100.887 45.4332 103.602 44.3577C109.174 42.1518 98.2526 23.7383 87.1194 25.0603Z" fill="white"/>
<path d="M111.839 44C108.205 44 104.74 35.5775 98.7381 24.8052C95.4982 18.99 100.729 15.0404 104.256 17.546C108.386 20.4814 108.141 22.4623 111.246 22.4623C113.884 22.4623 113.369 18.8734 117.365 18.8734C121.574 18.8734 120.882 22.4623 123.893 22.4623C128.581 22.4623 124.04 15.3902 128.501 14.1496C132.851 12.9402 135.106 19.3683 135.723 22.4894C136.372 25.7679 138.848 43.6082 132.288 43.8983C126.157 44.1695 125.659 38.3244 121.573 38.3244C117.486 38.3244 116.632 44 111.84 44H111.839Z" fill="white"/>
</svg>
