<svg width="185" height="58" viewBox="0 0 185 58" fill="none" xmlns="http://www.w3.org/2000/svg">
<path d="M139.427 28.4677H146.919C146.709 26.3917 145.505 25.0076 143.248 25.0076C141.142 25.0076 139.818 26.3616 139.427 28.4677ZM143.248 37.4039C138.675 37.4039 136.328 34.034 136.328 29.912C136.328 25.7899 139.036 22.42 143.309 22.42C147.581 22.42 149.958 25.7297 149.958 29.5208C149.958 29.9721 149.928 30.604 149.868 30.8748H139.337C139.487 33.1916 140.781 34.8163 143.098 34.8163C144.993 34.8163 146.137 33.9438 146.618 32.2588H149.687C148.995 35.2977 146.949 37.4039 143.248 37.4039ZM120.02 29.7916C120.02 25.4589 122.668 22.42 126.58 22.42C129.257 22.42 131.003 23.9846 131.664 26.0908C131.695 26.181 131.785 26.181 131.785 26.0908V22.6607H134.613V35.3579C134.613 39.8711 132.116 42.91 127.151 42.91C123.3 42.91 120.863 40.9543 120.502 38.0658H123.571C123.812 39.2694 124.714 40.3224 127.211 40.3224C130.371 40.3224 131.725 38.3366 131.785 35.4482L131.815 33.6128C131.815 33.5225 131.725 33.5225 131.695 33.6128C131.003 35.8092 129.047 37.1632 126.58 37.1632C122.668 37.1632 120.02 34.1243 120.02 29.7916ZM131.424 29.7916C131.424 27.0235 129.769 25.0076 127.211 25.0076C124.353 25.0076 123.029 27.0235 123.029 29.7916C123.029 32.5597 124.353 34.5756 127.211 34.5756C129.769 34.5756 131.424 32.5296 131.424 29.7916ZM111.626 22.6607H114.304L114.274 26.0908C114.274 26.181 114.364 26.181 114.394 26.0908C115.146 23.9244 116.109 22.42 119.479 22.42V25.2784C115.658 25.158 114.514 27.2943 114.514 30.3031V37.1933H111.626V22.6607ZM98.688 29.912C98.688 32.6801 100.042 34.8163 102.72 34.8163C105.398 34.8163 106.752 32.6801 106.752 29.912C106.752 27.1439 105.398 25.0076 102.72 25.0076C100.042 25.0076 98.688 27.1439 98.688 29.912ZM109.821 29.912C109.821 34.0641 107.143 37.4039 102.72 37.4039C98.2968 37.4039 95.619 34.0641 95.619 29.912C95.619 25.7598 98.2968 22.42 102.72 22.42C107.143 22.42 109.821 25.7598 109.821 29.912ZM88.2173 37.1933V25.158H85.9908V22.6607H88.2775V22.2997C88.2775 18.8095 90.2031 16.7334 95.1376 16.9741V19.7121C92.0686 19.4112 91.1058 20.4944 91.1058 22.6607H95.1376V25.158H91.1058V37.1933H88.2173ZM74.6495 28.4677H82.1414C81.9308 26.3917 80.7273 25.0076 78.4707 25.0076C76.3645 25.0076 75.0406 26.3616 74.6495 28.4677ZM78.4707 37.4039C73.8973 37.4039 71.5504 34.034 71.5504 29.912C71.5504 25.7899 74.2583 22.42 78.5308 22.42C82.8033 22.42 85.1803 25.7297 85.1803 29.5208C85.1803 29.9721 85.1502 30.604 85.09 30.8748H74.5592C74.7097 33.1916 76.0034 34.8163 78.3202 34.8163C80.2158 34.8163 81.3591 33.9438 81.8405 32.2588H84.9095C84.2175 35.2977 82.1715 37.4039 78.4707 37.4039ZM58.2214 27.1739H62.3735C65.3222 27.1739 66.977 25.9102 66.977 23.4731C66.977 21.2767 65.7735 20.013 62.5842 20.013H58.2214V27.1739ZM55.1223 37.1933V17.3652H62.4939C67.8195 17.3652 70.0761 19.6519 70.0761 23.1722C70.0761 25.7899 68.4212 28.2872 64.3293 28.4677C64.239 28.4677 64.239 28.5881 64.3293 28.5881C68.5717 29.0695 70.7982 32.7101 70.7982 37.1933H67.5487C67.5487 33.2216 65.8036 29.8217 61.5612 29.8217H58.2214V37.1933H55.1223Z" fill="white"/>
<g clip-path="url(#clip0_1512_1553)">
<path d="M35.5855 17.075C35.5375 17.0547 35.5493 16.9835 35.6013 16.9806C36.8651 16.9065 38.1379 17.0012 38.8914 17.1668C40.2291 17.4611 41.4336 17.988 42.2636 19.2753C42.62 19.8281 42.8791 20.4376 42.961 21.0639C42.9663 21.1043 42.9353 21.1402 42.8947 21.1402H38.3738C38.3383 21.1402 38.3095 21.1127 38.3071 21.0775C38.2109 19.6132 37.4253 17.8508 35.5855 17.075Z" fill="white"/>
<path d="M47.4057 29.7003C47.4536 29.7206 47.4418 29.7918 47.3898 29.7947C46.126 29.8688 44.8532 29.7742 44.0998 29.6086C42.762 29.3142 41.5576 28.7873 40.7276 27.5C40.3712 26.9472 40.112 26.3377 40.0301 25.7115C40.0248 25.6711 40.0558 25.6351 40.0964 25.6351H44.6175C44.653 25.6351 44.6818 25.6626 44.6843 25.6978C44.7804 27.1621 45.566 28.9245 47.4057 29.7003Z" fill="white"/>
<path d="M38.0124 21.5706C38.041 21.5304 37.9997 21.478 37.9542 21.4965C36.8655 21.9429 32.1266 24.2101 33.0956 27.2904C33.9477 29.9732 38.4755 29.8607 39.52 29.7978C39.572 29.7946 39.5836 29.7237 39.5356 29.7036C37.6667 28.9173 36.8845 27.1141 36.8077 25.6465C36.7521 24.5835 37.0264 22.9572 38.0124 21.5706Z" fill="white"/>
<path d="M44.9888 25.2047C44.9602 25.2448 45.0015 25.2973 45.047 25.2788C46.1357 24.8326 50.8748 22.5652 49.9058 19.4849C49.0537 16.8021 44.5257 16.9146 43.4812 16.9773C43.4294 16.9804 43.4176 17.0512 43.4656 17.0715C45.3347 17.8577 46.1169 19.661 46.1937 21.1288C46.2493 22.1918 45.975 23.8181 44.989 25.2047H44.9888Z" fill="white"/>
</g>
<defs>
<clipPath id="clip0_1512_1553">
<rect width="17.0701" height="12.8654" fill="white" transform="translate(32.9658 16.955)"/>
</clipPath>
</defs>
</svg>
