<svg width="185" height="58" viewBox="0 0 185 58" fill="none" xmlns="http://www.w3.org/2000/svg">
<path d="M92.2174 37.6841C95.3449 37.6841 97.6725 35.8231 98.2131 33.2696H95.3916C94.945 34.5581 93.7221 35.4172 92.2174 35.4172C90.2892 35.4172 88.8784 34.0095 88.573 31.6707H98.3307V29.547C98.3307 26.2543 95.7443 23.7961 92.2174 23.7961C88.4554 23.7961 85.8455 26.397 85.8455 30.7401C85.8455 35.0833 88.4082 37.6841 92.2174 37.6841V37.6841ZM92.2174 26.063C94.1221 26.063 95.4389 27.3994 95.7207 29.3324H88.5961C88.9251 27.4708 90.2656 26.063 92.2169 26.063H92.2174Z" fill="white"/>
<path d="M107.695 37.6841C110.869 37.6841 113.644 35.2266 113.644 30.6688C113.644 26.111 110.869 23.7961 107.695 23.7961C105.884 23.7961 104.286 24.6073 103.274 26.2063H103.227C103.274 25.6817 103.274 25.2998 103.274 24.8226V24.1786H100.688V41.3594H103.274V36.7302C103.274 36.229 103.274 35.8231 103.227 35.2745H103.274C104.215 36.8495 105.813 37.6847 107.695 37.6847V37.6841ZM107.037 26.063C109.388 26.0391 110.94 27.9007 110.94 30.6688C110.94 33.4369 109.388 35.4412 107.037 35.4172C104.638 35.3933 103.251 33.3176 103.251 30.6448C103.251 28.1153 104.638 26.087 107.037 26.063Z" fill="white"/>
<path d="M118.538 20.0598H115.952V37.3022H118.538V20.0598Z" fill="white"/>
<path d="M133.867 38.9967V41.359H140.38C141.743 41.359 142.566 40.1659 142.049 38.8535L141.156 36.5865L146 24.1782H143.131L139.816 33.5324L136.43 24.1782H133.538L139.416 38.9967H133.867H133.867Z" fill="white"/>
<path d="M121.343 28.4265H123.933C124.098 26.9451 125.252 26.0609 127.017 26.0609C128.524 26.0609 129.56 26.7299 129.56 27.7814C129.56 28.6417 128.972 29.1675 127.041 29.1675H126.005C122.921 29.1675 120.848 30.4337 120.848 33.3251C120.848 36.3598 123.038 37.7459 125.604 37.7459C127.511 37.7459 129.136 36.8856 129.772 35.0457V37.3155H132.22V28.5938C132.22 25.8217 130.902 23.7905 127.017 23.7905C123.132 23.7905 121.531 25.7024 121.342 28.4265H121.343ZM129.631 29.6927V31.1981C129.631 34.1614 128.053 35.4516 126.029 35.4516C124.263 35.4516 123.557 34.4001 123.557 33.3251C123.557 32.2502 124.169 31.4618 126.053 31.4618H126.43C128.242 31.4618 129.372 30.8167 129.608 29.6933H129.632L129.631 29.6927Z" fill="white"/>
<path d="M84.896 24.1772V26.8129H79.986V37.3077H77.3889V26.2501C77.3889 25.1055 78.303 24.1778 79.4308 24.1778H84.896V24.1772Z" fill="white"/>
<path d="M70.0028 24.18H62.0035C62.0035 29.6437 58.4412 33.2847 54.016 33.2847C49.5908 33.2847 46.0032 29.6437 46.0032 25.0351C46.0032 21.9388 47.797 20.2461 50.0026 20.1217C52.2441 19.9955 54.0019 21.9388 54.0019 24.1806H62.0046C62.0029 17.4535 56.6299 12 50.0015 12C43.373 12 38 17.4529 38 25.0351C38 34.129 45.1702 41.4064 54.0154 41.4064C62.8607 41.4064 70.0028 34.1296 70.0028 24.1806V24.18Z" fill="white"/>
</svg>
