<svg width="185" height="58" viewBox="0 0 185 58" fill="none" xmlns="http://www.w3.org/2000/svg">
<path d="M132.975 32.2897C131.251 32.2897 131.026 33.8335 129.392 33.8335C128.287 33.8335 127.622 33.1236 127.622 31.9742C127.622 28.571 134.564 28.9203 134.564 23.2183C134.564 20.1194 132.536 18.0459 129.572 18.0459C125.29 18.0459 124.05 22.3281 122.585 22.3281C122.236 22.3281 122.01 22.0576 122.01 21.528C122.01 20.0292 123.78 16.1077 123.78 13.4032C123.78 11.2396 122.63 10 120.557 10C116.849 10 111.35 13.6736 111.35 16.7613C111.35 19.0827 113.705 19.5109 113.705 23.5451C113.705 29.326 109.998 34.7012 109.998 38.3636C109.998 40.5723 111.328 41.3723 115.08 41.3723C118.833 41.3723 119.937 40.5723 119.937 38.3185C119.937 37.2592 119.667 36.5944 119.667 35.8844C119.667 35.0393 120.016 34.5096 120.591 34.5096C122.619 34.5096 122.754 41.5414 128.896 41.5414C132.648 41.5414 135.432 38.9383 135.432 35.49C135.432 33.4616 134.462 32.2671 132.952 32.2671L132.975 32.2897ZM122.112 30.3853C121.402 30.3853 120.917 29.7655 120.917 28.6611C120.917 26.937 122.157 24.8185 123.926 24.8185C124.771 24.8185 125.346 25.303 125.346 26.2383C125.346 27.9174 123.577 30.3965 122.123 30.3965L122.112 30.3853Z" fill="white"/>
<path d="M107.011 32.504C105.196 32.504 104.982 33.8788 102.898 33.8788C101.174 33.8788 99.9339 32.8646 99.9339 30.4305C99.9339 27.557 101.703 24.9088 103.686 24.9088C104.396 24.9088 104.836 25.2581 104.836 25.8779C104.836 26.3174 104.565 26.847 104.565 27.602C104.565 29.0557 105.625 29.8558 107.304 29.8558C109.952 29.8558 111.586 27.8274 111.586 24.6834C111.586 20.5703 108.712 18.0574 104.205 18.0574C97.128 18.0574 91.4373 24.289 91.4373 31.625C91.4373 37.6764 95.2799 41.5641 100.937 41.5641C105.715 41.5641 109.332 38.6004 109.332 35.3324C109.332 33.6534 108.363 32.504 106.988 32.504H107.011Z" fill="white"/>
<path d="M65.5764 27.8378C68.1006 27.8378 69.543 26.1813 69.543 23.443C69.543 20.0398 65.8356 17.6057 60.7083 17.6057C55.0964 17.6057 51.2538 20.4793 51.2538 24.6825C51.2538 27.1166 52.6286 29.4605 55.2316 30.6099L57.0459 31.41C58.4207 32.0298 59.0292 32.7397 59.0292 33.7088C59.0292 34.8132 58.3193 35.5682 57.3051 35.5682C56.5952 35.5682 56.1106 35.1738 56.1106 34.554C56.1106 34.2047 56.2909 33.7539 56.2909 33.3144C56.2909 32.0749 55.0063 31.1959 53.1582 31.1959C50.6791 31.1959 49 32.92 49 35.478C49 39.1066 52.5835 41.5294 57.8347 41.5294C63.7171 41.5294 67.74 38.746 67.74 34.6329C67.74 32.0749 66.4103 29.8098 63.7171 28.6604L61.4633 27.6913C60.404 27.2518 59.9195 26.632 59.9195 25.708C59.9195 24.5135 60.7196 23.6345 61.7788 23.6345C62.624 23.6345 63.1085 23.9388 63.1085 24.5135C63.1085 24.8628 62.9282 25.3586 62.9282 25.8883C62.9282 27.1279 63.8974 27.8378 65.5764 27.8378Z" fill="white"/>
<path d="M81.1849 18.1016C74.604 18.1016 69.5217 23.6233 69.5217 31.2748C69.5217 37.4614 73.1954 41.5294 79.0213 41.5294C85.6023 41.5294 90.6845 36.0077 90.6845 28.4012C90.6845 22.2147 87.0109 18.1016 81.1849 18.1016ZM78.9312 34.7681C77.917 34.7681 77.2521 33.968 77.2521 32.165C77.2521 29.3366 78.9763 24.8741 81.3202 24.8741C82.2893 24.8741 82.9541 25.6291 82.9541 27.4772C82.9541 30.3958 81.1849 34.7681 78.9312 34.7681Z" fill="white"/>
</svg>
