<svg width="185" height="58" viewBox="0 0 185 58" fill="none" xmlns="http://www.w3.org/2000/svg">
<path d="M63.5573 26.95H53.3928V23.475H66.2029V20H53.3696C52.4877 20 51.6291 20.357 51.0025 20.9997C50.3759 21.6423 50.0278 22.5229 50.0278 23.4274V26.95C50.0278 27.8545 50.3759 28.7351 51.0025 29.3777C51.6291 30.0204 52.4877 30.3774 53.3696 30.3774H63.5341V33.8524H50.2367V37.3274H63.5573C64.4392 37.3274 65.2978 36.9704 65.9244 36.3277C66.551 35.6851 66.8991 34.8045 66.8991 33.9V30.3774C66.8991 29.4729 66.551 28.5923 65.9244 27.9497C65.321 27.307 64.4624 26.95 63.5573 26.95ZM83.283 20H73.0721C72.6311 20 72.1902 20.0952 71.7957 20.2618C71.378 20.4284 71.0067 20.6902 70.705 20.9997C70.4033 21.3091 70.148 21.6899 69.9856 22.1183C69.8231 22.5467 69.7303 22.9752 69.7303 23.4274V33.9238C69.7303 34.376 69.8231 34.8283 69.9856 35.2329C70.148 35.6613 70.4033 36.0421 70.705 36.3515C71.0067 36.661 71.378 36.9228 71.7957 37.0894C72.2134 37.256 72.6311 37.3512 73.0721 37.3512H83.283C84.1649 37.3512 85.0235 36.9942 85.6501 36.3515C86.2767 35.7089 86.6248 34.8283 86.6248 33.9238V23.4512C86.6248 22.5467 86.2767 21.6661 85.6501 21.0235C85.0235 20.3808 84.1649 20 83.283 20ZM83.2598 33.9H73.1185V23.4988H83.2598V33.9ZM119.021 20H109.066C108.184 20 107.325 20.357 106.699 20.9997C106.072 21.6423 105.724 22.5229 105.724 23.4274V37.3274H109.089V31.6151H118.998V37.3274H122.386V23.4512C122.386 22.999 122.293 22.5467 122.131 22.1421C121.969 21.7137 121.713 21.3329 121.412 21.0235C121.11 20.714 120.739 20.4522 120.321 20.2856C119.903 20.0952 119.462 20 119.021 20ZM118.998 28.1877H109.089V23.475H118.998V28.1877ZM158.635 20H148.679C148.238 20 147.798 20.0952 147.38 20.2618C146.962 20.4284 146.591 20.6902 146.289 20.9997C145.987 21.3091 145.732 21.6899 145.57 22.1183C145.407 22.5467 145.314 22.9752 145.314 23.4274V37.3274H148.703V31.6151H158.612V37.3274H162V23.4512C162 22.5467 161.652 21.6661 161.025 21.0235C160.376 20.3808 159.54 20 158.635 20ZM158.612 28.1877H148.703V23.475H158.612V28.1877ZM138.933 33.9H137.587L132.736 21.4519C132.574 21.0235 132.272 20.6664 131.924 20.4046C131.553 20.1428 131.112 20 130.671 20H127.654C127.051 20 126.494 20.238 126.076 20.6664C125.658 21.0949 125.426 21.6899 125.426 22.2849V37.3512H128.815V23.475H130.16L135.011 35.9231C135.173 36.3515 135.452 36.7086 135.823 36.9704C136.194 37.2322 136.635 37.375 137.076 37.375H140.093C140.696 37.375 141.253 37.137 141.671 36.7086C142.089 36.2801 142.321 35.6851 142.321 35.0901V20.0238H138.933V33.9ZM93.0066 20H89.6184V33.9238C89.6184 34.8283 89.9665 35.7089 90.5931 36.3515C91.2197 36.9942 92.0783 37.3512 92.9602 37.3512H103.125V33.8762H92.9834V20H93.0066Z" fill="white"/>
<path d="M26.1473 32.5102C26.2152 32.4425 26.2831 32.3975 26.3511 32.3524C26.419 32.3073 26.5096 32.3073 26.6001 32.3073H41.0006C41.0686 32.3073 41.1139 32.3298 41.1818 32.3524C41.2271 32.3749 41.2724 32.4425 41.295 32.4876C41.3176 32.5327 41.3176 32.6003 41.3176 32.6679C41.3176 32.7356 41.2724 32.7806 41.2497 32.8257L38.193 36.2069C38.1251 36.2745 38.0571 36.3196 37.9892 36.3646C37.9213 36.4097 37.8307 36.4097 37.7401 36.4097H23.317C23.2491 36.4097 23.2038 36.3872 23.1359 36.3646C23.0906 36.3421 23.0453 36.2745 23.0226 36.2294C23 36.1843 23 36.1167 23 36.0491C23 35.9814 23.0453 35.9364 23.0679 35.8913L26.1473 32.5102ZM41.2497 29.7151C41.295 29.7602 41.3176 29.8053 41.3176 29.8729C41.3176 29.9405 41.3176 29.9856 41.295 30.0532C41.2724 30.0983 41.2271 30.1659 41.1818 30.1885C41.1365 30.211 41.0686 30.2335 41.0006 30.2335L26.6228 30.2561C26.5322 30.2561 26.4416 30.2335 26.3737 30.211C26.3058 30.1885 26.2152 30.1208 26.1699 30.0532L23.0906 26.6946C23.0453 26.6495 23.0226 26.6045 23.0226 26.5368C23.0226 26.4692 23.0226 26.4241 23.0453 26.3565C23.0679 26.3114 23.1132 26.2438 23.1585 26.2213C23.2038 26.1987 23.2717 26.1762 23.3396 26.1762L37.7628 26.1536C37.8534 26.1536 37.9439 26.1762 38.0119 26.1987C38.0798 26.2438 38.1704 26.2889 38.2156 26.3565L41.2497 29.7151ZM26.1473 20.2029C26.2152 20.1352 26.2831 20.0902 26.3511 20.0451C26.419 20 26.5096 20 26.6001 20L41.0233 20.0225C41.0912 20.0225 41.1365 20.0451 41.2044 20.0676C41.2497 20.0902 41.295 20.1578 41.3176 20.2029C41.3403 20.2479 41.3403 20.3156 41.3403 20.3832C41.3403 20.4508 41.295 20.4959 41.2724 20.541L38.2156 23.8996C38.1477 23.9672 38.0798 24.0123 38.0119 24.0573C37.9439 24.1024 37.8534 24.1024 37.7628 24.1024H23.317C23.2491 24.1024 23.2038 24.0799 23.1359 24.0573C23.0906 24.0348 23.0453 23.9672 23.0226 23.9221C23 23.877 23 23.8094 23 23.7418C23 23.6742 23.0453 23.6291 23.0679 23.584L26.1473 20.2029Z" fill="white"/>
</svg>
