<svg width="185" height="58" viewBox="0 0 185 58" fill="none" xmlns="http://www.w3.org/2000/svg">
<path d="M54.171 11C44.118 11 36 19.142 36 29.172C36 39.224 44.14 47.344 54.172 47.344C64.224 47.344 72.344 39.204 72.344 29.172C72.344 19.14 64.204 11 54.172 11H54.171ZM62.508 37.226C62.182 37.769 61.488 37.921 60.945 37.596C56.668 34.991 51.305 34.406 44.965 35.836C44.357 35.966 43.749 35.596 43.619 34.989C43.489 34.382 43.859 33.773 44.466 33.643C51.392 32.058 57.34 32.731 62.116 35.663C62.659 35.989 62.832 36.683 62.506 37.226H62.508ZM64.722 32.276C64.31 32.949 63.442 33.144 62.768 32.754C57.883 29.758 50.438 28.89 44.662 30.626C43.902 30.843 43.122 30.431 42.902 29.692C42.685 28.932 43.097 28.152 43.857 27.932C50.457 25.935 58.663 26.89 64.287 30.332C64.937 30.722 65.134 31.592 64.721 32.264L64.722 32.276ZM64.917 27.109C59.055 23.635 49.394 23.309 43.793 25.003C42.893 25.285 41.948 24.763 41.665 23.873C41.382 22.983 41.905 22.028 42.795 21.745C49.221 19.791 59.903 20.182 66.633 24.177C67.436 24.655 67.697 25.697 67.219 26.5C66.785 27.325 65.721 27.586 64.919 27.108L64.917 27.109Z" fill="white"/>
<path d="M81.7974 28.6283C78.6981 27.9016 78.1637 27.3672 78.1637 26.2771C78.1637 25.2511 79.1256 24.5671 80.5577 24.5671C81.9471 24.5671 83.3364 25.1015 84.7899 26.1702C84.8327 26.213 84.8968 26.213 84.9396 26.213C85.0037 26.213 85.0464 26.1702 85.0678 26.1275L86.5854 23.99C86.6155 23.9471 86.6279 23.8942 86.6199 23.8424C86.612 23.7906 86.5843 23.7439 86.5427 23.7121C84.8113 22.3227 82.8662 21.6601 80.6004 21.6601C77.2659 21.6601 74.9361 23.6693 74.9361 26.5336C74.9361 29.6116 76.9453 30.7017 80.4294 31.5353C83.3792 32.2193 83.8922 32.7965 83.8922 33.8011C83.8922 34.934 82.8876 35.6393 81.2631 35.6393C79.4676 35.6393 77.9927 35.0408 76.3468 33.6087C76.3041 33.566 76.2399 33.566 76.1972 33.566C76.1331 33.566 76.0903 33.5873 76.0689 33.6301L74.3803 35.6393C74.3162 35.7248 74.3162 35.8531 74.4017 35.9172C76.3254 37.6272 78.6767 38.525 81.2203 38.525C84.8113 38.525 87.1412 36.5585 87.1412 33.5232C87.0984 30.9582 85.5594 29.5475 81.7974 28.6283ZM95.2423 25.5717C93.6819 25.5717 92.3994 26.1916 91.3521 27.4527V26.042C91.3521 25.9351 91.2666 25.8496 91.1597 25.8496H88.4023C88.2954 25.8496 88.2099 25.9351 88.2099 26.042V41.774C88.2099 41.8808 88.2954 41.9663 88.4023 41.9663H91.1597C91.2666 41.9663 91.3521 41.8808 91.3521 41.774V36.815C92.3994 37.9906 93.6819 38.5677 95.2423 38.5677C98.1279 38.5677 101.078 36.3447 101.078 32.0697C101.056 27.8161 98.1279 25.5717 95.2423 25.5717ZM97.8501 32.0697C97.8501 34.25 96.5034 35.7462 94.6011 35.7462C92.6987 35.7462 91.2879 34.1645 91.2879 32.0697C91.2879 29.975 92.7201 28.3932 94.6011 28.3932C96.4821 28.3932 97.8501 29.9322 97.8501 32.0697ZM108.58 25.5717C104.861 25.5717 101.933 28.436 101.933 32.1125C101.933 35.7462 104.84 38.5891 108.538 38.5891C112.278 38.5891 115.207 35.7248 115.207 32.0697C115.207 28.436 112.3 25.5717 108.58 25.5717ZM108.58 35.7676C106.592 35.7676 105.096 34.1645 105.096 32.0697C105.096 29.9536 106.55 28.4146 108.538 28.4146C110.525 28.4146 112.043 30.0177 112.043 32.1338C112.022 34.2286 110.568 35.7676 108.58 35.7676ZM123.158 25.8282H120.123V22.7075C120.123 22.6006 120.037 22.5151 119.93 22.5151H117.173C117.066 22.5151 116.981 22.6006 116.981 22.7075V25.8282H115.655C115.549 25.8282 115.463 25.9137 115.463 26.0206V28.3932C115.463 28.5001 115.549 28.5856 115.655 28.5856H116.981V34.7416C116.981 37.2211 118.22 38.4822 120.657 38.4822C121.64 38.4822 122.474 38.2685 123.244 37.841C123.308 37.7982 123.35 37.7341 123.35 37.67V35.4042C123.35 35.3401 123.308 35.276 123.265 35.2332C123.201 35.1905 123.137 35.1905 123.073 35.2332C122.538 35.5111 122.025 35.618 121.448 35.618C120.55 35.618 120.166 35.2118 120.166 34.3141V28.607H123.201C123.308 28.607 123.393 28.5215 123.393 28.4146V26.042C123.372 25.9137 123.286 25.8282 123.158 25.8282ZM133.781 25.8496V25.4648C133.781 24.332 134.209 23.8403 135.171 23.8403C135.748 23.8403 136.218 23.9472 136.731 24.1182C136.795 24.1396 136.859 24.1182 136.924 24.0968C136.966 24.0541 137.009 23.99 137.009 23.9258V21.596C137.009 21.5105 136.945 21.425 136.859 21.4036C136.304 21.2326 135.62 21.083 134.551 21.083C131.986 21.083 130.639 22.5151 130.639 25.2511V25.8282H129.314C129.207 25.8282 129.1 25.9137 129.1 26.0206V28.4146C129.1 28.5215 129.186 28.607 129.314 28.607H130.639V38.0975C130.639 38.2043 130.725 38.2898 130.832 38.2898H133.589C133.696 38.2898 133.781 38.2043 133.781 38.0975V28.607H136.368L140.322 38.0975C139.873 39.1021 139.424 39.2945 138.826 39.2945C138.334 39.2945 137.821 39.1448 137.308 38.867C137.266 38.8456 137.201 38.8456 137.137 38.8456C137.095 38.867 137.03 38.9097 137.009 38.9525L136.069 41.0045C136.026 41.1113 136.069 41.2182 136.154 41.261C137.137 41.7953 138.014 42.0091 139.104 42.0091C141.156 42.0091 142.267 41.0472 143.272 38.5036L148.081 26.1061C148.103 26.042 148.103 25.9778 148.06 25.9137C148.017 25.8496 147.953 25.8282 147.889 25.8282H145.003C144.918 25.8282 144.832 25.8923 144.811 25.9565L141.861 34.3782L138.634 25.9351C138.612 25.8496 138.527 25.8068 138.441 25.8068H133.781V25.8496ZM127.625 25.8282H124.868C124.761 25.8282 124.676 25.9137 124.676 26.0206V38.0975C124.676 38.2043 124.761 38.2898 124.868 38.2898H127.625C127.732 38.2898 127.818 38.2043 127.818 38.0975V26.042C127.839 25.9137 127.732 25.8282 127.625 25.8282Z" fill="white"/>
<path d="M126.257 24.3106C127.355 24.3106 128.245 23.4206 128.245 22.3227C128.245 21.2248 127.355 20.3348 126.257 20.3348C125.16 20.3348 124.27 21.2248 124.27 22.3227C124.27 23.4206 125.16 24.3106 126.257 24.3106Z" fill="white"/>
</svg>
