<svg width="185" height="58" viewBox="0 0 185 58" fill="none" xmlns="http://www.w3.org/2000/svg">
<g clip-path="url(#clip0_1509_702)">
<path d="M49 21.0293H55.291V41.6851H59.9354V21.0293H66.2606V16.4156H49V21.0293Z" fill="white"/>
<path d="M68.6749 23.5394H73.1135V41.6851H68.6749V23.5394ZM73.5945 18.7225C73.5945 18.184 73.4362 17.6576 73.1395 17.2099C72.8427 16.7622 72.421 16.4133 71.9276 16.2072C71.4341 16.0012 70.8912 15.9473 70.3674 16.0523C69.8436 16.1574 69.3624 16.4166 68.9848 16.7974C68.6071 17.1781 68.3499 17.6632 68.2457 18.1913C68.1415 18.7194 68.195 19.2668 68.3994 19.7643C68.6038 20.2618 68.9499 20.687 69.394 20.9861C69.838 21.2852 70.3601 21.4449 70.8942 21.4449C71.6103 21.4448 72.297 21.1579 72.8032 20.6473C73.3095 20.1368 73.5939 19.4444 73.5939 18.7225H73.5945Z" fill="white"/>
<path d="M88.0178 27.5981V23.5394H83.2052V18.743H78.6853V23.5394H75.5266V27.5981H78.6853V36.0864C78.6853 37.7936 79.1999 39.2124 80.174 40.1885C81.1481 41.1645 82.5674 41.6839 84.2733 41.6839H88.0178V37.5215H85.3174C83.6791 37.5215 83.2052 37.0202 83.2052 35.2895V27.5981H88.0178Z" fill="white"/>
<path d="M98.9334 37.9028C96.0889 37.9028 94.024 35.6979 94.024 32.6611C94.024 29.6244 96.0889 27.4195 98.9334 27.4195C101.778 27.4195 103.84 29.859 103.84 32.6611C103.84 35.4632 101.776 37.9028 98.9334 37.9028ZM107.532 32.6611L109.732 23.5895H104.499L104.173 24.9112C102.847 23.9882 101.11 23.385 98.858 23.385H98.7892C93.562 23.385 89.6201 27.3743 89.6201 32.6641C89.6201 37.954 93.562 41.9427 98.7892 41.9427H98.858C101.084 41.9427 102.832 41.372 104.177 40.4678L104.499 41.7279H109.732L107.532 32.6611Z" fill="white"/>
<path d="M126.416 25.6327C125.071 24.1849 123.176 23.42 120.937 23.42C119.073 23.42 117.373 24.0123 116.176 25.0626V23.5895H111.744V41.7412H116.179V30.6764C116.844 28.7352 118.23 27.7103 120.187 27.7103C122.676 27.7103 124.017 29.663 124.017 31.5005V41.7412H128.451V31.4257C128.454 29.0694 127.75 27.0648 126.416 25.6327Z" fill="white"/>
<path d="M133.277 41.9391C134.769 41.9391 135.978 40.7202 135.978 39.2166C135.978 37.7131 134.769 36.4942 133.277 36.4942C131.786 36.4942 130.577 37.7131 130.577 39.2166C130.577 40.7202 131.786 41.9391 133.277 41.9391Z" fill="white"/>
</g>
<defs>
<clipPath id="clip0_1509_702">
<rect width="87" height="26" fill="white" transform="translate(49 16)"/>
</clipPath>
</defs>
</svg>
