<svg width="185" height="58" viewBox="0 0 185 58" fill="none" xmlns="http://www.w3.org/2000/svg">
<path fill-rule="evenodd" clip-rule="evenodd" d="M42.0535 20.3781C44.7462 17.6797 49.1328 17.6797 51.8254 20.3781C54.5181 23.0765 54.5181 27.4644 51.8254 30.1548L42.3731 39.6112C41.2944 40.6921 39.5446 40.6921 38.4659 39.6112L49.8679 28.201C50.6589 27.4163 51.0903 26.3754 51.0903 25.2704C51.0903 24.1575 50.6589 23.1165 49.8679 22.3318C48.2538 20.7144 45.6251 20.7144 44.0031 22.3318L36.5083 29.8345L32.9287 26.2473C32.3854 25.7028 32.3854 24.8301 32.9287 24.2856C33.464 23.7491 34.343 23.7491 34.8783 24.2856L36.5083 25.919L42.0535 20.3781ZM150.36 24.2615C154.507 24.2615 157 26.9039 157 31.2357C157 31.7722 156.936 32.3007 156.936 32.3567H147.316C147.38 34.1343 148.898 35.4234 150.696 35.4234C152.39 35.4234 153.317 34.5827 153.764 33.3736L156.832 34.2864C156.129 36.6085 154.02 38.5542 150.696 38.5542C146.996 38.5542 143.744 35.8959 143.744 31.3478C143.744 27.056 146.916 24.2615 150.36 24.2615ZM85.7517 24.2615C90.0184 24.2615 91.6005 26.6717 91.6005 29.3781V36C91.6005 36.7206 91.6884 37.6654 91.7763 38.1378H88.4364C88.3725 37.7935 88.3085 37.0569 88.3085 36.5284C87.6054 37.6014 86.319 38.5382 84.3294 38.5382C81.453 38.5382 79.7031 36.5925 79.7031 34.4786C79.7031 32.0605 81.477 30.7073 83.7222 30.371L87.0381 29.8825C87.7972 29.7784 88.0529 29.4021 88.0529 28.9377C88.0529 27.9848 87.3098 27.1761 85.7916 27.1761C84.2016 27.1761 83.3147 28.193 83.2108 29.3781L79.9748 28.7055C80.1905 26.5836 82.1321 24.2615 85.7517 24.2615ZM119.143 18.3203V33.5898C119.143 34.7508 119.798 35.0871 120.709 35.0871C120.892 35.0871 121.084 35.0871 121.34 35.0711V38.1779C120.837 38.282 120.413 38.346 119.838 38.346C117.217 38.346 115.571 36.8007 115.571 34.1984V18.3203H119.143ZM65.6884 20.6423V24.6699H68.3971V27.9048H65.6884V33.5498C65.6884 34.7268 66.2317 35.1112 67.2704 35.1112C67.7099 35.1112 68.2053 35.0551 68.3971 34.9991V38.0177C68.0695 38.1539 67.4143 38.346 66.3436 38.346C63.7148 38.346 62.0688 36.7846 62.0688 34.1823V27.9048H59.6318V24.6699H60.319C61.7412 24.6699 62.3964 23.7411 62.3964 22.532V20.6423H65.6884ZM108.164 24.3016C111.504 24.3016 113.03 26.6957 113.03 29.6503V38.1539H109.387V30.2909C109.387 28.7856 108.652 27.6005 106.894 27.6005C105.312 27.6005 104.377 28.8256 104.377 30.395V38.1378H100.741V24.6619H104.273V26.3354C105.096 24.9341 106.702 24.3016 108.164 24.3016ZM137.112 24.3016C140.452 24.3016 141.978 26.6957 141.978 29.6503V38.1539H138.343V30.2909C138.343 28.7856 137.6 27.6005 135.85 27.6005C134.26 27.6005 133.333 28.8256 133.333 30.395V38.1378H129.698V24.6619H133.221V26.3354C134.052 24.9341 135.658 24.3016 137.112 24.3016ZM77.9533 24.5578C78.2489 24.5578 78.5206 24.5978 78.8002 24.6219V28.2811C78.3768 28.193 78.0332 28.177 77.6976 28.177C75.8359 28.177 74.2299 29.0818 74.2299 31.9804V38.1298H70.5943V24.6619H74.126V26.6717C74.949 24.8941 76.8107 24.5578 77.9533 24.5578ZM94.3331 24.6619H97.9687V38.1378H94.3331V24.6619ZM123.289 24.6619H126.925V38.1298H123.289V24.6619ZM29.0295 20.3781C31.6103 17.7918 35.7492 17.6877 38.4659 20.0578L36.5003 22.0276C34.8783 20.7224 32.4892 20.8265 30.9791 22.3318C29.3651 23.9493 29.3651 26.5836 30.9791 28.201L36.5243 33.742L45.9687 24.2856C46.512 23.7491 47.3829 23.7491 47.9262 24.2856C48.4696 24.8301 48.4696 25.7028 47.9262 26.2473L36.5243 37.6494L29.0295 30.1548C27.7191 28.8496 27 27.1121 27 25.2624C27 23.4208 27.7191 21.6833 29.0295 20.3781ZM88.0369 32.0845L84.9926 32.5489C84.0578 32.677 83.3227 33.2055 83.3227 34.2384C83.3227 35.0471 83.89 35.8078 85.0725 35.8078C86.6146 35.8078 88.0369 35.0631 88.0369 32.677V32.0845ZM150.384 27.2002C148.506 27.2002 147.468 28.6334 147.38 29.8665H153.388C153.348 28.5133 152.454 27.2002 150.384 27.2002ZM96.1309 22.484C94.8924 22.484 93.8937 21.4831 93.8937 20.242C93.8937 19.0009 94.8924 18 96.1309 18C97.3694 18 98.3762 19.0009 98.3762 20.242C98.3762 21.4831 97.3694 22.484 96.1309 22.484ZM125.103 22.484C123.865 22.484 122.866 21.4831 122.866 20.242C122.866 19.0009 123.865 18 125.103 18C126.342 18 127.348 19.0009 127.348 20.242C127.348 21.4831 126.342 22.484 125.103 22.484Z" fill="white"/>
</svg>
