<svg width="185" height="58" viewBox="0 0 185 58" fill="none" xmlns="http://www.w3.org/2000/svg">
<path d="M77.6488 27.9946C77.9553 25.8591 78.8025 24.0249 80.0703 22.6283C77.0857 20.9453 72.2866 22.1347 72.1216 26.6776V21.9973H68.1951V37.5808H72.4144V28.079C72.4144 27.6452 72.5071 26.8621 72.7014 26.4754C73.8697 24.1505 77.2965 27.498 77.6478 28.0024C77.6488 27.9995 77.6488 27.9975 77.6488 27.9946Z" fill="white"/>
<path d="M87.0333 21.4673C91.683 21.4673 94.9137 24.9071 94.9137 29.8179C94.9137 34.6984 91.683 38.1097 87.0333 38.1097C82.3835 38.1097 79.1899 34.6994 79.1899 29.8179C79.1899 24.908 82.3835 21.4673 87.0333 21.4673ZM87.0625 25.2044C84.7757 25.2044 83.4796 26.9061 83.4796 29.8238C83.4796 32.7061 84.7757 34.3735 87.0625 34.3735C89.3494 34.3735 90.6455 32.7061 90.6455 29.8238C90.6455 26.9061 89.3494 25.2044 87.0625 25.2044Z" fill="white"/>
<path d="M104.924 21.644C100.679 21.644 100.337 26.0838 100.337 26.0838V21.9964H96.3806V43H100.6V34.1803C100.6 34.1803 100.6 38.0215 104.607 38.0215C108.613 38.0215 111.42 34.5522 111.42 29.7591C111.42 25.1427 108.772 21.644 104.924 21.644ZM103.566 34.1214C101.673 34.1214 100.311 32.2872 100.311 29.7807C100.311 27.2753 101.706 25.5735 103.566 25.5735C105.791 25.5735 107.053 27.1428 107.053 29.7807C107.053 32.5522 105.791 34.1214 103.566 34.1214Z" fill="white"/>
<path d="M70.271 20.6607C69.9372 20.2014 69.1896 16.844 69.0315 15H51.2405C51.0814 16.844 50.3348 20.2014 50 20.6607C52.7407 20.6607 56.9551 19.9511 57.9526 16.7076V37.5798H62.3184V16.7096C63.3169 19.9521 67.5313 20.6607 70.271 20.6607Z" fill="white"/>
<path d="M129.075 30.8356C129.059 33.3912 127.623 34.401 125.938 34.401C123.996 34.401 122.615 33.1291 122.615 29.7924C122.615 26.4557 124.113 25.0474 126.021 25.0474C127.836 25.0474 128.913 26.2653 128.923 28.5931L132.922 27.4655C132.308 23.8197 129.954 21.4673 126.094 21.4673C121.59 21.4673 118.739 24.9071 118.739 29.7885C118.739 34.6689 121.59 38.1087 126.094 38.1087C129.954 38.1087 132.386 35.3196 133 31.6737L129.075 30.8356Z" fill="white"/>
<path d="M112.891 22.0376V37.5799H117.11V22.0376C116.494 22.4086 115.772 22.6225 115.001 22.6225C114.23 22.6225 113.508 22.4086 112.891 22.0376Z" fill="white"/>
<path d="M117.844 18.3034C117.844 19.8824 116.572 21.1631 115 21.1631C113.43 21.1631 112.156 19.8824 112.156 18.3034C112.156 16.7243 113.429 15.4436 115 15.4436C116.572 15.4436 117.844 16.7233 117.844 18.3034Z" fill="white"/>
</svg>
