<svg width="185" height="58" viewBox="0 0 185 58" fill="none" xmlns="http://www.w3.org/2000/svg">
<path d="M121.288 31.5105C121.288 29.2192 119.455 27.4131 117.137 27.4131C114.845 27.4131 112.985 29.2192 112.985 31.5105C112.985 33.8018 114.845 35.6079 117.137 35.6079C119.455 35.6348 121.288 33.8287 121.288 31.5105ZM124.684 24.7983V38.2496H121.207V37.0366C119.994 38.0339 118.484 38.6 116.813 38.6C112.716 38.6 109.508 35.4461 109.508 31.5374C109.508 27.6287 112.716 24.4748 116.813 24.4748C118.457 24.4748 119.994 25.0409 121.207 26.0383V24.8252C121.207 24.7983 124.684 24.7983 124.684 24.7983ZM136.168 35.2035H133.553C132.771 35.2035 132.259 34.8531 132.259 34.1522V27.8444H136.168V24.7983H132.259V20.9705H128.755V24.7983H126.113V27.8444H128.755V34.9879C128.755 36.7939 130.049 38.2226 132.394 38.2226H136.141L136.168 35.2035ZM144.066 38.6C148.056 38.6 150.32 36.74 150.32 34.1522C150.32 32.3192 148.972 30.9444 146.196 30.3513L143.231 29.7583C141.532 29.4618 140.966 29.1383 140.966 28.5183C140.966 27.7096 141.775 27.2244 143.311 27.2244C144.956 27.2244 146.169 27.6557 146.519 29.1652H149.97C149.781 26.3618 147.705 24.4748 143.527 24.4748C139.915 24.4748 137.381 25.9305 137.381 28.7879C137.381 30.7557 138.783 32.0226 141.802 32.6426L145.091 33.3974C146.384 33.64 146.735 33.9905 146.735 34.5026C146.735 35.3383 145.737 35.8774 144.174 35.8774C142.179 35.8774 141.02 35.4461 140.589 33.9366H137.084C137.624 36.7131 139.753 38.6 144.066 38.6ZM95.5714 20.027H108.618V23.127H99.1027V27.5748H108.376V30.6209H99.1027V35.1226H108.618V38.2226H95.5714V20.027Z" fill="white"/>
<path d="M89.3713 27.3052V24.8522H88.4279C86.9452 24.8522 85.867 25.5261 85.1931 26.6044V24.96H82.5513V38.2226H85.22V30.6748C85.22 28.6261 86.487 27.2783 88.2392 27.2783H89.3713V27.3052ZM70.1513 30.3783C70.6365 28.3565 72.3078 26.9817 74.2757 26.9817C76.2435 26.9817 77.9418 28.3296 78.3731 30.3783H70.1513ZM74.3296 24.7174C70.3939 24.7174 67.3748 27.8713 67.3748 31.6183C67.3748 35.5809 70.5018 38.5461 74.5722 38.5461C77.0252 38.5461 79.047 37.4948 80.3948 35.7157L78.4539 34.3139C77.4565 35.6348 76.1087 36.2548 74.5452 36.2548C72.2539 36.2548 70.4478 34.6374 70.0705 32.4809H81.0687V31.6183C81.0957 27.6557 78.2383 24.7174 74.3296 24.7174ZM59.0452 36.2278C56.4574 36.2278 54.3818 34.1791 54.3818 31.6183C54.3818 29.0574 56.4844 27.0087 59.0452 27.0087C61.5791 27.0087 63.6818 29.0304 63.6818 31.6183C63.6818 34.1791 61.5791 36.2278 59.0452 36.2278ZM51.74 38.2496H54.3818V36.5783C55.5948 37.8183 57.32 38.5461 59.207 38.5461C63.1696 38.5461 66.2965 35.4461 66.2965 31.6183C66.2965 27.7635 63.1696 24.6635 59.207 24.6635C57.32 24.6635 55.6218 25.4183 54.4087 26.6313V20H51.74C51.74 20.027 51.74 38.2496 51.74 38.2496ZM42.3322 36.0931C44.8931 36.0931 46.8878 34.1522 46.8878 31.2409V20H49.6644V38.1957H46.9148V36.5513C45.6748 37.8183 43.9496 38.5461 42.0087 38.5461C38.0461 38.5461 35 35.7157 35 31.4026V20H37.8035V31.2409C37.7765 34.2061 39.7444 36.0931 42.3322 36.0931Z" fill="white"/>
</svg>
