<svg width="185" height="58" viewBox="0 0 185 58" fill="none" xmlns="http://www.w3.org/2000/svg">
<path d="M53.9479 34.7114C54.3113 35.6483 54.8145 36.4493 55.4574 37.1145C56.1004 37.7798 56.8622 38.2889 57.7427 38.6419C58.6232 38.995 59.5807 39.1714 60.615 39.1714C61.6214 39.1714 62.5648 38.9881 63.4454 38.6215C64.326 38.2549 65.0947 37.739 65.7516 37.0738C66.4085 36.4085 66.9187 35.6143 67.2821 34.6911C67.6455 33.7678 67.8272 32.7361 67.8272 31.5956V14H72.23V42.5113H67.8691V39.8638C66.8908 40.8684 65.7376 41.6423 64.4098 42.1855C63.0819 42.7285 61.6493 43 60.1118 43C58.5463 43 57.0858 42.7352 55.7299 42.2057C54.3742 41.6762 53.2001 40.9228 52.2077 39.9452C51.2154 38.9676 50.4326 37.7934 49.8596 36.4221C49.2865 35.0508 49 33.5235 49 31.8399V14H53.4028V31.5956C53.4028 32.7361 53.5844 33.7746 53.9479 34.7114ZM79.8192 14V24.3862C80.7976 23.4359 81.9298 22.6824 83.2156 22.1257C84.5015 21.569 85.8993 21.2907 87.4087 21.2907C88.9742 21.2907 90.4417 21.5758 91.8115 22.146C93.1812 22.7162 94.3692 23.4901 95.3756 24.4677C96.382 25.4453 97.1788 26.5992 97.7658 27.9297C98.3528 29.2603 98.6463 30.6723 98.6463 32.1658C98.6463 33.6591 98.3528 35.0644 97.7658 36.3813C97.1788 37.6982 96.382 38.8455 95.3756 39.8229C94.3692 40.8005 93.1812 41.5744 91.8115 42.1446C90.4417 42.7148 88.9741 42.9999 87.4087 42.9999C85.8992 42.9999 84.4945 42.7216 83.1947 42.1649C81.8948 41.6083 80.7556 40.8548 79.7772 39.9044V42.5112H75.5841V14H79.8192ZM80.3014 34.9761C80.6787 35.8451 81.2029 36.6054 81.8738 37.2571C82.5447 37.9088 83.3274 38.4247 84.222 38.8049C85.1166 39.185 86.0809 39.3751 87.1153 39.3751C88.1217 39.3751 89.072 39.185 89.9665 38.8049C90.8611 38.4247 91.6367 37.9089 92.2938 37.2571C92.9507 36.6055 93.4748 35.8451 93.8662 34.9761C94.2575 34.1072 94.4532 33.1705 94.4532 32.1658C94.4532 31.1611 94.2575 30.2175 93.8662 29.335C93.4748 28.4525 92.9507 27.6854 92.2938 27.0337C91.6368 26.3821 90.8611 25.8729 89.9665 25.5064C89.0719 25.1398 88.1216 24.9564 87.1153 24.9564C86.109 24.9564 85.1585 25.1398 84.264 25.5064C83.3695 25.873 82.5868 26.3821 81.9158 27.0337C81.245 27.6854 80.7138 28.4525 80.3224 29.335C79.9311 30.2175 79.7354 31.1611 79.7354 32.1658C79.7353 33.1705 79.924 34.1072 80.3014 34.9761ZM101.036 27.9706C101.595 26.6672 102.364 25.52 103.342 24.5289C104.32 23.5378 105.481 22.7571 106.823 22.1869C108.164 21.6167 109.618 21.3316 111.183 21.3316C112.721 21.3316 114.147 21.6032 115.46 22.1462C116.774 22.6893 117.906 23.4428 118.857 24.4068C119.807 25.3707 120.548 26.5112 121.079 27.8281C121.61 29.1451 121.876 30.5774 121.876 32.1252V33.4693H104.474C104.614 34.3111 104.894 35.0918 105.313 35.8112C105.732 36.5308 106.256 37.1553 106.885 37.6848C107.514 38.2144 108.227 38.6285 109.024 38.9271C109.821 39.2258 110.666 39.3752 111.561 39.3752C114.105 39.3752 116.159 38.3569 117.725 36.3203L120.786 38.5197C119.723 39.9046 118.41 40.9908 116.844 41.7782C115.279 42.5656 113.518 42.9594 111.561 42.9594C109.967 42.9594 108.479 42.6877 107.095 42.1447C105.711 41.6017 104.509 40.8413 103.489 39.8638C102.469 38.8862 101.665 37.739 101.078 36.4221C100.491 35.1052 100.198 33.6727 100.198 32.125C100.197 30.6588 100.477 29.2739 101.036 27.9706ZM106.927 26.3617C105.739 27.3256 104.95 28.6086 104.558 30.2107H117.599C117.236 28.6086 116.46 27.3256 115.272 26.3617C114.084 25.3978 112.693 24.9158 111.1 24.9158C109.506 24.9158 108.115 25.3978 106.927 26.3617ZM129.801 26.83C128.906 27.7804 128.459 29.0702 128.459 30.6994V42.5113H124.224V21.7388H128.417V24.3048C128.948 23.4631 129.64 22.7978 130.492 22.309C131.345 21.8202 132.358 21.5758 133.532 21.5758H135V25.4044H133.239C131.841 25.4045 130.695 25.8797 129.801 26.83Z" fill="white"/>
</svg>
