<svg width="185" height="58" viewBox="0 0 185 58" fill="none" xmlns="http://www.w3.org/2000/svg">
<path d="M61.793 20C62.401 21.004 62.675 22.037 62.675 23.343C62.675 27.508 59.12 32.918 56.235 36.717H49.635L47 20.912L52.77 20.364L54.168 31.611C55.474 29.484 57.085 26.141 57.085 23.861C57.085 22.613 56.871 21.764 56.537 21.064L61.793 20ZM69.273 26.96C70.335 26.96 73.008 26.474 73.008 24.955C73.008 24.225 72.492 23.861 71.884 23.861C70.82 23.861 69.424 25.137 69.272 26.961L69.273 26.96ZM69.151 29.96C69.151 31.815 70.183 32.543 71.551 32.543C73.051 32.543 74.466 32.179 76.321 31.237L75.623 35.977C74.317 36.615 72.283 37.041 70.306 37.041C65.306 37.041 63.501 34.001 63.501 30.203C63.501 25.279 66.418 20.05 72.433 20.05C75.733 20.05 77.596 21.905 77.596 24.49C77.596 28.655 72.25 29.93 69.151 29.96ZM94.251 23.71C94.251 24.318 94.159 25.21 94.067 25.776L92.334 36.716H86.714L88.294 26.686L88.416 25.562C88.416 24.832 87.96 24.65 87.412 24.65C86.684 24.65 85.954 24.984 85.468 25.228L83.676 36.728H78.026L80.608 20.345H85.508L85.57 21.653C86.724 20.893 88.243 20.073 90.4 20.073C93.256 20.073 94.26 21.533 94.26 23.723L94.251 23.71ZM110.931 21.854C112.531 20.7 114.061 20.061 116.155 20.061C119.04 20.061 120.055 21.521 120.055 23.711C120.055 24.319 119.963 25.211 119.871 25.777L118.141 36.717H112.5L114.1 26.474L114.192 25.654C114.192 24.832 113.736 24.65 113.188 24.65C112.49 24.65 111.792 24.954 111.274 25.228L109.474 36.728H103.854L105.454 26.485L105.554 25.665C105.554 24.843 105.098 24.661 104.552 24.661C103.822 24.661 103.094 24.995 102.608 25.239L100.815 36.739H95.165L97.745 20.356H102.575L102.727 21.724C103.851 20.904 105.369 20.084 107.404 20.084C109.166 20.083 110.32 20.844 110.898 21.877L110.931 21.854ZM131.227 26.626C131.227 25.289 130.893 24.376 129.891 24.376C127.673 24.376 127.218 28.296 127.218 30.302C127.218 31.824 127.644 32.765 128.645 32.765C130.741 32.765 131.227 28.631 131.227 26.626ZM121.507 30.061C121.507 24.894 124.24 20.061 130.529 20.061C135.269 20.061 136.999 22.858 136.999 26.719C136.999 31.826 134.295 37.114 127.855 37.114C123.085 37.114 121.505 33.984 121.505 30.062L121.507 30.061Z" fill="white"/>
</svg>
