<svg width="185" height="58" viewBox="0 0 185 58" fill="none" xmlns="http://www.w3.org/2000/svg">
<path fill-rule="evenodd" clip-rule="evenodd" d="M72.1816 17.771V18.0021C72.1816 18.252 72.5166 18.4649 72.7984 18.4649C73.5741 18.4649 74.1083 17.7599 74.1083 17C73.3479 17.1771 72.1816 16.8273 72.1816 17.771Z" fill="white"/>
<path fill-rule="evenodd" clip-rule="evenodd" d="M55.3063 21.3182C55.3063 22.5857 56.0321 23.6312 57.2324 23.6312H58.08C58.862 23.6312 59.1354 23.4544 59.6987 23.323V21.6267H58.7739V23.0145C58.7739 23.2544 58.3924 23.3999 58.1574 23.3999H57.8494C56.8574 23.3999 56.3082 22.4559 56.3082 21.3953V21.1639C56.3082 20.2828 56.7109 19.5601 57.4324 19.3586C58.8555 18.9618 59.0276 19.8894 59.4675 20.0075C59.5182 19.7902 59.6218 19.6157 59.6218 19.3902C59.6218 19.1399 58.3906 18.9277 58.0034 18.9277C56.3996 18.9277 55.3063 19.713 55.3063 21.3182Z" fill="white"/>
<path fill-rule="evenodd" clip-rule="evenodd" d="M67.2501 21.2408V21.3953C67.2501 22.8008 67.9604 23.6312 69.331 23.6312H70.1015C70.8043 23.6312 71.0476 23.5074 71.1805 22.9376C70.8546 23.0243 70.5721 23.3999 69.9475 23.3999C68.8052 23.3999 68.1751 22.452 68.1751 21.3182C68.1751 20.2368 68.7872 19.236 69.8699 19.236C70.5412 19.236 70.7915 19.6486 71.0889 20.0052L71.1647 19.2513L71.026 19.082C70.5337 19.082 70.4394 18.9277 69.9473 18.9277H69.8696C68.353 18.9277 67.2501 19.7221 67.2501 21.2408Z" fill="white"/>
<path fill-rule="evenodd" clip-rule="evenodd" d="M78.8864 19.3131C78.8864 21.2849 78.5579 23.708 80.5045 23.708H81.2753C83.2102 23.708 82.8163 21.409 82.8163 19.699V19.0817H82.3543V22.0889C82.3543 22.8602 81.823 23.3995 81.0439 23.3995C80.1459 23.3995 79.8111 22.8212 79.8111 21.9346L79.793 20.5453L79.8885 19.0817H78.8869V19.3131H78.8864Z" fill="white"/>
<path fill-rule="evenodd" clip-rule="evenodd" d="M65.0997 20.2097L65.1724 20.237L65.8082 21.8491L64.4347 21.8408L65.0997 20.2097ZM63.3201 23.6311H63.6286C63.9223 23.6311 64.1776 22.5327 64.2451 22.2434H65.7863C66.1211 22.2434 66.2286 23.3021 66.4041 23.6405L67.0962 23.554H67.4045C67.3957 23.4473 66.5701 21.4269 66.4551 21.1885C66.2691 20.8023 65.7484 18.9274 65.4012 18.9274C65.086 18.9274 64.4575 20.8595 64.3118 21.23C64.1009 21.7647 63.4213 23.1977 63.3201 23.6311Z" fill="white"/>
<path fill-rule="evenodd" clip-rule="evenodd" d="M76.3733 20.2501L76.4975 20.2384L77.1384 21.8474L75.7636 21.8425L76.3733 20.2501ZM74.6479 23.6312H74.956C75.4239 23.6312 75.259 22.2435 75.7264 22.2435L77.2703 22.2429L77.6541 23.6406L78.3465 23.5541H78.7318C78.6498 23.2015 77.9572 21.6547 77.7551 21.2164C77.5697 20.8157 77.0857 18.9277 76.7283 18.9277H76.6512C76.4326 18.9277 75.7566 20.8928 75.6262 21.2174C75.3748 21.8425 74.7768 23.0776 74.6479 23.6312Z" fill="white"/>
<path fill-rule="evenodd" clip-rule="evenodd" d="M60.3148 23.6312C60.5558 23.6112 60.5883 23.554 60.8542 23.554L61.2409 23.5359L62.858 23.6312V23.1687H61.3167V19.0819H60.3148V23.6312Z" fill="white"/>
<path fill-rule="evenodd" clip-rule="evenodd" d="M71.7968 23.6311H74.2625L74.2612 23.1577L73.4149 23.246H72.7215V21.6266C72.7215 21.4487 72.775 21.3952 72.9529 21.3952L73.263 21.3773L74.2625 21.4723V21.1638C74.2625 20.8088 74.0415 21.0096 73.8003 21.0096H72.7212V19.4675L73.1084 19.4496L74.2625 19.5447V19.0822H71.7968V23.6311Z" fill="white"/>
<path fill-rule="evenodd" clip-rule="evenodd" d="M87.0292 21.0867V24.1708H91.4216V20.8553H87.2606C87.0829 20.8553 87.0292 20.9088 87.0292 21.0867Z" fill="white"/>
<path fill-rule="evenodd" clip-rule="evenodd" d="M40.1003 24.1708H44.4156V20.8553H40.1003V24.1708Z" fill="white"/>
<path fill-rule="evenodd" clip-rule="evenodd" d="M140.894 31.3425C140.894 29.1546 141.606 26.7158 143.745 26.7158H144.362C145.312 26.7158 146.217 27.6349 146.522 28.3321C146.861 29.1047 147.058 30.514 147.058 31.651H140.894V31.3425ZM139.121 32.9616C139.121 34.9501 139.408 36.4872 139.958 37.9074C140.4 39.0508 141.757 40.4415 143.282 40.4415H144.747C146.893 40.4415 148.677 37.5994 148.677 35.3521H147.213C146.744 35.3521 146.996 39.1303 143.976 39.1303C141.704 39.1303 140.893 36.448 140.893 34.1183V32.9619H148.754V31.4196C148.754 28.4425 147.563 25.4052 144.669 25.4052H143.668C140.249 25.4052 139.121 29.3779 139.121 32.9616Z" fill="white"/>
<path fill-rule="evenodd" clip-rule="evenodd" d="M152.607 27.8725C152.607 27.417 152.783 25.636 152.375 25.636H150.911V40.1327H152.607V30.4938C152.607 28.711 154.108 27.0241 155.92 27.0241H156.459C156.668 27.0241 156.672 27.0607 156.845 27.101V25.4047C156.489 25.3963 156.586 25.3273 156.306 25.3273C155.347 25.3273 154.555 25.6849 153.993 26.0978C153.062 26.7836 153.166 27.2282 152.607 27.8725Z" fill="white"/>
<path fill-rule="evenodd" clip-rule="evenodd" d="M46.7273 25.7134H44.955V28.7209H46.7273V36.5087C46.7273 38.8927 47.247 40.2872 49.6553 40.2872H51.4277C51.8362 40.2872 53.123 40.3467 53.123 39.9787V37.28H52.0445C51.4277 37.28 51.1197 36.7715 51.1197 36.1234V28.7209H53.1232V25.7134H51.1197V21.4724H46.7276V25.7134H46.7273Z" fill="white"/>
<path fill-rule="evenodd" clip-rule="evenodd" d="M30.699 40.1329L35.6848 40.1272L39.2524 25.7133L34.9037 25.7079L33.1601 36.2903L31.4698 25.7133H27C27.067 26.5199 27.6544 28.4183 27.8788 29.3067C28.199 30.5771 28.4483 31.7517 28.7565 32.9771C29.0492 34.1416 29.3188 35.4668 29.6686 36.6141C29.8272 37.134 30.2677 40.1329 30.699 40.1329Z" fill="white"/>
<path fill-rule="evenodd" clip-rule="evenodd" d="M154.687 38.5135H154.918C155.175 38.5135 155.144 38.6519 155.15 38.8986H154.687L154.687 38.5135ZM154.456 39.6699H154.687V39.1303L154.76 39.0659L155.333 39.713L155.417 39.653L155.15 39.0532C155.322 39.0072 155.381 39.0352 155.381 38.8218V38.6675C155.381 38.487 155.253 38.359 155.073 38.359H154.456L154.456 39.6699Z" fill="white"/>
<path fill-rule="evenodd" clip-rule="evenodd" d="M153.994 39.0531V38.976C153.994 37.8165 155.766 37.8092 155.766 38.8989V39.0534C155.766 39.4569 155.422 39.9018 154.996 39.9018H154.764C154.338 39.9015 153.994 39.4567 153.994 39.0531ZM153.763 38.8989V39.0534C153.763 39.4878 154.252 40.0558 154.687 40.0558H154.995C155.649 40.0558 155.997 39.6221 155.997 38.976V38.8989C155.997 38.426 155.468 37.8967 154.995 37.8967H154.918C154.323 37.8967 153.763 38.3436 153.763 38.8989Z" fill="white"/>
<path fill-rule="evenodd" clip-rule="evenodd" d="M97.355 27.3326V25.7132H93.1937V40.1327H97.5093V30.4167C97.5093 29.534 98.1193 28.6435 98.9734 28.6435C99.9278 28.6435 100.283 29.4504 100.283 30.4167V40.1327H104.599V28.7975C104.599 26.7351 103.201 25.3273 101.131 25.3273H100.669C99.9267 25.3273 99.1188 25.6301 98.6483 25.9274C97.9271 26.3829 97.7399 27.0506 97.355 27.3326Z" fill="white"/>
<path fill-rule="evenodd" clip-rule="evenodd" d="M40.1003 40.1329H44.4156V25.7134H40.1003V40.1329Z" fill="white"/>
<path fill-rule="evenodd" clip-rule="evenodd" d="M70.7694 27.3326V25.7132H66.6084V40.1327H70.9237V30.8794C70.9237 29.8344 71.3503 28.6435 72.3107 28.6435H72.6189C73.2526 28.6435 73.6977 29.3826 73.6977 30.0313V40.133H78.0901V30.5714C78.0901 29.6015 78.6204 28.6438 79.5542 28.6438H79.6311C80.5247 28.6438 80.8638 29.3808 80.8638 30.2629V40.133H85.1796V28.7206C85.1796 26.7867 83.7838 25.3275 81.8662 25.3275H81.3266C78.7058 25.3275 78.3513 27.2575 77.7821 27.4095C77.506 26.2234 76.2211 25.3275 74.7769 25.3275H74.0062C73.2427 25.3275 72.5371 25.6713 72.0333 25.9752C71.274 26.4338 71.1756 27.0347 70.7694 27.3326Z" fill="white"/>
<path fill-rule="evenodd" clip-rule="evenodd" d="M87.0292 25.8674V40.1329H91.4216V25.8674C91.4216 25.69 91.3681 25.6362 91.1904 25.6362H87.2606C87.0829 25.636 87.0292 25.69 87.0292 25.8674Z" fill="white"/>
<path fill-rule="evenodd" clip-rule="evenodd" d="M108.606 40.1329L110.412 40.1239L113.071 27.4102L115.618 40.1327H117.467C117.833 40.1327 117.886 38.8374 117.976 38.4824C118.136 37.8477 118.252 37.3164 118.409 36.6796C118.704 35.4855 118.88 34.2346 119.193 32.9923C119.495 31.7985 119.717 30.588 120.01 29.4142C120.185 28.7175 120.781 26.3579 120.781 25.7134L119.073 25.7111L116.696 38.4367L116.562 38.4328L114.154 25.7134L112.09 25.7168L109.531 38.4369L109.437 38.425L106.987 25.7137H105.292C105.292 26.3652 105.847 28.6352 106.032 29.3688C106.326 30.5408 106.521 31.8834 106.862 33.0107C107.04 33.6028 107.08 34.1806 107.248 34.7831C107.382 35.2599 107.62 36.1677 107.673 36.5936C107.748 37.1959 107.927 37.8812 108.066 38.4369C108.146 38.7535 108.259 40.1329 108.606 40.1329Z" fill="white"/>
<path fill-rule="evenodd" clip-rule="evenodd" d="M134.19 25.7134H132.186V27.0245H134.19V38.0507C134.19 39.5494 135.094 40.2872 136.579 40.2872H137.965C138.173 40.2872 138.178 40.2503 138.351 40.21V38.822C137.945 38.8311 137.897 38.9762 137.58 38.9762C136.503 38.9762 135.808 38.5966 135.808 37.5113V27.2559C135.808 27.0783 135.861 27.0248 136.039 27.0248H138.351V25.7136H136.039C135.861 25.7136 135.808 25.6599 135.808 25.4822V21.7037H134.189V25.7134H134.19Z" fill="white"/>
<path fill-rule="evenodd" clip-rule="evenodd" d="M57.5925 35.1981C57.5925 34.5753 58.282 34.0417 58.7793 33.8407C59.214 33.6646 60.2008 33.1904 60.5208 33.1159V35.6606C60.5208 36.6051 59.9718 37.5111 59.0569 37.5111H58.5944C58.0316 37.5111 57.5923 36.7022 57.5923 36.1231L57.5925 35.1981ZM53.8169 29.4143V30.1853H57.6696V29.8002C57.6696 28.785 58.1877 28.181 59.2109 28.181H59.442C60.0546 28.181 60.5208 28.7661 60.5208 29.4143V29.877C60.5208 32.7323 53.3544 29.9762 53.3544 36.2002C53.3544 38.5896 54.4594 40.5181 56.822 40.5181H57.5925C58.2472 40.5181 59.0556 40.14 59.4747 39.8569C60.0803 39.4476 60.4257 38.6961 60.675 38.5135C60.675 40.154 60.6363 40.133 62.062 40.133C63.0639 40.133 64.0653 40.133 65.0674 40.133C64.1868 38.4678 64.6047 33.2294 64.6047 30.6486C64.6047 26.9643 63.5836 25.3275 59.9043 25.3275H58.9798C56.1385 25.3275 53.8169 26.64 53.8169 29.4143Z" fill="white"/>
<path fill-rule="evenodd" clip-rule="evenodd" d="M123.247 35.9688C123.247 32.7404 127.525 33.588 128.873 32.0361C128.873 33.6072 129 35.7494 128.595 36.9245C128.23 37.9846 127.081 39.1303 125.713 39.1303H125.559C124.212 39.1303 123.247 37.9082 123.247 36.5859V35.9688H123.247ZM121.937 29.723V29.8002C121.937 29.9778 121.991 30.0313 122.168 30.0313H123.401C123.733 30.0313 123.675 29.1618 123.71 28.8751C123.75 28.5399 123.95 28.0504 124.108 27.8086C124.435 27.3121 125.286 26.7156 126.021 26.7156H126.638C128.037 26.7156 128.872 27.7455 128.872 29.1829V29.6456C128.872 30.9418 128.334 31.3362 127.271 31.5907C126.4 31.7993 125.311 32.0776 124.431 32.3727C122.562 33.0001 121.474 34.1276 121.474 36.5856V36.7396C121.474 38.5317 122.723 40.4412 124.403 40.4412H126.021C126.623 40.4412 127.53 39.9777 127.852 39.6512C128.498 38.9963 128.528 38.6125 128.949 38.1276C128.949 39.456 129.243 40.2867 130.568 40.2867H131.261C131.527 40.2867 131.559 40.2298 131.8 40.2096V38.9758H131.338C130.173 38.9758 130.568 36.5103 130.568 35.3518C130.568 33.8869 130.568 32.4217 130.568 30.9566C130.568 29.4732 130.653 27.9932 130.075 27.0547C129.549 26.2006 128.559 25.4049 127.254 25.4049H125.713C123.415 25.4052 121.937 27.3697 121.937 29.723Z" fill="white"/>
</svg>
