<svg width="185" height="58" viewBox="0 0 185 58" fill="none" xmlns="http://www.w3.org/2000/svg">
<path d="M58.5445 25.4672L57.4433 24.6788C57.2051 24.5272 56.967 24.4362 56.6992 24.4362H55.7169C55.4193 24.4362 55.1812 24.4969 54.9728 24.7091L53.5739 26.1949C53.2763 26.4982 53.2465 26.8014 53.5739 27.044C54.318 27.7111 55.1217 28.1053 55.9848 28.1053C56.9968 28.1053 57.8897 27.2562 58.6338 26.3162C58.8719 26.013 58.8719 25.7098 58.5445 25.4672ZM51.1035 21.7982C51.1035 23.284 51.4607 24.3756 52.3238 25.4672C52.5917 25.8007 52.8596 25.7704 53.1572 25.4672L54.3478 24.2543C54.6157 23.9814 54.705 23.7388 54.705 23.4659L54.7347 18.0988C54.7347 17.7046 54.5264 17.4924 54.1395 17.4924H53.6335C53.2763 17.4924 53.0382 17.6136 52.7405 17.9169C51.6393 18.9478 51.1035 20.282 51.1035 21.7982ZM51.3416 16.2794C51.3416 16.6736 51.55 16.8859 51.9369 16.8859H54.1395C54.5264 16.8859 54.7347 16.6736 54.7347 16.2794V7.75881C54.7347 6.78848 54.199 6.24268 53.2465 6.24268H52.8298C51.8774 6.24268 51.3416 6.78848 51.3416 7.75881V16.2794ZM57.86 23.5569C57.86 23.9207 57.979 24.133 58.2767 24.3453L58.991 24.8607C59.2886 25.073 59.5267 25.073 59.8244 24.8607L60.5387 24.3453C60.8364 24.133 60.9554 23.9207 60.9554 23.5569V14.6724C60.9554 13.702 60.4197 13.1562 59.4672 13.1562H59.3482C58.3957 13.1562 57.86 13.702 57.86 14.6724V23.5569ZM60.1816 26.3162C60.9257 27.2562 61.8186 28.1053 62.8306 28.1053C63.6937 28.1053 64.5569 27.7111 65.2712 27.0743C65.5689 26.8014 65.5689 26.4678 65.2712 26.1646L63.8128 24.7395C63.6044 24.5272 63.3961 24.4362 63.0984 24.4362H62.1162C61.8483 24.4362 61.6102 24.5272 61.3721 24.6788L60.2708 25.4672C59.9434 25.7098 59.9434 26.013 60.1816 26.3162ZM64.0806 18.0988L64.1104 23.4659C64.1104 23.7388 64.1997 23.9814 64.4676 24.2543L65.6581 25.4672C65.9558 25.7704 66.2237 25.8007 66.4915 25.4672C67.3547 24.3756 67.7119 23.284 67.7119 21.7982C67.7119 20.282 67.1761 18.9478 66.0748 17.9169C65.7772 17.6136 65.5391 17.4924 65.1819 17.4924H64.6759C64.289 17.4924 64.0806 17.7046 64.0806 18.0988ZM64.0806 16.2794C64.0806 16.6736 64.289 16.8859 64.6759 16.8859H66.8785C67.2654 16.8859 67.4738 16.6736 67.4738 16.2794V7.75881C67.4738 6.78848 66.938 6.24268 65.9855 6.24268H65.5689C64.6164 6.24268 64.0806 6.78848 64.0806 7.75881V16.2794Z" fill="white"/>
<path d="M69.6807 12.4285V15.2788C69.6807 15.582 69.8295 15.764 70.0676 16.0065L70.9605 16.9162C71.1986 17.1588 71.5558 17.1588 71.7939 16.9162L72.6868 16.0065C72.9249 15.764 73.0738 15.582 73.0738 15.2788V7.97106C73.0738 7.54655 72.7464 7.33429 72.2404 7.66784C70.2759 8.91106 69.6807 10.6395 69.6807 12.4285ZM69.6807 26.3769C69.6807 27.3472 70.2164 27.893 71.1689 27.893H71.5856C72.538 27.893 73.0738 27.3472 73.0738 26.3769V19.7059C73.0738 19.4027 72.9249 19.2207 72.6868 18.9782L71.7939 18.0685C71.5558 17.8259 71.1986 17.8259 70.9605 18.0685L70.0676 18.9782C69.8295 19.2207 69.6807 19.4027 69.6807 19.7059V26.3769ZM72.6868 17.9169L73.4309 18.7053C73.669 18.9782 73.8476 19.0691 74.1453 19.0691H78.5504C78.848 19.0691 79.0266 18.9782 79.2647 18.7053L80.0088 17.9169C80.2469 17.644 80.2469 17.3407 80.0088 17.0678L79.2647 16.2795C79.0266 16.0065 78.848 15.9156 78.5504 15.9156H74.1453C73.8476 15.9156 73.669 16.0065 73.4309 16.2795L72.6868 17.0678C72.4487 17.3407 72.4487 17.644 72.6868 17.9169ZM73.8179 9.30526C73.8179 9.66913 74.0262 9.88139 74.4132 9.88139H78.7885C79.0861 9.88139 79.354 9.79042 79.5326 9.54784L80.6041 8.21364C80.8422 7.91042 80.8124 7.57687 80.485 7.36461C79.3242 6.51558 77.836 6.09106 76.5859 6.09106C75.6632 6.09106 75.068 6.30332 74.3834 6.5459C73.9667 6.72784 73.8179 6.84913 73.8179 7.15235V9.30526ZM79.6219 26.3769C79.6219 27.3472 80.1576 27.893 81.1101 27.893H81.5268C82.4792 27.893 83.015 27.3472 83.015 26.3769V19.7059C83.015 19.4027 82.8661 19.2207 82.628 18.9782L81.7351 18.0685C81.497 17.8259 81.1398 17.8259 80.9017 18.0685L80.0088 18.9782C79.7707 19.2207 79.6219 19.4027 79.6219 19.7059V26.3769ZM79.6219 15.2788C79.6219 15.582 79.7707 15.764 80.0088 16.0065L80.9017 16.9162C81.1398 17.1588 81.497 17.1588 81.7351 16.9162L82.628 16.0065C82.8661 15.764 83.015 15.582 83.015 15.2788V11.2762C83.015 10.4272 82.7471 9.63881 82.122 8.8201C81.8244 8.4259 81.4672 8.36526 81.1398 8.75945L80.0088 10.1543C79.7707 10.4272 79.6219 10.7304 79.6219 11.0943V15.2788Z" fill="white"/>
<path d="M86.5109 16.8859H88.7134C89.1004 16.8859 89.3087 16.6736 89.3087 16.2794V7.75881C89.3087 6.78848 88.773 6.24268 87.8205 6.24268H87.4038C86.4514 6.24268 85.9156 6.78848 85.9156 7.75881V16.2794C85.9156 16.6736 86.124 16.8859 86.5109 16.8859ZM85.6775 21.7982C85.6775 23.2536 86.124 24.3756 86.8383 25.2853C87.1062 25.6188 87.4633 25.6491 87.761 25.3459L88.9515 24.133C89.2492 23.8298 89.3087 23.5872 89.3087 23.3143V18.0988C89.3087 17.7046 89.1004 17.4924 88.7134 17.4924H88.2074C87.8503 17.4924 87.6419 17.6136 87.3145 17.9169C86.2132 18.9478 85.6775 20.282 85.6775 21.7982ZM88.3265 25.8614C88.0586 26.1343 88.0289 26.5285 88.4158 26.8317C89.3385 27.5595 90.7969 28.1053 92.7316 28.1053C94.2495 28.1053 95.5889 27.6807 96.1842 27.4382C96.4818 27.2865 96.7497 27.1046 96.7497 26.7711V24.9214C96.7497 24.5272 96.5414 24.3149 96.1544 24.3149H90.2314C89.8445 24.3149 89.6361 24.4362 89.4575 24.6485L88.3265 25.8614Z" fill="white"/>
<path d="M115.379 7.75881V14.8846C115.379 15.1878 115.528 15.3698 115.766 15.6124L116.659 16.522C116.897 16.7646 117.254 16.7646 117.493 16.522L118.385 15.6124C118.624 15.3698 118.772 15.1878 118.772 14.8846V7.75881C118.772 6.78848 118.237 6.24268 117.284 6.24268H116.867C115.915 6.24268 115.379 6.78848 115.379 7.75881ZM115.379 26.3769C115.379 27.3472 115.915 27.893 116.867 27.893H117.284C118.237 27.893 118.772 27.3472 118.772 26.3769V19.1601C118.772 18.8569 118.624 18.6749 118.385 18.4324L117.493 17.5227C117.254 17.2801 116.897 17.2801 116.659 17.5227L115.766 18.4324C115.528 18.6749 115.379 18.8569 115.379 19.1601V26.3769Z" fill="white"/>
<path d="M98.9415 7.75881V14.8846C98.9415 15.1878 99.0903 15.3698 99.3285 15.6124L100.221 16.522C100.459 16.7646 100.817 16.7646 101.055 16.522L101.948 15.6124C102.186 15.3698 102.335 15.1878 102.335 14.8846V7.75881C102.335 6.78848 101.799 6.24268 100.846 6.24268H100.43C99.4773 6.24268 98.9415 6.78848 98.9415 7.75881ZM98.9415 26.3769C98.9415 27.3472 99.4773 27.893 100.43 27.893H100.846C101.799 27.893 102.335 27.3472 102.335 26.3769V19.3117C102.335 19.0085 102.186 18.8265 101.948 18.584L101.055 17.6743C100.817 17.4317 100.459 17.4317 100.221 17.6743L99.3285 18.584C99.0903 18.8265 98.9415 19.0085 98.9415 19.3117V26.3769ZM102.989 17.7349C102.989 18.0382 103.079 18.1898 103.228 18.402L109.686 27.2259C109.924 27.5291 110.133 27.6807 110.698 27.6807H112.008C112.365 27.6807 112.603 27.4382 112.603 27.0743V26.104C112.603 25.8007 112.514 25.5885 112.335 25.3459L106.323 17.2801C106.234 17.1588 106.174 17.0072 106.174 16.8859C106.174 16.7343 106.234 16.613 106.323 16.4917L112.335 8.78977C112.514 8.54719 112.603 8.33493 112.603 8.03171V7.06139C112.603 6.69751 112.365 6.45493 112.008 6.45493H110.698C110.133 6.45493 109.924 6.60655 109.686 6.90977L103.228 15.4001C103.079 15.6124 102.989 15.764 102.989 16.0672V17.7349Z" fill="white"/>
<path d="M125.485 9.88139H132.39C132.777 9.88139 132.985 9.66913 132.985 9.30526V7.36461C132.985 7.00074 132.777 6.81881 132.241 6.60655C131.289 6.24268 130.128 6.09106 128.878 6.09106C127.032 6.09106 125.098 6.42461 123.788 7.36461C123.461 7.57687 123.431 7.91042 123.669 8.21364L124.741 9.54784C124.919 9.79042 125.187 9.88139 125.485 9.88139ZM121.258 22.9201C121.258 23.7691 121.526 24.5575 122.151 25.3762C122.449 25.7704 122.806 25.8311 123.133 25.4369L124.264 24.042C124.502 23.7691 124.651 23.4659 124.651 23.102V20.1911C124.651 19.7059 124.383 19.433 123.907 19.433H122.002C121.526 19.433 121.258 19.7059 121.258 20.1911V22.9201ZM121.258 17.9169C121.258 18.402 121.526 18.6749 122.002 18.6749H130.902C131.199 18.6749 131.378 18.584 131.616 18.3111L132.36 17.5227C132.598 17.2498 132.598 16.9465 132.36 16.6736L131.616 15.8853C131.378 15.6124 131.199 15.5214 130.902 15.5214H125.247C124.86 15.5214 124.651 15.3091 124.651 14.9149V11.0943C124.651 10.7304 124.502 10.4272 124.264 10.1543L123.133 8.75945C122.806 8.36526 122.449 8.4259 122.151 8.8201C121.526 9.63881 121.258 10.4272 121.258 11.2762V17.9169ZM123.669 25.9827C123.431 26.2859 123.461 26.6194 123.788 26.8317C125.098 27.7717 127.151 28.1053 128.402 28.1053C130.455 28.1053 131.705 27.5595 132.449 27.0136C132.836 26.7407 132.985 26.5285 132.985 26.1343V24.9214C132.985 24.5272 132.777 24.3149 132.39 24.3149H125.485C125.187 24.3149 124.919 24.4059 124.741 24.6485L123.669 25.9827Z" fill="white"/>
<path d="M52.2554 34.7458H56.3628C56.72 34.7458 57.0176 34.6245 57.2855 34.3516L58.3868 33.2297C58.744 32.8658 58.7737 32.4716 58.3868 32.1987C57.3748 31.471 56.2735 30.9858 54.7556 30.9858C53.6543 30.9858 52.553 31.38 52.0768 31.6833C51.6899 31.9562 51.6006 32.1987 51.6006 32.6233V34.1394C51.6006 34.5639 51.8089 34.7458 52.2554 34.7458ZM57.7915 51.3323C57.7915 52.3026 58.3273 52.8484 59.2797 52.8484H59.6964C60.6489 52.8484 61.1846 52.3026 61.1846 51.3323V44.3278C61.1846 44.0246 61.0358 43.8426 60.7977 43.6L59.9048 42.6904C59.6666 42.4478 59.3095 42.4478 59.0714 42.6904L58.1784 43.6C57.9403 43.8426 57.7915 44.0246 57.7915 44.3278V51.3323ZM57.7915 40.0523C57.7915 40.3555 57.9403 40.5375 58.1784 40.78L59.0714 41.6897C59.3095 41.9323 59.6666 41.9323 59.9048 41.6897L60.7977 40.78C61.0358 40.5375 61.1846 40.3555 61.1846 40.0523V35.2613C61.1846 34.9581 61.0358 34.7762 60.7977 34.5336L59.9048 33.6239C59.6666 33.3813 59.3095 33.3813 59.0714 33.6239L58.1784 34.5336C57.9403 34.7762 57.7915 34.9581 57.7915 35.2613V40.0523ZM60.5893 33.2297L61.6906 34.3516C61.9585 34.6245 62.2561 34.7458 62.6133 34.7458H66.7207C67.1672 34.7458 67.3755 34.5639 67.3755 34.1394V32.6233C67.3755 32.1987 67.2862 31.9562 66.8993 31.6833C66.4231 31.38 65.3218 30.9858 64.2205 30.9858C62.7026 30.9858 61.6013 31.471 60.5893 32.1987C60.2024 32.4716 60.2322 32.8658 60.5893 33.2297Z" fill="white"/>
<path d="M69.6807 37.293V40.1433C69.6807 40.4465 69.8295 40.6285 70.0676 40.871L70.9605 41.7807C71.1986 42.0233 71.5558 42.0233 71.7939 41.7807L72.6868 40.871C72.9249 40.6285 73.0738 40.4465 73.0738 40.1433V32.8356C73.0738 32.411 72.7464 32.1988 72.2404 32.5323C70.2759 33.7756 69.6807 35.504 69.6807 37.293ZM69.6807 51.2414C69.6807 52.2117 70.2164 52.7575 71.1689 52.7575H71.5856C72.538 52.7575 73.0738 52.2117 73.0738 51.2414V44.5704C73.0738 44.2672 72.9249 44.0852 72.6868 43.8427L71.7939 42.933C71.5558 42.6904 71.1986 42.6904 70.9605 42.933L70.0676 43.8427C69.8295 44.0852 69.6807 44.2672 69.6807 44.5704V51.2414ZM72.6868 42.7814L73.4309 43.5698C73.669 43.8427 73.8476 43.9336 74.1453 43.9336H78.5504C78.848 43.9336 79.0266 43.8427 79.2647 43.5698L80.0088 42.7814C80.2469 42.5085 80.2469 42.2052 80.0088 41.9323L79.2647 41.144C79.0266 40.871 78.848 40.7801 78.5504 40.7801H74.1453C73.8476 40.7801 73.669 40.871 73.4309 41.144L72.6868 41.9323C72.4487 42.2052 72.4487 42.5085 72.6868 42.7814ZM73.8179 34.1698C73.8179 34.5336 74.0262 34.7459 74.4132 34.7459H78.7885C79.0861 34.7459 79.354 34.6549 79.5326 34.4123L80.6041 33.0781C80.8422 32.7749 80.8124 32.4414 80.485 32.2291C79.3242 31.3801 77.836 30.9556 76.5859 30.9556C75.6632 30.9556 75.068 31.1678 74.3834 31.4104C73.9667 31.5923 73.8179 31.7136 73.8179 32.0169V34.1698ZM79.6219 51.2414C79.6219 52.2117 80.1576 52.7575 81.1101 52.7575H81.5268C82.4792 52.7575 83.015 52.2117 83.015 51.2414V44.5704C83.015 44.2672 82.8661 44.0852 82.628 43.8427L81.7351 42.933C81.497 42.6904 81.1398 42.6904 80.9017 42.933L80.0088 43.8427C79.7707 44.0852 79.6219 44.2672 79.6219 44.5704V51.2414ZM79.6219 40.1433C79.6219 40.4465 79.7707 40.6285 80.0088 40.871L80.9017 41.7807C81.1398 42.0233 81.497 42.0233 81.7351 41.7807L82.628 40.871C82.8661 40.6285 83.015 40.4465 83.015 40.1433V36.1407C83.015 35.2917 82.7471 34.5033 82.122 33.6846C81.8244 33.2904 81.4672 33.2298 81.1398 33.624L80.0088 35.0188C79.7707 35.2917 79.6219 35.5949 79.6219 35.9588V40.1433Z" fill="white"/>
<path d="M86.5109 41.7504H88.7134C89.1004 41.7504 89.3087 41.5381 89.3087 41.144V32.6233C89.3087 31.653 88.773 31.1072 87.8205 31.1072H87.4038C86.4514 31.1072 85.9156 31.653 85.9156 32.6233V41.144C85.9156 41.5381 86.124 41.7504 86.5109 41.7504ZM85.6775 46.6627C85.6775 48.1181 86.124 49.2401 86.8383 50.1498C87.1062 50.4833 87.4633 50.5136 87.761 50.2104L88.9515 48.9975C89.2492 48.6943 89.3087 48.4517 89.3087 48.1788V42.9633C89.3087 42.5691 89.1004 42.3569 88.7134 42.3569H88.2074C87.8503 42.3569 87.6419 42.4781 87.3145 42.7814C86.2132 43.8123 85.6775 45.1465 85.6775 46.6627ZM88.3265 50.7259C88.0586 50.9988 88.0289 51.393 88.4158 51.6962C89.3385 52.424 90.7969 52.9698 92.7316 52.9698C94.2495 52.9698 95.5889 52.5452 96.1842 52.3027C96.4818 52.151 96.7497 51.9691 96.7497 51.6356V49.7859C96.7497 49.3917 96.5414 49.1794 96.1544 49.1794H90.2314C89.8445 49.1794 89.6361 49.3007 89.4575 49.513L88.3265 50.7259Z" fill="white"/>
<path d="M115.379 32.6233V39.7491C115.379 40.0523 115.528 40.2343 115.766 40.4769L116.659 41.3865C116.897 41.6291 117.254 41.6291 117.493 41.3865L118.385 40.4769C118.624 40.2343 118.772 40.0523 118.772 39.7491V32.6233C118.772 31.653 118.237 31.1072 117.284 31.1072H116.867C115.915 31.1072 115.379 31.653 115.379 32.6233ZM115.379 51.2414C115.379 52.2117 115.915 52.7575 116.867 52.7575H117.284C118.237 52.7575 118.772 52.2117 118.772 51.2414V44.0246C118.772 43.7214 118.624 43.5394 118.385 43.2969L117.493 42.3872C117.254 42.1446 116.897 42.1446 116.659 42.3872L115.766 43.2969C115.528 43.5394 115.379 43.7214 115.379 44.0246V51.2414Z" fill="white"/>
<path d="M98.9415 32.6233V39.7491C98.9415 40.0523 99.0903 40.2343 99.3285 40.4769L100.221 41.3865C100.459 41.6291 100.817 41.6291 101.055 41.3865L101.948 40.4769C102.186 40.2343 102.335 40.0523 102.335 39.7491V32.6233C102.335 31.653 101.799 31.1072 100.846 31.1072H100.43C99.4773 31.1072 98.9415 31.653 98.9415 32.6233ZM98.9415 51.2414C98.9415 52.2117 99.4773 52.7575 100.43 52.7575H100.846C101.799 52.7575 102.335 52.2117 102.335 51.2414V44.1762C102.335 43.873 102.186 43.691 101.948 43.4485L101.055 42.5388C100.817 42.2962 100.459 42.2962 100.221 42.5388L99.3285 43.4485C99.0903 43.691 98.9415 43.873 98.9415 44.1762V51.2414ZM102.989 42.5994C102.989 42.9027 103.079 43.0543 103.228 43.2665L109.686 52.0904C109.924 52.3936 110.133 52.5452 110.698 52.5452H112.008C112.365 52.5452 112.603 52.3027 112.603 51.9388V50.9685C112.603 50.6652 112.514 50.453 112.335 50.2104L106.323 42.1446C106.234 42.0233 106.174 41.8717 106.174 41.7504C106.174 41.5988 106.234 41.4775 106.323 41.3562L112.335 33.6543C112.514 33.4117 112.603 33.1994 112.603 32.8962V31.9259C112.603 31.562 112.365 31.3194 112.008 31.3194H110.698C110.133 31.3194 109.924 31.471 109.686 31.7743L103.228 40.2646C103.079 40.4769 102.989 40.6285 102.989 40.9317V42.5994Z" fill="white"/>
<path d="M125.485 34.7459H132.39C132.777 34.7459 132.985 34.5336 132.985 34.1698V32.2291C132.985 31.8652 132.777 31.6833 132.241 31.471C131.289 31.1072 130.128 30.9556 128.878 30.9556C127.032 30.9556 125.098 31.2891 123.788 32.2291C123.461 32.4414 123.431 32.7749 123.669 33.0781L124.741 34.4123C124.919 34.6549 125.187 34.7459 125.485 34.7459ZM121.258 47.7846C121.258 48.6336 121.526 49.422 122.151 50.2407C122.449 50.6349 122.806 50.6956 123.133 50.3014L124.264 48.9065C124.502 48.6336 124.651 48.3304 124.651 47.9665V45.0556C124.651 44.5704 124.383 44.2975 123.907 44.2975H122.002C121.526 44.2975 121.258 44.5704 121.258 45.0556V47.7846ZM121.258 42.7814C121.258 43.2665 121.526 43.5394 122.002 43.5394H130.902C131.199 43.5394 131.378 43.4485 131.616 43.1756L132.36 42.3872C132.598 42.1143 132.598 41.8111 132.36 41.5381L131.616 40.7498C131.378 40.4769 131.199 40.3859 130.902 40.3859H125.247C124.86 40.3859 124.651 40.1736 124.651 39.7794V35.9588C124.651 35.5949 124.502 35.2917 124.264 35.0188L123.133 33.624C122.806 33.2298 122.449 33.2904 122.151 33.6846C121.526 34.5033 121.258 35.2917 121.258 36.1407V42.7814ZM123.669 50.8472C123.431 51.1504 123.461 51.4839 123.788 51.6962C125.098 52.6362 127.151 52.9698 128.402 52.9698C130.455 52.9698 131.705 52.424 132.449 51.8781C132.836 51.6052 132.985 51.393 132.985 50.9988V49.7859C132.985 49.3917 132.777 49.1794 132.39 49.1794H125.485C125.187 49.1794 124.919 49.2704 124.741 49.513L123.669 50.8472Z" fill="white"/>
</svg>
