<svg width="185" height="58" viewBox="0 0 185 58" fill="none" xmlns="http://www.w3.org/2000/svg">
<path d="M75.2401 31.8009H75.2006L72.6189 21.5169L69.513 21.5169L66.8918 31.6931H66.8522L64.4635 21.5169H61.1449L65.1361 36.463H68.4991L71.0116 26.2916H71.0561L73.613 36.463H76.9118L80.9672 21.5169H77.713L75.2401 31.8009ZM91.0911 26.5805C90.7721 26.1832 90.3547 25.8745 89.8794 25.6844C89.2478 25.4489 88.5756 25.3391 87.9011 25.3611C87.2972 25.3701 86.7034 25.5158 86.1652 25.7872C85.5543 26.092 85.0484 26.5692 84.7111 27.1584H84.6468V21.5267H81.6448V36.4728H84.6468V30.8019C84.6468 29.7 84.8298 28.9067 85.1958 28.4268C85.4107 28.1731 85.6845 27.9746 85.9937 27.8484C86.3028 27.7222 86.6383 27.672 86.9713 27.702C87.2554 27.6741 87.542 27.7204 87.8023 27.8364C88.0627 27.9525 88.2877 28.134 88.455 28.3631C88.7785 28.9781 88.9256 29.6691 88.8804 30.3611V36.4728H91.8824V29.8175C91.8861 29.2024 91.8248 28.5885 91.6994 27.986C91.6035 27.4789 91.3958 26.999 91.0911 26.5805ZM103.455 34.0683V28.4366C103.483 27.8756 103.327 27.3206 103.01 26.8548C102.715 26.4563 102.324 26.1367 101.873 25.9243C101.386 25.6942 100.865 25.5421 100.33 25.4738C99.7757 25.3978 99.2172 25.3601 98.658 25.3611C98.0519 25.3613 97.4473 25.4204 96.8528 25.5374C96.2834 25.6441 95.7364 25.8462 95.2356 26.1349C94.7604 26.4083 94.3558 26.7871 94.0536 27.2416C93.7226 27.7635 93.5397 28.3641 93.5244 28.9802H96.5215C96.5259 28.7409 96.581 28.5052 96.6833 28.2884C96.7855 28.0716 96.9325 27.8785 97.1149 27.7216C97.5274 27.4524 98.0164 27.3219 98.5096 27.3494C98.7611 27.3474 99.0123 27.3639 99.2614 27.3984C99.477 27.4312 99.6848 27.5025 99.8746 27.6089C100.054 27.7138 100.199 27.8666 100.295 28.0497C100.413 28.2866 100.468 28.5498 100.453 28.8137C100.469 28.9435 100.453 29.0753 100.406 29.1974C100.358 29.3195 100.281 29.4282 100.181 29.5139C99.9441 29.6952 99.6685 29.8208 99.3751 29.8812C98.9931 29.9728 98.6046 30.0351 98.2129 30.0673C97.7777 30.1114 97.3325 30.1701 96.8825 30.2387C96.4309 30.3072 95.9834 30.4005 95.5422 30.5179C95.1186 30.6273 94.7172 30.8078 94.3552 31.0516C94.0013 31.3097 93.7119 31.6448 93.5095 32.0311C93.2749 32.5024 93.1627 33.0241 93.1831 33.5492C93.1693 34.0443 93.2672 34.5362 93.47 34.989C93.6489 35.3828 93.9202 35.7286 94.2613 35.9978C94.614 36.2691 95.0174 36.4689 95.4482 36.5855C95.9223 36.7118 96.4114 36.7744 96.9023 36.7716C97.5728 36.7711 98.2395 36.6721 98.8806 36.4777C99.5238 36.2862 100.106 35.9337 100.572 35.4542C100.587 35.6333 100.611 35.8115 100.646 35.988C100.681 36.1541 100.727 36.3178 100.785 36.4777H103.841C103.674 36.1666 103.573 35.825 103.544 35.4738C103.485 34.9994 103.455 34.5218 103.455 34.0438V34.0683ZM100.453 32.2857C100.45 32.5101 100.434 32.7342 100.404 32.9566C100.363 33.2483 100.266 33.5293 100.117 33.7842C99.9448 34.0764 99.6973 34.3181 99.3998 34.4846C98.9766 34.7033 98.5016 34.8048 98.025 34.7784C97.791 34.7797 97.5574 34.7584 97.3276 34.7147C97.1168 34.6818 96.9148 34.6068 96.7341 34.4944C96.5647 34.3901 96.4265 34.243 96.3335 34.0683C96.2286 33.8603 96.1776 33.6298 96.1852 33.3974C96.1772 33.1587 96.2281 32.9217 96.3335 32.7069C96.4277 32.5294 96.5613 32.3754 96.7242 32.2563C96.8983 32.1338 97.09 32.038 97.293 31.9723C97.5123 31.9048 97.7352 31.8492 97.9607 31.8058C98.1981 31.7667 98.4552 31.7274 98.6778 31.7029C98.9003 31.6785 99.1476 31.6393 99.3652 31.5952C99.5734 31.5587 99.7785 31.5063 99.9785 31.4385C100.161 31.3889 100.329 31.3003 100.473 31.179L100.453 32.2857ZM109.059 22.4081H106.057V25.6501H104.237V27.6383H106.057V34.0046C106.037 34.4608 106.13 34.9147 106.329 35.3269C106.502 35.6491 106.762 35.917 107.081 36.1006C107.42 36.2896 107.793 36.4142 108.178 36.4679C108.616 36.5296 109.057 36.5607 109.499 36.5609C109.796 36.5609 110.097 36.5609 110.409 36.5609C110.692 36.5492 110.975 36.5198 111.255 36.4728V34.1711C111.108 34.2009 110.959 34.2222 110.81 34.2348C110.656 34.2348 110.493 34.2348 110.315 34.2348C110.138 34.2979 109.947 34.3099 109.764 34.2694C109.581 34.2289 109.413 34.1375 109.28 34.006C109.147 33.8745 109.055 33.7083 109.014 33.5268C108.973 33.3453 108.985 33.156 109.049 32.9811V27.5942H111.26V25.606H109.064L109.059 22.4081ZM121.463 31.7127C121.267 31.3747 121.001 31.0824 120.681 30.8557C120.341 30.6178 119.968 30.4297 119.573 30.2975C119.158 30.1603 118.728 30.0428 118.292 29.9449C117.857 29.8469 117.457 29.7539 117.046 29.6707C116.678 29.5982 116.315 29.505 115.958 29.3915C115.676 29.3051 115.414 29.1654 115.186 28.9802C115.091 28.9019 115.014 28.803 114.963 28.6909C114.911 28.5789 114.886 28.4567 114.89 28.3337C114.879 28.1415 114.938 27.9517 115.058 27.7999C115.17 27.6679 115.313 27.5639 115.473 27.4963C115.645 27.4231 115.827 27.3768 116.012 27.3592C116.195 27.3403 116.378 27.3305 116.561 27.3298C117.044 27.3171 117.523 27.4213 117.956 27.6334C118.16 27.7507 118.329 27.9205 118.444 28.1248C118.559 28.3291 118.616 28.5603 118.609 28.7941H121.463C121.441 28.2067 121.271 27.6341 120.968 27.129C120.692 26.6982 120.32 26.3362 119.88 26.0712C119.423 25.7988 118.92 25.6082 118.396 25.5081C117.83 25.3955 117.253 25.3397 116.675 25.3415C116.095 25.3395 115.515 25.3904 114.944 25.4934C114.409 25.5889 113.893 25.7744 113.421 26.0419C112.97 26.2931 112.595 26.6581 112.333 27.0997C112.037 27.6218 111.893 28.2153 111.917 28.8137C111.904 29.2345 112.006 29.651 112.214 30.0183C112.412 30.3437 112.678 30.6227 112.996 30.8361C113.34 31.0593 113.715 31.2341 114.108 31.3553C114.524 31.4924 114.949 31.605 115.384 31.7029C116.235 31.866 117.074 32.0903 117.892 32.3739C118.49 32.5942 118.787 32.9321 118.787 33.3533C118.795 33.5876 118.729 33.8187 118.599 34.0145C118.467 34.1876 118.298 34.3298 118.104 34.4307C117.905 34.5392 117.69 34.6168 117.466 34.6608C117.249 34.7081 117.027 34.7328 116.804 34.7343C116.515 34.7355 116.228 34.7009 115.948 34.6314C115.686 34.5675 115.438 34.4563 115.216 34.3034C115.012 34.1537 114.843 33.9614 114.722 33.7402C114.585 33.4857 114.517 33.2007 114.524 32.9126H111.67C111.671 33.5491 111.842 34.1741 112.165 34.7245C112.454 35.195 112.851 35.5923 113.322 35.8851C113.821 36.1892 114.37 36.4031 114.944 36.5169C115.554 36.6408 116.176 36.7032 116.799 36.703C117.413 36.7036 118.026 36.6445 118.629 36.5267C119.196 36.4201 119.738 36.2092 120.226 35.9047C120.692 35.6147 121.079 35.2163 121.354 34.7441C121.661 34.1987 121.811 33.5806 121.789 32.9566C121.792 32.5194 121.679 32.089 121.463 31.7078V31.7127ZM127.422 21.5071L121.715 36.4532H125.058L126.24 33.128H131.883L133.026 36.4532H136.488L130.845 21.5071H127.422ZM127.106 30.6795L129.084 25.1947H129.123L131.028 30.6795H127.106ZM146.849 27.0997C146.437 26.5649 145.91 26.1282 145.306 25.8214C144.617 25.4813 143.855 25.3132 143.085 25.3317C142.443 25.3243 141.808 25.4599 141.226 25.7284C140.644 26.0093 140.159 26.4539 139.831 27.0066H139.786V25.6207H136.933V40.2338H139.945V35.1065H139.989C140.341 35.6234 140.826 36.0376 141.394 36.3063C141.977 36.5837 142.616 36.7244 143.263 36.7176C143.957 36.7392 144.646 36.5968 145.273 36.3021C145.9 36.0074 146.447 35.569 146.869 35.0232C147.276 34.4893 147.58 33.8848 147.764 33.2407C147.963 32.5612 148.063 31.857 148.061 31.1496C148.063 30.4034 147.964 29.6604 147.764 28.9409C147.586 28.2748 147.283 27.6483 146.869 27.0948L146.849 27.0997ZM144.925 32.3543C144.85 32.7437 144.703 33.1157 144.49 33.4513C144.132 33.9492 143.604 34.3014 143.003 34.4419C142.402 34.5825 141.771 34.5019 141.226 34.2152C140.896 34.0282 140.617 33.7664 140.41 33.4513C140.197 33.115 140.048 32.7433 139.969 32.3543C139.876 31.9345 139.83 31.5059 139.831 31.0762C139.829 30.6406 139.87 30.2059 139.955 29.7784C140.032 29.3853 140.18 29.009 140.39 28.6667C140.592 28.3462 140.868 28.0777 141.196 27.8832C141.576 27.6796 142.001 27.5729 142.432 27.5729C142.864 27.5729 143.289 27.6796 143.669 27.8832C143.998 28.0824 144.278 28.3538 144.485 28.6765C144.701 29.0211 144.853 29.4007 144.935 29.7979C145.028 30.2177 145.074 30.6464 145.073 31.0762C145.066 31.5043 145.016 31.9308 144.925 32.3494V32.3543ZM159.718 28.9263C159.538 28.2567 159.229 27.628 158.808 27.0752C158.398 26.5381 157.871 26.1009 157.264 25.797C156.576 25.4563 155.813 25.2881 155.044 25.3073C154.403 25.2999 153.769 25.4354 153.189 25.7039C152.607 25.9859 152.12 26.4302 151.79 26.9821H151.75V25.5962H148.896V40.2093H151.898V35.082H151.938C152.29 35.6002 152.777 36.0147 153.347 36.2818C153.931 36.5592 154.57 36.7 155.217 36.6932C155.945 36.7082 156.665 36.5504 157.319 36.2328C157.899 35.9337 158.405 35.5124 158.803 34.9987C159.214 34.4662 159.519 33.8614 159.703 33.2162C159.902 32.5368 160.002 31.8326 159.999 31.1251C160.008 30.3899 159.916 29.6569 159.727 28.9458L159.718 28.9263ZM156.884 32.3543C156.811 32.7434 156.665 33.1154 156.453 33.4513C156.247 33.7634 155.971 34.0247 155.647 34.2152C155.106 34.5261 154.466 34.6202 153.857 34.4782C153.248 34.3361 152.717 33.9687 152.373 33.4513C152.161 33.1143 152.01 32.743 151.928 32.3543C151.838 31.9341 151.791 31.5058 151.79 31.0762C151.789 30.6404 151.832 30.2057 151.918 29.7784C151.994 29.3847 152.141 29.008 152.353 28.6667C152.556 28.348 152.83 28.0799 153.155 27.8832C153.53 27.67 153.958 27.5648 154.391 27.5796C154.817 27.5666 155.239 27.6718 155.608 27.8832C155.937 28.0815 156.214 28.3531 156.419 28.6765C156.638 29.0199 156.792 29.3999 156.874 29.7979C156.967 30.2177 157.013 30.6464 157.012 31.0762C157.011 31.5037 156.968 31.9301 156.884 32.3494V32.3543Z" fill="white"/>
<path fill-rule="evenodd" clip-rule="evenodd" d="M51.4176 17.9042C48.511 14.9939 44.6454 13.3904 40.5266 13.3889C32.0394 13.3889 25.1322 20.2954 25.1292 28.7848C25.1277 31.4987 25.8372 34.1476 27.1845 36.482L25 44.4613L33.1623 42.3203C35.4111 43.5473 37.9434 44.1933 40.5199 44.194H40.5266C49.0123 44.194 55.9203 37.2867 55.9232 28.7974C55.9247 24.683 54.3249 20.8152 51.4176 17.9049V17.9042ZM40.5266 41.5938H40.5214C38.2254 41.5931 35.9729 40.9759 34.0076 39.8102L33.5403 39.5326L28.6965 40.8031L29.9892 36.0804L29.6851 35.5961C28.4042 33.5585 27.7272 31.2034 27.7286 28.7856C27.7316 21.7299 33.4724 15.9891 40.5317 15.9891C43.9499 15.9906 47.1629 17.3232 49.5793 19.7425C51.9956 22.1611 53.3252 25.377 53.3238 28.7959C53.3208 35.8523 47.58 41.5931 40.5266 41.5931V41.5938ZM47.5461 32.0096C47.1614 31.8169 45.27 30.8867 44.9171 30.7582C44.5642 30.6298 44.308 30.5655 44.0518 30.9509C43.7956 31.3363 43.0581 32.203 42.8337 32.4592C42.6092 32.7161 42.3848 32.7479 42.0002 32.5552C41.6155 32.3625 40.376 31.9564 38.9061 30.646C37.7625 29.6257 36.9903 28.3662 36.7658 27.9808C36.5414 27.5955 36.7422 27.3873 36.9342 27.1961C37.1069 27.0233 37.3188 26.7465 37.5115 26.522C37.7042 26.2976 37.7677 26.1366 37.8961 25.8805C38.0246 25.6235 37.9603 25.3991 37.8644 25.2064C37.7684 25.0137 36.9991 23.1201 36.678 22.35C36.3657 21.6 36.0482 21.7018 35.8127 21.6893C35.5883 21.6782 35.3321 21.676 35.0752 21.676C34.8183 21.676 34.4019 21.772 34.049 22.1574C33.6961 22.5427 32.7024 23.4737 32.7024 25.3666C32.7024 27.2596 34.0807 29.0897 34.2734 29.3466C34.4661 29.6036 36.9866 33.4891 40.8455 35.1561C41.7632 35.5525 42.48 35.7895 43.0389 35.9667C43.9603 36.2598 44.799 36.2185 45.4619 36.1195C46.2009 36.0088 47.738 35.1886 48.0584 34.2901C48.3788 33.3916 48.3788 32.6209 48.2829 32.4607C48.1869 32.3005 47.93 32.2038 47.5453 32.0111L47.5461 32.0096Z" fill="white"/>
</svg>
