<svg width="185" height="58" viewBox="0 0 185 58" fill="none" xmlns="http://www.w3.org/2000/svg">
<mask id="mask0_1509_740" style="mask-type:luminance" maskUnits="userSpaceOnUse" x="40" y="12" width="33" height="19">
<path d="M40 12H72.7538V30.9142H40V12Z" fill="white"/>
</mask>
<g mask="url(#mask0_1509_740)">
<path fill-rule="evenodd" clip-rule="evenodd" d="M39.994 21.4571V30.9142H43.6587V23.5729L56.374 16.2316L69.0893 23.5729V30.9142H72.754V21.4571L56.374 12L39.994 21.4571Z" fill="white"/>
</g>
<path fill-rule="evenodd" clip-rule="evenodd" d="M65.4229 36.1485L56.3737 41.3827L47.3244 36.1485V30.9143H43.6584V38.2555L56.3737 45.5967L69.089 38.2555V30.9143H65.4229V36.1485Z" fill="white"/>
<path fill-rule="evenodd" clip-rule="evenodd" d="M50.9877 27.7986L56.3737 24.6834L61.7597 27.7986V30.9142H65.4229V25.6799L56.3737 20.4456L47.3243 25.6799V30.9142H50.9877V27.7986Z" fill="white"/>
<path fill-rule="evenodd" clip-rule="evenodd" d="M50.9877 34.0295L56.3737 37.145L61.7597 34.0295V30.9143H50.9877V34.0295Z" fill="white"/>
<path fill-rule="evenodd" clip-rule="evenodd" d="M141.565 33.9757C141.565 35.7704 140.052 37.2829 138.206 37.2829C136.386 37.2829 134.873 35.7704 134.873 33.9757V27.8485C134.873 26.0539 136.386 24.5413 138.181 24.5413C140.052 24.5413 141.565 26.0283 141.565 27.8742V33.9757ZM138.206 21.0803C134.463 21.0803 131.438 24.1056 131.438 27.8485V33.9757C131.438 37.7188 134.463 40.7439 138.206 40.7439C141.949 40.7439 145 37.7188 145 33.9757V27.8485C145 24.1056 141.949 21.0803 138.206 21.0803Z" fill="white"/>
<path fill-rule="evenodd" clip-rule="evenodd" d="M108.529 37.3056H104.196V32.5237H108.483C109.787 32.5237 110.863 33.5991 110.886 34.949C110.886 36.2531 109.81 37.3056 108.529 37.3056ZM104.201 24.5187H107.852C109.133 24.5187 110.208 25.5711 110.208 26.8753C110.186 28.2252 109.11 29.3005 107.806 29.3005H104.201V24.5187ZM111.964 30.6142C111.964 30.6137 111.963 30.6134 111.963 30.6131C112.938 29.627 113.554 28.2941 113.554 26.8295C113.554 23.8552 111.151 21.4529 108.2 21.4529H101.135V30.9113C101.132 30.9117 101.13 30.9121 101.13 30.9121V40.3713H108.877C111.829 40.3713 114.231 37.969 114.231 34.9947C114.231 33.377 113.412 31.7063 111.964 30.6142Z" fill="white"/>
<path fill-rule="evenodd" clip-rule="evenodd" d="M115.514 25.0544L120.71 25.0526V40.3757H124.36V25.0526L129.609 25.0544V21.4573H115.514V25.0544Z" fill="white"/>
<path fill-rule="evenodd" clip-rule="evenodd" d="M94.1788 23.5655L90.7957 28.4261L87.4127 23.5655V21.4573H83.748V24.5558L88.6023 30.94L83.748 37.5125V40.3713H87.4127V38.4196L90.7957 33.6021L94.1788 38.4196V40.3713H97.8435V37.5125L92.9892 30.94L97.8435 24.5558V21.4573H94.1788V23.5655Z" fill="white"/>
</svg>
