<svg width="185" height="58" viewBox="0 0 185 58" fill="none" xmlns="http://www.w3.org/2000/svg">
<path fill-rule="evenodd" clip-rule="evenodd" d="M134.478 28.6077C134.478 23.3701 130.793 20.0802 124.92 20.0802C120.355 20.0802 116.831 22.1068 115.069 25.3704C114.989 25.5546 114.909 25.6336 114.829 25.6336C114.722 25.6336 114.668 25.5283 114.615 25.2914C113.894 22.0805 111.758 20.1592 108.608 20.1592C106.98 20.1592 105.458 20.6856 104.657 21.2646C104.497 21.3699 104.417 21.4225 104.337 21.4225C104.23 21.4225 104.176 21.3435 104.176 21.1856L104.951 13.9478C105.057 12.895 104.523 12.2371 103.536 12.2371H97.7156C96.8613 12.2371 96.2473 12.7898 96.1672 13.6583L93.8179 37.372C93.7111 38.3985 94.2183 38.9512 96.1672 38.9512C98.7568 38.9512 100.546 37.7931 101.16 35.6613C101.213 35.4507 101.266 35.3981 101.373 35.3981C101.453 35.3981 101.533 35.477 101.613 35.6613C102.334 37.5563 104.176 38.8985 106.686 38.8985C109.97 38.8985 112.559 36.6351 113.894 33.3715C113.974 33.1609 114.054 33.0556 114.161 33.0556C114.241 33.0556 114.295 33.1346 114.348 33.2925C115.469 36.8456 118.78 39.0038 123.478 39.0038C129.993 38.9775 134.478 34.7664 134.478 28.6077ZM63.7301 20.6066H69.7904C70.7248 20.6066 71.3121 21.212 71.1786 22.291L70.004 34.5295C69.5768 39.0038 68.3754 41.6358 66.3998 43.4781C64.2908 45.4521 61.2473 46.5048 57.4029 46.5048C55.5341 46.5048 53.5318 46.2153 51.7164 45.6889C50.7019 45.3731 50.1947 44.7151 50.3281 43.5834L50.6485 40.9515C50.7553 40.0829 51.2358 39.6092 52.0368 39.6092C52.2236 39.6092 52.4372 39.6355 53.0513 39.7934C54.1191 40.0566 55.2404 40.2145 56.1748 40.2145C59.2183 40.2145 61.1405 39.0038 61.5677 36.8193L61.6477 36.3982C61.7011 36.135 61.6211 36.0561 61.541 36.0561C61.4609 36.0561 61.3808 36.135 61.3007 36.2929C60.6066 37.6089 58.8178 38.4774 56.5486 38.4774C54.4929 38.4774 52.8377 37.7668 51.7698 36.4508C50.7553 35.1875 50.2747 33.3715 50.6218 29.8973L51.4227 22.0542C51.5028 21.1856 52.1169 20.6329 52.9712 20.6329H58.8178C59.9124 20.6329 60.3129 21.2909 60.2328 22.3437L59.4853 30.2132C59.4052 31.0027 59.8056 31.4502 60.4197 31.4502C60.9536 31.4502 61.4075 30.9764 61.4876 30.2395L62.3419 21.8173C62.422 21.0804 63.0894 20.6066 63.7301 20.6066ZM85.6218 20.6066H91.6821C92.6432 20.6066 93.2038 21.212 93.2038 22.37L91.7088 37.6089C91.602 38.609 90.9346 38.9775 89.573 38.9775C87.7042 38.9775 85.9155 38.2932 85.168 37.0299C84.9277 36.6351 84.8209 36.1087 84.7942 35.6613C84.7942 35.5033 84.7408 35.4244 84.634 35.4244C84.5272 35.4244 84.4738 35.5033 84.3938 35.6349C83.4594 37.6352 81.4037 38.9775 78.5738 38.9775C76.1443 38.9775 74.3289 38.03 73.3144 36.3192C72.5402 35.0559 72.2198 33.3715 72.4601 31.0291L73.3411 22.0542C73.4212 21.1856 74.0352 20.6329 74.8896 20.6329H80.7095C81.7774 20.6329 82.2313 21.2909 82.1245 22.3437L81.377 30.2132C81.2969 31.0027 81.6973 31.4502 82.3114 31.4502C82.9254 31.4502 83.2992 30.9764 83.3793 30.2395L84.2336 21.8173C84.3137 21.0804 84.9277 20.6066 85.6218 20.6066ZM123.985 31.3714C125.027 31.3714 125.774 30.2396 125.774 28.7131C125.774 27.5814 125.24 26.8971 124.413 26.8708C123.398 26.8708 122.65 28.0288 122.65 29.529C122.65 30.6607 123.158 31.3714 123.985 31.3714ZM103.002 29.5238C103.002 27.9973 103.722 26.8919 104.737 26.8919C105.591 26.8919 106.125 27.6025 106.125 28.7606C106.125 30.2871 105.404 31.3925 104.363 31.3925C103.536 31.3925 103.002 30.6556 103.002 29.5238Z" fill="white"/>
<path d="M125.774 28.713C125.774 30.2396 125.027 31.3713 123.986 31.3713C123.158 31.3713 122.651 30.6607 122.651 29.5289C122.651 28.0287 123.398 26.8707 124.413 26.8707C125.24 26.897 125.774 27.5813 125.774 28.713ZM104.737 26.897C103.722 26.897 103.002 28.0024 103.002 29.5289C103.002 30.6607 103.535 31.3976 104.363 31.3976C105.404 31.3976 106.125 30.2922 106.125 28.7657C106.125 27.6076 105.591 26.897 104.737 26.897ZM136.8 28.6078C136.8 35.9772 131.274 41.1621 123.425 41.1621C119.447 41.1621 116.163 39.8198 114.054 37.4511C112.159 39.7408 109.516 41.0568 106.606 41.0568C104.63 41.0568 102.815 40.4251 101.453 39.2934C100.145 40.4515 98.3028 41.0831 96.1137 41.0831C94.672 41.0831 93.4706 40.7673 92.643 40.162C91.8421 40.7936 90.7475 41.0831 89.4394 41.0831C87.3837 41.0831 85.4348 40.4515 84.0999 39.3197C82.6049 40.4515 80.656 41.0831 78.4668 41.0831C75.5835 41.0831 73.2609 40.0304 71.7925 38.1617C71.0984 41.1094 69.897 43.294 68.0282 45.031C65.492 47.3998 61.8078 48.6631 57.4294 48.6631C55.3738 48.6631 53.0511 48.3209 51.0755 47.7419C48.913 47.1103 47.7917 45.4521 48.032 43.294L48.3524 40.662C48.5126 39.4513 49.1533 38.4775 50.0877 37.9248C50.061 37.8722 50.0076 37.8195 49.9542 37.7669C48.3791 35.8193 47.8985 33.3979 48.299 29.6079L49.0999 21.7647C49.3135 19.6855 50.8619 18.3695 52.9977 18.3695H58.8177C59.8322 18.3695 60.7132 18.6854 61.3539 19.2118C62.0214 18.6854 62.849 18.3695 63.7567 18.3695H69.8169C70.8047 18.3695 71.6857 18.6854 72.3532 19.2381C73.0206 18.6854 73.9016 18.3695 74.8894 18.3695H80.7094C81.7239 18.3695 82.6049 18.6854 83.2456 19.1854C83.9131 18.6591 84.7407 18.3695 85.6484 18.3695H91.7086C92.296 18.3695 92.8299 18.4748 93.3105 18.6854L93.8177 13.4215C94.0313 11.3423 95.553 10 97.7155 10H103.535C106.072 10 107.567 11.6318 107.3 14.1585L106.873 18.1064C107.46 18.0274 108.047 17.9484 108.608 17.9484C111.518 17.9484 113.867 19.1591 115.389 21.2647C117.765 19.0802 121.129 17.8432 124.947 17.8432C132.048 17.8695 136.8 22.1332 136.8 28.6078ZM69.7902 20.6067H63.73C63.0892 20.6067 62.4218 21.0804 62.3417 21.8174L61.4874 30.2396C61.4073 30.9765 60.9535 31.4503 60.4195 31.4503C59.8055 31.4503 59.405 31.0028 59.4851 30.2132L60.2326 22.3438C60.3127 21.291 59.9123 20.633 58.8177 20.633H52.971C52.1167 20.633 51.5027 21.1857 51.4226 22.0543L50.6217 29.8974C50.2746 33.3716 50.7551 35.1876 51.7696 36.4509C52.8375 37.7669 54.4927 38.4775 56.5484 38.4775C58.8177 38.4775 60.6064 37.609 61.3005 36.293C61.3806 36.1351 61.4607 36.0561 61.5408 36.0561C61.6209 36.0561 61.701 36.1351 61.6476 36.3983L61.5675 36.8194C61.1403 39.0039 59.2181 40.2146 56.1747 40.2146C55.2403 40.2146 54.119 40.0567 53.0511 39.7935C52.4371 39.6356 52.2235 39.6092 52.0366 39.6092C51.2357 39.6092 50.7551 40.083 50.6483 40.9515L50.328 43.5835C50.1945 44.7152 50.7017 45.3732 51.7162 45.689C53.5316 46.2154 55.5339 46.5049 57.4027 46.5049C61.2471 46.5049 64.2906 45.4521 66.3997 43.4782C68.3753 41.6358 69.5767 39.0039 70.0038 34.5296L71.1785 22.2911C71.312 21.212 70.7246 20.6067 69.7902 20.6067ZM91.6819 20.6067H85.6217C84.9275 20.6067 84.3135 21.0804 84.2334 21.8174L83.3791 30.2396C83.299 30.9765 82.9253 31.4503 82.3112 31.4503C81.6972 31.4503 81.2967 31.0028 81.3768 30.2132L82.1243 22.3438C82.2311 21.291 81.7773 20.633 80.7094 20.633H74.8894C74.0351 20.633 73.4211 21.1857 73.341 22.0543L72.46 31.0291C72.2197 33.3716 72.54 35.056 73.3143 36.3193C74.3288 38.0301 76.1442 38.9776 78.5736 38.9776C81.4035 38.9776 83.4592 37.6353 84.3936 35.635C84.4737 35.5034 84.5271 35.4245 84.6339 35.4245C84.7407 35.4245 84.7941 35.5034 84.7941 35.6613C84.8208 36.1088 84.9275 36.6352 85.1678 37.03C85.9153 38.2933 87.7041 38.9776 89.5729 38.9776C90.9344 38.9776 91.6018 38.6091 91.7086 37.609L93.2037 22.3701C93.2037 21.212 92.643 20.6067 91.6819 20.6067ZM134.478 28.6078C134.478 23.3702 130.793 20.0803 124.92 20.0803C120.355 20.0803 116.831 22.1069 115.069 25.3705C114.989 25.5547 114.908 25.6337 114.828 25.6337C114.722 25.6337 114.668 25.5284 114.615 25.2915C113.894 22.0806 111.758 20.1593 108.608 20.1593C106.979 20.1593 105.458 20.6856 104.657 21.2647C104.497 21.37 104.416 21.4226 104.336 21.4226C104.23 21.4226 104.176 21.3436 104.176 21.1857L104.95 13.9479C105.057 12.8951 104.523 12.2371 103.535 12.2371H97.7155C96.8612 12.2371 96.2472 12.7898 96.1671 13.6584L93.8177 37.3721C93.7109 38.3986 94.2182 38.9513 96.1671 38.9513C98.7567 38.9513 100.545 37.7932 101.159 35.6613C101.213 35.4508 101.266 35.3982 101.373 35.3982C101.453 35.3982 101.533 35.4771 101.613 35.6613C102.334 37.5563 104.176 38.8986 106.686 38.8986C109.97 38.8986 112.559 36.6352 113.894 33.3716C113.974 33.161 114.054 33.0557 114.161 33.0557C114.241 33.0557 114.294 33.1347 114.348 33.2926C115.469 36.8457 118.78 39.0039 123.478 39.0039C129.992 38.9776 134.478 34.7665 134.478 28.6078Z" fill="#151400"/>
</svg>
