<svg width="185" height="58" viewBox="0 0 185 58" fill="none" xmlns="http://www.w3.org/2000/svg">
<path d="M158 38.574V34.0053H148.661V31.5396H156.172V27.261H148.661V25.0129H158V20.4441H143.295V38.574H158ZM141.712 31.0955V20.4441H136.35V30.8145C136.35 32.9536 135.083 34.2953 133.02 34.2953C130.884 34.2953 129.626 32.9536 129.626 30.8145V20.4441H124.265V31.0955C124.265 35.9543 127.559 39 133.024 39C138.418 39 141.712 35.9543 141.712 31.0955ZM117.677 26.3817L121.523 23.0458C120.147 21.4595 117.396 20 113.56 20C107.551 20 103.859 23.9161 103.859 29.5C103.859 35.0839 107.551 38.9275 113.053 38.9275C116.817 38.9275 118.555 36.8879 119.496 35.0748H119.722L118.564 38.5559H122.835V29.4365H117.532V32.6998C116.953 33.3798 115.867 34.2228 113.913 34.2228C111.125 34.2228 109.352 32.3373 109.352 29.5091C109.352 26.6809 111.053 24.7228 113.695 24.7228C115.731 24.7228 117.025 25.593 117.677 26.3908V26.3817ZM92.9005 31.4037L94.6921 26.001L96.4838 31.4037H92.9005ZM90.5295 38.583L91.4887 35.6823H97.891L98.8502 38.583H104.714L98.0539 20.4532H91.3304L84.6702 38.583H90.5295ZM83.5164 38.583V34.0053H74.1709V31.5396H81.6817V27.261H74.1709V25.0129H83.5096V20.4441H68.8048V38.574L83.5164 38.583ZM58.405 20.4532V33.9418H67.3817V38.583H53.0321V20.4532H58.405ZM27.2035 20.4351H45.5282V25.9104L39.3022 31.3855H39.1575L40.4288 25.3573H32.6173L27.2035 20.4351ZM38.895 33.6518L44.3245 38.583H26V33.0988L32.2258 27.6235H32.3705L31.0674 33.6427L38.895 33.6518Z" fill="white"/>
</svg>
