<svg width="185" height="58" viewBox="0 0 185 58" fill="none" xmlns="http://www.w3.org/2000/svg">
<path d="M86.4767 19.2615C87.8313 17.8023 87.608 15.3614 85.9779 13.8097C84.3478 12.2579 81.9282 12.183 80.5736 13.6422C79.2189 15.1014 79.4422 17.5423 81.0723 19.0941C82.7024 20.6458 85.1221 20.7208 86.4767 19.2615Z" fill="white"/>
<path d="M52.0788 37.9527L52.8065 43.9637H78.3326L77.496 37.0766H65.5953L65.4922 36.2237L76.4532 28.472L75.7198 22.4435H50.1995L51.036 29.3307H62.9539L63.057 30.1894L52.0788 37.9527Z" fill="white"/>
<path d="M78.6077 22.4435L81.2376 43.9637H106.947L104.317 22.4435H78.6077Z" fill="white"/>
<path d="M133.642 30.1952C133.069 25.3562 129.299 22.4261 124.199 22.4435H107.211L109.818 43.9695H117.461L116.94 39.6643H125.013C131.39 39.6643 134.307 35.6492 133.642 30.1952ZM124.199 33.6301H116.206L115.582 28.4662H123.603C125.494 28.4662 126.468 29.5686 126.617 31.0423C126.732 32.0055 126.296 33.6301 124.199 33.6301Z" fill="white"/>
</svg>
