<svg width="185" height="58" viewBox="0 0 185 58" fill="none" xmlns="http://www.w3.org/2000/svg">
<path d="M139.087 37.1586C139.705 37.1586 140.05 36.8167 140.05 36.3373C140.05 35.9954 139.843 35.686 139.259 35.241L136.446 33.1877C136.138 32.9471 135.965 32.9127 135.793 32.9127C135.621 32.9127 135.45 32.9451 135.14 33.1877L132.325 35.241C131.741 35.686 131.536 35.9954 131.536 36.3373C131.536 36.8167 131.879 37.1586 132.497 37.1586H139.087ZM142.108 30.9606C143.137 30.9606 143.859 30.3093 143.859 29.3524C143.859 28.8042 143.619 28.3248 142.932 27.811L141.354 26.6822C140.77 26.2716 141.011 25.4159 141.869 25.4159H144.889C146.706 25.4159 147.702 24.4571 147.702 22.9845C147.702 22.23 147.359 21.5462 146.26 20.723L137.233 14.0475C136.789 13.7037 136.306 13.5681 135.793 13.5681C135.278 13.5681 134.797 13.7037 134.351 14.0475L125.324 20.723C124.225 21.5443 123.882 22.23 123.882 22.9845C123.882 24.4571 124.878 25.4159 126.697 25.4159H129.717C130.577 25.4159 130.816 26.2716 130.232 26.6822L128.652 27.811C127.965 28.3248 127.725 28.8042 127.725 29.3524C127.725 30.3112 128.447 30.9606 129.477 30.9606H142.108ZM111.385 33.117C108.983 33.117 107.059 31.2013 107.059 28.7699C107.059 26.3384 108.982 24.4208 111.385 24.4208C113.788 24.4208 115.711 26.3365 115.711 28.7699C115.713 31.2013 113.788 33.117 111.385 33.117ZM119.213 37.1586C119.625 37.1586 119.797 36.9867 119.797 36.5761V28.7699C119.797 24.0789 116.226 20.3792 111.385 20.3792C106.546 20.3792 102.769 24.077 102.769 28.7699C102.769 31.0982 103.694 33.2202 105.207 34.7272C106.718 36.2323 108.847 37.1586 111.867 37.1586H119.213ZM92.6086 33.117C90.1708 33.117 88.2482 31.2013 88.2482 28.7699C88.2482 26.3384 90.1708 24.4208 92.6086 24.4208C95.0463 24.4208 96.9689 26.3365 96.9689 28.7699C96.9689 31.2013 95.0463 33.117 92.6086 33.117ZM93.0892 20.3811C90.0349 20.3811 87.9073 21.3056 86.3964 22.8126C84.8874 24.3176 83.9587 26.4416 83.9587 28.7699C83.9587 31.0982 84.8855 33.2202 86.3964 34.7272C87.9073 36.2323 90.0368 37.1586 93.0892 37.1586H100.194C100.605 37.1586 100.778 36.9867 100.778 36.5761V15.2795C100.778 14.8688 100.605 14.6969 100.194 14.6969H97.2773C96.8655 14.6969 96.6932 14.8688 96.6932 15.2795V19.8005C96.6932 20.2111 96.5208 20.3811 96.1091 20.3811H93.0892ZM67.6891 20.3811C67.2774 20.3811 67.1051 20.553 67.1051 20.9637V36.5761C67.1051 36.9867 67.2774 37.1586 67.6891 37.1586H70.6056C71.0173 37.1586 71.1897 36.9867 71.1897 36.5761V27.9142C71.1897 25.7922 72.5627 24.4227 74.6577 24.4227C76.7507 24.4227 78.1238 25.7922 78.1238 27.9142V36.5761C78.1238 36.9867 78.2961 37.1586 78.7078 37.1586H81.6243C82.0361 37.1586 82.2084 36.9867 82.2084 36.5761V27.1597C82.2084 23.0857 79.3953 20.3811 74.966 20.3811H67.6891ZM56.2913 33.2202C53.821 33.2202 51.8639 31.2682 51.8639 28.7699C51.8639 26.2697 53.821 24.3176 56.2913 24.3176C58.7635 24.3176 60.7206 26.2697 60.7206 28.7699C60.7206 31.2701 58.7635 33.2202 56.2913 33.2202ZM56.2913 37.4318C61.1993 37.4318 65.0446 33.6327 65.0446 28.7718C65.0446 23.9089 61.1993 20.1099 56.2913 20.1099C51.3832 20.1099 47.538 23.907 47.538 28.7699C47.538 33.6308 51.3832 37.4318 56.2913 37.4318ZM32.1953 36.1654C31.7836 36.7804 32.0919 37.1586 32.5036 37.1586H46.7165C47.1263 37.1586 47.2986 36.9867 47.2986 36.5761V33.734C47.2986 33.3233 47.1263 33.1514 46.7165 33.1514H39.8149C39.4358 33.1514 39.2998 32.8439 39.5392 32.5001L47.0918 21.3724C47.5035 20.7574 47.1952 20.3792 46.7835 20.3792H32.8828C32.471 20.3792 32.2987 20.5511 32.2987 20.9618V23.7695C32.2987 24.1801 32.471 24.352 32.8828 24.352H39.5085C39.8858 24.352 40.0217 24.6595 39.7824 25.0033L32.1953 36.1654Z" fill="white"/>
</svg>
